<?xml version="1.0" encoding="utf-8" standalone="no"?>
<!DOCTYPE svg PUBLIC "-//W3C//DTD SVG 1.1//EN"
  "http://www.w3.org/Graphics/SVG/1.1/DTD/svg11.dtd">
<!-- Created with matplotlib (http://matplotlib.org/) -->
<svg height="360pt" version="1.1" viewBox="0 0 720 360" width="720pt" xmlns="http://www.w3.org/2000/svg" xmlns:xlink="http://www.w3.org/1999/xlink">
 <defs>
  <style type="text/css">
*{stroke-linecap:butt;stroke-linejoin:round;}
  </style>
 </defs>
 <g id="figure_1">
  <g id="patch_1">
   <path d="M 0 360 
L 720 360 
L 720 0 
L 0 0 
z
" style="fill:#ffffff;"/>
  </g>
  <g id="axes_1">
   <g id="patch_2">
    <path d="M 90 315 
L 648 315 
L 648 43.2 
L 90 43.2 
z
" style="fill:#ffffff;"/>
   </g>
   <g id="matplotlib.axis_1">
    <g id="xtick_1">
     <g id="line2d_1">
      <path clip-path="url(#p9c2167092e)" d="M 145.8 315 
L 145.8 43.2 
" style="fill:none;stroke:#b0b0b0;stroke-linecap:square;stroke-width:0.8;"/>
     </g>
     <g id="line2d_2">
      <defs>
       <path d="M 0 0 
L 0 3.5 
" id="m858c636bbd" style="stroke:#000000;stroke-width:0.8;"/>
      </defs>
      <g>
       <use style="stroke:#000000;stroke-width:0.8;" x="145.8" xlink:href="#m858c636bbd" y="315"/>
      </g>
     </g>
     <g id="text_1">
      <!-- ZM -->
      <defs>
       <path d="M 5.609375 72.90625 
L 62.890625 72.90625 
L 62.890625 65.375 
L 16.796875 8.296875 
L 64.015625 8.296875 
L 64.015625 0 
L 4.5 0 
L 4.5 7.515625 
L 50.59375 64.59375 
L 5.609375 64.59375 
z
" id="DejaVuSans-5a"/>
       <path d="M 9.8125 72.90625 
L 24.515625 72.90625 
L 43.109375 23.296875 
L 61.8125 72.90625 
L 76.515625 72.90625 
L 76.515625 0 
L 66.890625 0 
L 66.890625 64.015625 
L 48.09375 14.015625 
L 38.1875 14.015625 
L 19.390625 64.015625 
L 19.390625 0 
L 9.8125 0 
z
" id="DejaVuSans-4d"/>
      </defs>
      <g transform="translate(138.060938 329.598437)scale(0.1 -0.1)">
       <use xlink:href="#DejaVuSans-5a"/>
       <use x="68.505859" xlink:href="#DejaVuSans-4d"/>
      </g>
     </g>
    </g>
    <g id="xtick_2">
     <g id="line2d_3">
      <path clip-path="url(#p9c2167092e)" d="M 257.4 315 
L 257.4 43.2 
" style="fill:none;stroke:#b0b0b0;stroke-linecap:square;stroke-width:0.8;"/>
     </g>
     <g id="line2d_4">
      <g>
       <use style="stroke:#000000;stroke-width:0.8;" x="257.4" xlink:href="#m858c636bbd" y="315"/>
      </g>
     </g>
     <g id="text_2">
      <!-- KE -->
      <defs>
       <path d="M 9.8125 72.90625 
L 19.671875 72.90625 
L 19.671875 42.09375 
L 52.390625 72.90625 
L 65.09375 72.90625 
L 28.90625 38.921875 
L 67.671875 0 
L 54.6875 0 
L 19.671875 35.109375 
L 19.671875 0 
L 9.8125 0 
z
" id="DejaVuSans-4b"/>
       <path d="M 9.8125 72.90625 
L 55.90625 72.90625 
L 55.90625 64.59375 
L 19.671875 64.59375 
L 19.671875 43.015625 
L 54.390625 43.015625 
L 54.390625 34.71875 
L 19.671875 34.71875 
L 19.671875 8.296875 
L 56.78125 8.296875 
L 56.78125 0 
L 9.8125 0 
z
" id="DejaVuSans-45"/>
      </defs>
      <g transform="translate(250.961719 329.598437)scale(0.1 -0.1)">
       <use xlink:href="#DejaVuSans-4b"/>
       <use x="65.576172" xlink:href="#DejaVuSans-45"/>
      </g>
     </g>
    </g>
    <g id="xtick_3">
     <g id="line2d_5">
      <path clip-path="url(#p9c2167092e)" d="M 369 315 
L 369 43.2 
" style="fill:none;stroke:#b0b0b0;stroke-linecap:square;stroke-width:0.8;"/>
     </g>
     <g id="line2d_6">
      <g>
       <use style="stroke:#000000;stroke-width:0.8;" x="369" xlink:href="#m858c636bbd" y="315"/>
      </g>
     </g>
     <g id="text_3">
      <!-- ZA -->
      <defs>
       <path d="M 34.1875 63.1875 
L 20.796875 26.90625 
L 47.609375 26.90625 
z
M 28.609375 72.90625 
L 39.796875 72.90625 
L 67.578125 0 
L 57.328125 0 
L 50.6875 18.703125 
L 17.828125 18.703125 
L 11.1875 0 
L 0.78125 0 
z
" id="DejaVuSans-41"/>
      </defs>
      <g transform="translate(362.154688 329.598437)scale(0.1 -0.1)">
       <use xlink:href="#DejaVuSans-5a"/>
       <use x="68.505859" xlink:href="#DejaVuSans-41"/>
      </g>
     </g>
    </g>
    <g id="xtick_4">
     <g id="line2d_7">
      <path clip-path="url(#p9c2167092e)" d="M 480.6 315 
L 480.6 43.2 
" style="fill:none;stroke:#b0b0b0;stroke-linecap:square;stroke-width:0.8;"/>
     </g>
     <g id="line2d_8">
      <g>
       <use style="stroke:#000000;stroke-width:0.8;" x="480.6" xlink:href="#m858c636bbd" y="315"/>
      </g>
     </g>
     <g id="text_4">
      <!-- NG -->
      <defs>
       <path d="M 9.8125 72.90625 
L 23.09375 72.90625 
L 55.421875 11.921875 
L 55.421875 72.90625 
L 64.984375 72.90625 
L 64.984375 0 
L 51.703125 0 
L 19.390625 60.984375 
L 19.390625 0 
L 9.8125 0 
z
" id="DejaVuSans-4e"/>
       <path d="M 59.515625 10.40625 
L 59.515625 29.984375 
L 43.40625 29.984375 
L 43.40625 38.09375 
L 69.28125 38.09375 
L 69.28125 6.78125 
Q 63.578125 2.734375 56.6875 0.65625 
Q 49.8125 -1.421875 42 -1.421875 
Q 24.90625 -1.421875 15.25 8.5625 
Q 5.609375 18.5625 5.609375 36.375 
Q 5.609375 54.25 15.25 64.234375 
Q 24.90625 74.21875 42 74.21875 
Q 49.125 74.21875 55.546875 72.453125 
Q 61.96875 70.703125 67.390625 67.28125 
L 67.390625 56.78125 
Q 61.921875 61.421875 55.765625 63.765625 
Q 49.609375 66.109375 42.828125 66.109375 
Q 29.4375 66.109375 22.71875 58.640625 
Q 16.015625 51.171875 16.015625 36.375 
Q 16.015625 21.625 22.71875 14.15625 
Q 29.4375 6.6875 42.828125 6.6875 
Q 48.046875 6.6875 52.140625 7.59375 
Q 56.25 8.5 59.515625 10.40625 
z
" id="DejaVuSans-47"/>
      </defs>
      <g transform="translate(472.985156 329.598437)scale(0.1 -0.1)">
       <use xlink:href="#DejaVuSans-4e"/>
       <use x="74.804688" xlink:href="#DejaVuSans-47"/>
      </g>
     </g>
    </g>
    <g id="xtick_5">
     <g id="line2d_9">
      <path clip-path="url(#p9c2167092e)" d="M 592.2 315 
L 592.2 43.2 
" style="fill:none;stroke:#b0b0b0;stroke-linecap:square;stroke-width:0.8;"/>
     </g>
     <g id="line2d_10">
      <g>
       <use style="stroke:#000000;stroke-width:0.8;" x="592.2" xlink:href="#m858c636bbd" y="315"/>
      </g>
     </g>
     <g id="text_5">
      <!-- GH -->
      <defs>
       <path d="M 9.8125 72.90625 
L 19.671875 72.90625 
L 19.671875 43.015625 
L 55.515625 43.015625 
L 55.515625 72.90625 
L 65.375 72.90625 
L 65.375 0 
L 55.515625 0 
L 55.515625 34.71875 
L 19.671875 34.71875 
L 19.671875 0 
L 9.8125 0 
z
" id="DejaVuSans-48"/>
      </defs>
      <g transform="translate(584.565625 329.598437)scale(0.1 -0.1)">
       <use xlink:href="#DejaVuSans-47"/>
       <use x="77.490234" xlink:href="#DejaVuSans-48"/>
      </g>
     </g>
    </g>
   </g>
   <g id="matplotlib.axis_2">
    <g id="ytick_1">
     <g id="line2d_11">
      <path clip-path="url(#p9c2167092e)" d="M 90 315 
L 648 315 
" style="fill:none;stroke:#b0b0b0;stroke-linecap:square;stroke-width:0.8;"/>
     </g>
     <g id="line2d_12">
      <defs>
       <path d="M 0 0 
L -3.5 0 
" id="m2245ab1842" style="stroke:#000000;stroke-width:0.8;"/>
      </defs>
      <g>
       <use style="stroke:#000000;stroke-width:0.8;" x="90" xlink:href="#m2245ab1842" y="315"/>
      </g>
     </g>
     <g id="text_6">
      <!-- 0 -->
      <defs>
       <path d="M 31.78125 66.40625 
Q 24.171875 66.40625 20.328125 58.90625 
Q 16.5 51.421875 16.5 36.375 
Q 16.5 21.390625 20.328125 13.890625 
Q 24.171875 6.390625 31.78125 6.390625 
Q 39.453125 6.390625 43.28125 13.890625 
Q 47.125 21.390625 47.125 36.375 
Q 47.125 51.421875 43.28125 58.90625 
Q 39.453125 66.40625 31.78125 66.40625 
z
M 31.78125 74.21875 
Q 44.046875 74.21875 50.515625 64.515625 
Q 56.984375 54.828125 56.984375 36.375 
Q 56.984375 17.96875 50.515625 8.265625 
Q 44.046875 -1.421875 31.78125 -1.421875 
Q 19.53125 -1.421875 13.0625 8.265625 
Q 6.59375 17.96875 6.59375 36.375 
Q 6.59375 54.828125 13.0625 64.515625 
Q 19.53125 74.21875 31.78125 74.21875 
z
" id="DejaVuSans-30"/>
      </defs>
      <g transform="translate(76.6375 318.799219)scale(0.1 -0.1)">
       <use xlink:href="#DejaVuSans-30"/>
      </g>
     </g>
    </g>
    <g id="ytick_2">
     <g id="line2d_13">
      <path clip-path="url(#p9c2167092e)" d="M 90 281.025 
L 648 281.025 
" style="fill:none;stroke:#b0b0b0;stroke-linecap:square;stroke-width:0.8;"/>
     </g>
     <g id="line2d_14">
      <g>
       <use style="stroke:#000000;stroke-width:0.8;" x="90" xlink:href="#m2245ab1842" y="281.025"/>
      </g>
     </g>
     <g id="text_7">
      <!-- 50 -->
      <defs>
       <path d="M 10.796875 72.90625 
L 49.515625 72.90625 
L 49.515625 64.59375 
L 19.828125 64.59375 
L 19.828125 46.734375 
Q 21.96875 47.46875 24.109375 47.828125 
Q 26.265625 48.1875 28.421875 48.1875 
Q 40.625 48.1875 47.75 41.5 
Q 54.890625 34.8125 54.890625 23.390625 
Q 54.890625 11.625 47.5625 5.09375 
Q 40.234375 -1.421875 26.90625 -1.421875 
Q 22.3125 -1.421875 17.546875 -0.640625 
Q 12.796875 0.140625 7.71875 1.703125 
L 7.71875 11.625 
Q 12.109375 9.234375 16.796875 8.0625 
Q 21.484375 6.890625 26.703125 6.890625 
Q 35.15625 6.890625 40.078125 11.328125 
Q 45.015625 15.765625 45.015625 23.390625 
Q 45.015625 31 40.078125 35.4375 
Q 35.15625 39.890625 26.703125 39.890625 
Q 22.75 39.890625 18.8125 39.015625 
Q 14.890625 38.140625 10.796875 36.28125 
z
" id="DejaVuSans-35"/>
      </defs>
      <g transform="translate(70.275 284.824219)scale(0.1 -0.1)">
       <use xlink:href="#DejaVuSans-35"/>
       <use x="63.623047" xlink:href="#DejaVuSans-30"/>
      </g>
     </g>
    </g>
    <g id="ytick_3">
     <g id="line2d_15">
      <path clip-path="url(#p9c2167092e)" d="M 90 247.05 
L 648 247.05 
" style="fill:none;stroke:#b0b0b0;stroke-linecap:square;stroke-width:0.8;"/>
     </g>
     <g id="line2d_16">
      <g>
       <use style="stroke:#000000;stroke-width:0.8;" x="90" xlink:href="#m2245ab1842" y="247.05"/>
      </g>
     </g>
     <g id="text_8">
      <!-- 100 -->
      <defs>
       <path d="M 12.40625 8.296875 
L 28.515625 8.296875 
L 28.515625 63.921875 
L 10.984375 60.40625 
L 10.984375 69.390625 
L 28.421875 72.90625 
L 38.28125 72.90625 
L 38.28125 8.296875 
L 54.390625 8.296875 
L 54.390625 0 
L 12.40625 0 
z
" id="DejaVuSans-31"/>
      </defs>
      <g transform="translate(63.9125 250.849219)scale(0.1 -0.1)">
       <use xlink:href="#DejaVuSans-31"/>
       <use x="63.623047" xlink:href="#DejaVuSans-30"/>
       <use x="127.246094" xlink:href="#DejaVuSans-30"/>
      </g>
     </g>
    </g>
    <g id="ytick_4">
     <g id="line2d_17">
      <path clip-path="url(#p9c2167092e)" d="M 90 213.075 
L 648 213.075 
" style="fill:none;stroke:#b0b0b0;stroke-linecap:square;stroke-width:0.8;"/>
     </g>
     <g id="line2d_18">
      <g>
       <use style="stroke:#000000;stroke-width:0.8;" x="90" xlink:href="#m2245ab1842" y="213.075"/>
      </g>
     </g>
     <g id="text_9">
      <!-- 150 -->
      <g transform="translate(63.9125 216.874219)scale(0.1 -0.1)">
       <use xlink:href="#DejaVuSans-31"/>
       <use x="63.623047" xlink:href="#DejaVuSans-35"/>
       <use x="127.246094" xlink:href="#DejaVuSans-30"/>
      </g>
     </g>
    </g>
    <g id="ytick_5">
     <g id="line2d_19">
      <path clip-path="url(#p9c2167092e)" d="M 90 179.1 
L 648 179.1 
" style="fill:none;stroke:#b0b0b0;stroke-linecap:square;stroke-width:0.8;"/>
     </g>
     <g id="line2d_20">
      <g>
       <use style="stroke:#000000;stroke-width:0.8;" x="90" xlink:href="#m2245ab1842" y="179.1"/>
      </g>
     </g>
     <g id="text_10">
      <!-- 200 -->
      <defs>
       <path d="M 19.1875 8.296875 
L 53.609375 8.296875 
L 53.609375 0 
L 7.328125 0 
L 7.328125 8.296875 
Q 12.9375 14.109375 22.625 23.890625 
Q 32.328125 33.6875 34.8125 36.53125 
Q 39.546875 41.84375 41.421875 45.53125 
Q 43.3125 49.21875 43.3125 52.78125 
Q 43.3125 58.59375 39.234375 62.25 
Q 35.15625 65.921875 28.609375 65.921875 
Q 23.96875 65.921875 18.8125 64.3125 
Q 13.671875 62.703125 7.8125 59.421875 
L 7.8125 69.390625 
Q 13.765625 71.78125 18.9375 73 
Q 24.125 74.21875 28.421875 74.21875 
Q 39.75 74.21875 46.484375 68.546875 
Q 53.21875 62.890625 53.21875 53.421875 
Q 53.21875 48.921875 51.53125 44.890625 
Q 49.859375 40.875 45.40625 35.40625 
Q 44.1875 33.984375 37.640625 27.21875 
Q 31.109375 20.453125 19.1875 8.296875 
z
" id="DejaVuSans-32"/>
      </defs>
      <g transform="translate(63.9125 182.899219)scale(0.1 -0.1)">
       <use xlink:href="#DejaVuSans-32"/>
       <use x="63.623047" xlink:href="#DejaVuSans-30"/>
       <use x="127.246094" xlink:href="#DejaVuSans-30"/>
      </g>
     </g>
    </g>
    <g id="ytick_6">
     <g id="line2d_21">
      <path clip-path="url(#p9c2167092e)" d="M 90 145.125 
L 648 145.125 
" style="fill:none;stroke:#b0b0b0;stroke-linecap:square;stroke-width:0.8;"/>
     </g>
     <g id="line2d_22">
      <g>
       <use style="stroke:#000000;stroke-width:0.8;" x="90" xlink:href="#m2245ab1842" y="145.125"/>
      </g>
     </g>
     <g id="text_11">
      <!-- 250 -->
      <g transform="translate(63.9125 148.924219)scale(0.1 -0.1)">
       <use xlink:href="#DejaVuSans-32"/>
       <use x="63.623047" xlink:href="#DejaVuSans-35"/>
       <use x="127.246094" xlink:href="#DejaVuSans-30"/>
      </g>
     </g>
    </g>
    <g id="ytick_7">
     <g id="line2d_23">
      <path clip-path="url(#p9c2167092e)" d="M 90 111.15 
L 648 111.15 
" style="fill:none;stroke:#b0b0b0;stroke-linecap:square;stroke-width:0.8;"/>
     </g>
     <g id="line2d_24">
      <g>
       <use style="stroke:#000000;stroke-width:0.8;" x="90" xlink:href="#m2245ab1842" y="111.15"/>
      </g>
     </g>
     <g id="text_12">
      <!-- 300 -->
      <defs>
       <path d="M 40.578125 39.3125 
Q 47.65625 37.796875 51.625 33 
Q 55.609375 28.21875 55.609375 21.1875 
Q 55.609375 10.40625 48.1875 4.484375 
Q 40.765625 -1.421875 27.09375 -1.421875 
Q 22.515625 -1.421875 17.65625 -0.515625 
Q 12.796875 0.390625 7.625 2.203125 
L 7.625 11.71875 
Q 11.71875 9.328125 16.59375 8.109375 
Q 21.484375 6.890625 26.8125 6.890625 
Q 36.078125 6.890625 40.9375 10.546875 
Q 45.796875 14.203125 45.796875 21.1875 
Q 45.796875 27.640625 41.28125 31.265625 
Q 36.765625 34.90625 28.71875 34.90625 
L 20.21875 34.90625 
L 20.21875 43.015625 
L 29.109375 43.015625 
Q 36.375 43.015625 40.234375 45.921875 
Q 44.09375 48.828125 44.09375 54.296875 
Q 44.09375 59.90625 40.109375 62.90625 
Q 36.140625 65.921875 28.71875 65.921875 
Q 24.65625 65.921875 20.015625 65.03125 
Q 15.375 64.15625 9.8125 62.3125 
L 9.8125 71.09375 
Q 15.4375 72.65625 20.34375 73.4375 
Q 25.25 74.21875 29.59375 74.21875 
Q 40.828125 74.21875 47.359375 69.109375 
Q 53.90625 64.015625 53.90625 55.328125 
Q 53.90625 49.265625 50.4375 45.09375 
Q 46.96875 40.921875 40.578125 39.3125 
z
" id="DejaVuSans-33"/>
      </defs>
      <g transform="translate(63.9125 114.949219)scale(0.1 -0.1)">
       <use xlink:href="#DejaVuSans-33"/>
       <use x="63.623047" xlink:href="#DejaVuSans-30"/>
       <use x="127.246094" xlink:href="#DejaVuSans-30"/>
      </g>
     </g>
    </g>
    <g id="ytick_8">
     <g id="line2d_25">
      <path clip-path="url(#p9c2167092e)" d="M 90 77.175 
L 648 77.175 
" style="fill:none;stroke:#b0b0b0;stroke-linecap:square;stroke-width:0.8;"/>
     </g>
     <g id="line2d_26">
      <g>
       <use style="stroke:#000000;stroke-width:0.8;" x="90" xlink:href="#m2245ab1842" y="77.175"/>
      </g>
     </g>
     <g id="text_13">
      <!-- 350 -->
      <g transform="translate(63.9125 80.974219)scale(0.1 -0.1)">
       <use xlink:href="#DejaVuSans-33"/>
       <use x="63.623047" xlink:href="#DejaVuSans-35"/>
       <use x="127.246094" xlink:href="#DejaVuSans-30"/>
      </g>
     </g>
    </g>
    <g id="ytick_9">
     <g id="line2d_27">
      <path clip-path="url(#p9c2167092e)" d="M 90 43.2 
L 648 43.2 
" style="fill:none;stroke:#b0b0b0;stroke-linecap:square;stroke-width:0.8;"/>
     </g>
     <g id="line2d_28">
      <g>
       <use style="stroke:#000000;stroke-width:0.8;" x="90" xlink:href="#m2245ab1842" y="43.2"/>
      </g>
     </g>
     <g id="text_14">
      <!-- 400 -->
      <defs>
       <path d="M 37.796875 64.3125 
L 12.890625 25.390625 
L 37.796875 25.390625 
z
M 35.203125 72.90625 
L 47.609375 72.90625 
L 47.609375 25.390625 
L 58.015625 25.390625 
L 58.015625 17.1875 
L 47.609375 17.1875 
L 47.609375 0 
L 37.796875 0 
L 37.796875 17.1875 
L 4.890625 17.1875 
L 4.890625 26.703125 
z
" id="DejaVuSans-34"/>
      </defs>
      <g transform="translate(63.9125 46.999219)scale(0.1 -0.1)">
       <use xlink:href="#DejaVuSans-34"/>
       <use x="63.623047" xlink:href="#DejaVuSans-30"/>
       <use x="127.246094" xlink:href="#DejaVuSans-30"/>
      </g>
     </g>
    </g>
    <g id="text_15">
     <!-- ms -->
     <defs>
      <path d="M 52 44.1875 
Q 55.375 50.25 60.0625 53.125 
Q 64.75 56 71.09375 56 
Q 79.640625 56 84.28125 50.015625 
Q 88.921875 44.046875 88.921875 33.015625 
L 88.921875 0 
L 79.890625 0 
L 79.890625 32.71875 
Q 79.890625 40.578125 77.09375 44.375 
Q 74.3125 48.1875 68.609375 48.1875 
Q 61.625 48.1875 57.5625 43.546875 
Q 53.515625 38.921875 53.515625 30.90625 
L 53.515625 0 
L 44.484375 0 
L 44.484375 32.71875 
Q 44.484375 40.625 41.703125 44.40625 
Q 38.921875 48.1875 33.109375 48.1875 
Q 26.21875 48.1875 22.15625 43.53125 
Q 18.109375 38.875 18.109375 30.90625 
L 18.109375 0 
L 9.078125 0 
L 9.078125 54.6875 
L 18.109375 54.6875 
L 18.109375 46.1875 
Q 21.1875 51.21875 25.484375 53.609375 
Q 29.78125 56 35.6875 56 
Q 41.65625 56 45.828125 52.96875 
Q 50 49.953125 52 44.1875 
z
" id="DejaVuSans-6d"/>
      <path d="M 44.28125 53.078125 
L 44.28125 44.578125 
Q 40.484375 46.53125 36.375 47.5 
Q 32.28125 48.484375 27.875 48.484375 
Q 21.1875 48.484375 17.84375 46.4375 
Q 14.5 44.390625 14.5 40.28125 
Q 14.5 37.15625 16.890625 35.375 
Q 19.28125 33.59375 26.515625 31.984375 
L 29.59375 31.296875 
Q 39.15625 29.25 43.1875 25.515625 
Q 47.21875 21.78125 47.21875 15.09375 
Q 47.21875 7.46875 41.1875 3.015625 
Q 35.15625 -1.421875 24.609375 -1.421875 
Q 20.21875 -1.421875 15.453125 -0.5625 
Q 10.6875 0.296875 5.421875 2 
L 5.421875 11.28125 
Q 10.40625 8.6875 15.234375 7.390625 
Q 20.0625 6.109375 24.8125 6.109375 
Q 31.15625 6.109375 34.5625 8.28125 
Q 37.984375 10.453125 37.984375 14.40625 
Q 37.984375 18.0625 35.515625 20.015625 
Q 33.0625 21.96875 24.703125 23.78125 
L 21.578125 24.515625 
Q 13.234375 26.265625 9.515625 29.90625 
Q 5.8125 33.546875 5.8125 39.890625 
Q 5.8125 47.609375 11.28125 51.796875 
Q 16.75 56 26.8125 56 
Q 31.78125 56 36.171875 55.265625 
Q 40.578125 54.546875 44.28125 53.078125 
z
" id="DejaVuSans-73"/>
     </defs>
     <g transform="translate(56.585 191.06)rotate(-90)scale(0.16 -0.16)">
      <use xlink:href="#DejaVuSans-6d"/>
      <use x="97.412109" xlink:href="#DejaVuSans-73"/>
     </g>
    </g>
   </g>
   <g id="line2d_29">
    <path clip-path="url(#p9c2167092e)" d="M 117.9 313.944736 
L 173.7 313.944736 
L 173.7 310.274077 
L 117.9 310.274077 
L 117.9 313.944736 
" style="fill:none;stroke:#1f77b4;stroke-linecap:square;stroke-width:2;"/>
   </g>
   <g id="line2d_30">
    <path clip-path="url(#p9c2167092e)" d="M 145.8 313.944736 
L 145.8 314.7017 
" style="fill:none;stroke:#1f77b4;stroke-linecap:square;"/>
   </g>
   <g id="line2d_31">
    <path clip-path="url(#p9c2167092e)" d="M 145.8 310.274077 
L 145.8 305.104442 
" style="fill:none;stroke:#1f77b4;stroke-linecap:square;"/>
   </g>
   <g id="line2d_32">
    <path clip-path="url(#p9c2167092e)" d="M 131.85 314.7017 
L 159.75 314.7017 
" style="fill:none;stroke:#000000;stroke-linecap:square;"/>
   </g>
   <g id="line2d_33">
    <path clip-path="url(#p9c2167092e)" d="M 131.85 305.104442 
L 159.75 305.104442 
" style="fill:none;stroke:#000000;stroke-linecap:square;"/>
   </g>
   <g id="line2d_34">
    <defs>
     <path d="M 0 3 
C 0.795609 3 1.55874 2.683901 2.12132 2.12132 
C 2.683901 1.55874 3 0.795609 3 0 
C 3 -0.795609 2.683901 -1.55874 2.12132 -2.12132 
C 1.55874 -2.683901 0.795609 -3 0 -3 
C -0.795609 -3 -1.55874 -2.683901 -2.12132 -2.12132 
C -2.683901 -1.55874 -3 -0.795609 -3 0 
C -3 0.795609 -2.683901 1.55874 -2.12132 2.12132 
C -1.55874 2.683901 -0.795609 3 0 3 
z
" id="m40d987877d" style="stroke:#000000;"/>
    </defs>
    <g clip-path="url(#p9c2167092e)">
     <use style="fill-opacity:0;stroke:#000000;" x="145.8" xlink:href="#m40d987877d" y="97.995559"/>
     <use style="fill-opacity:0;stroke:#000000;" x="145.8" xlink:href="#m40d987877d" y="98.129421"/>
     <use style="fill-opacity:0;stroke:#000000;" x="145.8" xlink:href="#m40d987877d" y="96.919232"/>
     <use style="fill-opacity:0;stroke:#000000;" x="145.8" xlink:href="#m40d987877d" y="101.478677"/>
     <use style="fill-opacity:0;stroke:#000000;" x="145.8" xlink:href="#m40d987877d" y="101.587397"/>
     <use style="fill-opacity:0;stroke:#000000;" x="145.8" xlink:href="#m40d987877d" y="101.550703"/>
     <use style="fill-opacity:0;stroke:#000000;" x="145.8" xlink:href="#m40d987877d" y="107.230644"/>
     <use style="fill-opacity:0;stroke:#000000;" x="145.8" xlink:href="#m40d987877d" y="107.323056"/>
     <use style="fill-opacity:0;stroke:#000000;" x="145.8" xlink:href="#m40d987877d" y="106.873227"/>
     <use style="fill-opacity:0;stroke:#000000;" x="145.8" xlink:href="#m40d987877d" y="97.836557"/>
     <use style="fill-opacity:0;stroke:#000000;" x="145.8" xlink:href="#m40d987877d" y="98.227269"/>
     <use style="fill-opacity:0;stroke:#000000;" x="145.8" xlink:href="#m40d987877d" y="97.757055"/>
     <use style="fill-opacity:0;stroke:#000000;" x="145.8" xlink:href="#m40d987877d" y="101.48819"/>
     <use style="fill-opacity:0;stroke:#000000;" x="145.8" xlink:href="#m40d987877d" y="101.552742"/>
     <use style="fill-opacity:0;stroke:#000000;" x="145.8" xlink:href="#m40d987877d" y="101.106311"/>
     <use style="fill-opacity:0;stroke:#000000;" x="145.8" xlink:href="#m40d987877d" y="107.161335"/>
     <use style="fill-opacity:0;stroke:#000000;" x="145.8" xlink:href="#m40d987877d" y="107.22317"/>
     <use style="fill-opacity:0;stroke:#000000;" x="145.8" xlink:href="#m40d987877d" y="107.340723"/>
     <use style="fill-opacity:0;stroke:#000000;" x="145.8" xlink:href="#m40d987877d" y="97.791709"/>
     <use style="fill-opacity:0;stroke:#000000;" x="145.8" xlink:href="#m40d987877d" y="98.119228"/>
     <use style="fill-opacity:0;stroke:#000000;" x="145.8" xlink:href="#m40d987877d" y="97.887519"/>
     <use style="fill-opacity:0;stroke:#000000;" x="145.8" xlink:href="#m40d987877d" y="101.494305"/>
     <use style="fill-opacity:0;stroke:#000000;" x="145.8" xlink:href="#m40d987877d" y="101.595551"/>
     <use style="fill-opacity:0;stroke:#000000;" x="145.8" xlink:href="#m40d987877d" y="101.568371"/>
     <use style="fill-opacity:0;stroke:#000000;" x="145.8" xlink:href="#m40d987877d" y="107.225888"/>
     <use style="fill-opacity:0;stroke:#000000;" x="145.8" xlink:href="#m40d987877d" y="107.360429"/>
     <use style="fill-opacity:0;stroke:#000000;" x="145.8" xlink:href="#m40d987877d" y="107.250349"/>
     <use style="fill-opacity:0;stroke:#000000;" x="145.8" xlink:href="#m40d987877d" y="97.869852"/>
     <use style="fill-opacity:0;stroke:#000000;" x="145.8" xlink:href="#m40d987877d" y="97.65445"/>
     <use style="fill-opacity:0;stroke:#000000;" x="145.8" xlink:href="#m40d987877d" y="98.255128"/>
     <use style="fill-opacity:0;stroke:#000000;" x="145.8" xlink:href="#m40d987877d" y="101.221826"/>
     <use style="fill-opacity:0;stroke:#000000;" x="145.8" xlink:href="#m40d987877d" y="101.496343"/>
     <use style="fill-opacity:0;stroke:#000000;" x="145.8" xlink:href="#m40d987877d" y="101.587397"/>
     <use style="fill-opacity:0;stroke:#000000;" x="145.8" xlink:href="#m40d987877d" y="107.204823"/>
     <use style="fill-opacity:0;stroke:#000000;" x="145.8" xlink:href="#m40d987877d" y="107.30471"/>
     <use style="fill-opacity:0;stroke:#000000;" x="145.8" xlink:href="#m40d987877d" y="107.314223"/>
     <use style="fill-opacity:0;stroke:#000000;" x="145.8" xlink:href="#m40d987877d" y="302.901502"/>
     <use style="fill-opacity:0;stroke:#000000;" x="145.8" xlink:href="#m40d987877d" y="102.187395"/>
     <use style="fill-opacity:0;stroke:#000000;" x="145.8" xlink:href="#m40d987877d" y="102.109252"/>
     <use style="fill-opacity:0;stroke:#000000;" x="145.8" xlink:href="#m40d987877d" y="92.845629"/>
     <use style="fill-opacity:0;stroke:#000000;" x="145.8" xlink:href="#m40d987877d" y="105.154092"/>
     <use style="fill-opacity:0;stroke:#000000;" x="145.8" xlink:href="#m40d987877d" y="105.164284"/>
     <use style="fill-opacity:0;stroke:#000000;" x="145.8" xlink:href="#m40d987877d" y="105.771078"/>
     <use style="fill-opacity:0;stroke:#000000;" x="145.8" xlink:href="#m40d987877d" y="111.769704"/>
     <use style="fill-opacity:0;stroke:#000000;" x="145.8" xlink:href="#m40d987877d" y="114.770376"/>
     <use style="fill-opacity:0;stroke:#000000;" x="145.8" xlink:href="#m40d987877d" y="114.770376"/>
     <use style="fill-opacity:0;stroke:#000000;" x="145.8" xlink:href="#m40d987877d" y="94.004856"/>
     <use style="fill-opacity:0;stroke:#000000;" x="145.8" xlink:href="#m40d987877d" y="90.612792"/>
     <use style="fill-opacity:0;stroke:#000000;" x="145.8" xlink:href="#m40d987877d" y="94.066011"/>
     <use style="fill-opacity:0;stroke:#000000;" x="145.8" xlink:href="#m40d987877d" y="97.276648"/>
     <use style="fill-opacity:0;stroke:#000000;" x="145.8" xlink:href="#m40d987877d" y="97.526704"/>
     <use style="fill-opacity:0;stroke:#000000;" x="145.8" xlink:href="#m40d987877d" y="85.796496"/>
     <use style="fill-opacity:0;stroke:#000000;" x="145.8" xlink:href="#m40d987877d" y="111.352491"/>
     <use style="fill-opacity:0;stroke:#000000;" x="145.8" xlink:href="#m40d987877d" y="111.468006"/>
     <use style="fill-opacity:0;stroke:#000000;" x="145.8" xlink:href="#m40d987877d" y="111.575367"/>
     <use style="fill-opacity:0;stroke:#000000;" x="145.8" xlink:href="#m40d987877d" y="94.962272"/>
     <use style="fill-opacity:0;stroke:#000000;" x="145.8" xlink:href="#m40d987877d" y="100.354783"/>
     <use style="fill-opacity:0;stroke:#000000;" x="145.8" xlink:href="#m40d987877d" y="98.72942"/>
     <use style="fill-opacity:0;stroke:#000000;" x="145.8" xlink:href="#m40d987877d" y="94.188321"/>
     <use style="fill-opacity:0;stroke:#000000;" x="145.8" xlink:href="#m40d987877d" y="97.222288"/>
     <use style="fill-opacity:0;stroke:#000000;" x="145.8" xlink:href="#m40d987877d" y="92.038383"/>
     <use style="fill-opacity:0;stroke:#000000;" x="145.8" xlink:href="#m40d987877d" y="107.436533"/>
     <use style="fill-opacity:0;stroke:#000000;" x="145.8" xlink:href="#m40d987877d" y="108.385114"/>
     <use style="fill-opacity:0;stroke:#000000;" x="145.8" xlink:href="#m40d987877d" y="106.472322"/>
     <use style="fill-opacity:0;stroke:#000000;" x="145.8" xlink:href="#m40d987877d" y="112.466871"/>
     <use style="fill-opacity:0;stroke:#000000;" x="145.8" xlink:href="#m40d987877d" y="111.724857"/>
     <use style="fill-opacity:0;stroke:#000000;" x="145.8" xlink:href="#m40d987877d" y="112.345241"/>
     <use style="fill-opacity:0;stroke:#000000;" x="145.8" xlink:href="#m40d987877d" y="101.225902"/>
     <use style="fill-opacity:0;stroke:#000000;" x="145.8" xlink:href="#m40d987877d" y="98.935987"/>
     <use style="fill-opacity:0;stroke:#000000;" x="145.8" xlink:href="#m40d987877d" y="97.313342"/>
     <use style="fill-opacity:0;stroke:#000000;" x="145.8" xlink:href="#m40d987877d" y="99.634513"/>
     <use style="fill-opacity:0;stroke:#000000;" x="145.8" xlink:href="#m40d987877d" y="97.417984"/>
     <use style="fill-opacity:0;stroke:#000000;" x="145.8" xlink:href="#m40d987877d" y="99.354559"/>
     <use style="fill-opacity:0;stroke:#000000;" x="145.8" xlink:href="#m40d987877d" y="302.082025"/>
     <use style="fill-opacity:0;stroke:#000000;" x="145.8" xlink:href="#m40d987877d" y="301.431744"/>
     <use style="fill-opacity:0;stroke:#000000;" x="145.8" xlink:href="#m40d987877d" y="286.779006"/>
     <use style="fill-opacity:0;stroke:#000000;" x="145.8" xlink:href="#m40d987877d" y="304.568996"/>
     <use style="fill-opacity:0;stroke:#000000;" x="145.8" xlink:href="#m40d987877d" y="99.236326"/>
     <use style="fill-opacity:0;stroke:#000000;" x="145.8" xlink:href="#m40d987877d" y="99.848556"/>
     <use style="fill-opacity:0;stroke:#000000;" x="145.8" xlink:href="#m40d987877d" y="98.865319"/>
     <use style="fill-opacity:0;stroke:#000000;" x="145.8" xlink:href="#m40d987877d" y="102.140509"/>
     <use style="fill-opacity:0;stroke:#000000;" x="145.8" xlink:href="#m40d987877d" y="102.856703"/>
     <use style="fill-opacity:0;stroke:#000000;" x="145.8" xlink:href="#m40d987877d" y="102.809817"/>
     <use style="fill-opacity:0;stroke:#000000;" x="145.8" xlink:href="#m40d987877d" y="286.825212"/>
     <use style="fill-opacity:0;stroke:#000000;" x="145.8" xlink:href="#m40d987877d" y="96.987181"/>
     <use style="fill-opacity:0;stroke:#000000;" x="145.8" xlink:href="#m40d987877d" y="99.667809"/>
     <use style="fill-opacity:0;stroke:#000000;" x="145.8" xlink:href="#m40d987877d" y="99.907672"/>
     <use style="fill-opacity:0;stroke:#000000;" x="145.8" xlink:href="#m40d987877d" y="102.731674"/>
     <use style="fill-opacity:0;stroke:#000000;" x="145.8" xlink:href="#m40d987877d" y="102.854664"/>
     <use style="fill-opacity:0;stroke:#000000;" x="145.8" xlink:href="#m40d987877d" y="102.742547"/>
    </g>
   </g>
   <g id="line2d_35">
    <path clip-path="url(#p9c2167092e)" d="M 229.5 311.87464 
L 285.3 311.87464 
L 285.3 186.445905 
L 229.5 186.445905 
L 229.5 311.87464 
" style="fill:none;stroke:#1f77b4;stroke-linecap:square;stroke-width:2;"/>
   </g>
   <g id="line2d_36">
    <path clip-path="url(#p9c2167092e)" d="M 257.4 311.87464 
L 257.4 314.771008 
" style="fill:none;stroke:#1f77b4;stroke-linecap:square;"/>
   </g>
   <g id="line2d_37">
    <path clip-path="url(#p9c2167092e)" d="M 257.4 186.445905 
L 257.4 47.626263 
" style="fill:none;stroke:#1f77b4;stroke-linecap:square;"/>
   </g>
   <g id="line2d_38">
    <path clip-path="url(#p9c2167092e)" d="M 243.45 314.771008 
L 271.35 314.771008 
" style="fill:none;stroke:#000000;stroke-linecap:square;"/>
   </g>
   <g id="line2d_39">
    <path clip-path="url(#p9c2167092e)" d="M 243.45 47.626263 
L 271.35 47.626263 
" style="fill:none;stroke:#000000;stroke-linecap:square;"/>
   </g>
   <g id="line2d_40">
    <g clip-path="url(#p9c2167092e)"/>
   </g>
   <g id="line2d_41">
    <path clip-path="url(#p9c2167092e)" d="M 341.1 201.403059 
L 396.9 201.403059 
L 396.9 183.23085 
L 341.1 183.23085 
L 341.1 201.403059 
" style="fill:none;stroke:#1f77b4;stroke-linecap:square;stroke-width:2;"/>
   </g>
   <g id="line2d_42">
    <path clip-path="url(#p9c2167092e)" d="M 369 201.403059 
L 369 213.082474 
" style="fill:none;stroke:#1f77b4;stroke-linecap:square;"/>
   </g>
   <g id="line2d_43">
    <path clip-path="url(#p9c2167092e)" d="M 369 183.23085 
L 369 161.472411 
" style="fill:none;stroke:#1f77b4;stroke-linecap:square;"/>
   </g>
   <g id="line2d_44">
    <path clip-path="url(#p9c2167092e)" d="M 355.05 213.082474 
L 382.95 213.082474 
" style="fill:none;stroke:#000000;stroke-linecap:square;"/>
   </g>
   <g id="line2d_45">
    <path clip-path="url(#p9c2167092e)" d="M 355.05 161.472411 
L 382.95 161.472411 
" style="fill:none;stroke:#000000;stroke-linecap:square;"/>
   </g>
   <g id="line2d_46">
    <g clip-path="url(#p9c2167092e)">
     <use style="fill-opacity:0;stroke:#000000;" x="369" xlink:href="#m40d987877d" y="155.554646"/>
     <use style="fill-opacity:0;stroke:#000000;" x="369" xlink:href="#m40d987877d" y="149.581841"/>
     <use style="fill-opacity:0;stroke:#000000;" x="369" xlink:href="#m40d987877d" y="144.550823"/>
     <use style="fill-opacity:0;stroke:#000000;" x="369" xlink:href="#m40d987877d" y="125.714403"/>
     <use style="fill-opacity:0;stroke:#000000;" x="369" xlink:href="#m40d987877d" y="130.112127"/>
     <use style="fill-opacity:0;stroke:#000000;" x="369" xlink:href="#m40d987877d" y="119.883613"/>
     <use style="fill-opacity:0;stroke:#000000;" x="369" xlink:href="#m40d987877d" y="145.568034"/>
     <use style="fill-opacity:0;stroke:#000000;" x="369" xlink:href="#m40d987877d" y="150.698938"/>
     <use style="fill-opacity:0;stroke:#000000;" x="369" xlink:href="#m40d987877d" y="149.198602"/>
     <use style="fill-opacity:0;stroke:#000000;" x="369" xlink:href="#m40d987877d" y="109.58715"/>
     <use style="fill-opacity:0;stroke:#000000;" x="369" xlink:href="#m40d987877d" y="111.275028"/>
     <use style="fill-opacity:0;stroke:#000000;" x="369" xlink:href="#m40d987877d" y="12.173351"/>
     <use style="fill-opacity:0;stroke:#000000;" x="369" xlink:href="#m40d987877d" y="152.649783"/>
     <use style="fill-opacity:0;stroke:#000000;" x="369" xlink:href="#m40d987877d" y="112.882725"/>
     <use style="fill-opacity:0;stroke:#000000;" x="369" xlink:href="#m40d987877d" y="136.784138"/>
    </g>
   </g>
   <g id="line2d_47">
    <path clip-path="url(#p9c2167092e)" d="M 452.7 226.808375 
L 508.5 226.808375 
L 508.5 165.881007 
L 452.7 165.881007 
L 452.7 226.808375 
" style="fill:none;stroke:#1f77b4;stroke-linecap:square;stroke-width:2;"/>
   </g>
   <g id="line2d_48">
    <path clip-path="url(#p9c2167092e)" d="M 480.6 226.808375 
L 480.6 303.405012 
" style="fill:none;stroke:#1f77b4;stroke-linecap:square;"/>
   </g>
   <g id="line2d_49">
    <path clip-path="url(#p9c2167092e)" d="M 480.6 165.881007 
L 480.6 128.787781 
" style="fill:none;stroke:#1f77b4;stroke-linecap:square;"/>
   </g>
   <g id="line2d_50">
    <path clip-path="url(#p9c2167092e)" d="M 466.65 303.405012 
L 494.55 303.405012 
" style="fill:none;stroke:#000000;stroke-linecap:square;"/>
   </g>
   <g id="line2d_51">
    <path clip-path="url(#p9c2167092e)" d="M 466.65 128.787781 
L 494.55 128.787781 
" style="fill:none;stroke:#000000;stroke-linecap:square;"/>
   </g>
   <g id="line2d_52">
    <g clip-path="url(#p9c2167092e)">
     <use style="fill-opacity:0;stroke:#000000;" x="480.6" xlink:href="#m40d987877d" y="-1"/>
     <use style="fill-opacity:0;stroke:#000000;" x="480.6" xlink:href="#m40d987877d" y="36.100584"/>
     <use style="fill-opacity:0;stroke:#000000;" x="480.6" xlink:href="#m40d987877d" y="36.913946"/>
     <use style="fill-opacity:0;stroke:#000000;" x="480.6" xlink:href="#m40d987877d" y="36.116213"/>
    </g>
   </g>
   <g id="line2d_53">
    <path clip-path="url(#p9c2167092e)" d="M 564.3 229.646646 
L 620.1 229.646646 
L 620.1 169.416615 
L 564.3 169.416615 
L 564.3 229.646646 
" style="fill:none;stroke:#1f77b4;stroke-linecap:square;stroke-width:2;"/>
   </g>
   <g id="line2d_54">
    <path clip-path="url(#p9c2167092e)" d="M 592.2 229.646646 
L 592.2 248.139918 
" style="fill:none;stroke:#1f77b4;stroke-linecap:square;"/>
   </g>
   <g id="line2d_55">
    <path clip-path="url(#p9c2167092e)" d="M 592.2 169.416615 
L 592.2 99.179248 
" style="fill:none;stroke:#1f77b4;stroke-linecap:square;"/>
   </g>
   <g id="line2d_56">
    <path clip-path="url(#p9c2167092e)" d="M 578.25 248.139918 
L 606.15 248.139918 
" style="fill:none;stroke:#000000;stroke-linecap:square;"/>
   </g>
   <g id="line2d_57">
    <path clip-path="url(#p9c2167092e)" d="M 578.25 99.179248 
L 606.15 99.179248 
" style="fill:none;stroke:#000000;stroke-linecap:square;"/>
   </g>
   <g id="line2d_58">
    <g clip-path="url(#p9c2167092e)">
     <use style="fill-opacity:0;stroke:#000000;" x="592.2" xlink:href="#m40d987877d" y="63.827581"/>
     <use style="fill-opacity:0;stroke:#000000;" x="592.2" xlink:href="#m40d987877d" y="61.467678"/>
     <use style="fill-opacity:0;stroke:#000000;" x="592.2" xlink:href="#m40d987877d" y="57.262252"/>
     <use style="fill-opacity:0;stroke:#000000;" x="592.2" xlink:href="#m40d987877d" y="59.199507"/>
     <use style="fill-opacity:0;stroke:#000000;" x="592.2" xlink:href="#m40d987877d" y="61.539705"/>
     <use style="fill-opacity:0;stroke:#000000;" x="592.2" xlink:href="#m40d987877d" y="61.456126"/>
     <use style="fill-opacity:0;stroke:#000000;" x="592.2" xlink:href="#m40d987877d" y="61.083761"/>
     <use style="fill-opacity:0;stroke:#000000;" x="592.2" xlink:href="#m40d987877d" y="61.331778"/>
     <use style="fill-opacity:0;stroke:#000000;" x="592.2" xlink:href="#m40d987877d" y="61.386138"/>
     <use style="fill-opacity:0;stroke:#000000;" x="592.2" xlink:href="#m40d987877d" y="61.346727"/>
     <use style="fill-opacity:0;stroke:#000000;" x="592.2" xlink:href="#m40d987877d" y="60.873795"/>
     <use style="fill-opacity:0;stroke:#000000;" x="592.2" xlink:href="#m40d987877d" y="61.596783"/>
     <use style="fill-opacity:0;stroke:#000000;" x="592.2" xlink:href="#m40d987877d" y="61.172096"/>
     <use style="fill-opacity:0;stroke:#000000;" x="592.2" xlink:href="#m40d987877d" y="61.01581"/>
     <use style="fill-opacity:0;stroke:#000000;" x="592.2" xlink:href="#m40d987877d" y="61.515922"/>
     <use style="fill-opacity:0;stroke:#000000;" x="592.2" xlink:href="#m40d987877d" y="61.382741"/>
     <use style="fill-opacity:0;stroke:#000000;" x="592.2" xlink:href="#m40d987877d" y="60.144691"/>
     <use style="fill-opacity:0;stroke:#000000;" x="592.2" xlink:href="#m40d987877d" y="60.865641"/>
     <use style="fill-opacity:0;stroke:#000000;" x="592.2" xlink:href="#m40d987877d" y="61.279456"/>
     <use style="fill-opacity:0;stroke:#000000;" x="592.2" xlink:href="#m40d987877d" y="40.300573"/>
    </g>
   </g>
   <g id="line2d_59">
    <path clip-path="url(#p9c2167092e)" d="M 117.9 312.557197 
L 173.7 312.557197 
" style="fill:none;stroke:#2ca02c;stroke-linecap:square;"/>
   </g>
   <g id="line2d_60">
    <path clip-path="url(#p9c2167092e)" d="M 229.5 279.752296 
L 285.3 279.752296 
" style="fill:none;stroke:#2ca02c;stroke-linecap:square;"/>
   </g>
   <g id="line2d_61">
    <path clip-path="url(#p9c2167092e)" d="M 341.1 192.571767 
L 396.9 192.571767 
" style="fill:none;stroke:#2ca02c;stroke-linecap:square;"/>
   </g>
   <g id="line2d_62">
    <path clip-path="url(#p9c2167092e)" d="M 452.7 190.114695 
L 508.5 190.114695 
" style="fill:none;stroke:#2ca02c;stroke-linecap:square;"/>
   </g>
   <g id="line2d_63">
    <path clip-path="url(#p9c2167092e)" d="M 564.3 183.208936 
L 620.1 183.208936 
" style="fill:none;stroke:#2ca02c;stroke-linecap:square;"/>
   </g>
   <g id="patch_3">
    <path d="M 90 315 
L 90 43.2 
" style="fill:none;stroke:#000000;stroke-linecap:square;stroke-linejoin:miter;stroke-width:0.8;"/>
   </g>
   <g id="patch_4">
    <path d="M 648 315 
L 648 43.2 
" style="fill:none;stroke:#000000;stroke-linecap:square;stroke-linejoin:miter;stroke-width:0.8;"/>
   </g>
   <g id="patch_5">
    <path d="M 90 315 
L 648 315 
" style="fill:none;stroke:#000000;stroke-linecap:square;stroke-linejoin:miter;stroke-width:0.8;"/>
   </g>
   <g id="patch_6">
    <path d="M 90 43.2 
L 648 43.2 
" style="fill:none;stroke:#000000;stroke-linecap:square;stroke-linejoin:miter;stroke-width:0.8;"/>
   </g>
   <g id="text_16">
    <!-- Boxplot of RTT by origin country -->
    <defs>
     <path d="M 19.671875 34.8125 
L 19.671875 8.109375 
L 35.5 8.109375 
Q 43.453125 8.109375 47.28125 11.40625 
Q 51.125 14.703125 51.125 21.484375 
Q 51.125 28.328125 47.28125 31.5625 
Q 43.453125 34.8125 35.5 34.8125 
z
M 19.671875 64.796875 
L 19.671875 42.828125 
L 34.28125 42.828125 
Q 41.5 42.828125 45.03125 45.53125 
Q 48.578125 48.25 48.578125 53.8125 
Q 48.578125 59.328125 45.03125 62.0625 
Q 41.5 64.796875 34.28125 64.796875 
z
M 9.8125 72.90625 
L 35.015625 72.90625 
Q 46.296875 72.90625 52.390625 68.21875 
Q 58.5 63.53125 58.5 54.890625 
Q 58.5 48.1875 55.375 44.234375 
Q 52.25 40.28125 46.1875 39.3125 
Q 53.46875 37.75 57.5 32.78125 
Q 61.53125 27.828125 61.53125 20.40625 
Q 61.53125 10.640625 54.890625 5.3125 
Q 48.25 0 35.984375 0 
L 9.8125 0 
z
" id="DejaVuSans-42"/>
     <path d="M 30.609375 48.390625 
Q 23.390625 48.390625 19.1875 42.75 
Q 14.984375 37.109375 14.984375 27.296875 
Q 14.984375 17.484375 19.15625 11.84375 
Q 23.34375 6.203125 30.609375 6.203125 
Q 37.796875 6.203125 41.984375 11.859375 
Q 46.1875 17.53125 46.1875 27.296875 
Q 46.1875 37.015625 41.984375 42.703125 
Q 37.796875 48.390625 30.609375 48.390625 
z
M 30.609375 56 
Q 42.328125 56 49.015625 48.375 
Q 55.71875 40.765625 55.71875 27.296875 
Q 55.71875 13.875 49.015625 6.21875 
Q 42.328125 -1.421875 30.609375 -1.421875 
Q 18.84375 -1.421875 12.171875 6.21875 
Q 5.515625 13.875 5.515625 27.296875 
Q 5.515625 40.765625 12.171875 48.375 
Q 18.84375 56 30.609375 56 
z
" id="DejaVuSans-6f"/>
     <path d="M 54.890625 54.6875 
L 35.109375 28.078125 
L 55.90625 0 
L 45.3125 0 
L 29.390625 21.484375 
L 13.484375 0 
L 2.875 0 
L 24.125 28.609375 
L 4.6875 54.6875 
L 15.28125 54.6875 
L 29.78125 35.203125 
L 44.28125 54.6875 
z
" id="DejaVuSans-78"/>
     <path d="M 18.109375 8.203125 
L 18.109375 -20.796875 
L 9.078125 -20.796875 
L 9.078125 54.6875 
L 18.109375 54.6875 
L 18.109375 46.390625 
Q 20.953125 51.265625 25.265625 53.625 
Q 29.59375 56 35.59375 56 
Q 45.5625 56 51.78125 48.09375 
Q 58.015625 40.1875 58.015625 27.296875 
Q 58.015625 14.40625 51.78125 6.484375 
Q 45.5625 -1.421875 35.59375 -1.421875 
Q 29.59375 -1.421875 25.265625 0.953125 
Q 20.953125 3.328125 18.109375 8.203125 
z
M 48.6875 27.296875 
Q 48.6875 37.203125 44.609375 42.84375 
Q 40.53125 48.484375 33.40625 48.484375 
Q 26.265625 48.484375 22.1875 42.84375 
Q 18.109375 37.203125 18.109375 27.296875 
Q 18.109375 17.390625 22.1875 11.75 
Q 26.265625 6.109375 33.40625 6.109375 
Q 40.53125 6.109375 44.609375 11.75 
Q 48.6875 17.390625 48.6875 27.296875 
z
" id="DejaVuSans-70"/>
     <path d="M 9.421875 75.984375 
L 18.40625 75.984375 
L 18.40625 0 
L 9.421875 0 
z
" id="DejaVuSans-6c"/>
     <path d="M 18.3125 70.21875 
L 18.3125 54.6875 
L 36.8125 54.6875 
L 36.8125 47.703125 
L 18.3125 47.703125 
L 18.3125 18.015625 
Q 18.3125 11.328125 20.140625 9.421875 
Q 21.96875 7.515625 27.59375 7.515625 
L 36.8125 7.515625 
L 36.8125 0 
L 27.59375 0 
Q 17.1875 0 13.234375 3.875 
Q 9.28125 7.765625 9.28125 18.015625 
L 9.28125 47.703125 
L 2.6875 47.703125 
L 2.6875 54.6875 
L 9.28125 54.6875 
L 9.28125 70.21875 
z
" id="DejaVuSans-74"/>
     <path id="DejaVuSans-20"/>
     <path d="M 37.109375 75.984375 
L 37.109375 68.5 
L 28.515625 68.5 
Q 23.6875 68.5 21.796875 66.546875 
Q 19.921875 64.59375 19.921875 59.515625 
L 19.921875 54.6875 
L 34.71875 54.6875 
L 34.71875 47.703125 
L 19.921875 47.703125 
L 19.921875 0 
L 10.890625 0 
L 10.890625 47.703125 
L 2.296875 47.703125 
L 2.296875 54.6875 
L 10.890625 54.6875 
L 10.890625 58.5 
Q 10.890625 67.625 15.140625 71.796875 
Q 19.390625 75.984375 28.609375 75.984375 
z
" id="DejaVuSans-66"/>
     <path d="M 44.390625 34.1875 
Q 47.5625 33.109375 50.5625 29.59375 
Q 53.5625 26.078125 56.59375 19.921875 
L 66.609375 0 
L 56 0 
L 46.6875 18.703125 
Q 43.0625 26.03125 39.671875 28.421875 
Q 36.28125 30.8125 30.421875 30.8125 
L 19.671875 30.8125 
L 19.671875 0 
L 9.8125 0 
L 9.8125 72.90625 
L 32.078125 72.90625 
Q 44.578125 72.90625 50.734375 67.671875 
Q 56.890625 62.453125 56.890625 51.90625 
Q 56.890625 45.015625 53.6875 40.46875 
Q 50.484375 35.9375 44.390625 34.1875 
z
M 19.671875 64.796875 
L 19.671875 38.921875 
L 32.078125 38.921875 
Q 39.203125 38.921875 42.84375 42.21875 
Q 46.484375 45.515625 46.484375 51.90625 
Q 46.484375 58.296875 42.84375 61.546875 
Q 39.203125 64.796875 32.078125 64.796875 
z
" id="DejaVuSans-52"/>
     <path d="M -0.296875 72.90625 
L 61.375 72.90625 
L 61.375 64.59375 
L 35.5 64.59375 
L 35.5 0 
L 25.59375 0 
L 25.59375 64.59375 
L -0.296875 64.59375 
z
" id="DejaVuSans-54"/>
     <path d="M 48.6875 27.296875 
Q 48.6875 37.203125 44.609375 42.84375 
Q 40.53125 48.484375 33.40625 48.484375 
Q 26.265625 48.484375 22.1875 42.84375 
Q 18.109375 37.203125 18.109375 27.296875 
Q 18.109375 17.390625 22.1875 11.75 
Q 26.265625 6.109375 33.40625 6.109375 
Q 40.53125 6.109375 44.609375 11.75 
Q 48.6875 17.390625 48.6875 27.296875 
z
M 18.109375 46.390625 
Q 20.953125 51.265625 25.265625 53.625 
Q 29.59375 56 35.59375 56 
Q 45.5625 56 51.78125 48.09375 
Q 58.015625 40.1875 58.015625 27.296875 
Q 58.015625 14.40625 51.78125 6.484375 
Q 45.5625 -1.421875 35.59375 -1.421875 
Q 29.59375 -1.421875 25.265625 0.953125 
Q 20.953125 3.328125 18.109375 8.203125 
L 18.109375 0 
L 9.078125 0 
L 9.078125 75.984375 
L 18.109375 75.984375 
z
" id="DejaVuSans-62"/>
     <path d="M 32.171875 -5.078125 
Q 28.375 -14.84375 24.75 -17.8125 
Q 21.140625 -20.796875 15.09375 -20.796875 
L 7.90625 -20.796875 
L 7.90625 -13.28125 
L 13.1875 -13.28125 
Q 16.890625 -13.28125 18.9375 -11.515625 
Q 21 -9.765625 23.484375 -3.21875 
L 25.09375 0.875 
L 2.984375 54.6875 
L 12.5 54.6875 
L 29.59375 11.921875 
L 46.6875 54.6875 
L 56.203125 54.6875 
z
" id="DejaVuSans-79"/>
     <path d="M 41.109375 46.296875 
Q 39.59375 47.171875 37.8125 47.578125 
Q 36.03125 48 33.890625 48 
Q 26.265625 48 22.1875 43.046875 
Q 18.109375 38.09375 18.109375 28.8125 
L 18.109375 0 
L 9.078125 0 
L 9.078125 54.6875 
L 18.109375 54.6875 
L 18.109375 46.1875 
Q 20.953125 51.171875 25.484375 53.578125 
Q 30.03125 56 36.53125 56 
Q 37.453125 56 38.578125 55.875 
Q 39.703125 55.765625 41.0625 55.515625 
z
" id="DejaVuSans-72"/>
     <path d="M 9.421875 54.6875 
L 18.40625 54.6875 
L 18.40625 0 
L 9.421875 0 
z
M 9.421875 75.984375 
L 18.40625 75.984375 
L 18.40625 64.59375 
L 9.421875 64.59375 
z
" id="DejaVuSans-69"/>
     <path d="M 45.40625 27.984375 
Q 45.40625 37.75 41.375 43.109375 
Q 37.359375 48.484375 30.078125 48.484375 
Q 22.859375 48.484375 18.828125 43.109375 
Q 14.796875 37.75 14.796875 27.984375 
Q 14.796875 18.265625 18.828125 12.890625 
Q 22.859375 7.515625 30.078125 7.515625 
Q 37.359375 7.515625 41.375 12.890625 
Q 45.40625 18.265625 45.40625 27.984375 
z
M 54.390625 6.78125 
Q 54.390625 -7.171875 48.1875 -13.984375 
Q 42 -20.796875 29.203125 -20.796875 
Q 24.46875 -20.796875 20.265625 -20.09375 
Q 16.0625 -19.390625 12.109375 -17.921875 
L 12.109375 -9.1875 
Q 16.0625 -11.328125 19.921875 -12.34375 
Q 23.78125 -13.375 27.78125 -13.375 
Q 36.625 -13.375 41.015625 -8.765625 
Q 45.40625 -4.15625 45.40625 5.171875 
L 45.40625 9.625 
Q 42.625 4.78125 38.28125 2.390625 
Q 33.9375 0 27.875 0 
Q 17.828125 0 11.671875 7.65625 
Q 5.515625 15.328125 5.515625 27.984375 
Q 5.515625 40.671875 11.671875 48.328125 
Q 17.828125 56 27.875 56 
Q 33.9375 56 38.28125 53.609375 
Q 42.625 51.21875 45.40625 46.390625 
L 45.40625 54.6875 
L 54.390625 54.6875 
z
" id="DejaVuSans-67"/>
     <path d="M 54.890625 33.015625 
L 54.890625 0 
L 45.90625 0 
L 45.90625 32.71875 
Q 45.90625 40.484375 42.875 44.328125 
Q 39.84375 48.1875 33.796875 48.1875 
Q 26.515625 48.1875 22.3125 43.546875 
Q 18.109375 38.921875 18.109375 30.90625 
L 18.109375 0 
L 9.078125 0 
L 9.078125 54.6875 
L 18.109375 54.6875 
L 18.109375 46.1875 
Q 21.34375 51.125 25.703125 53.5625 
Q 30.078125 56 35.796875 56 
Q 45.21875 56 50.046875 50.171875 
Q 54.890625 44.34375 54.890625 33.015625 
z
" id="DejaVuSans-6e"/>
     <path d="M 48.78125 52.59375 
L 48.78125 44.1875 
Q 44.96875 46.296875 41.140625 47.34375 
Q 37.3125 48.390625 33.40625 48.390625 
Q 24.65625 48.390625 19.8125 42.84375 
Q 14.984375 37.3125 14.984375 27.296875 
Q 14.984375 17.28125 19.8125 11.734375 
Q 24.65625 6.203125 33.40625 6.203125 
Q 37.3125 6.203125 41.140625 7.25 
Q 44.96875 8.296875 48.78125 10.40625 
L 48.78125 2.09375 
Q 45.015625 0.34375 40.984375 -0.53125 
Q 36.96875 -1.421875 32.421875 -1.421875 
Q 20.0625 -1.421875 12.78125 6.34375 
Q 5.515625 14.109375 5.515625 27.296875 
Q 5.515625 40.671875 12.859375 48.328125 
Q 20.21875 56 33.015625 56 
Q 37.15625 56 41.109375 55.140625 
Q 45.0625 54.296875 48.78125 52.59375 
z
" id="DejaVuSans-63"/>
     <path d="M 8.5 21.578125 
L 8.5 54.6875 
L 17.484375 54.6875 
L 17.484375 21.921875 
Q 17.484375 14.15625 20.5 10.265625 
Q 23.53125 6.390625 29.59375 6.390625 
Q 36.859375 6.390625 41.078125 11.03125 
Q 45.3125 15.671875 45.3125 23.6875 
L 45.3125 54.6875 
L 54.296875 54.6875 
L 54.296875 0 
L 45.3125 0 
L 45.3125 8.40625 
Q 42.046875 3.421875 37.71875 1 
Q 33.40625 -1.421875 27.6875 -1.421875 
Q 18.265625 -1.421875 13.375 4.4375 
Q 8.5 10.296875 8.5 21.578125 
z
M 31.109375 56 
z
" id="DejaVuSans-75"/>
    </defs>
    <g transform="translate(271.966875 37.2)scale(0.12 -0.12)">
     <use xlink:href="#DejaVuSans-42"/>
     <use x="68.603516" xlink:href="#DejaVuSans-6f"/>
     <use x="129.738281" xlink:href="#DejaVuSans-78"/>
     <use x="188.917969" xlink:href="#DejaVuSans-70"/>
     <use x="252.394531" xlink:href="#DejaVuSans-6c"/>
     <use x="280.177734" xlink:href="#DejaVuSans-6f"/>
     <use x="341.359375" xlink:href="#DejaVuSans-74"/>
     <use x="380.568359" xlink:href="#DejaVuSans-20"/>
     <use x="412.355469" xlink:href="#DejaVuSans-6f"/>
     <use x="473.537109" xlink:href="#DejaVuSans-66"/>
     <use x="508.742188" xlink:href="#DejaVuSans-20"/>
     <use x="540.529297" xlink:href="#DejaVuSans-52"/>
     <use x="609.902344" xlink:href="#DejaVuSans-54"/>
     <use x="670.970703" xlink:href="#DejaVuSans-54"/>
     <use x="732.054688" xlink:href="#DejaVuSans-20"/>
     <use x="763.841797" xlink:href="#DejaVuSans-62"/>
     <use x="827.318359" xlink:href="#DejaVuSans-79"/>
     <use x="886.498047" xlink:href="#DejaVuSans-20"/>
     <use x="918.285156" xlink:href="#DejaVuSans-6f"/>
     <use x="979.466797" xlink:href="#DejaVuSans-72"/>
     <use x="1020.580078" xlink:href="#DejaVuSans-69"/>
     <use x="1048.363281" xlink:href="#DejaVuSans-67"/>
     <use x="1111.839844" xlink:href="#DejaVuSans-69"/>
     <use x="1139.623047" xlink:href="#DejaVuSans-6e"/>
     <use x="1203.001953" xlink:href="#DejaVuSans-20"/>
     <use x="1234.789062" xlink:href="#DejaVuSans-63"/>
     <use x="1289.769531" xlink:href="#DejaVuSans-6f"/>
     <use x="1350.951172" xlink:href="#DejaVuSans-75"/>
     <use x="1414.330078" xlink:href="#DejaVuSans-6e"/>
     <use x="1477.708984" xlink:href="#DejaVuSans-74"/>
     <use x="1516.917969" xlink:href="#DejaVuSans-72"/>
     <use x="1558.03125" xlink:href="#DejaVuSans-79"/>
    </g>
   </g>
  </g>
 </g>
 <defs>
  <clipPath id="p9c2167092e">
   <rect height="271.8" width="558" x="90" y="43.2"/>
  </clipPath>
 </defs>
</svg>
