<?xml version="1.0" encoding="utf-8" standalone="no"?>
<!DOCTYPE svg PUBLIC "-//W3C//DTD SVG 1.1//EN"
  "http://www.w3.org/Graphics/SVG/1.1/DTD/svg11.dtd">
<!-- Created with matplotlib (http://matplotlib.org/) -->
<svg height="288pt" version="1.1" viewBox="0 0 720 288" width="720pt" xmlns="http://www.w3.org/2000/svg" xmlns:xlink="http://www.w3.org/1999/xlink">
 <defs>
  <style type="text/css">
*{stroke-linecap:butt;stroke-linejoin:round;}
  </style>
 </defs>
 <g id="figure_1">
  <g id="patch_1">
   <path d="M 0 288 
L 720 288 
L 720 0 
L 0 0 
z
" style="fill:#ffffff;"/>
  </g>
  <g id="axes_1">
   <g id="patch_2">
    <path d="M 90 252 
L 648 252 
L 648 34.56 
L 90 34.56 
z
" style="fill:#ffffff;"/>
   </g>
   <g id="patch_3">
    <path clip-path="url(#p6ce4edad79)" d="M 115.363636 252 
L 115.363636 251.805004 
L 116.378182 251.805004 
L 116.378182 224.700565 
L 117.392727 224.700565 
L 117.392727 213.975787 
L 118.407273 213.975787 
L 118.407273 212.805811 
L 119.421818 212.805811 
L 119.421818 212.025827 
L 120.436364 212.025827 
L 120.436364 204.225989 
L 121.450909 204.225989 
L 121.450909 186.091364 
L 122.465455 186.091364 
L 122.465455 174.19661 
L 123.48 174.19661 
L 123.48 172.246651 
L 124.494545 172.246651 
L 124.494545 171.271671 
L 125.509091 171.271671 
L 125.509091 170.101695 
L 126.523636 170.101695 
L 126.523636 169.711703 
L 127.538182 169.711703 
L 127.538182 169.321711 
L 128.552727 169.321711 
L 128.552727 169.126715 
L 130.581818 169.126715 
L 130.581818 168.931719 
L 131.596364 168.931719 
L 131.596364 167.371751 
L 132.610909 167.371751 
L 132.610909 160.936885 
L 133.625455 160.936885 
L 133.625455 155.087006 
L 134.64 155.087006 
L 134.64 153.91703 
L 135.654545 153.91703 
L 135.654545 153.332042 
L 136.669091 153.332042 
L 136.669091 152.94205 
L 137.683636 152.94205 
L 137.683636 152.552058 
L 139.712727 152.552058 
L 139.712727 152.162066 
L 140.727273 152.162066 
L 140.727273 151.577078 
L 144.785455 151.577078 
L 144.785455 151.382082 
L 156.96 151.382082 
L 156.96 150.99209 
L 182.323636 150.99209 
L 182.323636 150.602098 
L 212.76 150.602098 
L 212.76 148.262147 
L 214.789091 148.262147 
L 214.789091 142.607264 
L 215.803636 142.607264 
L 215.803636 141.82728 
L 216.818182 141.82728 
L 216.818182 139.682324 
L 217.832727 139.682324 
L 217.832727 138.122357 
L 218.847273 138.122357 
L 218.847273 136.367393 
L 219.861818 136.367393 
L 219.861818 134.612429 
L 220.876364 134.612429 
L 220.876364 131.492494 
L 221.890909 131.492494 
L 221.890909 129.73753 
L 222.905455 129.73753 
L 222.905455 127.202583 
L 223.92 127.202583 
L 223.92 125.057627 
L 224.934545 125.057627 
L 224.934545 124.472639 
L 225.949091 124.472639 
L 225.949091 123.302663 
L 226.963636 123.302663 
L 226.963636 121.742696 
L 227.978182 121.742696 
L 227.978182 121.5477 
L 230.007273 121.5477 
L 230.007273 121.352704 
L 231.021818 121.352704 
L 231.021818 116.867797 
L 232.036364 116.867797 
L 232.036364 115.307829 
L 234.065455 115.307829 
L 234.065455 115.112833 
L 235.08 115.112833 
L 235.08 114.527845 
L 236.094545 114.527845 
L 236.094545 113.552865 
L 237.109091 113.552865 
L 237.109091 112.382889 
L 238.123636 112.382889 
L 238.123636 111.992897 
L 245.225455 111.992897 
L 245.225455 110.822922 
L 246.24 110.822922 
L 246.24 109.45795 
L 247.254545 109.45795 
L 247.254545 109.262954 
L 310.156364 109.262954 
L 310.156364 109.067958 
L 311.170909 109.067958 
L 311.170909 104.193059 
L 312.185455 104.193059 
L 312.185455 102.048103 
L 313.2 102.048103 
L 313.2 101.658111 
L 314.214545 101.658111 
L 314.214545 101.463115 
L 316.243636 101.463115 
L 316.243636 101.268119 
L 317.258182 101.268119 
L 317.258182 100.488136 
L 318.272727 100.488136 
L 318.272727 98.928168 
L 319.287273 98.928168 
L 319.287273 88.20339 
L 320.301818 88.20339 
L 320.301818 84.108475 
L 321.316364 84.108475 
L 321.316364 79.428571 
L 322.330909 79.428571 
L 322.330909 77.868604 
L 323.345455 77.868604 
L 323.345455 77.283616 
L 324.36 77.283616 
L 324.36 76.698628 
L 325.374545 76.698628 
L 325.374545 75.918644 
L 326.389091 75.918644 
L 326.389091 75.13866 
L 327.403636 75.13866 
L 327.403636 74.943664 
L 329.432727 74.943664 
L 329.432727 74.748668 
L 332.476364 74.748668 
L 332.476364 74.553672 
L 378.130909 74.553672 
L 378.130909 73.968684 
L 379.145455 73.968684 
L 379.145455 73.188701 
L 381.174545 73.188701 
L 381.174545 72.993705 
L 385.232727 72.993705 
L 385.232727 72.213721 
L 387.261818 72.213721 
L 387.261818 71.823729 
L 388.276364 71.823729 
L 388.276364 71.433737 
L 390.305455 71.433737 
L 390.305455 71.043745 
L 392.334545 71.043745 
L 392.334545 70.848749 
L 393.349091 70.848749 
L 393.349091 70.458757 
L 395.378182 70.458757 
L 395.378182 70.263761 
L 396.392727 70.263761 
L 396.392727 69.678773 
L 398.421818 69.678773 
L 398.421818 69.483777 
L 400.450909 69.483777 
L 400.450909 69.288781 
L 417.698182 69.288781 
L 417.698182 68.508797 
L 418.712727 68.508797 
L 418.712727 62.463923 
L 419.727273 62.463923 
L 419.727273 62.073931 
L 421.756364 62.073931 
L 421.756364 61.878935 
L 423.785455 61.878935 
L 423.785455 56.614044 
L 424.8 56.614044 
L 424.8 54.664084 
L 426.829091 54.664084 
L 426.829091 52.90912 
L 427.843636 52.90912 
L 427.843636 49.399193 
L 428.858182 49.399193 
L 428.858182 48.814205 
L 429.872727 48.814205 
L 429.872727 48.619209 
L 492.774545 48.619209 
L 492.774545 48.424213 
L 493.789091 48.424213 
L 493.789091 45.889266 
L 494.803636 45.889266 
L 494.803636 45.69427 
L 495.818182 45.69427 
L 495.818182 45.499274 
L 496.832727 45.499274 
L 496.832727 45.304278 
L 499.876364 45.304278 
L 499.876364 45.109282 
L 525.24 45.109282 
L 525.24 44.914286 
L 622.636364 44.914286 
L 622.636364 252 
L 622.636364 252 
" style="fill:none;stroke:#1f77b4;stroke-linejoin:miter;stroke-width:2;"/>
   </g>
   <g id="patch_4">
    <path clip-path="url(#p6ce4edad79)" d="M 115.363636 252 
L 115.363636 217.057497 
L 116.378182 217.057497 
L 116.378182 160.789791 
L 117.392727 160.789791 
L 117.392727 144.860121 
L 118.407273 144.860121 
L 118.407273 140.235378 
L 119.421818 140.235378 
L 119.421818 129.444311 
L 120.436364 129.444311 
L 120.436364 122.507196 
L 121.450909 122.507196 
L 121.450909 119.937894 
L 122.465455 119.937894 
L 122.465455 117.882453 
L 123.48 117.882453 
L 123.48 115.313151 
L 124.494545 115.313151 
L 124.494545 111.716129 
L 125.509091 111.716129 
L 125.509091 107.862177 
L 126.523636 107.862177 
L 126.523636 103.751294 
L 127.538182 103.751294 
L 127.538182 100.668132 
L 128.552727 100.668132 
L 128.552727 97.58497 
L 129.567273 97.58497 
L 129.567273 95.786459 
L 130.581818 95.786459 
L 130.581818 94.758738 
L 131.596364 94.758738 
L 131.596364 93.731017 
L 132.610909 93.731017 
L 132.610909 86.280043 
L 133.625455 86.280043 
L 133.625455 82.93995 
L 134.64 82.93995 
L 134.64 82.16916 
L 135.654545 82.16916 
L 135.654545 81.6553 
L 136.669091 81.6553 
L 136.669091 81.141439 
L 137.683636 81.141439 
L 137.683636 80.627579 
L 138.698182 80.627579 
L 138.698182 79.599858 
L 139.712727 79.599858 
L 139.712727 78.572138 
L 141.741818 78.572138 
L 141.741818 78.315207 
L 142.756364 78.315207 
L 142.756364 78.058277 
L 144.785455 78.058277 
L 144.785455 77.544417 
L 145.8 77.544417 
L 145.8 77.287487 
L 148.843636 77.287487 
L 148.843636 77.030557 
L 149.858182 77.030557 
L 149.858182 76.773626 
L 151.887273 76.773626 
L 151.887273 76.516696 
L 153.916364 76.516696 
L 153.916364 75.745906 
L 156.96 75.745906 
L 156.96 75.488976 
L 157.974545 75.488976 
L 157.974545 75.232045 
L 160.003636 75.232045 
L 160.003636 74.461255 
L 161.018182 74.461255 
L 161.018182 74.204325 
L 163.047273 74.204325 
L 163.047273 73.947395 
L 164.061818 73.947395 
L 164.061818 73.176604 
L 165.076364 73.176604 
L 165.076364 69.836512 
L 166.090909 69.836512 
L 166.090909 69.579582 
L 167.105455 69.579582 
L 167.105455 68.551861 
L 169.134545 68.551861 
L 169.134545 67.781071 
L 170.149091 67.781071 
L 170.149091 67.52414 
L 171.163636 67.52414 
L 171.163636 66.23949 
L 172.178182 66.23949 
L 172.178182 65.982559 
L 173.192727 65.982559 
L 173.192727 65.211769 
L 174.207273 65.211769 
L 174.207273 64.440978 
L 175.221818 64.440978 
L 175.221818 59.559305 
L 176.236364 59.559305 
L 176.236364 58.531585 
L 177.250909 58.531585 
L 177.250909 58.017724 
L 180.294545 58.017724 
L 180.294545 57.503864 
L 181.309091 57.503864 
L 181.309091 56.476143 
L 182.323636 56.476143 
L 182.323636 55.962283 
L 183.338182 55.962283 
L 183.338182 55.448423 
L 184.352727 55.448423 
L 184.352727 54.677632 
L 185.367273 54.677632 
L 185.367273 52.10833 
L 187.396364 52.10833 
L 187.396364 51.8514 
L 188.410909 51.8514 
L 188.410909 51.33754 
L 189.425455 51.33754 
L 189.425455 51.08061 
L 190.44 51.08061 
L 190.44 50.566749 
L 193.483636 50.566749 
L 193.483636 50.309819 
L 194.498182 50.309819 
L 194.498182 49.795959 
L 195.512727 49.795959 
L 195.512727 49.025168 
L 196.527273 49.025168 
L 196.527273 48.768238 
L 197.541818 48.768238 
L 197.541818 48.511308 
L 198.556364 48.511308 
L 198.556364 48.254378 
L 205.658182 48.254378 
L 205.658182 47.483587 
L 208.701818 47.483587 
L 208.701818 47.226657 
L 215.803636 47.226657 
L 215.803636 46.969727 
L 218.847273 46.969727 
L 218.847273 46.712797 
L 224.934545 46.712797 
L 224.934545 46.455867 
L 245.225455 46.455867 
L 245.225455 46.198937 
L 246.24 46.198937 
L 246.24 45.942006 
L 275.661818 45.942006 
L 275.661818 45.685076 
L 276.676364 45.685076 
L 276.676364 45.428146 
L 327.403636 45.428146 
L 327.403636 45.171216 
L 396.392727 45.171216 
L 396.392727 44.914286 
L 622.636364 44.914286 
L 622.636364 252 
L 622.636364 252 
" style="fill:none;stroke:#ff7f0e;stroke-linejoin:miter;stroke-width:2;"/>
   </g>
   <g id="patch_5">
    <path clip-path="url(#p6ce4edad79)" d="M 115.363636 252 
L 115.363636 236.812236 
L 116.378182 236.812236 
L 116.378182 197.124503 
L 117.392727 197.124503 
L 117.392727 184.153931 
L 118.407273 184.153931 
L 118.407273 181.493301 
L 119.421818 181.493301 
L 119.421818 176.39376 
L 120.436364 176.39376 
L 120.436364 168.966167 
L 121.450909 168.966167 
L 121.450909 157.547629 
L 122.465455 157.547629 
L 122.465455 149.898318 
L 123.48 149.898318 
L 123.48 147.681126 
L 124.494545 147.681126 
L 124.494545 145.574794 
L 125.509091 145.574794 
L 125.509091 143.246742 
L 126.523636 143.246742 
L 126.523636 141.25127 
L 127.538182 141.25127 
L 127.538182 139.699235 
L 128.552727 139.699235 
L 128.552727 138.258061 
L 129.567273 138.258061 
L 129.567273 137.482043 
L 130.581818 137.482043 
L 130.581818 136.927745 
L 131.596364 136.927745 
L 131.596364 135.59743 
L 132.610909 135.59743 
L 132.610909 128.724136 
L 133.625455 128.724136 
L 133.625455 123.957173 
L 134.64 123.957173 
L 134.64 122.959437 
L 135.654545 122.959437 
L 135.654545 122.405139 
L 136.669091 122.405139 
L 136.669091 121.961701 
L 137.683636 121.961701 
L 137.683636 121.518262 
L 138.698182 121.518262 
L 138.698182 121.074824 
L 139.712727 121.074824 
L 139.712727 120.409667 
L 140.727273 120.409667 
L 140.727273 120.077088 
L 142.756364 119.966228 
L 142.756364 119.855369 
L 144.785455 119.855369 
L 144.785455 119.52279 
L 148.843636 119.41193 
L 148.843636 119.301071 
L 151.887273 119.190211 
L 151.887273 119.079351 
L 153.916364 119.079351 
L 153.916364 118.746773 
L 156.96 118.746773 
L 156.96 118.414194 
L 160.003636 118.303334 
L 160.003636 117.970756 
L 163.047273 117.859896 
L 163.047273 117.749036 
L 164.061818 117.749036 
L 164.061818 117.416458 
L 165.076364 117.416458 
L 165.076364 115.975283 
L 167.105455 115.864423 
L 167.105455 115.420985 
L 169.134545 115.420985 
L 169.134545 115.088406 
L 171.163636 114.977547 
L 171.163636 114.423249 
L 173.192727 114.312389 
L 173.192727 113.97981 
L 174.207273 113.97981 
L 174.207273 113.647232 
L 175.221818 113.647232 
L 175.221818 111.540899 
L 176.236364 111.540899 
L 176.236364 111.097461 
L 177.250909 111.097461 
L 177.250909 110.875742 
L 180.294545 110.875742 
L 180.294545 110.654023 
L 181.309091 110.654023 
L 181.309091 110.210584 
L 182.323636 110.210584 
L 182.323636 109.767146 
L 183.338182 109.767146 
L 183.338182 109.545427 
L 184.352727 109.545427 
L 184.352727 109.212848 
L 185.367273 109.212848 
L 185.367273 108.104252 
L 188.410909 107.993392 
L 188.410909 107.771673 
L 190.44 107.660814 
L 190.44 107.439095 
L 194.498182 107.328235 
L 194.498182 107.106516 
L 195.512727 107.106516 
L 195.512727 106.773937 
L 197.541818 106.663077 
L 197.541818 106.552218 
L 205.658182 106.441358 
L 205.658182 106.108779 
L 212.76 105.99792 
L 212.76 104.667605 
L 214.789091 104.667605 
L 214.789091 101.452677 
L 215.803636 101.452677 
L 215.803636 100.898379 
L 216.818182 100.898379 
L 216.818182 99.678923 
L 217.832727 99.678923 
L 217.832727 98.792046 
L 218.847273 98.792046 
L 218.847273 97.683451 
L 219.861818 97.683451 
L 219.861818 96.685714 
L 220.876364 96.685714 
L 220.876364 94.911961 
L 221.890909 94.911961 
L 221.890909 93.914225 
L 222.905455 93.914225 
L 222.905455 92.47305 
L 223.92 92.47305 
L 223.92 91.253594 
L 224.934545 91.253594 
L 224.934545 90.810156 
L 225.949091 90.810156 
L 225.949091 90.144998 
L 226.963636 90.144998 
L 226.963636 89.258122 
L 230.007273 89.147262 
L 230.007273 89.036403 
L 231.021818 89.036403 
L 231.021818 86.486632 
L 232.036364 86.486632 
L 232.036364 85.599755 
L 235.08 85.488896 
L 235.08 85.156317 
L 236.094545 85.156317 
L 236.094545 84.602019 
L 237.109091 84.602019 
L 237.109091 83.936861 
L 238.123636 83.936861 
L 238.123636 83.715142 
L 245.225455 83.715142 
L 245.225455 82.939125 
L 246.24 82.939125 
L 246.24 82.052248 
L 275.661818 81.941389 
L 275.661818 81.830529 
L 310.156364 81.71967 
L 310.156364 81.60881 
L 311.170909 81.60881 
L 311.170909 78.83732 
L 312.185455 78.83732 
L 312.185455 77.617865 
L 313.2 77.617865 
L 313.2 77.396146 
L 316.243636 77.285286 
L 316.243636 77.174426 
L 317.258182 77.174426 
L 317.258182 76.730988 
L 318.272727 76.730988 
L 318.272727 75.844111 
L 319.287273 75.844111 
L 319.287273 69.746834 
L 320.301818 69.746834 
L 320.301818 67.418783 
L 321.316364 67.418783 
L 321.316364 64.758152 
L 322.330909 64.758152 
L 322.330909 63.871276 
L 323.345455 63.871276 
L 323.345455 63.538697 
L 324.36 63.538697 
L 324.36 63.206118 
L 325.374545 63.206118 
L 325.374545 62.76268 
L 326.389091 62.76268 
L 326.389091 62.319241 
L 327.403636 62.319241 
L 327.403636 62.097522 
L 332.476364 61.986663 
L 332.476364 61.875803 
L 378.130909 61.875803 
L 378.130909 61.543224 
L 379.145455 61.543224 
L 379.145455 61.099786 
L 385.232727 60.988926 
L 385.232727 60.545488 
L 387.261818 60.545488 
L 387.261818 60.323769 
L 388.276364 60.323769 
L 388.276364 60.10205 
L 390.305455 60.10205 
L 390.305455 59.88033 
L 393.349091 59.769471 
L 393.349091 59.547752 
L 396.392727 59.436892 
L 396.392727 58.993454 
L 400.450909 58.882594 
L 400.450909 58.771734 
L 417.698182 58.771734 
L 417.698182 58.328296 
L 418.712727 58.328296 
L 418.712727 54.891649 
L 419.727273 54.891649 
L 419.727273 54.66993 
L 423.785455 54.55907 
L 423.785455 51.565861 
L 424.8 51.565861 
L 424.8 50.457265 
L 426.829091 50.457265 
L 426.829091 49.459529 
L 427.843636 49.459529 
L 427.843636 47.464056 
L 428.858182 47.464056 
L 428.858182 47.131478 
L 492.774545 47.020618 
L 492.774545 46.909758 
L 493.789091 46.909758 
L 493.789091 45.468584 
L 495.818182 45.357724 
L 495.818182 45.246864 
L 499.876364 45.136005 
L 499.876364 45.025145 
L 622.636364 44.914286 
L 622.636364 252 
L 622.636364 252 
" style="fill:none;stroke:#2ca02c;stroke-linejoin:miter;stroke-width:2;"/>
   </g>
   <g id="matplotlib.axis_1">
    <g id="xtick_1">
     <g id="line2d_1">
      <path clip-path="url(#p6ce4edad79)" d="M 115.363636 252 
L 115.363636 34.56 
" style="fill:none;stroke:#b0b0b0;stroke-linecap:square;stroke-width:0.8;"/>
     </g>
     <g id="line2d_2">
      <defs>
       <path d="M 0 0 
L 0 3.5 
" id="m5a105d7476" style="stroke:#000000;stroke-width:0.8;"/>
      </defs>
      <g>
       <use style="stroke:#000000;stroke-width:0.8;" x="115.363636" xlink:href="#m5a105d7476" y="252"/>
      </g>
     </g>
     <g id="text_1">
      <!-- 0 -->
      <defs>
       <path d="M 31.78125 66.40625 
Q 24.171875 66.40625 20.328125 58.90625 
Q 16.5 51.421875 16.5 36.375 
Q 16.5 21.390625 20.328125 13.890625 
Q 24.171875 6.390625 31.78125 6.390625 
Q 39.453125 6.390625 43.28125 13.890625 
Q 47.125 21.390625 47.125 36.375 
Q 47.125 51.421875 43.28125 58.90625 
Q 39.453125 66.40625 31.78125 66.40625 
z
M 31.78125 74.21875 
Q 44.046875 74.21875 50.515625 64.515625 
Q 56.984375 54.828125 56.984375 36.375 
Q 56.984375 17.96875 50.515625 8.265625 
Q 44.046875 -1.421875 31.78125 -1.421875 
Q 19.53125 -1.421875 13.0625 8.265625 
Q 6.59375 17.96875 6.59375 36.375 
Q 6.59375 54.828125 13.0625 64.515625 
Q 19.53125 74.21875 31.78125 74.21875 
z
" id="DejaVuSans-30"/>
      </defs>
      <g transform="translate(112.182386 266.598437)scale(0.1 -0.1)">
       <use xlink:href="#DejaVuSans-30"/>
      </g>
     </g>
    </g>
    <g id="xtick_2">
     <g id="line2d_3">
      <path clip-path="url(#p6ce4edad79)" d="M 216.818182 252 
L 216.818182 34.56 
" style="fill:none;stroke:#b0b0b0;stroke-linecap:square;stroke-width:0.8;"/>
     </g>
     <g id="line2d_4">
      <g>
       <use style="stroke:#000000;stroke-width:0.8;" x="216.818182" xlink:href="#m5a105d7476" y="252"/>
      </g>
     </g>
     <g id="text_2">
      <!-- 100 -->
      <defs>
       <path d="M 12.40625 8.296875 
L 28.515625 8.296875 
L 28.515625 63.921875 
L 10.984375 60.40625 
L 10.984375 69.390625 
L 28.421875 72.90625 
L 38.28125 72.90625 
L 38.28125 8.296875 
L 54.390625 8.296875 
L 54.390625 0 
L 12.40625 0 
z
" id="DejaVuSans-31"/>
      </defs>
      <g transform="translate(207.274432 266.598437)scale(0.1 -0.1)">
       <use xlink:href="#DejaVuSans-31"/>
       <use x="63.623047" xlink:href="#DejaVuSans-30"/>
       <use x="127.246094" xlink:href="#DejaVuSans-30"/>
      </g>
     </g>
    </g>
    <g id="xtick_3">
     <g id="line2d_5">
      <path clip-path="url(#p6ce4edad79)" d="M 318.272727 252 
L 318.272727 34.56 
" style="fill:none;stroke:#b0b0b0;stroke-linecap:square;stroke-width:0.8;"/>
     </g>
     <g id="line2d_6">
      <g>
       <use style="stroke:#000000;stroke-width:0.8;" x="318.272727" xlink:href="#m5a105d7476" y="252"/>
      </g>
     </g>
     <g id="text_3">
      <!-- 200 -->
      <defs>
       <path d="M 19.1875 8.296875 
L 53.609375 8.296875 
L 53.609375 0 
L 7.328125 0 
L 7.328125 8.296875 
Q 12.9375 14.109375 22.625 23.890625 
Q 32.328125 33.6875 34.8125 36.53125 
Q 39.546875 41.84375 41.421875 45.53125 
Q 43.3125 49.21875 43.3125 52.78125 
Q 43.3125 58.59375 39.234375 62.25 
Q 35.15625 65.921875 28.609375 65.921875 
Q 23.96875 65.921875 18.8125 64.3125 
Q 13.671875 62.703125 7.8125 59.421875 
L 7.8125 69.390625 
Q 13.765625 71.78125 18.9375 73 
Q 24.125 74.21875 28.421875 74.21875 
Q 39.75 74.21875 46.484375 68.546875 
Q 53.21875 62.890625 53.21875 53.421875 
Q 53.21875 48.921875 51.53125 44.890625 
Q 49.859375 40.875 45.40625 35.40625 
Q 44.1875 33.984375 37.640625 27.21875 
Q 31.109375 20.453125 19.1875 8.296875 
z
" id="DejaVuSans-32"/>
      </defs>
      <g transform="translate(308.728977 266.598437)scale(0.1 -0.1)">
       <use xlink:href="#DejaVuSans-32"/>
       <use x="63.623047" xlink:href="#DejaVuSans-30"/>
       <use x="127.246094" xlink:href="#DejaVuSans-30"/>
      </g>
     </g>
    </g>
    <g id="xtick_4">
     <g id="line2d_7">
      <path clip-path="url(#p6ce4edad79)" d="M 419.727273 252 
L 419.727273 34.56 
" style="fill:none;stroke:#b0b0b0;stroke-linecap:square;stroke-width:0.8;"/>
     </g>
     <g id="line2d_8">
      <g>
       <use style="stroke:#000000;stroke-width:0.8;" x="419.727273" xlink:href="#m5a105d7476" y="252"/>
      </g>
     </g>
     <g id="text_4">
      <!-- 300 -->
      <defs>
       <path d="M 40.578125 39.3125 
Q 47.65625 37.796875 51.625 33 
Q 55.609375 28.21875 55.609375 21.1875 
Q 55.609375 10.40625 48.1875 4.484375 
Q 40.765625 -1.421875 27.09375 -1.421875 
Q 22.515625 -1.421875 17.65625 -0.515625 
Q 12.796875 0.390625 7.625 2.203125 
L 7.625 11.71875 
Q 11.71875 9.328125 16.59375 8.109375 
Q 21.484375 6.890625 26.8125 6.890625 
Q 36.078125 6.890625 40.9375 10.546875 
Q 45.796875 14.203125 45.796875 21.1875 
Q 45.796875 27.640625 41.28125 31.265625 
Q 36.765625 34.90625 28.71875 34.90625 
L 20.21875 34.90625 
L 20.21875 43.015625 
L 29.109375 43.015625 
Q 36.375 43.015625 40.234375 45.921875 
Q 44.09375 48.828125 44.09375 54.296875 
Q 44.09375 59.90625 40.109375 62.90625 
Q 36.140625 65.921875 28.71875 65.921875 
Q 24.65625 65.921875 20.015625 65.03125 
Q 15.375 64.15625 9.8125 62.3125 
L 9.8125 71.09375 
Q 15.4375 72.65625 20.34375 73.4375 
Q 25.25 74.21875 29.59375 74.21875 
Q 40.828125 74.21875 47.359375 69.109375 
Q 53.90625 64.015625 53.90625 55.328125 
Q 53.90625 49.265625 50.4375 45.09375 
Q 46.96875 40.921875 40.578125 39.3125 
z
" id="DejaVuSans-33"/>
      </defs>
      <g transform="translate(410.183523 266.598437)scale(0.1 -0.1)">
       <use xlink:href="#DejaVuSans-33"/>
       <use x="63.623047" xlink:href="#DejaVuSans-30"/>
       <use x="127.246094" xlink:href="#DejaVuSans-30"/>
      </g>
     </g>
    </g>
    <g id="xtick_5">
     <g id="line2d_9">
      <path clip-path="url(#p6ce4edad79)" d="M 521.181818 252 
L 521.181818 34.56 
" style="fill:none;stroke:#b0b0b0;stroke-linecap:square;stroke-width:0.8;"/>
     </g>
     <g id="line2d_10">
      <g>
       <use style="stroke:#000000;stroke-width:0.8;" x="521.181818" xlink:href="#m5a105d7476" y="252"/>
      </g>
     </g>
     <g id="text_5">
      <!-- 400 -->
      <defs>
       <path d="M 37.796875 64.3125 
L 12.890625 25.390625 
L 37.796875 25.390625 
z
M 35.203125 72.90625 
L 47.609375 72.90625 
L 47.609375 25.390625 
L 58.015625 25.390625 
L 58.015625 17.1875 
L 47.609375 17.1875 
L 47.609375 0 
L 37.796875 0 
L 37.796875 17.1875 
L 4.890625 17.1875 
L 4.890625 26.703125 
z
" id="DejaVuSans-34"/>
      </defs>
      <g transform="translate(511.638068 266.598437)scale(0.1 -0.1)">
       <use xlink:href="#DejaVuSans-34"/>
       <use x="63.623047" xlink:href="#DejaVuSans-30"/>
       <use x="127.246094" xlink:href="#DejaVuSans-30"/>
      </g>
     </g>
    </g>
    <g id="xtick_6">
     <g id="line2d_11">
      <path clip-path="url(#p6ce4edad79)" d="M 622.636364 252 
L 622.636364 34.56 
" style="fill:none;stroke:#b0b0b0;stroke-linecap:square;stroke-width:0.8;"/>
     </g>
     <g id="line2d_12">
      <g>
       <use style="stroke:#000000;stroke-width:0.8;" x="622.636364" xlink:href="#m5a105d7476" y="252"/>
      </g>
     </g>
     <g id="text_6">
      <!-- 500 -->
      <defs>
       <path d="M 10.796875 72.90625 
L 49.515625 72.90625 
L 49.515625 64.59375 
L 19.828125 64.59375 
L 19.828125 46.734375 
Q 21.96875 47.46875 24.109375 47.828125 
Q 26.265625 48.1875 28.421875 48.1875 
Q 40.625 48.1875 47.75 41.5 
Q 54.890625 34.8125 54.890625 23.390625 
Q 54.890625 11.625 47.5625 5.09375 
Q 40.234375 -1.421875 26.90625 -1.421875 
Q 22.3125 -1.421875 17.546875 -0.640625 
Q 12.796875 0.140625 7.71875 1.703125 
L 7.71875 11.625 
Q 12.109375 9.234375 16.796875 8.0625 
Q 21.484375 6.890625 26.703125 6.890625 
Q 35.15625 6.890625 40.078125 11.328125 
Q 45.015625 15.765625 45.015625 23.390625 
Q 45.015625 31 40.078125 35.4375 
Q 35.15625 39.890625 26.703125 39.890625 
Q 22.75 39.890625 18.8125 39.015625 
Q 14.890625 38.140625 10.796875 36.28125 
z
" id="DejaVuSans-35"/>
      </defs>
      <g transform="translate(613.092614 266.598437)scale(0.1 -0.1)">
       <use xlink:href="#DejaVuSans-35"/>
       <use x="63.623047" xlink:href="#DejaVuSans-30"/>
       <use x="127.246094" xlink:href="#DejaVuSans-30"/>
      </g>
     </g>
    </g>
    <g id="text_7">
     <!-- ms -->
     <defs>
      <path d="M 52 44.1875 
Q 55.375 50.25 60.0625 53.125 
Q 64.75 56 71.09375 56 
Q 79.640625 56 84.28125 50.015625 
Q 88.921875 44.046875 88.921875 33.015625 
L 88.921875 0 
L 79.890625 0 
L 79.890625 32.71875 
Q 79.890625 40.578125 77.09375 44.375 
Q 74.3125 48.1875 68.609375 48.1875 
Q 61.625 48.1875 57.5625 43.546875 
Q 53.515625 38.921875 53.515625 30.90625 
L 53.515625 0 
L 44.484375 0 
L 44.484375 32.71875 
Q 44.484375 40.625 41.703125 44.40625 
Q 38.921875 48.1875 33.109375 48.1875 
Q 26.21875 48.1875 22.15625 43.53125 
Q 18.109375 38.875 18.109375 30.90625 
L 18.109375 0 
L 9.078125 0 
L 9.078125 54.6875 
L 18.109375 54.6875 
L 18.109375 46.1875 
Q 21.1875 51.21875 25.484375 53.609375 
Q 29.78125 56 35.6875 56 
Q 41.65625 56 45.828125 52.96875 
Q 50 49.953125 52 44.1875 
z
" id="DejaVuSans-6d"/>
      <path d="M 44.28125 53.078125 
L 44.28125 44.578125 
Q 40.484375 46.53125 36.375 47.5 
Q 32.28125 48.484375 27.875 48.484375 
Q 21.1875 48.484375 17.84375 46.4375 
Q 14.5 44.390625 14.5 40.28125 
Q 14.5 37.15625 16.890625 35.375 
Q 19.28125 33.59375 26.515625 31.984375 
L 29.59375 31.296875 
Q 39.15625 29.25 43.1875 25.515625 
Q 47.21875 21.78125 47.21875 15.09375 
Q 47.21875 7.46875 41.1875 3.015625 
Q 35.15625 -1.421875 24.609375 -1.421875 
Q 20.21875 -1.421875 15.453125 -0.5625 
Q 10.6875 0.296875 5.421875 2 
L 5.421875 11.28125 
Q 10.40625 8.6875 15.234375 7.390625 
Q 20.0625 6.109375 24.8125 6.109375 
Q 31.15625 6.109375 34.5625 8.28125 
Q 37.984375 10.453125 37.984375 14.40625 
Q 37.984375 18.0625 35.515625 20.015625 
Q 33.0625 21.96875 24.703125 23.78125 
L 21.578125 24.515625 
Q 13.234375 26.265625 9.515625 29.90625 
Q 5.8125 33.546875 5.8125 39.890625 
Q 5.8125 47.609375 11.28125 51.796875 
Q 16.75 56 26.8125 56 
Q 31.78125 56 36.171875 55.265625 
Q 40.578125 54.546875 44.28125 53.078125 
z
" id="DejaVuSans-73"/>
     </defs>
     <g transform="translate(361.525 280.276563)scale(0.1 -0.1)">
      <use xlink:href="#DejaVuSans-6d"/>
      <use x="97.412109" xlink:href="#DejaVuSans-73"/>
     </g>
    </g>
   </g>
   <g id="matplotlib.axis_2">
    <g id="ytick_1">
     <g id="line2d_13">
      <path clip-path="url(#p6ce4edad79)" d="M 90 252 
L 648 252 
" style="fill:none;stroke:#b0b0b0;stroke-linecap:square;stroke-width:0.8;"/>
     </g>
     <g id="line2d_14">
      <defs>
       <path d="M 0 0 
L -3.5 0 
" id="m36c7b39d1a" style="stroke:#000000;stroke-width:0.8;"/>
      </defs>
      <g>
       <use style="stroke:#000000;stroke-width:0.8;" x="90" xlink:href="#m36c7b39d1a" y="252"/>
      </g>
     </g>
     <g id="text_8">
      <!-- 0.0 -->
      <defs>
       <path d="M 10.6875 12.40625 
L 21 12.40625 
L 21 0 
L 10.6875 0 
z
" id="DejaVuSans-2e"/>
      </defs>
      <g transform="translate(67.096875 255.799219)scale(0.1 -0.1)">
       <use xlink:href="#DejaVuSans-30"/>
       <use x="63.623047" xlink:href="#DejaVuSans-2e"/>
       <use x="95.410156" xlink:href="#DejaVuSans-30"/>
      </g>
     </g>
    </g>
    <g id="ytick_2">
     <g id="line2d_15">
      <path clip-path="url(#p6ce4edad79)" d="M 90 210.582857 
L 648 210.582857 
" style="fill:none;stroke:#b0b0b0;stroke-linecap:square;stroke-width:0.8;"/>
     </g>
     <g id="line2d_16">
      <g>
       <use style="stroke:#000000;stroke-width:0.8;" x="90" xlink:href="#m36c7b39d1a" y="210.582857"/>
      </g>
     </g>
     <g id="text_9">
      <!-- 0.2 -->
      <g transform="translate(67.096875 214.382076)scale(0.1 -0.1)">
       <use xlink:href="#DejaVuSans-30"/>
       <use x="63.623047" xlink:href="#DejaVuSans-2e"/>
       <use x="95.410156" xlink:href="#DejaVuSans-32"/>
      </g>
     </g>
    </g>
    <g id="ytick_3">
     <g id="line2d_17">
      <path clip-path="url(#p6ce4edad79)" d="M 90 169.165714 
L 648 169.165714 
" style="fill:none;stroke:#b0b0b0;stroke-linecap:square;stroke-width:0.8;"/>
     </g>
     <g id="line2d_18">
      <g>
       <use style="stroke:#000000;stroke-width:0.8;" x="90" xlink:href="#m36c7b39d1a" y="169.165714"/>
      </g>
     </g>
     <g id="text_10">
      <!-- 0.4 -->
      <g transform="translate(67.096875 172.964933)scale(0.1 -0.1)">
       <use xlink:href="#DejaVuSans-30"/>
       <use x="63.623047" xlink:href="#DejaVuSans-2e"/>
       <use x="95.410156" xlink:href="#DejaVuSans-34"/>
      </g>
     </g>
    </g>
    <g id="ytick_4">
     <g id="line2d_19">
      <path clip-path="url(#p6ce4edad79)" d="M 90 127.748571 
L 648 127.748571 
" style="fill:none;stroke:#b0b0b0;stroke-linecap:square;stroke-width:0.8;"/>
     </g>
     <g id="line2d_20">
      <g>
       <use style="stroke:#000000;stroke-width:0.8;" x="90" xlink:href="#m36c7b39d1a" y="127.748571"/>
      </g>
     </g>
     <g id="text_11">
      <!-- 0.6 -->
      <defs>
       <path d="M 33.015625 40.375 
Q 26.375 40.375 22.484375 35.828125 
Q 18.609375 31.296875 18.609375 23.390625 
Q 18.609375 15.53125 22.484375 10.953125 
Q 26.375 6.390625 33.015625 6.390625 
Q 39.65625 6.390625 43.53125 10.953125 
Q 47.40625 15.53125 47.40625 23.390625 
Q 47.40625 31.296875 43.53125 35.828125 
Q 39.65625 40.375 33.015625 40.375 
z
M 52.59375 71.296875 
L 52.59375 62.3125 
Q 48.875 64.0625 45.09375 64.984375 
Q 41.3125 65.921875 37.59375 65.921875 
Q 27.828125 65.921875 22.671875 59.328125 
Q 17.53125 52.734375 16.796875 39.40625 
Q 19.671875 43.65625 24.015625 45.921875 
Q 28.375 48.1875 33.59375 48.1875 
Q 44.578125 48.1875 50.953125 41.515625 
Q 57.328125 34.859375 57.328125 23.390625 
Q 57.328125 12.15625 50.6875 5.359375 
Q 44.046875 -1.421875 33.015625 -1.421875 
Q 20.359375 -1.421875 13.671875 8.265625 
Q 6.984375 17.96875 6.984375 36.375 
Q 6.984375 53.65625 15.1875 63.9375 
Q 23.390625 74.21875 37.203125 74.21875 
Q 40.921875 74.21875 44.703125 73.484375 
Q 48.484375 72.75 52.59375 71.296875 
z
" id="DejaVuSans-36"/>
      </defs>
      <g transform="translate(67.096875 131.54779)scale(0.1 -0.1)">
       <use xlink:href="#DejaVuSans-30"/>
       <use x="63.623047" xlink:href="#DejaVuSans-2e"/>
       <use x="95.410156" xlink:href="#DejaVuSans-36"/>
      </g>
     </g>
    </g>
    <g id="ytick_5">
     <g id="line2d_21">
      <path clip-path="url(#p6ce4edad79)" d="M 90 86.331429 
L 648 86.331429 
" style="fill:none;stroke:#b0b0b0;stroke-linecap:square;stroke-width:0.8;"/>
     </g>
     <g id="line2d_22">
      <g>
       <use style="stroke:#000000;stroke-width:0.8;" x="90" xlink:href="#m36c7b39d1a" y="86.331429"/>
      </g>
     </g>
     <g id="text_12">
      <!-- 0.8 -->
      <defs>
       <path d="M 31.78125 34.625 
Q 24.75 34.625 20.71875 30.859375 
Q 16.703125 27.09375 16.703125 20.515625 
Q 16.703125 13.921875 20.71875 10.15625 
Q 24.75 6.390625 31.78125 6.390625 
Q 38.8125 6.390625 42.859375 10.171875 
Q 46.921875 13.96875 46.921875 20.515625 
Q 46.921875 27.09375 42.890625 30.859375 
Q 38.875 34.625 31.78125 34.625 
z
M 21.921875 38.8125 
Q 15.578125 40.375 12.03125 44.71875 
Q 8.5 49.078125 8.5 55.328125 
Q 8.5 64.0625 14.71875 69.140625 
Q 20.953125 74.21875 31.78125 74.21875 
Q 42.671875 74.21875 48.875 69.140625 
Q 55.078125 64.0625 55.078125 55.328125 
Q 55.078125 49.078125 51.53125 44.71875 
Q 48 40.375 41.703125 38.8125 
Q 48.828125 37.15625 52.796875 32.3125 
Q 56.78125 27.484375 56.78125 20.515625 
Q 56.78125 9.90625 50.3125 4.234375 
Q 43.84375 -1.421875 31.78125 -1.421875 
Q 19.734375 -1.421875 13.25 4.234375 
Q 6.78125 9.90625 6.78125 20.515625 
Q 6.78125 27.484375 10.78125 32.3125 
Q 14.796875 37.15625 21.921875 38.8125 
z
M 18.3125 54.390625 
Q 18.3125 48.734375 21.84375 45.5625 
Q 25.390625 42.390625 31.78125 42.390625 
Q 38.140625 42.390625 41.71875 45.5625 
Q 45.3125 48.734375 45.3125 54.390625 
Q 45.3125 60.0625 41.71875 63.234375 
Q 38.140625 66.40625 31.78125 66.40625 
Q 25.390625 66.40625 21.84375 63.234375 
Q 18.3125 60.0625 18.3125 54.390625 
z
" id="DejaVuSans-38"/>
      </defs>
      <g transform="translate(67.096875 90.130647)scale(0.1 -0.1)">
       <use xlink:href="#DejaVuSans-30"/>
       <use x="63.623047" xlink:href="#DejaVuSans-2e"/>
       <use x="95.410156" xlink:href="#DejaVuSans-38"/>
      </g>
     </g>
    </g>
    <g id="ytick_6">
     <g id="line2d_23">
      <path clip-path="url(#p6ce4edad79)" d="M 90 44.914286 
L 648 44.914286 
" style="fill:none;stroke:#b0b0b0;stroke-linecap:square;stroke-width:0.8;"/>
     </g>
     <g id="line2d_24">
      <g>
       <use style="stroke:#000000;stroke-width:0.8;" x="90" xlink:href="#m36c7b39d1a" y="44.914286"/>
      </g>
     </g>
     <g id="text_13">
      <!-- 1.0 -->
      <g transform="translate(67.096875 48.713504)scale(0.1 -0.1)">
       <use xlink:href="#DejaVuSans-31"/>
       <use x="63.623047" xlink:href="#DejaVuSans-2e"/>
       <use x="95.410156" xlink:href="#DejaVuSans-30"/>
      </g>
     </g>
    </g>
    <g id="text_14">
     <!-- CDF -->
     <defs>
      <path d="M 64.40625 67.28125 
L 64.40625 56.890625 
Q 59.421875 61.53125 53.78125 63.8125 
Q 48.140625 66.109375 41.796875 66.109375 
Q 29.296875 66.109375 22.65625 58.46875 
Q 16.015625 50.828125 16.015625 36.375 
Q 16.015625 21.96875 22.65625 14.328125 
Q 29.296875 6.6875 41.796875 6.6875 
Q 48.140625 6.6875 53.78125 8.984375 
Q 59.421875 11.28125 64.40625 15.921875 
L 64.40625 5.609375 
Q 59.234375 2.09375 53.4375 0.328125 
Q 47.65625 -1.421875 41.21875 -1.421875 
Q 24.65625 -1.421875 15.125 8.703125 
Q 5.609375 18.84375 5.609375 36.375 
Q 5.609375 53.953125 15.125 64.078125 
Q 24.65625 74.21875 41.21875 74.21875 
Q 47.75 74.21875 53.53125 72.484375 
Q 59.328125 70.75 64.40625 67.28125 
z
" id="DejaVuSans-43"/>
      <path d="M 19.671875 64.796875 
L 19.671875 8.109375 
L 31.59375 8.109375 
Q 46.6875 8.109375 53.6875 14.9375 
Q 60.6875 21.78125 60.6875 36.53125 
Q 60.6875 51.171875 53.6875 57.984375 
Q 46.6875 64.796875 31.59375 64.796875 
z
M 9.8125 72.90625 
L 30.078125 72.90625 
Q 51.265625 72.90625 61.171875 64.09375 
Q 71.09375 55.28125 71.09375 36.53125 
Q 71.09375 17.671875 61.125 8.828125 
Q 51.171875 0 30.078125 0 
L 9.8125 0 
z
" id="DejaVuSans-44"/>
      <path d="M 9.8125 72.90625 
L 51.703125 72.90625 
L 51.703125 64.59375 
L 19.671875 64.59375 
L 19.671875 43.109375 
L 48.578125 43.109375 
L 48.578125 34.8125 
L 19.671875 34.8125 
L 19.671875 0 
L 9.8125 0 
z
" id="DejaVuSans-46"/>
     </defs>
     <g transform="translate(61.017187 153.497187)rotate(-90)scale(0.1 -0.1)">
      <use xlink:href="#DejaVuSans-43"/>
      <use x="69.824219" xlink:href="#DejaVuSans-44"/>
      <use x="146.826172" xlink:href="#DejaVuSans-46"/>
     </g>
    </g>
   </g>
   <g id="patch_6">
    <path d="M 90 252 
L 90 34.56 
" style="fill:none;stroke:#000000;stroke-linecap:square;stroke-linejoin:miter;stroke-width:0.8;"/>
   </g>
   <g id="patch_7">
    <path d="M 648 252 
L 648 34.56 
" style="fill:none;stroke:#000000;stroke-linecap:square;stroke-linejoin:miter;stroke-width:0.8;"/>
   </g>
   <g id="patch_8">
    <path d="M 90 252 
L 648 252 
" style="fill:none;stroke:#000000;stroke-linecap:square;stroke-linejoin:miter;stroke-width:0.8;"/>
   </g>
   <g id="patch_9">
    <path d="M 90 34.56 
L 648 34.56 
" style="fill:none;stroke:#000000;stroke-linecap:square;stroke-linejoin:miter;stroke-width:0.8;"/>
   </g>
   <g id="text_15">
    <!-- RTT for Locally hosted vs Locally hosted with interhop vs Remotely hosted -->
    <defs>
     <path d="M 44.390625 34.1875 
Q 47.5625 33.109375 50.5625 29.59375 
Q 53.5625 26.078125 56.59375 19.921875 
L 66.609375 0 
L 56 0 
L 46.6875 18.703125 
Q 43.0625 26.03125 39.671875 28.421875 
Q 36.28125 30.8125 30.421875 30.8125 
L 19.671875 30.8125 
L 19.671875 0 
L 9.8125 0 
L 9.8125 72.90625 
L 32.078125 72.90625 
Q 44.578125 72.90625 50.734375 67.671875 
Q 56.890625 62.453125 56.890625 51.90625 
Q 56.890625 45.015625 53.6875 40.46875 
Q 50.484375 35.9375 44.390625 34.1875 
z
M 19.671875 64.796875 
L 19.671875 38.921875 
L 32.078125 38.921875 
Q 39.203125 38.921875 42.84375 42.21875 
Q 46.484375 45.515625 46.484375 51.90625 
Q 46.484375 58.296875 42.84375 61.546875 
Q 39.203125 64.796875 32.078125 64.796875 
z
" id="DejaVuSans-52"/>
     <path d="M -0.296875 72.90625 
L 61.375 72.90625 
L 61.375 64.59375 
L 35.5 64.59375 
L 35.5 0 
L 25.59375 0 
L 25.59375 64.59375 
L -0.296875 64.59375 
z
" id="DejaVuSans-54"/>
     <path id="DejaVuSans-20"/>
     <path d="M 37.109375 75.984375 
L 37.109375 68.5 
L 28.515625 68.5 
Q 23.6875 68.5 21.796875 66.546875 
Q 19.921875 64.59375 19.921875 59.515625 
L 19.921875 54.6875 
L 34.71875 54.6875 
L 34.71875 47.703125 
L 19.921875 47.703125 
L 19.921875 0 
L 10.890625 0 
L 10.890625 47.703125 
L 2.296875 47.703125 
L 2.296875 54.6875 
L 10.890625 54.6875 
L 10.890625 58.5 
Q 10.890625 67.625 15.140625 71.796875 
Q 19.390625 75.984375 28.609375 75.984375 
z
" id="DejaVuSans-66"/>
     <path d="M 30.609375 48.390625 
Q 23.390625 48.390625 19.1875 42.75 
Q 14.984375 37.109375 14.984375 27.296875 
Q 14.984375 17.484375 19.15625 11.84375 
Q 23.34375 6.203125 30.609375 6.203125 
Q 37.796875 6.203125 41.984375 11.859375 
Q 46.1875 17.53125 46.1875 27.296875 
Q 46.1875 37.015625 41.984375 42.703125 
Q 37.796875 48.390625 30.609375 48.390625 
z
M 30.609375 56 
Q 42.328125 56 49.015625 48.375 
Q 55.71875 40.765625 55.71875 27.296875 
Q 55.71875 13.875 49.015625 6.21875 
Q 42.328125 -1.421875 30.609375 -1.421875 
Q 18.84375 -1.421875 12.171875 6.21875 
Q 5.515625 13.875 5.515625 27.296875 
Q 5.515625 40.765625 12.171875 48.375 
Q 18.84375 56 30.609375 56 
z
" id="DejaVuSans-6f"/>
     <path d="M 41.109375 46.296875 
Q 39.59375 47.171875 37.8125 47.578125 
Q 36.03125 48 33.890625 48 
Q 26.265625 48 22.1875 43.046875 
Q 18.109375 38.09375 18.109375 28.8125 
L 18.109375 0 
L 9.078125 0 
L 9.078125 54.6875 
L 18.109375 54.6875 
L 18.109375 46.1875 
Q 20.953125 51.171875 25.484375 53.578125 
Q 30.03125 56 36.53125 56 
Q 37.453125 56 38.578125 55.875 
Q 39.703125 55.765625 41.0625 55.515625 
z
" id="DejaVuSans-72"/>
     <path d="M 9.8125 72.90625 
L 19.671875 72.90625 
L 19.671875 8.296875 
L 55.171875 8.296875 
L 55.171875 0 
L 9.8125 0 
z
" id="DejaVuSans-4c"/>
     <path d="M 48.78125 52.59375 
L 48.78125 44.1875 
Q 44.96875 46.296875 41.140625 47.34375 
Q 37.3125 48.390625 33.40625 48.390625 
Q 24.65625 48.390625 19.8125 42.84375 
Q 14.984375 37.3125 14.984375 27.296875 
Q 14.984375 17.28125 19.8125 11.734375 
Q 24.65625 6.203125 33.40625 6.203125 
Q 37.3125 6.203125 41.140625 7.25 
Q 44.96875 8.296875 48.78125 10.40625 
L 48.78125 2.09375 
Q 45.015625 0.34375 40.984375 -0.53125 
Q 36.96875 -1.421875 32.421875 -1.421875 
Q 20.0625 -1.421875 12.78125 6.34375 
Q 5.515625 14.109375 5.515625 27.296875 
Q 5.515625 40.671875 12.859375 48.328125 
Q 20.21875 56 33.015625 56 
Q 37.15625 56 41.109375 55.140625 
Q 45.0625 54.296875 48.78125 52.59375 
z
" id="DejaVuSans-63"/>
     <path d="M 34.28125 27.484375 
Q 23.390625 27.484375 19.1875 25 
Q 14.984375 22.515625 14.984375 16.5 
Q 14.984375 11.71875 18.140625 8.90625 
Q 21.296875 6.109375 26.703125 6.109375 
Q 34.1875 6.109375 38.703125 11.40625 
Q 43.21875 16.703125 43.21875 25.484375 
L 43.21875 27.484375 
z
M 52.203125 31.203125 
L 52.203125 0 
L 43.21875 0 
L 43.21875 8.296875 
Q 40.140625 3.328125 35.546875 0.953125 
Q 30.953125 -1.421875 24.3125 -1.421875 
Q 15.921875 -1.421875 10.953125 3.296875 
Q 6 8.015625 6 15.921875 
Q 6 25.140625 12.171875 29.828125 
Q 18.359375 34.515625 30.609375 34.515625 
L 43.21875 34.515625 
L 43.21875 35.40625 
Q 43.21875 41.609375 39.140625 45 
Q 35.0625 48.390625 27.6875 48.390625 
Q 23 48.390625 18.546875 47.265625 
Q 14.109375 46.140625 10.015625 43.890625 
L 10.015625 52.203125 
Q 14.9375 54.109375 19.578125 55.046875 
Q 24.21875 56 28.609375 56 
Q 40.484375 56 46.34375 49.84375 
Q 52.203125 43.703125 52.203125 31.203125 
z
" id="DejaVuSans-61"/>
     <path d="M 9.421875 75.984375 
L 18.40625 75.984375 
L 18.40625 0 
L 9.421875 0 
z
" id="DejaVuSans-6c"/>
     <path d="M 32.171875 -5.078125 
Q 28.375 -14.84375 24.75 -17.8125 
Q 21.140625 -20.796875 15.09375 -20.796875 
L 7.90625 -20.796875 
L 7.90625 -13.28125 
L 13.1875 -13.28125 
Q 16.890625 -13.28125 18.9375 -11.515625 
Q 21 -9.765625 23.484375 -3.21875 
L 25.09375 0.875 
L 2.984375 54.6875 
L 12.5 54.6875 
L 29.59375 11.921875 
L 46.6875 54.6875 
L 56.203125 54.6875 
z
" id="DejaVuSans-79"/>
     <path d="M 54.890625 33.015625 
L 54.890625 0 
L 45.90625 0 
L 45.90625 32.71875 
Q 45.90625 40.484375 42.875 44.328125 
Q 39.84375 48.1875 33.796875 48.1875 
Q 26.515625 48.1875 22.3125 43.546875 
Q 18.109375 38.921875 18.109375 30.90625 
L 18.109375 0 
L 9.078125 0 
L 9.078125 75.984375 
L 18.109375 75.984375 
L 18.109375 46.1875 
Q 21.34375 51.125 25.703125 53.5625 
Q 30.078125 56 35.796875 56 
Q 45.21875 56 50.046875 50.171875 
Q 54.890625 44.34375 54.890625 33.015625 
z
" id="DejaVuSans-68"/>
     <path d="M 18.3125 70.21875 
L 18.3125 54.6875 
L 36.8125 54.6875 
L 36.8125 47.703125 
L 18.3125 47.703125 
L 18.3125 18.015625 
Q 18.3125 11.328125 20.140625 9.421875 
Q 21.96875 7.515625 27.59375 7.515625 
L 36.8125 7.515625 
L 36.8125 0 
L 27.59375 0 
Q 17.1875 0 13.234375 3.875 
Q 9.28125 7.765625 9.28125 18.015625 
L 9.28125 47.703125 
L 2.6875 47.703125 
L 2.6875 54.6875 
L 9.28125 54.6875 
L 9.28125 70.21875 
z
" id="DejaVuSans-74"/>
     <path d="M 56.203125 29.59375 
L 56.203125 25.203125 
L 14.890625 25.203125 
Q 15.484375 15.921875 20.484375 11.0625 
Q 25.484375 6.203125 34.421875 6.203125 
Q 39.59375 6.203125 44.453125 7.46875 
Q 49.3125 8.734375 54.109375 11.28125 
L 54.109375 2.78125 
Q 49.265625 0.734375 44.1875 -0.34375 
Q 39.109375 -1.421875 33.890625 -1.421875 
Q 20.796875 -1.421875 13.15625 6.1875 
Q 5.515625 13.8125 5.515625 26.8125 
Q 5.515625 40.234375 12.765625 48.109375 
Q 20.015625 56 32.328125 56 
Q 43.359375 56 49.78125 48.890625 
Q 56.203125 41.796875 56.203125 29.59375 
z
M 47.21875 32.234375 
Q 47.125 39.59375 43.09375 43.984375 
Q 39.0625 48.390625 32.421875 48.390625 
Q 24.90625 48.390625 20.390625 44.140625 
Q 15.875 39.890625 15.1875 32.171875 
z
" id="DejaVuSans-65"/>
     <path d="M 45.40625 46.390625 
L 45.40625 75.984375 
L 54.390625 75.984375 
L 54.390625 0 
L 45.40625 0 
L 45.40625 8.203125 
Q 42.578125 3.328125 38.25 0.953125 
Q 33.9375 -1.421875 27.875 -1.421875 
Q 17.96875 -1.421875 11.734375 6.484375 
Q 5.515625 14.40625 5.515625 27.296875 
Q 5.515625 40.1875 11.734375 48.09375 
Q 17.96875 56 27.875 56 
Q 33.9375 56 38.25 53.625 
Q 42.578125 51.265625 45.40625 46.390625 
z
M 14.796875 27.296875 
Q 14.796875 17.390625 18.875 11.75 
Q 22.953125 6.109375 30.078125 6.109375 
Q 37.203125 6.109375 41.296875 11.75 
Q 45.40625 17.390625 45.40625 27.296875 
Q 45.40625 37.203125 41.296875 42.84375 
Q 37.203125 48.484375 30.078125 48.484375 
Q 22.953125 48.484375 18.875 42.84375 
Q 14.796875 37.203125 14.796875 27.296875 
z
" id="DejaVuSans-64"/>
     <path d="M 2.984375 54.6875 
L 12.5 54.6875 
L 29.59375 8.796875 
L 46.6875 54.6875 
L 56.203125 54.6875 
L 35.6875 0 
L 23.484375 0 
z
" id="DejaVuSans-76"/>
     <path d="M 4.203125 54.6875 
L 13.1875 54.6875 
L 24.421875 12.015625 
L 35.59375 54.6875 
L 46.1875 54.6875 
L 57.421875 12.015625 
L 68.609375 54.6875 
L 77.59375 54.6875 
L 63.28125 0 
L 52.6875 0 
L 40.921875 44.828125 
L 29.109375 0 
L 18.5 0 
z
" id="DejaVuSans-77"/>
     <path d="M 9.421875 54.6875 
L 18.40625 54.6875 
L 18.40625 0 
L 9.421875 0 
z
M 9.421875 75.984375 
L 18.40625 75.984375 
L 18.40625 64.59375 
L 9.421875 64.59375 
z
" id="DejaVuSans-69"/>
     <path d="M 54.890625 33.015625 
L 54.890625 0 
L 45.90625 0 
L 45.90625 32.71875 
Q 45.90625 40.484375 42.875 44.328125 
Q 39.84375 48.1875 33.796875 48.1875 
Q 26.515625 48.1875 22.3125 43.546875 
Q 18.109375 38.921875 18.109375 30.90625 
L 18.109375 0 
L 9.078125 0 
L 9.078125 54.6875 
L 18.109375 54.6875 
L 18.109375 46.1875 
Q 21.34375 51.125 25.703125 53.5625 
Q 30.078125 56 35.796875 56 
Q 45.21875 56 50.046875 50.171875 
Q 54.890625 44.34375 54.890625 33.015625 
z
" id="DejaVuSans-6e"/>
     <path d="M 18.109375 8.203125 
L 18.109375 -20.796875 
L 9.078125 -20.796875 
L 9.078125 54.6875 
L 18.109375 54.6875 
L 18.109375 46.390625 
Q 20.953125 51.265625 25.265625 53.625 
Q 29.59375 56 35.59375 56 
Q 45.5625 56 51.78125 48.09375 
Q 58.015625 40.1875 58.015625 27.296875 
Q 58.015625 14.40625 51.78125 6.484375 
Q 45.5625 -1.421875 35.59375 -1.421875 
Q 29.59375 -1.421875 25.265625 0.953125 
Q 20.953125 3.328125 18.109375 8.203125 
z
M 48.6875 27.296875 
Q 48.6875 37.203125 44.609375 42.84375 
Q 40.53125 48.484375 33.40625 48.484375 
Q 26.265625 48.484375 22.1875 42.84375 
Q 18.109375 37.203125 18.109375 27.296875 
Q 18.109375 17.390625 22.1875 11.75 
Q 26.265625 6.109375 33.40625 6.109375 
Q 40.53125 6.109375 44.609375 11.75 
Q 48.6875 17.390625 48.6875 27.296875 
z
" id="DejaVuSans-70"/>
    </defs>
    <g transform="translate(145.198125 28.56)scale(0.12 -0.12)">
     <use xlink:href="#DejaVuSans-52"/>
     <use x="69.373047" xlink:href="#DejaVuSans-54"/>
     <use x="130.441406" xlink:href="#DejaVuSans-54"/>
     <use x="191.525391" xlink:href="#DejaVuSans-20"/>
     <use x="223.3125" xlink:href="#DejaVuSans-66"/>
     <use x="258.517578" xlink:href="#DejaVuSans-6f"/>
     <use x="319.699219" xlink:href="#DejaVuSans-72"/>
     <use x="360.8125" xlink:href="#DejaVuSans-20"/>
     <use x="392.599609" xlink:href="#DejaVuSans-4c"/>
     <use x="448.296875" xlink:href="#DejaVuSans-6f"/>
     <use x="509.478516" xlink:href="#DejaVuSans-63"/>
     <use x="564.458984" xlink:href="#DejaVuSans-61"/>
     <use x="625.738281" xlink:href="#DejaVuSans-6c"/>
     <use x="653.521484" xlink:href="#DejaVuSans-6c"/>
     <use x="681.304688" xlink:href="#DejaVuSans-79"/>
     <use x="740.484375" xlink:href="#DejaVuSans-20"/>
     <use x="772.271484" xlink:href="#DejaVuSans-68"/>
     <use x="835.650391" xlink:href="#DejaVuSans-6f"/>
     <use x="896.832031" xlink:href="#DejaVuSans-73"/>
     <use x="948.931641" xlink:href="#DejaVuSans-74"/>
     <use x="988.140625" xlink:href="#DejaVuSans-65"/>
     <use x="1049.664062" xlink:href="#DejaVuSans-64"/>
     <use x="1113.140625" xlink:href="#DejaVuSans-20"/>
     <use x="1144.927734" xlink:href="#DejaVuSans-76"/>
     <use x="1204.107422" xlink:href="#DejaVuSans-73"/>
     <use x="1256.207031" xlink:href="#DejaVuSans-20"/>
     <use x="1287.994141" xlink:href="#DejaVuSans-4c"/>
     <use x="1343.691406" xlink:href="#DejaVuSans-6f"/>
     <use x="1404.873047" xlink:href="#DejaVuSans-63"/>
     <use x="1459.853516" xlink:href="#DejaVuSans-61"/>
     <use x="1521.132812" xlink:href="#DejaVuSans-6c"/>
     <use x="1548.916016" xlink:href="#DejaVuSans-6c"/>
     <use x="1576.699219" xlink:href="#DejaVuSans-79"/>
     <use x="1635.878906" xlink:href="#DejaVuSans-20"/>
     <use x="1667.666016" xlink:href="#DejaVuSans-68"/>
     <use x="1731.044922" xlink:href="#DejaVuSans-6f"/>
     <use x="1792.226562" xlink:href="#DejaVuSans-73"/>
     <use x="1844.326172" xlink:href="#DejaVuSans-74"/>
     <use x="1883.535156" xlink:href="#DejaVuSans-65"/>
     <use x="1945.058594" xlink:href="#DejaVuSans-64"/>
     <use x="2008.535156" xlink:href="#DejaVuSans-20"/>
     <use x="2040.322266" xlink:href="#DejaVuSans-77"/>
     <use x="2122.109375" xlink:href="#DejaVuSans-69"/>
     <use x="2149.892578" xlink:href="#DejaVuSans-74"/>
     <use x="2189.101562" xlink:href="#DejaVuSans-68"/>
     <use x="2252.480469" xlink:href="#DejaVuSans-20"/>
     <use x="2284.267578" xlink:href="#DejaVuSans-69"/>
     <use x="2312.050781" xlink:href="#DejaVuSans-6e"/>
     <use x="2375.429688" xlink:href="#DejaVuSans-74"/>
     <use x="2414.638672" xlink:href="#DejaVuSans-65"/>
     <use x="2476.162109" xlink:href="#DejaVuSans-72"/>
     <use x="2517.259766" xlink:href="#DejaVuSans-68"/>
     <use x="2580.638672" xlink:href="#DejaVuSans-6f"/>
     <use x="2641.820312" xlink:href="#DejaVuSans-70"/>
     <use x="2705.296875" xlink:href="#DejaVuSans-20"/>
     <use x="2737.083984" xlink:href="#DejaVuSans-76"/>
     <use x="2796.263672" xlink:href="#DejaVuSans-73"/>
     <use x="2848.363281" xlink:href="#DejaVuSans-20"/>
     <use x="2880.150391" xlink:href="#DejaVuSans-52"/>
     <use x="2949.570312" xlink:href="#DejaVuSans-65"/>
     <use x="3011.09375" xlink:href="#DejaVuSans-6d"/>
     <use x="3108.505859" xlink:href="#DejaVuSans-6f"/>
     <use x="3169.6875" xlink:href="#DejaVuSans-74"/>
     <use x="3208.896484" xlink:href="#DejaVuSans-65"/>
     <use x="3270.419922" xlink:href="#DejaVuSans-6c"/>
     <use x="3298.203125" xlink:href="#DejaVuSans-79"/>
     <use x="3357.382812" xlink:href="#DejaVuSans-20"/>
     <use x="3389.169922" xlink:href="#DejaVuSans-68"/>
     <use x="3452.548828" xlink:href="#DejaVuSans-6f"/>
     <use x="3513.730469" xlink:href="#DejaVuSans-73"/>
     <use x="3565.830078" xlink:href="#DejaVuSans-74"/>
     <use x="3605.039062" xlink:href="#DejaVuSans-65"/>
     <use x="3666.5625" xlink:href="#DejaVuSans-64"/>
    </g>
   </g>
   <g id="legend_1">
    <g id="patch_10">
     <path d="M 513.232813 166.797188 
L 641 166.797188 
Q 643 166.797188 643 164.797188 
L 643 121.762812 
Q 643 119.762812 641 119.762812 
L 513.232813 119.762812 
Q 511.232813 119.762812 511.232813 121.762812 
L 511.232813 164.797188 
Q 511.232813 166.797188 513.232813 166.797188 
z
" style="fill:#ffffff;opacity:0.8;stroke:#cccccc;stroke-linejoin:miter;"/>
    </g>
    <g id="patch_11">
     <path d="M 515.232813 131.36125 
L 535.232813 131.36125 
L 535.232813 124.36125 
L 515.232813 124.36125 
z
" style="fill:none;stroke:#1f77b4;stroke-linejoin:miter;stroke-width:2;"/>
    </g>
    <g id="text_16">
     <!-- Local with interhop -->
     <g transform="translate(543.232813 131.36125)scale(0.1 -0.1)">
      <use xlink:href="#DejaVuSans-4c"/>
      <use x="55.697266" xlink:href="#DejaVuSans-6f"/>
      <use x="116.878906" xlink:href="#DejaVuSans-63"/>
      <use x="171.859375" xlink:href="#DejaVuSans-61"/>
      <use x="233.138672" xlink:href="#DejaVuSans-6c"/>
      <use x="260.921875" xlink:href="#DejaVuSans-20"/>
      <use x="292.708984" xlink:href="#DejaVuSans-77"/>
      <use x="374.496094" xlink:href="#DejaVuSans-69"/>
      <use x="402.279297" xlink:href="#DejaVuSans-74"/>
      <use x="441.488281" xlink:href="#DejaVuSans-68"/>
      <use x="504.867188" xlink:href="#DejaVuSans-20"/>
      <use x="536.654297" xlink:href="#DejaVuSans-69"/>
      <use x="564.4375" xlink:href="#DejaVuSans-6e"/>
      <use x="627.816406" xlink:href="#DejaVuSans-74"/>
      <use x="667.025391" xlink:href="#DejaVuSans-65"/>
      <use x="728.548828" xlink:href="#DejaVuSans-72"/>
      <use x="769.646484" xlink:href="#DejaVuSans-68"/>
      <use x="833.025391" xlink:href="#DejaVuSans-6f"/>
      <use x="894.207031" xlink:href="#DejaVuSans-70"/>
     </g>
    </g>
    <g id="patch_12">
     <path d="M 515.232813 146.039375 
L 535.232813 146.039375 
L 535.232813 139.039375 
L 515.232813 139.039375 
z
" style="fill:none;stroke:#ff7f0e;stroke-linejoin:miter;stroke-width:2;"/>
    </g>
    <g id="text_17">
     <!-- Local no interhop -->
     <g transform="translate(543.232813 146.039375)scale(0.1 -0.1)">
      <use xlink:href="#DejaVuSans-4c"/>
      <use x="55.697266" xlink:href="#DejaVuSans-6f"/>
      <use x="116.878906" xlink:href="#DejaVuSans-63"/>
      <use x="171.859375" xlink:href="#DejaVuSans-61"/>
      <use x="233.138672" xlink:href="#DejaVuSans-6c"/>
      <use x="260.921875" xlink:href="#DejaVuSans-20"/>
      <use x="292.708984" xlink:href="#DejaVuSans-6e"/>
      <use x="356.087891" xlink:href="#DejaVuSans-6f"/>
      <use x="417.269531" xlink:href="#DejaVuSans-20"/>
      <use x="449.056641" xlink:href="#DejaVuSans-69"/>
      <use x="476.839844" xlink:href="#DejaVuSans-6e"/>
      <use x="540.21875" xlink:href="#DejaVuSans-74"/>
      <use x="579.427734" xlink:href="#DejaVuSans-65"/>
      <use x="640.951172" xlink:href="#DejaVuSans-72"/>
      <use x="682.048828" xlink:href="#DejaVuSans-68"/>
      <use x="745.427734" xlink:href="#DejaVuSans-6f"/>
      <use x="806.609375" xlink:href="#DejaVuSans-70"/>
     </g>
    </g>
    <g id="patch_13">
     <path d="M 515.232813 160.7175 
L 535.232813 160.7175 
L 535.232813 153.7175 
L 515.232813 153.7175 
z
" style="fill:none;stroke:#2ca02c;stroke-linejoin:miter;stroke-width:2;"/>
    </g>
    <g id="text_18">
     <!-- Remote -->
     <g transform="translate(543.232813 160.7175)scale(0.1 -0.1)">
      <use xlink:href="#DejaVuSans-52"/>
      <use x="69.419922" xlink:href="#DejaVuSans-65"/>
      <use x="130.943359" xlink:href="#DejaVuSans-6d"/>
      <use x="228.355469" xlink:href="#DejaVuSans-6f"/>
      <use x="289.537109" xlink:href="#DejaVuSans-74"/>
      <use x="328.746094" xlink:href="#DejaVuSans-65"/>
     </g>
    </g>
   </g>
  </g>
 </g>
 <defs>
  <clipPath id="p6ce4edad79">
   <rect height="217.44" width="558" x="90" y="34.56"/>
  </clipPath>
 </defs>
</svg>
