<?xml version="1.0" encoding="utf-8" standalone="no"?>
<!DOCTYPE svg PUBLIC "-//W3C//DTD SVG 1.1//EN"
  "http://www.w3.org/Graphics/SVG/1.1/DTD/svg11.dtd">
<!-- Created with matplotlib (http://matplotlib.org/) -->
<svg height="288pt" version="1.1" viewBox="0 0 720 288" width="720pt" xmlns="http://www.w3.org/2000/svg" xmlns:xlink="http://www.w3.org/1999/xlink">
 <defs>
  <style type="text/css">
*{stroke-linecap:butt;stroke-linejoin:round;}
  </style>
 </defs>
 <g id="figure_1">
  <g id="patch_1">
   <path d="M 0 288 
L 720 288 
L 720 0 
L 0 0 
z
" style="fill:#ffffff;"/>
  </g>
  <g id="axes_1">
   <g id="patch_2">
    <path d="M 90 252 
L 648 252 
L 648 34.56 
L 90 34.56 
z
" style="fill:#ffffff;"/>
   </g>
   <g id="patch_3">
    <path clip-path="url(#p6649fac918)" d="M 115.363636 252 
L 115.363636 250.765026 
L 116.378182 250.765026 
L 116.378182 227.755502 
L 117.392727 227.755502 
L 117.392727 218.460694 
L 118.407273 218.460694 
L 118.407273 216.70573 
L 119.421818 216.70573 
L 119.421818 213.715792 
L 120.436364 213.715792 
L 120.436364 206.630939 
L 121.450909 206.630939 
L 121.450909 191.356255 
L 122.465455 191.356255 
L 122.465455 181.086468 
L 123.48 181.086468 
L 123.48 177.901533 
L 124.494545 177.901533 
L 124.494545 176.60156 
L 125.509091 176.60156 
L 125.509091 175.17159 
L 126.523636 175.17159 
L 126.523636 173.676621 
L 127.538182 173.676621 
L 127.538182 173.286629 
L 128.552727 173.286629 
L 128.552727 172.961636 
L 129.567273 172.961636 
L 129.567273 172.441646 
L 130.581818 172.441646 
L 130.581818 172.181652 
L 131.596364 172.181652 
L 131.596364 170.751681 
L 132.610909 170.751681 
L 132.610909 167.046758 
L 133.625455 167.046758 
L 133.625455 163.406833 
L 134.64 163.406833 
L 134.64 162.301856 
L 135.654545 162.301856 
L 135.654545 161.196879 
L 136.669091 161.196879 
L 136.669091 160.221899 
L 137.683636 160.221899 
L 137.683636 159.24692 
L 138.698182 159.24692 
L 138.698182 158.596933 
L 139.712727 158.596933 
L 139.712727 156.516976 
L 140.727273 156.516976 
L 140.727273 155.86699 
L 141.741818 155.86699 
L 141.741818 154.957008 
L 142.756364 154.957008 
L 142.756364 154.697014 
L 143.770909 154.697014 
L 143.770909 154.502018 
L 144.785455 154.502018 
L 144.785455 154.307022 
L 145.8 154.307022 
L 145.8 153.657035 
L 146.814545 153.657035 
L 146.814545 152.877051 
L 152.901818 152.812053 
L 152.901818 152.747054 
L 154.930909 152.682055 
L 154.930909 152.617057 
L 156.96 152.552058 
L 156.96 151.642077 
L 158.989091 151.577078 
L 158.989091 151.382082 
L 163.047273 151.317084 
L 163.047273 151.187086 
L 164.061818 151.187086 
L 164.061818 150.732096 
L 167.105455 150.667097 
L 167.105455 150.602098 
L 169.134545 150.602098 
L 169.134545 150.472101 
L 175.221818 150.407103 
L 175.221818 150.342104 
L 182.323636 150.342104 
L 182.323636 150.212107 
L 210.730909 150.147108 
L 210.730909 150.082109 
L 212.76 150.082109 
L 212.76 149.302125 
L 214.789091 149.302125 
L 214.789091 146.247189 
L 215.803636 146.247189 
L 215.803636 143.582244 
L 216.818182 143.582244 
L 216.818182 142.282271 
L 217.832727 142.282271 
L 217.832727 140.332311 
L 218.847273 140.332311 
L 218.847273 138.122357 
L 219.861818 138.122357 
L 219.861818 136.822384 
L 220.876364 136.822384 
L 220.876364 133.312456 
L 221.890909 133.312456 
L 221.890909 131.232499 
L 222.905455 131.232499 
L 222.905455 128.892548 
L 223.92 128.892548 
L 223.92 126.812591 
L 224.934545 126.812591 
L 224.934545 124.082647 
L 225.949091 124.082647 
L 225.949091 123.107667 
L 226.963636 123.107667 
L 226.963636 121.872693 
L 228.992727 121.807694 
L 228.992727 120.247727 
L 230.007273 120.247727 
L 230.007273 119.077751 
L 231.021818 119.077751 
L 231.021818 117.19279 
L 232.036364 117.19279 
L 232.036364 116.542803 
L 233.050909 116.542803 
L 233.050909 116.347807 
L 234.065455 116.347807 
L 234.065455 115.827818 
L 235.08 115.827818 
L 235.08 115.437826 
L 236.094545 115.437826 
L 236.094545 114.657842 
L 237.109091 114.657842 
L 237.109091 113.81286 
L 238.123636 113.81286 
L 238.123636 113.552865 
L 239.138182 113.552865 
L 239.138182 113.422868 
L 242.181818 113.422868 
L 242.181818 113.227872 
L 244.210909 113.227872 
L 244.210909 112.772881 
L 245.225455 112.772881 
L 245.225455 112.252892 
L 246.24 112.252892 
L 246.24 111.537907 
L 249.283636 111.472908 
L 249.283636 111.342911 
L 250.298182 111.342911 
L 250.298182 111.147915 
L 253.341818 111.082916 
L 253.341818 111.017918 
L 256.385455 110.952919 
L 256.385455 110.88792 
L 266.530909 110.822922 
L 266.530909 110.692924 
L 284.792727 110.627926 
L 284.792727 110.367931 
L 287.836364 110.302932 
L 287.836364 110.042938 
L 289.865455 109.977939 
L 289.865455 109.847942 
L 290.88 109.847942 
L 290.88 109.652946 
L 296.967273 109.587947 
L 296.967273 109.522949 
L 311.170909 109.45795 
L 311.170909 107.247996 
L 312.185455 107.247996 
L 312.185455 102.373097 
L 313.2 102.373097 
L 313.2 101.788109 
L 314.214545 101.788109 
L 314.214545 101.528114 
L 315.229091 101.528114 
L 315.229091 100.618133 
L 316.243636 100.618133 
L 316.243636 99.968146 
L 317.258182 99.968146 
L 317.258182 99.123164 
L 318.272727 99.123164 
L 318.272727 97.563196 
L 319.287273 97.563196 
L 319.287273 89.438364 
L 320.301818 89.438364 
L 320.301818 86.25343 
L 321.316364 86.25343 
L 321.316364 81.573527 
L 322.330909 81.573527 
L 322.330909 79.428571 
L 323.345455 79.428571 
L 323.345455 77.738606 
L 324.36 77.738606 
L 324.36 76.763627 
L 325.374545 76.763627 
L 325.374545 75.658649 
L 326.389091 75.658649 
L 326.389091 74.943664 
L 327.403636 74.943664 
L 327.403636 73.773688 
L 328.418182 73.773688 
L 328.418182 72.863707 
L 329.432727 72.863707 
L 329.432727 72.538714 
L 330.447273 72.538714 
L 330.447273 72.148722 
L 331.461818 72.148722 
L 331.461818 71.888727 
L 332.476364 71.888727 
L 332.476364 71.563734 
L 333.490909 71.563734 
L 333.490909 71.30374 
L 334.505455 71.30374 
L 334.505455 70.848749 
L 335.52 70.848749 
L 335.52 70.718752 
L 336.534545 70.718752 
L 336.534545 70.263761 
L 338.563636 70.263761 
L 338.563636 69.613775 
L 339.578182 69.613775 
L 339.578182 69.223783 
L 340.592727 69.223783 
L 340.592727 69.093785 
L 341.607273 69.093785 
L 341.607273 68.963788 
L 343.636364 68.898789 
L 343.636364 68.703793 
L 347.694545 68.638795 
L 347.694545 68.573796 
L 348.709091 68.573796 
L 348.709091 68.443799 
L 350.738182 68.3788 
L 350.738182 68.313801 
L 353.781818 68.248803 
L 353.781818 68.183804 
L 355.810909 68.183804 
L 355.810909 68.053807 
L 356.825455 68.053807 
L 356.825455 67.858811 
L 361.898182 67.793812 
L 361.898182 67.728814 
L 365.956364 67.663815 
L 365.956364 67.598816 
L 367.985455 67.533818 
L 367.985455 67.468819 
L 376.101818 67.40382 
L 376.101818 67.338822 
L 378.130909 67.273823 
L 378.130909 66.688835 
L 379.145455 66.688835 
L 379.145455 66.103847 
L 380.16 66.103847 
L 380.16 65.97385 
L 381.174545 65.97385 
L 381.174545 65.843853 
L 385.232727 65.843853 
L 385.232727 65.323863 
L 387.261818 65.258865 
L 387.261818 65.128867 
L 388.276364 65.128867 
L 388.276364 64.868873 
L 390.305455 64.868873 
L 390.305455 64.738875 
L 393.349091 64.673877 
L 393.349091 64.543879 
L 394.363636 64.543879 
L 394.363636 64.413882 
L 395.378182 64.413882 
L 395.378182 64.283885 
L 396.392727 64.283885 
L 396.392727 63.893893 
L 398.421818 63.828894 
L 398.421818 63.763896 
L 400.450909 63.698897 
L 400.450909 63.5689 
L 415.669091 63.503901 
L 415.669091 63.438902 
L 417.698182 63.438902 
L 417.698182 63.178908 
L 418.712727 63.178908 
L 418.712727 59.083992 
L 419.727273 59.083992 
L 419.727273 58.694001 
L 423.785455 58.629002 
L 423.785455 56.679042 
L 424.8 56.679042 
L 424.8 54.209093 
L 425.814545 54.209093 
L 425.814545 54.014097 
L 426.829091 54.014097 
L 426.829091 53.299112 
L 427.843636 53.299112 
L 427.843636 50.699166 
L 428.858182 50.699166 
L 428.858182 49.984181 
L 430.887273 49.919182 
L 430.887273 49.854183 
L 492.774545 49.789185 
L 492.774545 49.724186 
L 493.789091 49.724186 
L 493.789091 47.579231 
L 494.803636 47.579231 
L 494.803636 47.189239 
L 495.818182 47.189239 
L 495.818182 46.864245 
L 497.847273 46.799247 
L 497.847273 46.734248 
L 498.861818 46.734248 
L 498.861818 46.539252 
L 499.876364 46.539252 
L 499.876364 46.14926 
L 500.890909 46.14926 
L 500.890909 45.759268 
L 504.949091 45.69427 
L 504.949091 45.564272 
L 506.978182 45.564272 
L 506.978182 45.434275 
L 510.021818 45.369276 
L 510.021818 45.304278 
L 513.065455 45.239279 
L 513.065455 45.17428 
L 526.254545 45.109282 
L 526.254545 45.044283 
L 538.429091 44.979284 
L 538.429091 44.914286 
L 622.636364 44.914286 
L 622.636364 252 
L 622.636364 252 
" style="fill:none;stroke:#1f77b4;stroke-linejoin:miter;stroke-width:2;"/>
   </g>
   <g id="patch_4">
    <path clip-path="url(#p6649fac918)" d="M 115.363636 252 
L 115.363636 237.089459 
L 116.378182 237.089459 
L 116.378182 209.438023 
L 117.392727 209.438023 
L 117.392727 195.127597 
L 118.407273 195.127597 
L 118.407273 186.818317 
L 119.421818 186.818317 
L 119.421818 177.401134 
L 120.436364 177.401134 
L 120.436364 171.030686 
L 121.450909 171.030686 
L 121.450909 167.706974 
L 122.465455 167.706974 
L 122.465455 164.429425 
L 123.48 164.429425 
L 123.48 161.013388 
L 124.494545 161.013388 
L 124.494545 159.074556 
L 125.509091 159.074556 
L 125.509091 156.443284 
L 126.523636 156.443284 
L 126.523636 153.812012 
L 127.538182 153.812012 
L 127.538182 150.949927 
L 128.552727 150.949927 
L 128.552727 148.318655 
L 129.567273 148.318655 
L 129.567273 146.979938 
L 130.581818 146.979938 
L 130.581818 146.564474 
L 131.596364 146.564474 
L 131.596364 144.533316 
L 132.610909 144.533316 
L 132.610909 141.902044 
L 133.625455 141.902044 
L 133.625455 137.978218 
L 134.64 137.978218 
L 134.64 134.37753 
L 135.654545 134.37753 
L 135.654545 131.42312 
L 136.669091 131.42312 
L 136.669091 128.791848 
L 137.683636 128.791848 
L 137.683636 125.19116 
L 138.698182 125.19116 
L 138.698182 121.682797 
L 139.712727 121.682797 
L 139.712727 115.081536 
L 140.727273 115.081536 
L 140.727273 107.141558 
L 141.741818 107.141558 
L 141.741818 99.432393 
L 142.756364 99.432393 
L 142.756364 95.554729 
L 143.770909 95.554729 
L 143.770909 91.630902 
L 144.785455 91.630902 
L 144.785455 88.953468 
L 145.8 88.953468 
L 145.8 86.645335 
L 146.814545 86.645335 
L 146.814545 84.521852 
L 147.829091 84.521852 
L 147.829091 82.675346 
L 148.843636 82.675346 
L 148.843636 81.244303 
L 149.858182 81.244303 
L 149.858182 79.397796 
L 150.872727 79.397796 
L 150.872727 77.874428 
L 151.887273 77.874428 
L 151.887273 76.35106 
L 152.901818 76.35106 
L 152.901818 74.96618 
L 153.916364 74.96618 
L 153.916364 73.950602 
L 154.930909 73.950602 
L 154.930909 73.165837 
L 155.945455 73.165837 
L 155.945455 72.057933 
L 156.96 72.057933 
L 156.96 70.349914 
L 157.974545 70.349914 
L 157.974545 69.380498 
L 158.989091 69.380498 
L 158.989091 68.641895 
L 160.003636 68.641895 
L 160.003636 67.16469 
L 161.018182 67.16469 
L 161.018182 65.77981 
L 162.032727 65.77981 
L 162.032727 64.810394 
L 163.047273 64.810394 
L 163.047273 64.164117 
L 164.061818 64.164117 
L 164.061818 63.287026 
L 165.076364 63.287026 
L 165.076364 62.040634 
L 166.090909 62.040634 
L 166.090909 61.394357 
L 167.105455 61.394357 
L 167.105455 60.378778 
L 168.12 60.378778 
L 168.12 60.05564 
L 169.134545 60.05564 
L 169.134545 59.501688 
L 170.149091 59.501688 
L 170.149091 59.132386 
L 171.163636 59.132386 
L 171.163636 58.578434 
L 172.178182 58.578434 
L 172.178182 58.301459 
L 173.192727 58.301459 
L 173.192727 57.932157 
L 174.207273 57.932157 
L 174.207273 57.470531 
L 175.221818 57.470531 
L 175.221818 55.624024 
L 176.236364 55.624024 
L 176.236364 55.347048 
L 177.250909 55.347048 
L 177.250909 55.070072 
L 178.265455 55.070072 
L 178.265455 54.931584 
L 180.294545 54.839259 
L 180.294545 54.654608 
L 181.309091 54.654608 
L 181.309091 54.331469 
L 182.323636 54.331469 
L 182.323636 54.100656 
L 183.338182 54.100656 
L 183.338182 53.962168 
L 184.352727 53.962168 
L 184.352727 53.500541 
L 185.367273 53.500541 
L 185.367273 52.715776 
L 187.396364 52.623451 
L 187.396364 52.531125 
L 188.410909 52.531125 
L 188.410909 52.300312 
L 190.44 52.207987 
L 190.44 52.023336 
L 193.483636 51.931011 
L 193.483636 51.792523 
L 194.498182 51.792523 
L 194.498182 51.515547 
L 195.512727 51.515547 
L 195.512727 51.100083 
L 196.527273 51.100083 
L 196.527273 50.961595 
L 198.556364 50.915432 
L 198.556364 50.776944 
L 200.585455 50.684619 
L 200.585455 50.592293 
L 201.6 50.592293 
L 201.6 50.453805 
L 203.629091 50.36148 
L 203.629091 50.269155 
L 204.643636 50.269155 
L 204.643636 50.130667 
L 205.658182 50.130667 
L 205.658182 49.807528 
L 206.672727 49.807528 
L 206.672727 49.66904 
L 207.687273 49.66904 
L 207.687273 49.530552 
L 209.716364 49.438227 
L 209.716364 49.299739 
L 212.76 49.299739 
L 212.76 49.161251 
L 214.789091 49.161251 
L 214.789091 49.022763 
L 218.847273 48.930438 
L 218.847273 48.79195 
L 220.876364 48.745787 
L 220.876364 48.607299 
L 223.92 48.561136 
L 223.92 48.468811 
L 225.949091 48.422648 
L 225.949091 48.09951 
L 226.963636 48.09951 
L 226.963636 47.961022 
L 228.992727 47.961022 
L 228.992727 47.822534 
L 231.021818 47.730208 
L 231.021818 47.637883 
L 232.036364 47.637883 
L 232.036364 47.40707 
L 235.08 47.314744 
L 235.08 47.268582 
L 237.109091 47.176256 
L 237.109091 47.130094 
L 245.225455 47.037768 
L 245.225455 46.945443 
L 248.269091 46.853118 
L 248.269091 46.760792 
L 250.298182 46.71463 
L 250.298182 46.622304 
L 254.356364 46.529979 
L 254.356364 46.483816 
L 256.385455 46.437654 
L 256.385455 46.345328 
L 262.472727 46.253003 
L 262.472727 46.20684 
L 275.661818 46.114515 
L 275.661818 46.068352 
L 279.72 45.976027 
L 279.72 45.929864 
L 284.792727 45.883702 
L 284.792727 45.791376 
L 316.243636 45.699051 
L 316.243636 45.560563 
L 336.534545 45.468238 
L 336.534545 45.422075 
L 386.247273 45.32975 
L 386.247273 45.283587 
L 421.756364 45.191262 
L 421.756364 45.145099 
L 524.225455 45.052774 
L 524.225455 45.006611 
L 622.636364 44.914286 
L 622.636364 252 
L 622.636364 252 
" style="fill:none;stroke:#ff7f0e;stroke-linejoin:miter;stroke-width:2;"/>
   </g>
   <g id="patch_5">
    <path clip-path="url(#p6649fac918)" d="M 115.363636 252 
L 115.363636 242.768598 
L 116.378182 242.768598 
L 116.378182 217.044838 
L 117.392727 217.044838 
L 117.392727 204.81728 
L 118.407273 204.81728 
L 118.407273 199.229853 
L 119.421818 199.229853 
L 119.421818 192.481752 
L 120.436364 192.481752 
L 120.436364 185.814628 
L 121.450909 185.814628 
L 121.450909 177.527961 
L 122.465455 177.527961 
L 122.465455 171.3467 
L 123.48 171.3467 
L 123.48 168.026635 
L 124.494545 168.026635 
L 124.494545 166.353106 
L 125.509091 166.353106 
L 125.509091 164.220706 
L 126.523636 164.220706 
L 126.523636 162.061314 
L 127.538182 162.061314 
L 127.538182 160.22583 
L 128.552727 160.22583 
L 128.552727 158.552302 
L 129.567273 158.552302 
L 129.567273 157.553583 
L 130.581818 157.553583 
L 130.581818 157.202681 
L 131.596364 157.202681 
L 131.596364 155.421183 
L 132.610909 155.421183 
L 132.610909 152.344049 
L 133.625455 152.344049 
L 133.625455 148.53812 
L 134.64 148.53812 
L 134.64 145.973842 
L 135.654545 145.973842 
L 135.654545 143.787457 
L 136.669091 143.787457 
L 136.669091 141.844004 
L 137.683636 141.844004 
L 137.683636 139.333711 
L 138.698182 139.333711 
L 138.698182 137.012364 
L 139.712727 137.012364 
L 139.712727 132.288694 
L 140.727273 132.288694 
L 140.727273 127.376076 
L 141.741818 127.376076 
L 141.741818 122.490451 
L 142.756364 122.490451 
L 142.756364 120.11512 
L 143.770909 120.11512 
L 143.770909 117.739788 
L 144.785455 117.739788 
L 144.785455 116.093252 
L 145.8 116.093252 
L 145.8 114.473708 
L 146.814545 114.473708 
L 146.814545 112.908148 
L 147.829091 112.908148 
L 147.829091 111.828452 
L 148.843636 111.828452 
L 148.843636 110.991688 
L 149.858182 110.991688 
L 149.858182 109.911992 
L 150.872727 109.911992 
L 150.872727 109.021242 
L 151.887273 109.021242 
L 151.887273 108.103501 
L 152.901818 108.103501 
L 152.901818 107.266736 
L 153.916364 107.266736 
L 153.916364 106.645911 
L 154.930909 106.645911 
L 154.930909 106.160048 
L 155.945455 106.160048 
L 155.945455 105.485238 
L 156.96 105.485238 
L 156.96 104.108625 
L 157.974545 104.108625 
L 157.974545 103.514792 
L 158.989091 103.514792 
L 158.989091 103.001937 
L 160.003636 103.001937 
L 160.003636 102.13818 
L 161.018182 102.13818 
L 161.018182 101.328408 
L 162.032727 101.328408 
L 162.032727 100.734575 
L 163.047273 100.734575 
L 163.047273 100.302696 
L 164.061818 100.302696 
L 164.061818 99.600894 
L 165.076364 99.600894 
L 165.076364 98.872099 
L 166.090909 98.872099 
L 166.090909 98.467213 
L 167.105455 98.467213 
L 167.105455 97.846388 
L 168.12 97.846388 
L 168.12 97.657441 
L 169.134545 97.657441 
L 169.134545 97.279547 
L 170.149091 97.279547 
L 170.149091 97.063608 
L 171.163636 97.063608 
L 171.163636 96.712707 
L 172.178182 96.712707 
L 172.178182 96.550752 
L 173.192727 96.550752 
L 173.192727 96.334813 
L 174.207273 96.334813 
L 174.207273 96.064889 
L 175.221818 96.064889 
L 175.221818 94.958201 
L 176.236364 94.958201 
L 176.236364 94.796246 
L 177.250909 94.796246 
L 177.250909 94.634292 
L 179.28 94.553314 
L 179.28 94.49933 
L 181.309091 94.39136 
L 181.309091 94.202413 
L 182.323636 94.202413 
L 182.323636 94.013466 
L 184.352727 93.932489 
L 184.352727 93.662565 
L 185.367273 93.662565 
L 185.367273 93.203694 
L 188.410909 93.095725 
L 188.410909 92.960763 
L 190.44 92.906778 
L 190.44 92.771816 
L 193.483636 92.717831 
L 193.483636 92.636854 
L 194.498182 92.636854 
L 194.498182 92.474899 
L 195.512727 92.474899 
L 195.512727 92.231968 
L 198.556364 92.123998 
L 198.556364 92.043021 
L 201.6 91.935051 
L 201.6 91.854074 
L 204.643636 91.746105 
L 204.643636 91.665127 
L 205.658182 91.665127 
L 205.658182 91.476181 
L 207.687273 91.395203 
L 207.687273 91.314226 
L 209.716364 91.260241 
L 209.716364 91.179264 
L 212.76 91.152272 
L 212.76 90.747386 
L 214.789091 90.747386 
L 214.789091 89.397766 
L 215.803636 89.397766 
L 215.803636 88.264085 
L 216.818182 88.264085 
L 216.818182 87.697244 
L 217.832727 87.697244 
L 217.832727 86.887472 
L 218.847273 86.887472 
L 218.847273 85.888753 
L 219.861818 85.888753 
L 219.861818 85.321913 
L 220.876364 85.321913 
L 220.876364 83.783346 
L 221.890909 83.783346 
L 221.890909 82.919589 
L 222.905455 82.919589 
L 222.905455 81.92087 
L 223.92 81.92087 
L 223.92 81.003128 
L 224.934545 81.003128 
L 224.934545 79.842455 
L 225.949091 79.842455 
L 225.949091 79.248622 
L 226.963636 79.248622 
L 226.963636 78.654789 
L 228.992727 78.627797 
L 228.992727 77.899002 
L 230.007273 77.899002 
L 230.007273 77.359154 
L 231.021818 77.359154 
L 231.021818 76.522389 
L 232.036364 76.522389 
L 232.036364 76.117503 
L 234.065455 76.009534 
L 234.065455 75.766602 
L 235.08 75.766602 
L 235.08 75.577655 
L 236.094545 75.577655 
L 236.094545 75.199762 
L 237.109091 75.199762 
L 237.109091 74.821868 
L 239.138182 74.713898 
L 239.138182 74.659914 
L 242.181818 74.632921 
L 242.181818 74.524952 
L 244.210909 74.524952 
L 244.210909 74.336005 
L 245.225455 74.336005 
L 245.225455 74.066081 
L 246.24 74.066081 
L 246.24 73.71518 
L 249.283636 73.634202 
L 249.283636 73.553225 
L 250.298182 73.553225 
L 250.298182 73.418263 
L 254.356364 73.310293 
L 254.356364 73.256309 
L 257.4 73.148339 
L 257.4 73.094354 
L 266.530909 73.040369 
L 266.530909 72.959392 
L 278.705455 72.851423 
L 278.705455 72.82443 
L 284.792727 72.770445 
L 284.792727 72.608491 
L 287.836364 72.581499 
L 287.836364 72.473529 
L 290.88 72.392552 
L 290.88 72.311575 
L 310.156364 72.203605 
L 310.156364 72.176613 
L 311.170909 72.176613 
L 311.170909 71.258871 
L 312.185455 71.258871 
L 312.185455 69.234441 
L 313.2 69.234441 
L 313.2 68.991509 
L 315.229091 68.883539 
L 315.229091 68.505646 
L 316.243636 68.505646 
L 316.243636 68.154745 
L 317.258182 68.154745 
L 317.258182 67.803843 
L 318.272727 67.803843 
L 318.272727 67.156026 
L 319.287273 67.156026 
L 319.287273 63.781975 
L 320.301818 63.781975 
L 320.301818 62.459348 
L 321.316364 62.459348 
L 321.316364 60.515895 
L 322.330909 60.515895 
L 322.330909 59.625145 
L 323.345455 59.625145 
L 323.345455 58.923343 
L 324.36 58.923343 
L 324.36 58.518457 
L 325.374545 58.518457 
L 325.374545 58.059586 
L 326.389091 58.059586 
L 326.389091 57.762669 
L 327.403636 57.762669 
L 327.403636 57.249814 
L 328.418182 57.249814 
L 328.418182 56.87192 
L 329.432727 56.87192 
L 329.432727 56.736958 
L 330.447273 56.736958 
L 330.447273 56.575004 
L 332.476364 56.467034 
L 332.476364 56.332072 
L 334.505455 56.224102 
L 334.505455 56.008163 
L 336.534545 55.954178 
L 336.534545 55.738239 
L 338.563636 55.738239 
L 338.563636 55.441323 
L 339.578182 55.441323 
L 339.578182 55.279368 
L 342.621818 55.171399 
L 342.621818 55.144406 
L 345.665455 55.036437 
L 345.665455 55.009444 
L 350.738182 54.901475 
L 350.738182 54.874482 
L 356.825455 54.766513 
L 356.825455 54.685536 
L 366.970909 54.577566 
L 366.970909 54.550574 
L 378.130909 54.442604 
L 378.130909 54.199672 
L 379.145455 54.199672 
L 379.145455 53.956741 
L 385.232727 53.848771 
L 385.232727 53.632832 
L 388.276364 53.524862 
L 388.276364 53.416893 
L 393.349091 53.335915 
L 393.349091 53.281931 
L 396.392727 53.173961 
L 396.392727 52.985014 
L 400.450909 52.904037 
L 400.450909 52.82306 
L 417.698182 52.769075 
L 417.698182 52.661105 
L 418.712727 52.661105 
L 418.712727 50.960584 
L 419.727273 50.960584 
L 419.727273 50.79863 
L 423.785455 50.744645 
L 423.785455 49.934873 
L 424.8 49.934873 
L 424.8 48.909161 
L 426.829091 48.828184 
L 426.829091 48.531268 
L 427.843636 48.531268 
L 427.843636 47.451572 
L 428.858182 47.451572 
L 428.858182 47.154655 
L 492.774545 47.046686 
L 492.774545 47.019693 
L 493.789091 47.019693 
L 493.789091 46.128944 
L 494.803636 46.128944 
L 494.803636 45.966989 
L 495.818182 45.966989 
L 495.818182 45.832027 
L 498.861818 45.778043 
L 498.861818 45.697065 
L 499.876364 45.697065 
L 499.876364 45.535111 
L 500.890909 45.535111 
L 500.890909 45.373157 
L 506.978182 45.265187 
L 506.978182 45.211202 
L 524.225455 45.103233 
L 524.225455 45.07624 
L 570.894545 44.968271 
L 570.894545 44.941278 
L 622.636364 44.914286 
L 622.636364 252 
L 622.636364 252 
" style="fill:none;stroke:#2ca02c;stroke-linejoin:miter;stroke-width:2;"/>
   </g>
   <g id="matplotlib.axis_1">
    <g id="xtick_1">
     <g id="line2d_1">
      <path clip-path="url(#p6649fac918)" d="M 115.363636 252 
L 115.363636 34.56 
" style="fill:none;stroke:#b0b0b0;stroke-linecap:square;stroke-width:0.8;"/>
     </g>
     <g id="line2d_2">
      <defs>
       <path d="M 0 0 
L 0 3.5 
" id="m18278701fd" style="stroke:#000000;stroke-width:0.8;"/>
      </defs>
      <g>
       <use style="stroke:#000000;stroke-width:0.8;" x="115.363636" xlink:href="#m18278701fd" y="252"/>
      </g>
     </g>
     <g id="text_1">
      <!-- 0 -->
      <defs>
       <path d="M 31.78125 66.40625 
Q 24.171875 66.40625 20.328125 58.90625 
Q 16.5 51.421875 16.5 36.375 
Q 16.5 21.390625 20.328125 13.890625 
Q 24.171875 6.390625 31.78125 6.390625 
Q 39.453125 6.390625 43.28125 13.890625 
Q 47.125 21.390625 47.125 36.375 
Q 47.125 51.421875 43.28125 58.90625 
Q 39.453125 66.40625 31.78125 66.40625 
z
M 31.78125 74.21875 
Q 44.046875 74.21875 50.515625 64.515625 
Q 56.984375 54.828125 56.984375 36.375 
Q 56.984375 17.96875 50.515625 8.265625 
Q 44.046875 -1.421875 31.78125 -1.421875 
Q 19.53125 -1.421875 13.0625 8.265625 
Q 6.59375 17.96875 6.59375 36.375 
Q 6.59375 54.828125 13.0625 64.515625 
Q 19.53125 74.21875 31.78125 74.21875 
z
" id="DejaVuSans-30"/>
      </defs>
      <g transform="translate(112.182386 266.598437)scale(0.1 -0.1)">
       <use xlink:href="#DejaVuSans-30"/>
      </g>
     </g>
    </g>
    <g id="xtick_2">
     <g id="line2d_3">
      <path clip-path="url(#p6649fac918)" d="M 216.818182 252 
L 216.818182 34.56 
" style="fill:none;stroke:#b0b0b0;stroke-linecap:square;stroke-width:0.8;"/>
     </g>
     <g id="line2d_4">
      <g>
       <use style="stroke:#000000;stroke-width:0.8;" x="216.818182" xlink:href="#m18278701fd" y="252"/>
      </g>
     </g>
     <g id="text_2">
      <!-- 100 -->
      <defs>
       <path d="M 12.40625 8.296875 
L 28.515625 8.296875 
L 28.515625 63.921875 
L 10.984375 60.40625 
L 10.984375 69.390625 
L 28.421875 72.90625 
L 38.28125 72.90625 
L 38.28125 8.296875 
L 54.390625 8.296875 
L 54.390625 0 
L 12.40625 0 
z
" id="DejaVuSans-31"/>
      </defs>
      <g transform="translate(207.274432 266.598437)scale(0.1 -0.1)">
       <use xlink:href="#DejaVuSans-31"/>
       <use x="63.623047" xlink:href="#DejaVuSans-30"/>
       <use x="127.246094" xlink:href="#DejaVuSans-30"/>
      </g>
     </g>
    </g>
    <g id="xtick_3">
     <g id="line2d_5">
      <path clip-path="url(#p6649fac918)" d="M 318.272727 252 
L 318.272727 34.56 
" style="fill:none;stroke:#b0b0b0;stroke-linecap:square;stroke-width:0.8;"/>
     </g>
     <g id="line2d_6">
      <g>
       <use style="stroke:#000000;stroke-width:0.8;" x="318.272727" xlink:href="#m18278701fd" y="252"/>
      </g>
     </g>
     <g id="text_3">
      <!-- 200 -->
      <defs>
       <path d="M 19.1875 8.296875 
L 53.609375 8.296875 
L 53.609375 0 
L 7.328125 0 
L 7.328125 8.296875 
Q 12.9375 14.109375 22.625 23.890625 
Q 32.328125 33.6875 34.8125 36.53125 
Q 39.546875 41.84375 41.421875 45.53125 
Q 43.3125 49.21875 43.3125 52.78125 
Q 43.3125 58.59375 39.234375 62.25 
Q 35.15625 65.921875 28.609375 65.921875 
Q 23.96875 65.921875 18.8125 64.3125 
Q 13.671875 62.703125 7.8125 59.421875 
L 7.8125 69.390625 
Q 13.765625 71.78125 18.9375 73 
Q 24.125 74.21875 28.421875 74.21875 
Q 39.75 74.21875 46.484375 68.546875 
Q 53.21875 62.890625 53.21875 53.421875 
Q 53.21875 48.921875 51.53125 44.890625 
Q 49.859375 40.875 45.40625 35.40625 
Q 44.1875 33.984375 37.640625 27.21875 
Q 31.109375 20.453125 19.1875 8.296875 
z
" id="DejaVuSans-32"/>
      </defs>
      <g transform="translate(308.728977 266.598437)scale(0.1 -0.1)">
       <use xlink:href="#DejaVuSans-32"/>
       <use x="63.623047" xlink:href="#DejaVuSans-30"/>
       <use x="127.246094" xlink:href="#DejaVuSans-30"/>
      </g>
     </g>
    </g>
    <g id="xtick_4">
     <g id="line2d_7">
      <path clip-path="url(#p6649fac918)" d="M 419.727273 252 
L 419.727273 34.56 
" style="fill:none;stroke:#b0b0b0;stroke-linecap:square;stroke-width:0.8;"/>
     </g>
     <g id="line2d_8">
      <g>
       <use style="stroke:#000000;stroke-width:0.8;" x="419.727273" xlink:href="#m18278701fd" y="252"/>
      </g>
     </g>
     <g id="text_4">
      <!-- 300 -->
      <defs>
       <path d="M 40.578125 39.3125 
Q 47.65625 37.796875 51.625 33 
Q 55.609375 28.21875 55.609375 21.1875 
Q 55.609375 10.40625 48.1875 4.484375 
Q 40.765625 -1.421875 27.09375 -1.421875 
Q 22.515625 -1.421875 17.65625 -0.515625 
Q 12.796875 0.390625 7.625 2.203125 
L 7.625 11.71875 
Q 11.71875 9.328125 16.59375 8.109375 
Q 21.484375 6.890625 26.8125 6.890625 
Q 36.078125 6.890625 40.9375 10.546875 
Q 45.796875 14.203125 45.796875 21.1875 
Q 45.796875 27.640625 41.28125 31.265625 
Q 36.765625 34.90625 28.71875 34.90625 
L 20.21875 34.90625 
L 20.21875 43.015625 
L 29.109375 43.015625 
Q 36.375 43.015625 40.234375 45.921875 
Q 44.09375 48.828125 44.09375 54.296875 
Q 44.09375 59.90625 40.109375 62.90625 
Q 36.140625 65.921875 28.71875 65.921875 
Q 24.65625 65.921875 20.015625 65.03125 
Q 15.375 64.15625 9.8125 62.3125 
L 9.8125 71.09375 
Q 15.4375 72.65625 20.34375 73.4375 
Q 25.25 74.21875 29.59375 74.21875 
Q 40.828125 74.21875 47.359375 69.109375 
Q 53.90625 64.015625 53.90625 55.328125 
Q 53.90625 49.265625 50.4375 45.09375 
Q 46.96875 40.921875 40.578125 39.3125 
z
" id="DejaVuSans-33"/>
      </defs>
      <g transform="translate(410.183523 266.598437)scale(0.1 -0.1)">
       <use xlink:href="#DejaVuSans-33"/>
       <use x="63.623047" xlink:href="#DejaVuSans-30"/>
       <use x="127.246094" xlink:href="#DejaVuSans-30"/>
      </g>
     </g>
    </g>
    <g id="xtick_5">
     <g id="line2d_9">
      <path clip-path="url(#p6649fac918)" d="M 521.181818 252 
L 521.181818 34.56 
" style="fill:none;stroke:#b0b0b0;stroke-linecap:square;stroke-width:0.8;"/>
     </g>
     <g id="line2d_10">
      <g>
       <use style="stroke:#000000;stroke-width:0.8;" x="521.181818" xlink:href="#m18278701fd" y="252"/>
      </g>
     </g>
     <g id="text_5">
      <!-- 400 -->
      <defs>
       <path d="M 37.796875 64.3125 
L 12.890625 25.390625 
L 37.796875 25.390625 
z
M 35.203125 72.90625 
L 47.609375 72.90625 
L 47.609375 25.390625 
L 58.015625 25.390625 
L 58.015625 17.1875 
L 47.609375 17.1875 
L 47.609375 0 
L 37.796875 0 
L 37.796875 17.1875 
L 4.890625 17.1875 
L 4.890625 26.703125 
z
" id="DejaVuSans-34"/>
      </defs>
      <g transform="translate(511.638068 266.598437)scale(0.1 -0.1)">
       <use xlink:href="#DejaVuSans-34"/>
       <use x="63.623047" xlink:href="#DejaVuSans-30"/>
       <use x="127.246094" xlink:href="#DejaVuSans-30"/>
      </g>
     </g>
    </g>
    <g id="xtick_6">
     <g id="line2d_11">
      <path clip-path="url(#p6649fac918)" d="M 622.636364 252 
L 622.636364 34.56 
" style="fill:none;stroke:#b0b0b0;stroke-linecap:square;stroke-width:0.8;"/>
     </g>
     <g id="line2d_12">
      <g>
       <use style="stroke:#000000;stroke-width:0.8;" x="622.636364" xlink:href="#m18278701fd" y="252"/>
      </g>
     </g>
     <g id="text_6">
      <!-- 500 -->
      <defs>
       <path d="M 10.796875 72.90625 
L 49.515625 72.90625 
L 49.515625 64.59375 
L 19.828125 64.59375 
L 19.828125 46.734375 
Q 21.96875 47.46875 24.109375 47.828125 
Q 26.265625 48.1875 28.421875 48.1875 
Q 40.625 48.1875 47.75 41.5 
Q 54.890625 34.8125 54.890625 23.390625 
Q 54.890625 11.625 47.5625 5.09375 
Q 40.234375 -1.421875 26.90625 -1.421875 
Q 22.3125 -1.421875 17.546875 -0.640625 
Q 12.796875 0.140625 7.71875 1.703125 
L 7.71875 11.625 
Q 12.109375 9.234375 16.796875 8.0625 
Q 21.484375 6.890625 26.703125 6.890625 
Q 35.15625 6.890625 40.078125 11.328125 
Q 45.015625 15.765625 45.015625 23.390625 
Q 45.015625 31 40.078125 35.4375 
Q 35.15625 39.890625 26.703125 39.890625 
Q 22.75 39.890625 18.8125 39.015625 
Q 14.890625 38.140625 10.796875 36.28125 
z
" id="DejaVuSans-35"/>
      </defs>
      <g transform="translate(613.092614 266.598437)scale(0.1 -0.1)">
       <use xlink:href="#DejaVuSans-35"/>
       <use x="63.623047" xlink:href="#DejaVuSans-30"/>
       <use x="127.246094" xlink:href="#DejaVuSans-30"/>
      </g>
     </g>
    </g>
    <g id="text_7">
     <!-- RTT (ms) -->
     <defs>
      <path d="M 44.390625 34.1875 
Q 47.5625 33.109375 50.5625 29.59375 
Q 53.5625 26.078125 56.59375 19.921875 
L 66.609375 0 
L 56 0 
L 46.6875 18.703125 
Q 43.0625 26.03125 39.671875 28.421875 
Q 36.28125 30.8125 30.421875 30.8125 
L 19.671875 30.8125 
L 19.671875 0 
L 9.8125 0 
L 9.8125 72.90625 
L 32.078125 72.90625 
Q 44.578125 72.90625 50.734375 67.671875 
Q 56.890625 62.453125 56.890625 51.90625 
Q 56.890625 45.015625 53.6875 40.46875 
Q 50.484375 35.9375 44.390625 34.1875 
z
M 19.671875 64.796875 
L 19.671875 38.921875 
L 32.078125 38.921875 
Q 39.203125 38.921875 42.84375 42.21875 
Q 46.484375 45.515625 46.484375 51.90625 
Q 46.484375 58.296875 42.84375 61.546875 
Q 39.203125 64.796875 32.078125 64.796875 
z
" id="DejaVuSans-52"/>
      <path d="M -0.296875 72.90625 
L 61.375 72.90625 
L 61.375 64.59375 
L 35.5 64.59375 
L 35.5 0 
L 25.59375 0 
L 25.59375 64.59375 
L -0.296875 64.59375 
z
" id="DejaVuSans-54"/>
      <path id="DejaVuSans-20"/>
      <path d="M 31 75.875 
Q 24.46875 64.65625 21.28125 53.65625 
Q 18.109375 42.671875 18.109375 31.390625 
Q 18.109375 20.125 21.3125 9.0625 
Q 24.515625 -2 31 -13.1875 
L 23.1875 -13.1875 
Q 15.875 -1.703125 12.234375 9.375 
Q 8.59375 20.453125 8.59375 31.390625 
Q 8.59375 42.28125 12.203125 53.3125 
Q 15.828125 64.359375 23.1875 75.875 
z
" id="DejaVuSans-28"/>
      <path d="M 52 44.1875 
Q 55.375 50.25 60.0625 53.125 
Q 64.75 56 71.09375 56 
Q 79.640625 56 84.28125 50.015625 
Q 88.921875 44.046875 88.921875 33.015625 
L 88.921875 0 
L 79.890625 0 
L 79.890625 32.71875 
Q 79.890625 40.578125 77.09375 44.375 
Q 74.3125 48.1875 68.609375 48.1875 
Q 61.625 48.1875 57.5625 43.546875 
Q 53.515625 38.921875 53.515625 30.90625 
L 53.515625 0 
L 44.484375 0 
L 44.484375 32.71875 
Q 44.484375 40.625 41.703125 44.40625 
Q 38.921875 48.1875 33.109375 48.1875 
Q 26.21875 48.1875 22.15625 43.53125 
Q 18.109375 38.875 18.109375 30.90625 
L 18.109375 0 
L 9.078125 0 
L 9.078125 54.6875 
L 18.109375 54.6875 
L 18.109375 46.1875 
Q 21.1875 51.21875 25.484375 53.609375 
Q 29.78125 56 35.6875 56 
Q 41.65625 56 45.828125 52.96875 
Q 50 49.953125 52 44.1875 
z
" id="DejaVuSans-6d"/>
      <path d="M 44.28125 53.078125 
L 44.28125 44.578125 
Q 40.484375 46.53125 36.375 47.5 
Q 32.28125 48.484375 27.875 48.484375 
Q 21.1875 48.484375 17.84375 46.4375 
Q 14.5 44.390625 14.5 40.28125 
Q 14.5 37.15625 16.890625 35.375 
Q 19.28125 33.59375 26.515625 31.984375 
L 29.59375 31.296875 
Q 39.15625 29.25 43.1875 25.515625 
Q 47.21875 21.78125 47.21875 15.09375 
Q 47.21875 7.46875 41.1875 3.015625 
Q 35.15625 -1.421875 24.609375 -1.421875 
Q 20.21875 -1.421875 15.453125 -0.5625 
Q 10.6875 0.296875 5.421875 2 
L 5.421875 11.28125 
Q 10.40625 8.6875 15.234375 7.390625 
Q 20.0625 6.109375 24.8125 6.109375 
Q 31.15625 6.109375 34.5625 8.28125 
Q 37.984375 10.453125 37.984375 14.40625 
Q 37.984375 18.0625 35.515625 20.015625 
Q 33.0625 21.96875 24.703125 23.78125 
L 21.578125 24.515625 
Q 13.234375 26.265625 9.515625 29.90625 
Q 5.8125 33.546875 5.8125 39.890625 
Q 5.8125 47.609375 11.28125 51.796875 
Q 16.75 56 26.8125 56 
Q 31.78125 56 36.171875 55.265625 
Q 40.578125 54.546875 44.28125 53.078125 
z
" id="DejaVuSans-73"/>
      <path d="M 8.015625 75.875 
L 15.828125 75.875 
Q 23.140625 64.359375 26.78125 53.3125 
Q 30.421875 42.28125 30.421875 31.390625 
Q 30.421875 20.453125 26.78125 9.375 
Q 23.140625 -1.703125 15.828125 -13.1875 
L 8.015625 -13.1875 
Q 14.5 -2 17.703125 9.0625 
Q 20.90625 20.125 20.90625 31.390625 
Q 20.90625 42.671875 17.703125 53.65625 
Q 14.5 64.65625 8.015625 75.875 
z
" id="DejaVuSans-29"/>
     </defs>
     <g transform="translate(346.458594 280.276563)scale(0.1 -0.1)">
      <use xlink:href="#DejaVuSans-52"/>
      <use x="69.373047" xlink:href="#DejaVuSans-54"/>
      <use x="130.441406" xlink:href="#DejaVuSans-54"/>
      <use x="191.525391" xlink:href="#DejaVuSans-20"/>
      <use x="223.3125" xlink:href="#DejaVuSans-28"/>
      <use x="262.326172" xlink:href="#DejaVuSans-6d"/>
      <use x="359.738281" xlink:href="#DejaVuSans-73"/>
      <use x="411.837891" xlink:href="#DejaVuSans-29"/>
     </g>
    </g>
   </g>
   <g id="matplotlib.axis_2">
    <g id="ytick_1">
     <g id="line2d_13">
      <path clip-path="url(#p6649fac918)" d="M 90 252 
L 648 252 
" style="fill:none;stroke:#b0b0b0;stroke-linecap:square;stroke-width:0.8;"/>
     </g>
     <g id="line2d_14">
      <defs>
       <path d="M 0 0 
L -3.5 0 
" id="m6761c5fc3a" style="stroke:#000000;stroke-width:0.8;"/>
      </defs>
      <g>
       <use style="stroke:#000000;stroke-width:0.8;" x="90" xlink:href="#m6761c5fc3a" y="252"/>
      </g>
     </g>
     <g id="text_8">
      <!-- 0.0 -->
      <defs>
       <path d="M 10.6875 12.40625 
L 21 12.40625 
L 21 0 
L 10.6875 0 
z
" id="DejaVuSans-2e"/>
      </defs>
      <g transform="translate(67.096875 255.799219)scale(0.1 -0.1)">
       <use xlink:href="#DejaVuSans-30"/>
       <use x="63.623047" xlink:href="#DejaVuSans-2e"/>
       <use x="95.410156" xlink:href="#DejaVuSans-30"/>
      </g>
     </g>
    </g>
    <g id="ytick_2">
     <g id="line2d_15">
      <path clip-path="url(#p6649fac918)" d="M 90 210.582857 
L 648 210.582857 
" style="fill:none;stroke:#b0b0b0;stroke-linecap:square;stroke-width:0.8;"/>
     </g>
     <g id="line2d_16">
      <g>
       <use style="stroke:#000000;stroke-width:0.8;" x="90" xlink:href="#m6761c5fc3a" y="210.582857"/>
      </g>
     </g>
     <g id="text_9">
      <!-- 0.2 -->
      <g transform="translate(67.096875 214.382076)scale(0.1 -0.1)">
       <use xlink:href="#DejaVuSans-30"/>
       <use x="63.623047" xlink:href="#DejaVuSans-2e"/>
       <use x="95.410156" xlink:href="#DejaVuSans-32"/>
      </g>
     </g>
    </g>
    <g id="ytick_3">
     <g id="line2d_17">
      <path clip-path="url(#p6649fac918)" d="M 90 169.165714 
L 648 169.165714 
" style="fill:none;stroke:#b0b0b0;stroke-linecap:square;stroke-width:0.8;"/>
     </g>
     <g id="line2d_18">
      <g>
       <use style="stroke:#000000;stroke-width:0.8;" x="90" xlink:href="#m6761c5fc3a" y="169.165714"/>
      </g>
     </g>
     <g id="text_10">
      <!-- 0.4 -->
      <g transform="translate(67.096875 172.964933)scale(0.1 -0.1)">
       <use xlink:href="#DejaVuSans-30"/>
       <use x="63.623047" xlink:href="#DejaVuSans-2e"/>
       <use x="95.410156" xlink:href="#DejaVuSans-34"/>
      </g>
     </g>
    </g>
    <g id="ytick_4">
     <g id="line2d_19">
      <path clip-path="url(#p6649fac918)" d="M 90 127.748571 
L 648 127.748571 
" style="fill:none;stroke:#b0b0b0;stroke-linecap:square;stroke-width:0.8;"/>
     </g>
     <g id="line2d_20">
      <g>
       <use style="stroke:#000000;stroke-width:0.8;" x="90" xlink:href="#m6761c5fc3a" y="127.748571"/>
      </g>
     </g>
     <g id="text_11">
      <!-- 0.6 -->
      <defs>
       <path d="M 33.015625 40.375 
Q 26.375 40.375 22.484375 35.828125 
Q 18.609375 31.296875 18.609375 23.390625 
Q 18.609375 15.53125 22.484375 10.953125 
Q 26.375 6.390625 33.015625 6.390625 
Q 39.65625 6.390625 43.53125 10.953125 
Q 47.40625 15.53125 47.40625 23.390625 
Q 47.40625 31.296875 43.53125 35.828125 
Q 39.65625 40.375 33.015625 40.375 
z
M 52.59375 71.296875 
L 52.59375 62.3125 
Q 48.875 64.0625 45.09375 64.984375 
Q 41.3125 65.921875 37.59375 65.921875 
Q 27.828125 65.921875 22.671875 59.328125 
Q 17.53125 52.734375 16.796875 39.40625 
Q 19.671875 43.65625 24.015625 45.921875 
Q 28.375 48.1875 33.59375 48.1875 
Q 44.578125 48.1875 50.953125 41.515625 
Q 57.328125 34.859375 57.328125 23.390625 
Q 57.328125 12.15625 50.6875 5.359375 
Q 44.046875 -1.421875 33.015625 -1.421875 
Q 20.359375 -1.421875 13.671875 8.265625 
Q 6.984375 17.96875 6.984375 36.375 
Q 6.984375 53.65625 15.1875 63.9375 
Q 23.390625 74.21875 37.203125 74.21875 
Q 40.921875 74.21875 44.703125 73.484375 
Q 48.484375 72.75 52.59375 71.296875 
z
" id="DejaVuSans-36"/>
      </defs>
      <g transform="translate(67.096875 131.54779)scale(0.1 -0.1)">
       <use xlink:href="#DejaVuSans-30"/>
       <use x="63.623047" xlink:href="#DejaVuSans-2e"/>
       <use x="95.410156" xlink:href="#DejaVuSans-36"/>
      </g>
     </g>
    </g>
    <g id="ytick_5">
     <g id="line2d_21">
      <path clip-path="url(#p6649fac918)" d="M 90 86.331429 
L 648 86.331429 
" style="fill:none;stroke:#b0b0b0;stroke-linecap:square;stroke-width:0.8;"/>
     </g>
     <g id="line2d_22">
      <g>
       <use style="stroke:#000000;stroke-width:0.8;" x="90" xlink:href="#m6761c5fc3a" y="86.331429"/>
      </g>
     </g>
     <g id="text_12">
      <!-- 0.8 -->
      <defs>
       <path d="M 31.78125 34.625 
Q 24.75 34.625 20.71875 30.859375 
Q 16.703125 27.09375 16.703125 20.515625 
Q 16.703125 13.921875 20.71875 10.15625 
Q 24.75 6.390625 31.78125 6.390625 
Q 38.8125 6.390625 42.859375 10.171875 
Q 46.921875 13.96875 46.921875 20.515625 
Q 46.921875 27.09375 42.890625 30.859375 
Q 38.875 34.625 31.78125 34.625 
z
M 21.921875 38.8125 
Q 15.578125 40.375 12.03125 44.71875 
Q 8.5 49.078125 8.5 55.328125 
Q 8.5 64.0625 14.71875 69.140625 
Q 20.953125 74.21875 31.78125 74.21875 
Q 42.671875 74.21875 48.875 69.140625 
Q 55.078125 64.0625 55.078125 55.328125 
Q 55.078125 49.078125 51.53125 44.71875 
Q 48 40.375 41.703125 38.8125 
Q 48.828125 37.15625 52.796875 32.3125 
Q 56.78125 27.484375 56.78125 20.515625 
Q 56.78125 9.90625 50.3125 4.234375 
Q 43.84375 -1.421875 31.78125 -1.421875 
Q 19.734375 -1.421875 13.25 4.234375 
Q 6.78125 9.90625 6.78125 20.515625 
Q 6.78125 27.484375 10.78125 32.3125 
Q 14.796875 37.15625 21.921875 38.8125 
z
M 18.3125 54.390625 
Q 18.3125 48.734375 21.84375 45.5625 
Q 25.390625 42.390625 31.78125 42.390625 
Q 38.140625 42.390625 41.71875 45.5625 
Q 45.3125 48.734375 45.3125 54.390625 
Q 45.3125 60.0625 41.71875 63.234375 
Q 38.140625 66.40625 31.78125 66.40625 
Q 25.390625 66.40625 21.84375 63.234375 
Q 18.3125 60.0625 18.3125 54.390625 
z
" id="DejaVuSans-38"/>
      </defs>
      <g transform="translate(67.096875 90.130647)scale(0.1 -0.1)">
       <use xlink:href="#DejaVuSans-30"/>
       <use x="63.623047" xlink:href="#DejaVuSans-2e"/>
       <use x="95.410156" xlink:href="#DejaVuSans-38"/>
      </g>
     </g>
    </g>
    <g id="ytick_6">
     <g id="line2d_23">
      <path clip-path="url(#p6649fac918)" d="M 90 44.914286 
L 648 44.914286 
" style="fill:none;stroke:#b0b0b0;stroke-linecap:square;stroke-width:0.8;"/>
     </g>
     <g id="line2d_24">
      <g>
       <use style="stroke:#000000;stroke-width:0.8;" x="90" xlink:href="#m6761c5fc3a" y="44.914286"/>
      </g>
     </g>
     <g id="text_13">
      <!-- 1.0 -->
      <g transform="translate(67.096875 48.713504)scale(0.1 -0.1)">
       <use xlink:href="#DejaVuSans-31"/>
       <use x="63.623047" xlink:href="#DejaVuSans-2e"/>
       <use x="95.410156" xlink:href="#DejaVuSans-30"/>
      </g>
     </g>
    </g>
    <g id="text_14">
     <!-- CDF -->
     <defs>
      <path d="M 64.40625 67.28125 
L 64.40625 56.890625 
Q 59.421875 61.53125 53.78125 63.8125 
Q 48.140625 66.109375 41.796875 66.109375 
Q 29.296875 66.109375 22.65625 58.46875 
Q 16.015625 50.828125 16.015625 36.375 
Q 16.015625 21.96875 22.65625 14.328125 
Q 29.296875 6.6875 41.796875 6.6875 
Q 48.140625 6.6875 53.78125 8.984375 
Q 59.421875 11.28125 64.40625 15.921875 
L 64.40625 5.609375 
Q 59.234375 2.09375 53.4375 0.328125 
Q 47.65625 -1.421875 41.21875 -1.421875 
Q 24.65625 -1.421875 15.125 8.703125 
Q 5.609375 18.84375 5.609375 36.375 
Q 5.609375 53.953125 15.125 64.078125 
Q 24.65625 74.21875 41.21875 74.21875 
Q 47.75 74.21875 53.53125 72.484375 
Q 59.328125 70.75 64.40625 67.28125 
z
" id="DejaVuSans-43"/>
      <path d="M 19.671875 64.796875 
L 19.671875 8.109375 
L 31.59375 8.109375 
Q 46.6875 8.109375 53.6875 14.9375 
Q 60.6875 21.78125 60.6875 36.53125 
Q 60.6875 51.171875 53.6875 57.984375 
Q 46.6875 64.796875 31.59375 64.796875 
z
M 9.8125 72.90625 
L 30.078125 72.90625 
Q 51.265625 72.90625 61.171875 64.09375 
Q 71.09375 55.28125 71.09375 36.53125 
Q 71.09375 17.671875 61.125 8.828125 
Q 51.171875 0 30.078125 0 
L 9.8125 0 
z
" id="DejaVuSans-44"/>
      <path d="M 9.8125 72.90625 
L 51.703125 72.90625 
L 51.703125 64.59375 
L 19.671875 64.59375 
L 19.671875 43.109375 
L 48.578125 43.109375 
L 48.578125 34.8125 
L 19.671875 34.8125 
L 19.671875 0 
L 9.8125 0 
z
" id="DejaVuSans-46"/>
     </defs>
     <g transform="translate(61.017187 153.497187)rotate(-90)scale(0.1 -0.1)">
      <use xlink:href="#DejaVuSans-43"/>
      <use x="69.824219" xlink:href="#DejaVuSans-44"/>
      <use x="146.826172" xlink:href="#DejaVuSans-46"/>
     </g>
    </g>
   </g>
   <g id="patch_6">
    <path d="M 90 252 
L 90 34.56 
" style="fill:none;stroke:#000000;stroke-linecap:square;stroke-linejoin:miter;stroke-width:0.8;"/>
   </g>
   <g id="patch_7">
    <path d="M 648 252 
L 648 34.56 
" style="fill:none;stroke:#000000;stroke-linecap:square;stroke-linejoin:miter;stroke-width:0.8;"/>
   </g>
   <g id="patch_8">
    <path d="M 90 252 
L 648 252 
" style="fill:none;stroke:#000000;stroke-linecap:square;stroke-linejoin:miter;stroke-width:0.8;"/>
   </g>
   <g id="patch_9">
    <path d="M 90 34.56 
L 648 34.56 
" style="fill:none;stroke:#000000;stroke-linecap:square;stroke-linejoin:miter;stroke-width:0.8;"/>
   </g>
   <g id="text_15">
    <!-- RTT for Locally hosted vs Locally hosted with interhop vs Remotely hosted -->
    <defs>
     <path d="M 37.109375 75.984375 
L 37.109375 68.5 
L 28.515625 68.5 
Q 23.6875 68.5 21.796875 66.546875 
Q 19.921875 64.59375 19.921875 59.515625 
L 19.921875 54.6875 
L 34.71875 54.6875 
L 34.71875 47.703125 
L 19.921875 47.703125 
L 19.921875 0 
L 10.890625 0 
L 10.890625 47.703125 
L 2.296875 47.703125 
L 2.296875 54.6875 
L 10.890625 54.6875 
L 10.890625 58.5 
Q 10.890625 67.625 15.140625 71.796875 
Q 19.390625 75.984375 28.609375 75.984375 
z
" id="DejaVuSans-66"/>
     <path d="M 30.609375 48.390625 
Q 23.390625 48.390625 19.1875 42.75 
Q 14.984375 37.109375 14.984375 27.296875 
Q 14.984375 17.484375 19.15625 11.84375 
Q 23.34375 6.203125 30.609375 6.203125 
Q 37.796875 6.203125 41.984375 11.859375 
Q 46.1875 17.53125 46.1875 27.296875 
Q 46.1875 37.015625 41.984375 42.703125 
Q 37.796875 48.390625 30.609375 48.390625 
z
M 30.609375 56 
Q 42.328125 56 49.015625 48.375 
Q 55.71875 40.765625 55.71875 27.296875 
Q 55.71875 13.875 49.015625 6.21875 
Q 42.328125 -1.421875 30.609375 -1.421875 
Q 18.84375 -1.421875 12.171875 6.21875 
Q 5.515625 13.875 5.515625 27.296875 
Q 5.515625 40.765625 12.171875 48.375 
Q 18.84375 56 30.609375 56 
z
" id="DejaVuSans-6f"/>
     <path d="M 41.109375 46.296875 
Q 39.59375 47.171875 37.8125 47.578125 
Q 36.03125 48 33.890625 48 
Q 26.265625 48 22.1875 43.046875 
Q 18.109375 38.09375 18.109375 28.8125 
L 18.109375 0 
L 9.078125 0 
L 9.078125 54.6875 
L 18.109375 54.6875 
L 18.109375 46.1875 
Q 20.953125 51.171875 25.484375 53.578125 
Q 30.03125 56 36.53125 56 
Q 37.453125 56 38.578125 55.875 
Q 39.703125 55.765625 41.0625 55.515625 
z
" id="DejaVuSans-72"/>
     <path d="M 9.8125 72.90625 
L 19.671875 72.90625 
L 19.671875 8.296875 
L 55.171875 8.296875 
L 55.171875 0 
L 9.8125 0 
z
" id="DejaVuSans-4c"/>
     <path d="M 48.78125 52.59375 
L 48.78125 44.1875 
Q 44.96875 46.296875 41.140625 47.34375 
Q 37.3125 48.390625 33.40625 48.390625 
Q 24.65625 48.390625 19.8125 42.84375 
Q 14.984375 37.3125 14.984375 27.296875 
Q 14.984375 17.28125 19.8125 11.734375 
Q 24.65625 6.203125 33.40625 6.203125 
Q 37.3125 6.203125 41.140625 7.25 
Q 44.96875 8.296875 48.78125 10.40625 
L 48.78125 2.09375 
Q 45.015625 0.34375 40.984375 -0.53125 
Q 36.96875 -1.421875 32.421875 -1.421875 
Q 20.0625 -1.421875 12.78125 6.34375 
Q 5.515625 14.109375 5.515625 27.296875 
Q 5.515625 40.671875 12.859375 48.328125 
Q 20.21875 56 33.015625 56 
Q 37.15625 56 41.109375 55.140625 
Q 45.0625 54.296875 48.78125 52.59375 
z
" id="DejaVuSans-63"/>
     <path d="M 34.28125 27.484375 
Q 23.390625 27.484375 19.1875 25 
Q 14.984375 22.515625 14.984375 16.5 
Q 14.984375 11.71875 18.140625 8.90625 
Q 21.296875 6.109375 26.703125 6.109375 
Q 34.1875 6.109375 38.703125 11.40625 
Q 43.21875 16.703125 43.21875 25.484375 
L 43.21875 27.484375 
z
M 52.203125 31.203125 
L 52.203125 0 
L 43.21875 0 
L 43.21875 8.296875 
Q 40.140625 3.328125 35.546875 0.953125 
Q 30.953125 -1.421875 24.3125 -1.421875 
Q 15.921875 -1.421875 10.953125 3.296875 
Q 6 8.015625 6 15.921875 
Q 6 25.140625 12.171875 29.828125 
Q 18.359375 34.515625 30.609375 34.515625 
L 43.21875 34.515625 
L 43.21875 35.40625 
Q 43.21875 41.609375 39.140625 45 
Q 35.0625 48.390625 27.6875 48.390625 
Q 23 48.390625 18.546875 47.265625 
Q 14.109375 46.140625 10.015625 43.890625 
L 10.015625 52.203125 
Q 14.9375 54.109375 19.578125 55.046875 
Q 24.21875 56 28.609375 56 
Q 40.484375 56 46.34375 49.84375 
Q 52.203125 43.703125 52.203125 31.203125 
z
" id="DejaVuSans-61"/>
     <path d="M 9.421875 75.984375 
L 18.40625 75.984375 
L 18.40625 0 
L 9.421875 0 
z
" id="DejaVuSans-6c"/>
     <path d="M 32.171875 -5.078125 
Q 28.375 -14.84375 24.75 -17.8125 
Q 21.140625 -20.796875 15.09375 -20.796875 
L 7.90625 -20.796875 
L 7.90625 -13.28125 
L 13.1875 -13.28125 
Q 16.890625 -13.28125 18.9375 -11.515625 
Q 21 -9.765625 23.484375 -3.21875 
L 25.09375 0.875 
L 2.984375 54.6875 
L 12.5 54.6875 
L 29.59375 11.921875 
L 46.6875 54.6875 
L 56.203125 54.6875 
z
" id="DejaVuSans-79"/>
     <path d="M 54.890625 33.015625 
L 54.890625 0 
L 45.90625 0 
L 45.90625 32.71875 
Q 45.90625 40.484375 42.875 44.328125 
Q 39.84375 48.1875 33.796875 48.1875 
Q 26.515625 48.1875 22.3125 43.546875 
Q 18.109375 38.921875 18.109375 30.90625 
L 18.109375 0 
L 9.078125 0 
L 9.078125 75.984375 
L 18.109375 75.984375 
L 18.109375 46.1875 
Q 21.34375 51.125 25.703125 53.5625 
Q 30.078125 56 35.796875 56 
Q 45.21875 56 50.046875 50.171875 
Q 54.890625 44.34375 54.890625 33.015625 
z
" id="DejaVuSans-68"/>
     <path d="M 18.3125 70.21875 
L 18.3125 54.6875 
L 36.8125 54.6875 
L 36.8125 47.703125 
L 18.3125 47.703125 
L 18.3125 18.015625 
Q 18.3125 11.328125 20.140625 9.421875 
Q 21.96875 7.515625 27.59375 7.515625 
L 36.8125 7.515625 
L 36.8125 0 
L 27.59375 0 
Q 17.1875 0 13.234375 3.875 
Q 9.28125 7.765625 9.28125 18.015625 
L 9.28125 47.703125 
L 2.6875 47.703125 
L 2.6875 54.6875 
L 9.28125 54.6875 
L 9.28125 70.21875 
z
" id="DejaVuSans-74"/>
     <path d="M 56.203125 29.59375 
L 56.203125 25.203125 
L 14.890625 25.203125 
Q 15.484375 15.921875 20.484375 11.0625 
Q 25.484375 6.203125 34.421875 6.203125 
Q 39.59375 6.203125 44.453125 7.46875 
Q 49.3125 8.734375 54.109375 11.28125 
L 54.109375 2.78125 
Q 49.265625 0.734375 44.1875 -0.34375 
Q 39.109375 -1.421875 33.890625 -1.421875 
Q 20.796875 -1.421875 13.15625 6.1875 
Q 5.515625 13.8125 5.515625 26.8125 
Q 5.515625 40.234375 12.765625 48.109375 
Q 20.015625 56 32.328125 56 
Q 43.359375 56 49.78125 48.890625 
Q 56.203125 41.796875 56.203125 29.59375 
z
M 47.21875 32.234375 
Q 47.125 39.59375 43.09375 43.984375 
Q 39.0625 48.390625 32.421875 48.390625 
Q 24.90625 48.390625 20.390625 44.140625 
Q 15.875 39.890625 15.1875 32.171875 
z
" id="DejaVuSans-65"/>
     <path d="M 45.40625 46.390625 
L 45.40625 75.984375 
L 54.390625 75.984375 
L 54.390625 0 
L 45.40625 0 
L 45.40625 8.203125 
Q 42.578125 3.328125 38.25 0.953125 
Q 33.9375 -1.421875 27.875 -1.421875 
Q 17.96875 -1.421875 11.734375 6.484375 
Q 5.515625 14.40625 5.515625 27.296875 
Q 5.515625 40.1875 11.734375 48.09375 
Q 17.96875 56 27.875 56 
Q 33.9375 56 38.25 53.625 
Q 42.578125 51.265625 45.40625 46.390625 
z
M 14.796875 27.296875 
Q 14.796875 17.390625 18.875 11.75 
Q 22.953125 6.109375 30.078125 6.109375 
Q 37.203125 6.109375 41.296875 11.75 
Q 45.40625 17.390625 45.40625 27.296875 
Q 45.40625 37.203125 41.296875 42.84375 
Q 37.203125 48.484375 30.078125 48.484375 
Q 22.953125 48.484375 18.875 42.84375 
Q 14.796875 37.203125 14.796875 27.296875 
z
" id="DejaVuSans-64"/>
     <path d="M 2.984375 54.6875 
L 12.5 54.6875 
L 29.59375 8.796875 
L 46.6875 54.6875 
L 56.203125 54.6875 
L 35.6875 0 
L 23.484375 0 
z
" id="DejaVuSans-76"/>
     <path d="M 4.203125 54.6875 
L 13.1875 54.6875 
L 24.421875 12.015625 
L 35.59375 54.6875 
L 46.1875 54.6875 
L 57.421875 12.015625 
L 68.609375 54.6875 
L 77.59375 54.6875 
L 63.28125 0 
L 52.6875 0 
L 40.921875 44.828125 
L 29.109375 0 
L 18.5 0 
z
" id="DejaVuSans-77"/>
     <path d="M 9.421875 54.6875 
L 18.40625 54.6875 
L 18.40625 0 
L 9.421875 0 
z
M 9.421875 75.984375 
L 18.40625 75.984375 
L 18.40625 64.59375 
L 9.421875 64.59375 
z
" id="DejaVuSans-69"/>
     <path d="M 54.890625 33.015625 
L 54.890625 0 
L 45.90625 0 
L 45.90625 32.71875 
Q 45.90625 40.484375 42.875 44.328125 
Q 39.84375 48.1875 33.796875 48.1875 
Q 26.515625 48.1875 22.3125 43.546875 
Q 18.109375 38.921875 18.109375 30.90625 
L 18.109375 0 
L 9.078125 0 
L 9.078125 54.6875 
L 18.109375 54.6875 
L 18.109375 46.1875 
Q 21.34375 51.125 25.703125 53.5625 
Q 30.078125 56 35.796875 56 
Q 45.21875 56 50.046875 50.171875 
Q 54.890625 44.34375 54.890625 33.015625 
z
" id="DejaVuSans-6e"/>
     <path d="M 18.109375 8.203125 
L 18.109375 -20.796875 
L 9.078125 -20.796875 
L 9.078125 54.6875 
L 18.109375 54.6875 
L 18.109375 46.390625 
Q 20.953125 51.265625 25.265625 53.625 
Q 29.59375 56 35.59375 56 
Q 45.5625 56 51.78125 48.09375 
Q 58.015625 40.1875 58.015625 27.296875 
Q 58.015625 14.40625 51.78125 6.484375 
Q 45.5625 -1.421875 35.59375 -1.421875 
Q 29.59375 -1.421875 25.265625 0.953125 
Q 20.953125 3.328125 18.109375 8.203125 
z
M 48.6875 27.296875 
Q 48.6875 37.203125 44.609375 42.84375 
Q 40.53125 48.484375 33.40625 48.484375 
Q 26.265625 48.484375 22.1875 42.84375 
Q 18.109375 37.203125 18.109375 27.296875 
Q 18.109375 17.390625 22.1875 11.75 
Q 26.265625 6.109375 33.40625 6.109375 
Q 40.53125 6.109375 44.609375 11.75 
Q 48.6875 17.390625 48.6875 27.296875 
z
" id="DejaVuSans-70"/>
    </defs>
    <g transform="translate(145.198125 28.56)scale(0.12 -0.12)">
     <use xlink:href="#DejaVuSans-52"/>
     <use x="69.373047" xlink:href="#DejaVuSans-54"/>
     <use x="130.441406" xlink:href="#DejaVuSans-54"/>
     <use x="191.525391" xlink:href="#DejaVuSans-20"/>
     <use x="223.3125" xlink:href="#DejaVuSans-66"/>
     <use x="258.517578" xlink:href="#DejaVuSans-6f"/>
     <use x="319.699219" xlink:href="#DejaVuSans-72"/>
     <use x="360.8125" xlink:href="#DejaVuSans-20"/>
     <use x="392.599609" xlink:href="#DejaVuSans-4c"/>
     <use x="448.296875" xlink:href="#DejaVuSans-6f"/>
     <use x="509.478516" xlink:href="#DejaVuSans-63"/>
     <use x="564.458984" xlink:href="#DejaVuSans-61"/>
     <use x="625.738281" xlink:href="#DejaVuSans-6c"/>
     <use x="653.521484" xlink:href="#DejaVuSans-6c"/>
     <use x="681.304688" xlink:href="#DejaVuSans-79"/>
     <use x="740.484375" xlink:href="#DejaVuSans-20"/>
     <use x="772.271484" xlink:href="#DejaVuSans-68"/>
     <use x="835.650391" xlink:href="#DejaVuSans-6f"/>
     <use x="896.832031" xlink:href="#DejaVuSans-73"/>
     <use x="948.931641" xlink:href="#DejaVuSans-74"/>
     <use x="988.140625" xlink:href="#DejaVuSans-65"/>
     <use x="1049.664062" xlink:href="#DejaVuSans-64"/>
     <use x="1113.140625" xlink:href="#DejaVuSans-20"/>
     <use x="1144.927734" xlink:href="#DejaVuSans-76"/>
     <use x="1204.107422" xlink:href="#DejaVuSans-73"/>
     <use x="1256.207031" xlink:href="#DejaVuSans-20"/>
     <use x="1287.994141" xlink:href="#DejaVuSans-4c"/>
     <use x="1343.691406" xlink:href="#DejaVuSans-6f"/>
     <use x="1404.873047" xlink:href="#DejaVuSans-63"/>
     <use x="1459.853516" xlink:href="#DejaVuSans-61"/>
     <use x="1521.132812" xlink:href="#DejaVuSans-6c"/>
     <use x="1548.916016" xlink:href="#DejaVuSans-6c"/>
     <use x="1576.699219" xlink:href="#DejaVuSans-79"/>
     <use x="1635.878906" xlink:href="#DejaVuSans-20"/>
     <use x="1667.666016" xlink:href="#DejaVuSans-68"/>
     <use x="1731.044922" xlink:href="#DejaVuSans-6f"/>
     <use x="1792.226562" xlink:href="#DejaVuSans-73"/>
     <use x="1844.326172" xlink:href="#DejaVuSans-74"/>
     <use x="1883.535156" xlink:href="#DejaVuSans-65"/>
     <use x="1945.058594" xlink:href="#DejaVuSans-64"/>
     <use x="2008.535156" xlink:href="#DejaVuSans-20"/>
     <use x="2040.322266" xlink:href="#DejaVuSans-77"/>
     <use x="2122.109375" xlink:href="#DejaVuSans-69"/>
     <use x="2149.892578" xlink:href="#DejaVuSans-74"/>
     <use x="2189.101562" xlink:href="#DejaVuSans-68"/>
     <use x="2252.480469" xlink:href="#DejaVuSans-20"/>
     <use x="2284.267578" xlink:href="#DejaVuSans-69"/>
     <use x="2312.050781" xlink:href="#DejaVuSans-6e"/>
     <use x="2375.429688" xlink:href="#DejaVuSans-74"/>
     <use x="2414.638672" xlink:href="#DejaVuSans-65"/>
     <use x="2476.162109" xlink:href="#DejaVuSans-72"/>
     <use x="2517.259766" xlink:href="#DejaVuSans-68"/>
     <use x="2580.638672" xlink:href="#DejaVuSans-6f"/>
     <use x="2641.820312" xlink:href="#DejaVuSans-70"/>
     <use x="2705.296875" xlink:href="#DejaVuSans-20"/>
     <use x="2737.083984" xlink:href="#DejaVuSans-76"/>
     <use x="2796.263672" xlink:href="#DejaVuSans-73"/>
     <use x="2848.363281" xlink:href="#DejaVuSans-20"/>
     <use x="2880.150391" xlink:href="#DejaVuSans-52"/>
     <use x="2949.570312" xlink:href="#DejaVuSans-65"/>
     <use x="3011.09375" xlink:href="#DejaVuSans-6d"/>
     <use x="3108.505859" xlink:href="#DejaVuSans-6f"/>
     <use x="3169.6875" xlink:href="#DejaVuSans-74"/>
     <use x="3208.896484" xlink:href="#DejaVuSans-65"/>
     <use x="3270.419922" xlink:href="#DejaVuSans-6c"/>
     <use x="3298.203125" xlink:href="#DejaVuSans-79"/>
     <use x="3357.382812" xlink:href="#DejaVuSans-20"/>
     <use x="3389.169922" xlink:href="#DejaVuSans-68"/>
     <use x="3452.548828" xlink:href="#DejaVuSans-6f"/>
     <use x="3513.730469" xlink:href="#DejaVuSans-73"/>
     <use x="3565.830078" xlink:href="#DejaVuSans-74"/>
     <use x="3605.039062" xlink:href="#DejaVuSans-65"/>
     <use x="3666.5625" xlink:href="#DejaVuSans-64"/>
    </g>
   </g>
   <g id="legend_1">
    <g id="patch_10">
     <path d="M 513.232813 166.797188 
L 641 166.797188 
Q 643 166.797188 643 164.797188 
L 643 121.762812 
Q 643 119.762812 641 119.762812 
L 513.232813 119.762812 
Q 511.232813 119.762812 511.232813 121.762812 
L 511.232813 164.797188 
Q 511.232813 166.797188 513.232813 166.797188 
z
" style="fill:#ffffff;opacity:0.8;stroke:#cccccc;stroke-linejoin:miter;"/>
    </g>
    <g id="patch_11">
     <path d="M 515.232813 131.36125 
L 535.232813 131.36125 
L 535.232813 124.36125 
L 515.232813 124.36125 
z
" style="fill:none;stroke:#1f77b4;stroke-linejoin:miter;stroke-width:2;"/>
    </g>
    <g id="text_16">
     <!-- Local with interhop -->
     <g transform="translate(543.232813 131.36125)scale(0.1 -0.1)">
      <use xlink:href="#DejaVuSans-4c"/>
      <use x="55.697266" xlink:href="#DejaVuSans-6f"/>
      <use x="116.878906" xlink:href="#DejaVuSans-63"/>
      <use x="171.859375" xlink:href="#DejaVuSans-61"/>
      <use x="233.138672" xlink:href="#DejaVuSans-6c"/>
      <use x="260.921875" xlink:href="#DejaVuSans-20"/>
      <use x="292.708984" xlink:href="#DejaVuSans-77"/>
      <use x="374.496094" xlink:href="#DejaVuSans-69"/>
      <use x="402.279297" xlink:href="#DejaVuSans-74"/>
      <use x="441.488281" xlink:href="#DejaVuSans-68"/>
      <use x="504.867188" xlink:href="#DejaVuSans-20"/>
      <use x="536.654297" xlink:href="#DejaVuSans-69"/>
      <use x="564.4375" xlink:href="#DejaVuSans-6e"/>
      <use x="627.816406" xlink:href="#DejaVuSans-74"/>
      <use x="667.025391" xlink:href="#DejaVuSans-65"/>
      <use x="728.548828" xlink:href="#DejaVuSans-72"/>
      <use x="769.646484" xlink:href="#DejaVuSans-68"/>
      <use x="833.025391" xlink:href="#DejaVuSans-6f"/>
      <use x="894.207031" xlink:href="#DejaVuSans-70"/>
     </g>
    </g>
    <g id="patch_12">
     <path d="M 515.232813 146.039375 
L 535.232813 146.039375 
L 535.232813 139.039375 
L 515.232813 139.039375 
z
" style="fill:none;stroke:#ff7f0e;stroke-linejoin:miter;stroke-width:2;"/>
    </g>
    <g id="text_17">
     <!-- Local no interhop -->
     <g transform="translate(543.232813 146.039375)scale(0.1 -0.1)">
      <use xlink:href="#DejaVuSans-4c"/>
      <use x="55.697266" xlink:href="#DejaVuSans-6f"/>
      <use x="116.878906" xlink:href="#DejaVuSans-63"/>
      <use x="171.859375" xlink:href="#DejaVuSans-61"/>
      <use x="233.138672" xlink:href="#DejaVuSans-6c"/>
      <use x="260.921875" xlink:href="#DejaVuSans-20"/>
      <use x="292.708984" xlink:href="#DejaVuSans-6e"/>
      <use x="356.087891" xlink:href="#DejaVuSans-6f"/>
      <use x="417.269531" xlink:href="#DejaVuSans-20"/>
      <use x="449.056641" xlink:href="#DejaVuSans-69"/>
      <use x="476.839844" xlink:href="#DejaVuSans-6e"/>
      <use x="540.21875" xlink:href="#DejaVuSans-74"/>
      <use x="579.427734" xlink:href="#DejaVuSans-65"/>
      <use x="640.951172" xlink:href="#DejaVuSans-72"/>
      <use x="682.048828" xlink:href="#DejaVuSans-68"/>
      <use x="745.427734" xlink:href="#DejaVuSans-6f"/>
      <use x="806.609375" xlink:href="#DejaVuSans-70"/>
     </g>
    </g>
    <g id="patch_13">
     <path d="M 515.232813 160.7175 
L 535.232813 160.7175 
L 535.232813 153.7175 
L 515.232813 153.7175 
z
" style="fill:none;stroke:#2ca02c;stroke-linejoin:miter;stroke-width:2;"/>
    </g>
    <g id="text_18">
     <!-- Remote -->
     <g transform="translate(543.232813 160.7175)scale(0.1 -0.1)">
      <use xlink:href="#DejaVuSans-52"/>
      <use x="69.419922" xlink:href="#DejaVuSans-65"/>
      <use x="130.943359" xlink:href="#DejaVuSans-6d"/>
      <use x="228.355469" xlink:href="#DejaVuSans-6f"/>
      <use x="289.537109" xlink:href="#DejaVuSans-74"/>
      <use x="328.746094" xlink:href="#DejaVuSans-65"/>
     </g>
    </g>
   </g>
  </g>
 </g>
 <defs>
  <clipPath id="p6649fac918">
   <rect height="217.44" width="558" x="90" y="34.56"/>
  </clipPath>
 </defs>
</svg>
