<?xml version="1.0" encoding="utf-8" standalone="no"?>
<!DOCTYPE svg PUBLIC "-//W3C//DTD SVG 1.1//EN"
  "http://www.w3.org/Graphics/SVG/1.1/DTD/svg11.dtd">
<!-- Created with matplotlib (http://matplotlib.org/) -->
<svg height="432pt" version="1.1" viewBox="0 0 432 432" width="432pt" xmlns="http://www.w3.org/2000/svg" xmlns:xlink="http://www.w3.org/1999/xlink">
 <defs>
  <style type="text/css">
*{stroke-linecap:butt;stroke-linejoin:round;}
  </style>
 </defs>
 <g id="figure_1">
  <g id="patch_1">
   <path d="M 0 432 
L 432 432 
L 432 0 
L 0 0 
z
" style="fill:#ffffff;"/>
  </g>
  <g id="axes_1">
   <g id="patch_2">
    <path d="M 328.021963 112.050081 
C 321.080991 105.113754 313.478399 98.871736 305.322607 93.413043 
C 297.166816 87.95435 288.496781 83.305056 279.436145 79.531464 
L 266.058499 111.609058 
C 273.028219 114.511822 279.697477 118.088202 285.971162 122.287196 
C 292.244848 126.486191 298.092996 131.287743 303.432205 136.623379 
L 328.021963 112.050081 
z
" style="fill:#3182bd;stroke:#ffffff;stroke-linejoin:miter;"/>
   </g>
   <g id="patch_3">
    <path d="M 279.436145 79.531464 
C 258.588498 70.848792 236.051778 66.96 213.49767 68.153542 
C 190.943563 69.347084 168.943865 75.592702 149.130427 86.427119 
C 129.31699 97.261537 112.192128 112.410078 99.026095 130.749084 
C 85.860063 149.088089 76.98665 170.152625 73.064049 192.380206 
L 107.310733 198.415783 
C 110.328118 181.317644 117.153821 165.114155 127.281538 151.007228 
C 137.409255 136.9003 150.582226 125.247576 165.823332 116.913409 
C 181.064437 108.579241 197.987282 103.77492 215.336596 102.856811 
C 232.685909 101.938702 250.021848 104.93008 266.058499 111.609058 
L 279.436145 79.531464 
z
" style="fill:#e6550d;stroke:#ffffff;stroke-linejoin:miter;"/>
   </g>
   <g id="patch_4">
    <path d="M 73.064049 192.380206 
C 69.218182 214.172975 70.225982 236.547376 76.015531 257.906722 
C 81.805079 279.266069 92.235303 299.089897 106.561877 315.963535 
C 120.888451 332.837172 138.76228 346.349459 158.907849 355.536129 
C 179.053417 364.722799 200.979837 369.36 223.122391 369.116811 
C 245.264945 368.873622 267.084085 363.755969 287.022749 354.129059 
C 306.961413 344.502149 324.533756 330.600561 338.485775 313.416343 
C 352.437795 296.232125 362.429523 276.184005 367.747927 254.702661 
C 373.066331 233.221317 373.581818 210.830186 369.257602 189.127148 
L 335.151927 195.913431 
C 338.478248 212.608076 338.081719 229.832023 333.990639 246.356133 
C 329.899559 262.880244 322.213615 278.301875 311.481292 291.520504 
C 300.748969 304.739133 287.231782 315.432662 271.894348 322.837978 
C 256.556915 330.243293 239.772961 334.179949 222.740227 334.367018 
C 205.707493 334.554086 188.841016 330.987009 173.344425 323.920339 
C 157.847834 316.85367 144.098735 306.459603 133.078293 293.479882 
C 122.057851 280.500161 114.034603 265.251062 109.581104 248.820796 
C 105.127604 232.390529 104.352374 215.179452 107.310733 198.415783 
L 73.064049 192.380206 
z
" style="fill:#31a354;stroke:#ffffff;stroke-linejoin:miter;"/>
   </g>
   <g id="patch_5">
    <path d="M 369.257602 189.127148 
C 366.364355 174.606078 361.343865 160.590485 354.358386 147.533322 
C 347.372906 134.476159 338.498507 122.519617 328.02199 112.050108 
L 303.432226 136.6234 
C 311.491085 144.676869 318.317546 153.874208 323.690992 163.91818 
C 329.064438 173.962152 332.926353 184.743377 335.151927 195.913431 
L 369.257602 189.127148 
z
" style="fill:#756bb1;stroke:#ffffff;stroke-linejoin:miter;"/>
   </g>
   <g id="patch_6">
    <path d="M 303.432205 136.623379 
C 298.092996 131.287743 292.244848 126.486191 285.971162 122.287196 
C 279.697477 118.088202 273.028219 114.511822 266.058499 111.609058 
L 252.680854 143.686653 
C 257.559657 145.718587 262.228138 148.222053 266.619718 151.16135 
C 271.011297 154.100646 275.105001 157.461732 278.842448 161.196677 
L 303.432205 136.623379 
z
" style="fill:#1f77b4;stroke:#ffffff;stroke-linejoin:miter;"/>
   </g>
   <g id="patch_7">
    <path d="M 266.058499 111.609058 
C 250.021848 104.93008 232.685909 101.938702 215.336596 102.856811 
C 197.987282 103.77492 181.064437 108.579241 165.823332 116.913409 
C 150.582226 125.247576 137.409255 136.9003 127.281538 151.007228 
C 117.153821 165.114155 110.328118 181.317644 107.310733 198.415783 
L 141.557417 204.45136 
C 143.669586 192.482663 148.447579 181.140221 155.53698 171.265371 
C 162.626382 161.390522 171.847462 153.233615 182.516236 147.399698 
C 193.18501 141.565781 205.031001 138.202756 217.175521 137.56008 
C 229.32004 136.917403 241.455197 139.011368 252.680854 143.686653 
L 266.058499 111.609058 
z
" style="fill:#ff7f0e;stroke:#ffffff;stroke-linejoin:miter;"/>
   </g>
   <g id="patch_8">
    <path d="M 107.310733 198.415783 
C 106.397938 203.588174 105.838212 208.81662 105.635429 214.064918 
C 105.432647 219.313217 105.587278 224.569227 106.098251 229.796556 
L 140.70868 226.417901 
C 140.350998 222.758771 140.242757 219.079564 140.384704 215.405755 
C 140.526652 211.731946 140.918461 208.072034 141.557417 204.45136 
L 107.310733 198.415783 
z
" style="fill:#2ca02c;stroke:#ffffff;stroke-linejoin:miter;"/>
   </g>
   <g id="patch_9">
    <path d="M 106.098251 229.796556 
C 106.951739 238.527862 108.795007 247.134086 111.592572 255.449571 
C 114.390138 263.765055 118.123937 271.736102 122.722098 279.20928 
L 152.345373 261.006808 
C 149.12666 255.775583 146.513001 250.195851 144.554705 244.375012 
C 142.596409 238.554172 141.306122 232.529816 140.70868 226.417901 
L 106.098251 229.796556 
z
" style="fill:#d62728;stroke:#ffffff;stroke-linejoin:miter;"/>
   </g>
   <g id="patch_10">
    <path d="M 122.722098 279.20928 
C 134.873065 298.957681 152.681046 314.613425 173.830087 324.140461 
C 194.979128 333.667496 218.51086 336.634105 241.364947 332.654475 
C 264.219034 328.674846 285.359843 317.929314 302.03798 301.815353 
C 318.716118 285.701393 330.175814 264.949206 334.926719 242.257647 
L 300.888607 235.140665 
C 297.562974 251.024756 289.541186 265.551287 277.86649 276.831059 
C 266.191794 288.110832 251.393227 295.632704 235.395367 298.418445 
C 219.397506 301.204186 202.925293 299.127559 188.120965 292.458635 
C 173.316636 285.78971 160.851049 274.830688 152.345373 261.006808 
L 122.722098 279.20928 
z
" style="fill:#9467bd;stroke:#ffffff;stroke-linejoin:miter;"/>
   </g>
   <g id="patch_11">
    <path d="M 334.926719 242.257647 
C 336.521732 234.63945 337.344388 226.879968 337.382209 219.096899 
C 337.42003 211.313831 336.672823 203.54673 335.151924 195.913412 
L 301.04625 202.699701 
C 302.11088 208.043023 302.633925 213.479994 302.60745 218.928142 
C 302.580976 224.376289 302.005116 229.807927 300.888607 235.140665 
L 334.926719 242.257647 
z
" style="fill:#8c564b;stroke:#ffffff;stroke-linejoin:miter;"/>
   </g>
   <g id="patch_12">
    <path d="M 335.151924 195.913412 
C 333.716078 188.706979 331.597352 181.653391 328.824402 174.848055 
C 326.051452 168.042718 322.636838 161.516455 318.626745 155.357539 
L 289.478625 174.31059 
C 292.28569 178.621831 294.67592 183.190215 296.616985 187.95395 
C 298.55805 192.717686 300.041159 197.655198 301.04625 202.699701 
L 335.151924 195.913412 
z
" style="fill:#e377c2;stroke:#ffffff;stroke-linejoin:miter;"/>
   </g>
   <g id="patch_13">
    <path d="M 318.626745 155.357539 
C 316.428818 151.981845 314.056225 148.722992 311.518633 145.594259 
C 308.981041 142.465526 306.281901 139.471167 303.432211 136.623385 
L 278.842452 161.196681 
C 280.837234 163.190129 282.726632 165.28618 284.502947 167.476293 
C 286.279261 169.666407 287.940077 171.947604 289.478625 174.31059 
L 318.626745 155.357539 
z
" style="fill:#7f7f7f;stroke:#ffffff;stroke-linejoin:miter;"/>
   </g>
   <g id="patch_14">
    <path clip-path="url(#p94a417900e)" d="M 221.466346 299.622121 
C 242.985472 299.622121 263.626128 291.078205 278.842448 275.87207 
C 294.058767 260.665935 302.608407 240.039096 302.608407 218.534374 
C 302.608407 197.029652 294.058767 176.402812 278.842448 161.196677 
C 263.626128 145.990543 242.985472 137.446626 221.466346 137.446626 
C 199.94722 137.446626 179.306565 145.990543 164.090245 161.196677 
C 148.873925 176.402812 140.324286 197.029652 140.324286 218.534374 
C 140.324286 240.039096 148.873925 260.665935 164.090245 275.87207 
C 179.306565 291.078205 199.94722 299.622121 221.466346 299.622121 
z
" style="fill:#ffffff;"/>
   </g>
   <g id="matplotlib.axis_1"/>
   <g id="matplotlib.axis_2"/>
   <g id="text_1">
    <!-- CA -->
    <defs>
     <path d="M 64.40625 67.28125 
L 64.40625 56.890625 
Q 59.421875 61.53125 53.78125 63.8125 
Q 48.140625 66.109375 41.796875 66.109375 
Q 29.296875 66.109375 22.65625 58.46875 
Q 16.015625 50.828125 16.015625 36.375 
Q 16.015625 21.96875 22.65625 14.328125 
Q 29.296875 6.6875 41.796875 6.6875 
Q 48.140625 6.6875 53.78125 8.984375 
Q 59.421875 11.28125 64.40625 15.921875 
L 64.40625 5.609375 
Q 59.234375 2.09375 53.4375 0.328125 
Q 47.65625 -1.421875 41.21875 -1.421875 
Q 24.65625 -1.421875 15.125 8.703125 
Q 5.609375 18.84375 5.609375 36.375 
Q 5.609375 53.953125 15.125 64.078125 
Q 24.65625 74.21875 41.21875 74.21875 
Q 47.75 74.21875 53.53125 72.484375 
Q 59.328125 70.75 64.40625 67.28125 
z
" id="DejaVuSans-43"/>
     <path d="M 34.1875 63.1875 
L 20.796875 26.90625 
L 47.609375 26.90625 
z
M 28.609375 72.90625 
L 39.796875 72.90625 
L 67.578125 0 
L 57.328125 0 
L 50.6875 18.703125 
L 17.828125 18.703125 
L 11.1875 0 
L 0.78125 0 
z
" id="DejaVuSans-41"/>
    </defs>
    <g transform="translate(313.708233 85.31591)scale(0.16 -0.16)">
     <use xlink:href="#DejaVuSans-43"/>
     <use x="69.824219" xlink:href="#DejaVuSans-41"/>
    </g>
   </g>
   <g id="text_2">
    <!-- 6.2% -->
    <defs>
     <path d="M 33.015625 40.375 
Q 26.375 40.375 22.484375 35.828125 
Q 18.609375 31.296875 18.609375 23.390625 
Q 18.609375 15.53125 22.484375 10.953125 
Q 26.375 6.390625 33.015625 6.390625 
Q 39.65625 6.390625 43.53125 10.953125 
Q 47.40625 15.53125 47.40625 23.390625 
Q 47.40625 31.296875 43.53125 35.828125 
Q 39.65625 40.375 33.015625 40.375 
z
M 52.59375 71.296875 
L 52.59375 62.3125 
Q 48.875 64.0625 45.09375 64.984375 
Q 41.3125 65.921875 37.59375 65.921875 
Q 27.828125 65.921875 22.671875 59.328125 
Q 17.53125 52.734375 16.796875 39.40625 
Q 19.671875 43.65625 24.015625 45.921875 
Q 28.375 48.1875 33.59375 48.1875 
Q 44.578125 48.1875 50.953125 41.515625 
Q 57.328125 34.859375 57.328125 23.390625 
Q 57.328125 12.15625 50.6875 5.359375 
Q 44.046875 -1.421875 33.015625 -1.421875 
Q 20.359375 -1.421875 13.671875 8.265625 
Q 6.984375 17.96875 6.984375 36.375 
Q 6.984375 53.65625 15.1875 63.9375 
Q 23.390625 74.21875 37.203125 74.21875 
Q 40.921875 74.21875 44.703125 73.484375 
Q 48.484375 72.75 52.59375 71.296875 
z
" id="DejaVuSans-36"/>
     <path d="M 10.6875 12.40625 
L 21 12.40625 
L 21 0 
L 10.6875 0 
z
" id="DejaVuSans-2e"/>
     <path d="M 19.1875 8.296875 
L 53.609375 8.296875 
L 53.609375 0 
L 7.328125 0 
L 7.328125 8.296875 
Q 12.9375 14.109375 22.625 23.890625 
Q 32.328125 33.6875 34.8125 36.53125 
Q 39.546875 41.84375 41.421875 45.53125 
Q 43.3125 49.21875 43.3125 52.78125 
Q 43.3125 58.59375 39.234375 62.25 
Q 35.15625 65.921875 28.609375 65.921875 
Q 23.96875 65.921875 18.8125 64.3125 
Q 13.671875 62.703125 7.8125 59.421875 
L 7.8125 69.390625 
Q 13.765625 71.78125 18.9375 73 
Q 24.125 74.21875 28.421875 74.21875 
Q 39.75 74.21875 46.484375 68.546875 
Q 53.21875 62.890625 53.21875 53.421875 
Q 53.21875 48.921875 51.53125 44.890625 
Q 49.859375 40.875 45.40625 35.40625 
Q 44.1875 33.984375 37.640625 27.21875 
Q 31.109375 20.453125 19.1875 8.296875 
z
" id="DejaVuSans-32"/>
     <path d="M 72.703125 32.078125 
Q 68.453125 32.078125 66.03125 28.46875 
Q 63.625 24.859375 63.625 18.40625 
Q 63.625 12.0625 66.03125 8.421875 
Q 68.453125 4.78125 72.703125 4.78125 
Q 76.859375 4.78125 79.265625 8.421875 
Q 81.6875 12.0625 81.6875 18.40625 
Q 81.6875 24.8125 79.265625 28.4375 
Q 76.859375 32.078125 72.703125 32.078125 
z
M 72.703125 38.28125 
Q 80.421875 38.28125 84.953125 32.90625 
Q 89.5 27.546875 89.5 18.40625 
Q 89.5 9.28125 84.9375 3.921875 
Q 80.375 -1.421875 72.703125 -1.421875 
Q 64.890625 -1.421875 60.34375 3.921875 
Q 55.8125 9.28125 55.8125 18.40625 
Q 55.8125 27.59375 60.375 32.9375 
Q 64.9375 38.28125 72.703125 38.28125 
z
M 22.3125 68.015625 
Q 18.109375 68.015625 15.6875 64.375 
Q 13.28125 60.75 13.28125 54.390625 
Q 13.28125 47.953125 15.671875 44.328125 
Q 18.0625 40.71875 22.3125 40.71875 
Q 26.5625 40.71875 28.96875 44.328125 
Q 31.390625 47.953125 31.390625 54.390625 
Q 31.390625 60.6875 28.953125 64.34375 
Q 26.515625 68.015625 22.3125 68.015625 
z
M 66.40625 74.21875 
L 74.21875 74.21875 
L 28.609375 -1.421875 
L 20.796875 -1.421875 
z
M 22.3125 74.21875 
Q 30.03125 74.21875 34.609375 68.875 
Q 39.203125 63.53125 39.203125 54.390625 
Q 39.203125 45.171875 34.640625 39.84375 
Q 30.078125 34.515625 22.3125 34.515625 
Q 14.546875 34.515625 10.03125 39.859375 
Q 5.515625 45.21875 5.515625 54.390625 
Q 5.515625 63.484375 10.046875 68.84375 
Q 14.59375 74.21875 22.3125 74.21875 
z
" id="DejaVuSans-25"/>
    </defs>
    <g transform="translate(276.613231 110.340176)scale(0.16 -0.16)">
     <use xlink:href="#DejaVuSans-36"/>
     <use x="63.623047" xlink:href="#DejaVuSans-2e"/>
     <use x="95.410156" xlink:href="#DejaVuSans-32"/>
     <use x="159.033203" xlink:href="#DejaVuSans-25"/>
    </g>
   </g>
   <g id="text_3">
    <!-- GB -->
    <defs>
     <path d="M 59.515625 10.40625 
L 59.515625 29.984375 
L 43.40625 29.984375 
L 43.40625 38.09375 
L 69.28125 38.09375 
L 69.28125 6.78125 
Q 63.578125 2.734375 56.6875 0.65625 
Q 49.8125 -1.421875 42 -1.421875 
Q 24.90625 -1.421875 15.25 8.5625 
Q 5.609375 18.5625 5.609375 36.375 
Q 5.609375 54.25 15.25 64.234375 
Q 24.90625 74.21875 42 74.21875 
Q 49.125 74.21875 55.546875 72.453125 
Q 61.96875 70.703125 67.390625 67.28125 
L 67.390625 56.78125 
Q 61.921875 61.421875 55.765625 63.765625 
Q 49.609375 66.109375 42.828125 66.109375 
Q 29.4375 66.109375 22.71875 58.640625 
Q 16.015625 51.171875 16.015625 36.375 
Q 16.015625 21.625 22.71875 14.15625 
Q 29.4375 6.6875 42.828125 6.6875 
Q 48.046875 6.6875 52.140625 7.59375 
Q 56.25 8.5 59.515625 10.40625 
z
" id="DejaVuSans-47"/>
     <path d="M 19.671875 34.8125 
L 19.671875 8.109375 
L 35.5 8.109375 
Q 43.453125 8.109375 47.28125 11.40625 
Q 51.125 14.703125 51.125 21.484375 
Q 51.125 28.328125 47.28125 31.5625 
Q 43.453125 34.8125 35.5 34.8125 
z
M 19.671875 64.796875 
L 19.671875 42.828125 
L 34.28125 42.828125 
Q 41.5 42.828125 45.03125 45.53125 
Q 48.578125 48.25 48.578125 53.8125 
Q 48.578125 59.328125 45.03125 62.0625 
Q 41.5 64.796875 34.28125 64.796875 
z
M 9.8125 72.90625 
L 35.015625 72.90625 
Q 46.296875 72.90625 52.390625 68.21875 
Q 58.5 63.53125 58.5 54.890625 
Q 58.5 48.1875 55.375 44.234375 
Q 52.25 40.28125 46.1875 39.3125 
Q 53.46875 37.75 57.5 32.78125 
Q 61.53125 27.828125 61.53125 20.40625 
Q 61.53125 10.640625 54.890625 5.3125 
Q 48.25 0 35.984375 0 
L 9.8125 0 
z
" id="DejaVuSans-42"/>
    </defs>
    <g transform="translate(118.521835 77.631394)scale(0.16 -0.16)">
     <use xlink:href="#DejaVuSans-47"/>
     <use x="77.490234" xlink:href="#DejaVuSans-42"/>
    </g>
   </g>
   <g id="text_4">
    <!-- 28.5% -->
    <defs>
     <path d="M 31.78125 34.625 
Q 24.75 34.625 20.71875 30.859375 
Q 16.703125 27.09375 16.703125 20.515625 
Q 16.703125 13.921875 20.71875 10.15625 
Q 24.75 6.390625 31.78125 6.390625 
Q 38.8125 6.390625 42.859375 10.171875 
Q 46.921875 13.96875 46.921875 20.515625 
Q 46.921875 27.09375 42.890625 30.859375 
Q 38.875 34.625 31.78125 34.625 
z
M 21.921875 38.8125 
Q 15.578125 40.375 12.03125 44.71875 
Q 8.5 49.078125 8.5 55.328125 
Q 8.5 64.0625 14.71875 69.140625 
Q 20.953125 74.21875 31.78125 74.21875 
Q 42.671875 74.21875 48.875 69.140625 
Q 55.078125 64.0625 55.078125 55.328125 
Q 55.078125 49.078125 51.53125 44.71875 
Q 48 40.375 41.703125 38.8125 
Q 48.828125 37.15625 52.796875 32.3125 
Q 56.78125 27.484375 56.78125 20.515625 
Q 56.78125 9.90625 50.3125 4.234375 
Q 43.84375 -1.421875 31.78125 -1.421875 
Q 19.734375 -1.421875 13.25 4.234375 
Q 6.78125 9.90625 6.78125 20.515625 
Q 6.78125 27.484375 10.78125 32.3125 
Q 14.796875 37.15625 21.921875 38.8125 
z
M 18.3125 54.390625 
Q 18.3125 48.734375 21.84375 45.5625 
Q 25.390625 42.390625 31.78125 42.390625 
Q 38.140625 42.390625 41.71875 45.5625 
Q 45.3125 48.734375 45.3125 54.390625 
Q 45.3125 60.0625 41.71875 63.234375 
Q 38.140625 66.40625 31.78125 66.40625 
Q 25.390625 66.40625 21.84375 63.234375 
Q 18.3125 60.0625 18.3125 54.390625 
z
" id="DejaVuSans-38"/>
     <path d="M 10.796875 72.90625 
L 49.515625 72.90625 
L 49.515625 64.59375 
L 19.828125 64.59375 
L 19.828125 46.734375 
Q 21.96875 47.46875 24.109375 47.828125 
Q 26.265625 48.1875 28.421875 48.1875 
Q 40.625 48.1875 47.75 41.5 
Q 54.890625 34.8125 54.890625 23.390625 
Q 54.890625 11.625 47.5625 5.09375 
Q 40.234375 -1.421875 26.90625 -1.421875 
Q 22.3125 -1.421875 17.546875 -0.640625 
Q 12.796875 0.140625 7.71875 1.703125 
L 7.71875 11.625 
Q 12.109375 9.234375 16.796875 8.0625 
Q 21.484375 6.890625 26.703125 6.890625 
Q 35.15625 6.890625 40.078125 11.328125 
Q 45.015625 15.765625 45.015625 23.390625 
Q 45.015625 31 40.078125 35.4375 
Q 35.15625 39.890625 26.703125 39.890625 
Q 22.75 39.890625 18.8125 39.015625 
Q 14.890625 38.140625 10.796875 36.28125 
z
" id="DejaVuSans-35"/>
    </defs>
    <g transform="translate(130.950269 104.052845)scale(0.16 -0.16)">
     <use xlink:href="#DejaVuSans-32"/>
     <use x="63.623047" xlink:href="#DejaVuSans-38"/>
     <use x="127.246094" xlink:href="#DejaVuSans-2e"/>
     <use x="159.033203" xlink:href="#DejaVuSans-35"/>
     <use x="222.65625" xlink:href="#DejaVuSans-25"/>
    </g>
   </g>
   <g id="text_5">
    <!-- KE -->
    <defs>
     <path d="M 9.8125 72.90625 
L 19.671875 72.90625 
L 19.671875 42.09375 
L 52.390625 72.90625 
L 65.09375 72.90625 
L 28.90625 38.921875 
L 67.671875 0 
L 54.6875 0 
L 19.671875 35.109375 
L 19.671875 0 
L 9.8125 0 
z
" id="DejaVuSans-4b"/>
     <path d="M 9.8125 72.90625 
L 55.90625 72.90625 
L 55.90625 64.59375 
L 19.671875 64.59375 
L 19.671875 43.015625 
L 54.390625 43.015625 
L 54.390625 34.71875 
L 19.671875 34.71875 
L 19.671875 8.296875 
L 56.78125 8.296875 
L 56.78125 0 
L 9.8125 0 
z
" id="DejaVuSans-45"/>
    </defs>
    <g transform="translate(223.287995 388.590055)scale(0.16 -0.16)">
     <use xlink:href="#DejaVuSans-4b"/>
     <use x="65.576172" xlink:href="#DejaVuSans-45"/>
    </g>
   </g>
   <g id="text_6">
    <!-- 55.9% -->
    <defs>
     <path d="M 10.984375 1.515625 
L 10.984375 10.5 
Q 14.703125 8.734375 18.5 7.8125 
Q 22.3125 6.890625 25.984375 6.890625 
Q 35.75 6.890625 40.890625 13.453125 
Q 46.046875 20.015625 46.78125 33.40625 
Q 43.953125 29.203125 39.59375 26.953125 
Q 35.25 24.703125 29.984375 24.703125 
Q 19.046875 24.703125 12.671875 31.3125 
Q 6.296875 37.9375 6.296875 49.421875 
Q 6.296875 60.640625 12.9375 67.421875 
Q 19.578125 74.21875 30.609375 74.21875 
Q 43.265625 74.21875 49.921875 64.515625 
Q 56.59375 54.828125 56.59375 36.375 
Q 56.59375 19.140625 48.40625 8.859375 
Q 40.234375 -1.421875 26.421875 -1.421875 
Q 22.703125 -1.421875 18.890625 -0.6875 
Q 15.09375 0.046875 10.984375 1.515625 
z
M 30.609375 32.421875 
Q 37.25 32.421875 41.125 36.953125 
Q 45.015625 41.5 45.015625 49.421875 
Q 45.015625 57.28125 41.125 61.84375 
Q 37.25 66.40625 30.609375 66.40625 
Q 23.96875 66.40625 20.09375 61.84375 
Q 16.21875 57.28125 16.21875 49.421875 
Q 16.21875 41.5 20.09375 36.953125 
Q 23.96875 32.421875 30.609375 32.421875 
z
" id="DejaVuSans-39"/>
    </defs>
    <g transform="translate(197.543036 358.473567)scale(0.16 -0.16)">
     <use xlink:href="#DejaVuSans-35"/>
     <use x="63.623047" xlink:href="#DejaVuSans-35"/>
     <use x="127.246094" xlink:href="#DejaVuSans-2e"/>
     <use x="159.033203" xlink:href="#DejaVuSans-39"/>
     <use x="222.65625" xlink:href="#DejaVuSans-25"/>
    </g>
   </g>
   <g id="text_7">
    <!-- US -->
    <defs>
     <path d="M 8.6875 72.90625 
L 18.609375 72.90625 
L 18.609375 28.609375 
Q 18.609375 16.890625 22.84375 11.734375 
Q 27.09375 6.59375 36.625 6.59375 
Q 46.09375 6.59375 50.34375 11.734375 
Q 54.59375 16.890625 54.59375 28.609375 
L 54.59375 72.90625 
L 64.5 72.90625 
L 64.5 27.390625 
Q 64.5 13.140625 57.4375 5.859375 
Q 50.390625 -1.421875 36.625 -1.421875 
Q 22.796875 -1.421875 15.734375 5.859375 
Q 8.6875 13.140625 8.6875 27.390625 
z
" id="DejaVuSans-55"/>
     <path d="M 53.515625 70.515625 
L 53.515625 60.890625 
Q 47.90625 63.578125 42.921875 64.890625 
Q 37.9375 66.21875 33.296875 66.21875 
Q 25.25 66.21875 20.875 63.09375 
Q 16.5 59.96875 16.5 54.203125 
Q 16.5 49.359375 19.40625 46.890625 
Q 22.3125 44.4375 30.421875 42.921875 
L 36.375 41.703125 
Q 47.40625 39.59375 52.65625 34.296875 
Q 57.90625 29 57.90625 20.125 
Q 57.90625 9.515625 50.796875 4.046875 
Q 43.703125 -1.421875 29.984375 -1.421875 
Q 24.8125 -1.421875 18.96875 -0.25 
Q 13.140625 0.921875 6.890625 3.21875 
L 6.890625 13.375 
Q 12.890625 10.015625 18.65625 8.296875 
Q 24.421875 6.59375 29.984375 6.59375 
Q 38.421875 6.59375 43.015625 9.90625 
Q 47.609375 13.234375 47.609375 19.390625 
Q 47.609375 24.75 44.3125 27.78125 
Q 41.015625 30.8125 33.5 32.328125 
L 27.484375 33.5 
Q 16.453125 35.6875 11.515625 40.375 
Q 6.59375 45.0625 6.59375 53.421875 
Q 6.59375 63.09375 13.40625 68.65625 
Q 20.21875 74.21875 32.171875 74.21875 
Q 37.3125 74.21875 42.625 73.28125 
Q 47.953125 72.359375 53.515625 70.515625 
z
" id="DejaVuSans-53"/>
    </defs>
    <g transform="translate(367.64759 144.848217)scale(0.16 -0.16)">
     <use xlink:href="#DejaVuSans-55"/>
     <use x="73.193359" xlink:href="#DejaVuSans-53"/>
    </g>
   </g>
   <g id="text_8">
    <!-- 9.4% -->
    <defs>
     <path d="M 37.796875 64.3125 
L 12.890625 25.390625 
L 37.796875 25.390625 
z
M 35.203125 72.90625 
L 47.609375 72.90625 
L 47.609375 25.390625 
L 58.015625 25.390625 
L 58.015625 17.1875 
L 47.609375 17.1875 
L 47.609375 0 
L 37.796875 0 
L 37.796875 17.1875 
L 4.890625 17.1875 
L 4.890625 26.703125 
z
" id="DejaVuSans-34"/>
    </defs>
    <g transform="translate(320.745432 159.048427)scale(0.16 -0.16)">
     <use xlink:href="#DejaVuSans-39"/>
     <use x="63.623047" xlink:href="#DejaVuSans-2e"/>
     <use x="95.410156" xlink:href="#DejaVuSans-34"/>
     <use x="159.033203" xlink:href="#DejaVuSans-25"/>
    </g>
   </g>
   <g id="text_9">
    <!-- 0 -->
    <defs>
     <path d="M 31.78125 66.40625 
Q 24.171875 66.40625 20.328125 58.90625 
Q 16.5 51.421875 16.5 36.375 
Q 16.5 21.390625 20.328125 13.890625 
Q 24.171875 6.390625 31.78125 6.390625 
Q 39.453125 6.390625 43.28125 13.890625 
Q 47.125 21.390625 47.125 36.375 
Q 47.125 51.421875 43.28125 58.90625 
Q 39.453125 66.40625 31.78125 66.40625 
z
M 31.78125 74.21875 
Q 44.046875 74.21875 50.515625 64.515625 
Q 56.984375 54.828125 56.984375 36.375 
Q 56.984375 17.96875 50.515625 8.265625 
Q 44.046875 -1.421875 31.78125 -1.421875 
Q 19.53125 -1.421875 13.0625 8.265625 
Q 6.59375 17.96875 6.59375 36.375 
Q 6.59375 54.828125 13.0625 64.515625 
Q 19.53125 74.21875 31.78125 74.21875 
z
" id="DejaVuSans-30"/>
    </defs>
    <g transform="translate(273.070199 145.951632)scale(0.16 -0.16)">
     <use xlink:href="#DejaVuSans-30"/>
    </g>
   </g>
   <g id="text_10">
    <!-- 1 -->
    <defs>
     <path d="M 12.40625 8.296875 
L 28.515625 8.296875 
L 28.515625 63.921875 
L 10.984375 60.40625 
L 10.984375 69.390625 
L 28.421875 72.90625 
L 38.28125 72.90625 
L 38.28125 8.296875 
L 54.390625 8.296875 
L 54.390625 0 
L 12.40625 0 
z
" id="DejaVuSans-31"/>
    </defs>
    <g transform="translate(166.771935 141.652602)scale(0.16 -0.16)">
     <use xlink:href="#DejaVuSans-31"/>
    </g>
   </g>
   <g id="text_11">
    <!-- 2 -->
    <g transform="translate(118.621613 219.373809)scale(0.16 -0.16)">
     <use xlink:href="#DejaVuSans-32"/>
    </g>
   </g>
   <g id="text_12">
    <!-- 3 -->
    <defs>
     <path d="M 40.578125 39.3125 
Q 47.65625 37.796875 51.625 33 
Q 55.609375 28.21875 55.609375 21.1875 
Q 55.609375 10.40625 48.1875 4.484375 
Q 40.765625 -1.421875 27.09375 -1.421875 
Q 22.515625 -1.421875 17.65625 -0.515625 
Q 12.796875 0.390625 7.625 2.203125 
L 7.625 11.71875 
Q 11.71875 9.328125 16.59375 8.109375 
Q 21.484375 6.890625 26.8125 6.890625 
Q 36.078125 6.890625 40.9375 10.546875 
Q 45.796875 14.203125 45.796875 21.1875 
Q 45.796875 27.640625 41.28125 31.265625 
Q 36.765625 34.90625 28.71875 34.90625 
L 20.21875 34.90625 
L 20.21875 43.015625 
L 29.109375 43.015625 
Q 36.375 43.015625 40.234375 45.921875 
Q 44.09375 48.828125 44.09375 54.296875 
Q 44.09375 59.90625 40.109375 62.90625 
Q 36.140625 65.921875 28.71875 65.921875 
Q 24.65625 65.921875 20.015625 65.03125 
Q 15.375 64.15625 9.8125 62.3125 
L 9.8125 71.09375 
Q 15.4375 72.65625 20.34375 73.4375 
Q 25.25 74.21875 29.59375 74.21875 
Q 40.828125 74.21875 47.359375 69.109375 
Q 53.90625 64.015625 53.90625 55.328125 
Q 53.90625 49.265625 50.4375 45.09375 
Q 46.96875 40.921875 40.578125 39.3125 
z
" id="DejaVuSans-33"/>
    </defs>
    <g transform="translate(123.387327 252.481531)scale(0.16 -0.16)">
     <use xlink:href="#DejaVuSans-33"/>
    </g>
   </g>
   <g id="text_13">
    <!-- 4 -->
    <g transform="translate(237.385227 314.245455)scale(0.16 -0.16)">
     <use xlink:href="#DejaVuSans-34"/>
    </g>
   </g>
   <g id="text_14">
    <!-- 5 -->
    <g transform="translate(314.199036 223.399394)scale(0.16 -0.16)">
     <use xlink:href="#DejaVuSans-35"/>
    </g>
   </g>
   <g id="text_15">
    <!-- 6 -->
    <g transform="translate(307.352791 188.000319)scale(0.16 -0.16)">
     <use xlink:href="#DejaVuSans-36"/>
    </g>
   </g>
   <g id="text_16">
    <!-- 7 -->
    <defs>
     <path d="M 8.203125 72.90625 
L 55.078125 72.90625 
L 55.078125 68.703125 
L 28.609375 0 
L 18.3125 0 
L 43.21875 64.59375 
L 8.203125 64.59375 
z
" id="DejaVuSans-37"/>
    </defs>
    <g transform="translate(293.508175 164.597282)scale(0.16 -0.16)">
     <use xlink:href="#DejaVuSans-37"/>
    </g>
   </g>
  </g>
 </g>
 <defs>
  <clipPath id="p94a417900e">
   <rect height="332.64" width="334.8" x="54" y="51.84"/>
  </clipPath>
 </defs>
</svg>
