<?xml version="1.0" encoding="utf-8" standalone="no"?>
<!DOCTYPE svg PUBLIC "-//W3C//DTD SVG 1.1//EN"
  "http://www.w3.org/Graphics/SVG/1.1/DTD/svg11.dtd">
<!-- Created with matplotlib (http://matplotlib.org/) -->
<svg height="432pt" version="1.1" viewBox="0 0 432 432" width="432pt" xmlns="http://www.w3.org/2000/svg" xmlns:xlink="http://www.w3.org/1999/xlink">
 <defs>
  <style type="text/css">
*{stroke-linecap:butt;stroke-linejoin:round;}
  </style>
 </defs>
 <g id="figure_1">
  <g id="patch_1">
   <path d="M 0 432 
L 432 432 
L 432 0 
L 0 0 
z
" style="fill:#ffffff;"/>
  </g>
  <g id="axes_1">
   <g id="patch_2">
    <path d="M 328.489309 108.790196 
C 326.439182 106.740069 324.330608 104.749235 322.166193 102.820156 
C 320.001778 100.891077 317.782415 99.024548 315.510847 97.222876 
L 293.792383 124.605751 
C 295.539743 125.991653 297.246945 127.427444 298.91188 128.911351 
C 300.576814 130.395259 302.198795 131.926669 303.775815 133.50369 
L 328.489309 108.790196 
z
" style="fill:#3182bd;stroke:#ffffff;stroke-linejoin:miter;"/>
   </g>
   <g id="patch_3">
    <path d="M 315.510847 97.222876 
C 314.709166 96.58703 313.901062 95.959325 313.086658 95.339857 
C 312.272255 94.72039 311.451595 94.109191 310.624804 93.506356 
L 290.033888 121.74689 
C 290.669881 122.210609 291.301158 122.680762 291.927622 123.157275 
C 292.554086 123.633789 293.175705 124.116639 293.792383 124.605751 
L 315.510847 97.222876 
z
" style="fill:#e6550d;stroke:#ffffff;stroke-linejoin:miter;"/>
   </g>
   <g id="patch_4">
    <path d="M 310.624804 93.506356 
C 290.405008 78.763572 266.84305 69.25935 242.053088 65.846484 
C 217.263127 62.433618 192.009473 65.21733 168.558077 73.947844 
L 180.751791 106.701881 
C 198.791326 99.9861 218.217214 97.844783 237.286415 100.470065 
C 256.355616 103.095347 274.480199 110.406287 290.033888 121.74689 
L 310.624804 93.506356 
z
" style="fill:#31a354;stroke:#ffffff;stroke-linejoin:miter;"/>
   </g>
   <g id="patch_5">
    <path d="M 168.558077 73.947844 
C 160.882492 76.805321 153.451331 80.280721 146.337729 84.33984 
C 139.224127 88.39896 132.451498 93.028438 126.086498 98.182714 
L 148.081345 125.344088 
C 152.977499 121.379261 158.187213 117.818123 163.659215 114.695724 
C 169.131216 111.573324 174.847494 108.89994 180.751791 106.701881 
L 168.558077 73.947844 
z
" style="fill:#756bb1;stroke:#ffffff;stroke-linejoin:miter;"/>
   </g>
   <g id="patch_6">
    <path d="M 126.086498 98.182714 
C 124.230969 99.685292 122.411232 101.231538 120.628812 102.820156 
C 118.846392 104.408774 117.101788 106.03932 115.396464 107.710427 
L 139.858242 132.673098 
C 141.17003 131.387632 142.512033 130.133365 143.883125 128.911351 
C 145.254217 127.689337 146.654015 126.499917 148.081345 125.344088 
L 126.086498 98.182714 
z
" style="fill:#636363;stroke:#ffffff;stroke-linejoin:miter;"/>
   </g>
   <g id="patch_7">
    <path d="M 115.396464 107.710427 
C 104.734627 118.158326 95.675816 130.125365 88.514234 143.222887 
C 81.352652 156.32041 76.166678 170.405074 73.124737 185.019449 
C 70.082797 199.633823 69.218182 214.617966 70.558972 229.485233 
C 71.899763 244.3525 75.431285 258.940181 81.038845 272.774509 
C 86.646405 286.608837 94.268632 299.538405 103.657978 311.143298 
C 113.047324 322.748191 124.101029 332.901401 136.460101 341.273182 
C 148.819172 349.644962 162.348349 356.143689 176.608242 360.558304 
C 190.868134 364.972918 205.702679 367.255104 220.630091 367.330743 
C 235.557503 367.406382 250.414413 365.274647 264.718311 361.00477 
C 279.022209 356.734892 292.61655 350.373603 305.059826 342.1275 
C 317.503103 333.881396 328.659133 323.840726 338.165601 312.33158 
C 347.672069 300.822435 355.424933 287.970775 361.172403 274.193984 
C 366.919872 260.417194 370.599045 245.866051 372.090431 231.013135 
C 373.581818 216.160219 372.869097 201.168083 369.975415 186.523632 
C 367.081733 171.879181 362.038759 157.742685 355.010276 144.57326 
C 347.981792 131.403834 339.04472 119.345607 328.48931 108.790197 
L 303.775816 133.503691 
C 311.895362 141.623237 318.770033 150.898796 324.176559 161.029123 
C 329.583085 171.159451 333.462295 182.033678 335.688204 193.298641 
C 337.914114 204.563603 338.462361 216.096015 337.31514 227.521335 
C 336.16792 238.946655 333.337787 250.139842 328.916656 260.737373 
C 324.495526 271.334904 318.531784 281.220797 311.219117 290.073986 
C 303.906449 298.927174 295.324887 306.650767 285.753136 312.993923 
C 276.181385 319.33708 265.7242 324.230379 254.721202 327.5149 
C 243.718203 330.799421 232.28981 332.439218 220.807186 332.381034 
C 209.324561 332.32285 197.913373 330.567322 186.944225 327.171465 
C 175.975077 323.775608 165.568018 318.776587 156.06104 312.336756 
C 146.554062 305.896925 138.051211 298.086763 130.828637 289.159922 
C 123.606064 280.233081 117.742812 270.28726 113.429304 259.645469 
C 109.115797 249.003679 106.399241 237.782385 105.367864 226.346026 
C 104.336487 214.909667 105.001575 203.383403 107.341529 192.141576 
C 109.681484 180.89975 113.670694 170.065393 119.179604 159.990375 
C 124.688513 149.915358 131.656829 140.709943 139.858242 132.673098 
L 115.396464 107.710427 
z
" style="fill:#d9d9d9;stroke:#ffffff;stroke-linejoin:miter;"/>
   </g>
   <g id="patch_8">
    <path d="M 303.775815 133.50369 
C 292.419261 122.147136 278.836041 113.26071 263.881413 107.40394 
C 248.926786 101.54717 232.921349 98.845613 216.872873 99.469372 
L 218.230262 134.393161 
C 229.464195 133.95653 240.668001 135.847619 251.13624 139.947358 
C 261.604479 144.047097 271.112733 150.267596 279.062321 158.217183 
L 303.775815 133.50369 
z
" style="fill:#1f77b4;stroke:#ffffff;stroke-linejoin:miter;"/>
   </g>
   <g id="patch_9">
    <path d="M 216.872873 99.469372 
C 210.577454 99.714057 204.312243 100.46901 198.138901 101.7268 
C 191.96556 102.98459 185.904407 104.741077 180.015096 106.978976 
L 192.429818 139.649884 
C 196.552336 138.083355 200.795143 136.853814 205.116482 135.973361 
C 209.437821 135.092907 213.823468 134.564441 218.230262 134.393161 
L 216.872873 99.469372 
z
" style="fill:#ff7f0e;stroke:#ffffff;stroke-linejoin:miter;"/>
   </g>
   <g id="patch_10">
    <path d="M 180.015096 106.978976 
C 177.807642 107.817793 175.626203 108.723534 173.473802 109.694942 
C 171.321401 110.666351 169.199032 111.702979 167.109639 112.803388 
L 183.395998 143.726972 
C 184.858573 142.956686 186.344231 142.231046 187.850912 141.55106 
C 189.357593 140.871074 190.8846 140.237056 192.429818 139.649884 
L 180.015096 106.978976 
z
" style="fill:#2ca02c;stroke:#ffffff;stroke-linejoin:miter;"/>
   </g>
   <g id="patch_11">
    <path d="M 167.109639 112.803388 
C 164.671946 114.087235 162.280562 115.457151 159.939998 116.910552 
C 157.599434 118.363953 155.311164 119.899924 153.079504 121.515568 
L 173.574904 149.825498 
C 175.137066 148.694548 176.738855 147.619368 178.377249 146.601987 
C 180.015644 145.584607 181.689613 144.625665 183.395998 143.726972 
L 167.109639 112.803388 
z
" style="fill:#d62728;stroke:#ffffff;stroke-linejoin:miter;"/>
   </g>
   <g id="patch_12">
    <path d="M 153.079504 121.515568 
C 150.316342 123.516001 147.642376 125.636831 145.065336 127.871928 
C 142.488296 130.107025 140.010668 132.454233 137.639616 134.906763 
L 162.766982 159.199335 
C 164.426718 157.482563 166.161058 155.839518 167.964986 154.274951 
C 169.768914 152.710383 171.64069 151.225801 173.574904 149.825498 
L 153.079504 121.515568 
z
" style="fill:#9467bd;stroke:#ffffff;stroke-linejoin:miter;"/>
   </g>
   <g id="patch_13">
    <path d="M 137.639616 134.906763 
C 130.883551 141.894996 125.028547 149.701363 120.211226 158.14371 
C 115.393906 166.586058 111.652031 175.598206 109.072917 184.969864 
L 142.770292 194.243506 
C 144.575673 187.683345 147.194985 181.374841 150.567109 175.465198 
C 153.939234 169.555555 158.037736 164.091098 162.766982 159.199335 
L 137.639616 134.906763 
z
" style="fill:#8c564b;stroke:#ffffff;stroke-linejoin:miter;"/>
   </g>
   <g id="patch_14">
    <path d="M 109.072917 184.969864 
C 108.446331 187.246673 107.889116 189.542006 107.402044 191.852683 
C 106.914972 194.163359 106.498268 196.488311 106.152511 198.824316 
L 140.726008 203.941622 
C 140.968038 202.306419 141.259731 200.678952 141.600681 199.061478 
C 141.941632 197.444005 142.331682 195.837272 142.770292 194.243506 
L 109.072917 184.969864 
z
" style="fill:#e377c2;stroke:#ffffff;stroke-linejoin:miter;"/>
   </g>
   <g id="patch_15">
    <path d="M 106.152511 198.824316 
C 105.345467 204.276858 104.926401 209.779808 104.898471 215.291682 
C 104.870541 220.803556 105.233819 226.31047 105.985565 231.770911 
L 140.609146 227.004238 
C 140.082924 223.18193 139.82863 219.32709 139.84818 215.468778 
C 139.867731 211.610466 140.161077 207.758401 140.726008 203.941622 
L 106.152511 198.824316 
z
" style="fill:#7f7f7f;stroke:#ffffff;stroke-linejoin:miter;"/>
   </g>
   <g id="patch_16">
    <path d="M 105.985565 231.770911 
C 106.808974 237.751894 108.096067 243.659831 109.835208 249.441313 
C 111.57435 255.222796 113.760283 260.860351 116.373246 266.303014 
L 147.880523 251.17671 
C 146.051448 247.366847 144.521295 243.420558 143.303897 239.37352 
C 142.086498 235.326482 141.185533 231.190926 140.609146 227.004238 
L 105.985565 231.770911 
z
" style="fill:#bcbd22;stroke:#ffffff;stroke-linejoin:miter;"/>
   </g>
   <g id="patch_17">
    <path d="M 116.373246 266.303014 
C 118.64511 271.035185 121.234212 275.608402 124.122845 279.991392 
C 127.011478 284.374382 130.193045 288.557132 133.645787 292.511039 
L 159.971302 269.522328 
C 157.554382 266.754593 155.327286 263.826668 153.305242 260.758575 
C 151.283199 257.690482 149.470828 254.48923 147.880523 251.17671 
L 116.373246 266.303014 
z
" style="fill:#17becf;stroke:#ffffff;stroke-linejoin:miter;"/>
   </g>
   <g id="patch_18">
    <path d="M 133.645787 292.511039 
C 145.606866 306.208265 160.610469 316.916604 177.451738 323.776129 
C 194.293007 330.635654 212.508734 333.457697 230.636113 332.015636 
L 227.86453 297.175546 
C 215.175364 298.184989 202.424356 296.209558 190.635467 291.407891 
C 178.846579 286.606224 168.344057 279.110386 159.971302 269.522328 
L 133.645787 292.511039 
z
" style="fill:#1f77b4;stroke:#ffffff;stroke-linejoin:miter;"/>
   </g>
   <g id="patch_19">
    <path d="M 230.636113 332.015636 
C 241.639074 331.140333 252.462015 328.70576 262.779919 324.785025 
C 273.097824 320.864291 282.806366 315.497039 291.613997 308.84445 
L 270.549049 280.955715 
C 264.383707 285.612528 257.587727 289.369604 250.365194 292.114118 
C 243.142661 294.858632 235.566603 296.562834 227.86453 297.175546 
L 230.636113 332.015636 
z
" style="fill:#ff7f0e;stroke:#ffffff;stroke-linejoin:miter;"/>
   </g>
   <g id="patch_20">
    <path d="M 291.613997 308.84445 
C 294.126601 306.946628 296.561229 304.947719 298.911885 302.852648 
C 301.262541 300.757578 303.527292 298.568067 305.700559 296.289511 
L 280.409642 272.167259 
C 278.888355 273.762248 277.30303 275.294905 275.65757 276.761454 
C 274.012111 278.228004 272.307871 279.62724 270.549049 280.955715 
L 291.613997 308.84445 
z
" style="fill:#2ca02c;stroke:#ffffff;stroke-linejoin:miter;"/>
   </g>
   <g id="patch_21">
    <path d="M 305.700559 296.289511 
C 308.598556 293.251113 311.330173 290.058264 313.88345 286.724944 
C 316.436727 283.391623 318.807932 279.922703 320.986682 276.333372 
L 291.109928 258.197961 
C 289.584803 260.710493 287.924959 263.138737 286.137666 265.472061 
C 284.350372 267.805386 282.43824 270.04038 280.409642 272.167259 
L 305.700559 296.289511 
z
" style="fill:#d62728;stroke:#ffffff;stroke-linejoin:miter;"/>
   </g>
   <g id="patch_22">
    <path d="M 320.986682 276.333372 
C 325.483909 268.924522 329.140361 261.036905 331.888112 252.817053 
C 334.635863 244.597201 336.45779 236.096334 337.320045 227.472378 
L 302.543282 223.995266 
C 301.939703 230.032035 300.664355 235.982642 298.740929 241.736538 
C 296.817504 247.490434 294.257987 253.011766 291.109928 258.197961 
L 320.986682 276.333372 
z
" style="fill:#9467bd;stroke:#ffffff;stroke-linejoin:miter;"/>
   </g>
   <g id="patch_23">
    <path d="M 337.320045 227.472378 
C 339.036669 210.303365 336.917752 192.96549 331.116852 176.715217 
C 325.315952 160.464944 315.976668 145.704541 303.77581 133.503685 
L 279.062318 158.21718 
C 287.602918 166.757779 294.140417 177.090061 298.201047 188.465252 
C 302.261677 199.840443 303.744919 211.976956 302.543282 223.995266 
L 337.320045 227.472378 
z
" style="fill:#8c564b;stroke:#ffffff;stroke-linejoin:miter;"/>
   </g>
   <g id="patch_24">
    <path clip-path="url(#p2222926e32)" d="M 221.397502 297.432371 
C 243.024913 297.432371 263.769433 288.83971 279.062321 273.546821 
C 294.35521 258.253932 302.947871 237.509413 302.947871 215.882002 
C 302.947871 194.254592 294.35521 173.510072 279.062321 158.217183 
C 263.769433 142.924295 243.024913 134.331633 221.397502 134.331633 
C 199.770092 134.331633 179.025572 142.924295 163.732683 158.217183 
C 148.439795 173.510072 139.847133 194.254592 139.847133 215.882002 
C 139.847133 237.509413 148.439795 258.253932 163.732683 273.546821 
C 179.025572 288.83971 199.770092 297.432371 221.397502 297.432371 
z
" style="fill:#ffffff;"/>
   </g>
   <g id="matplotlib.axis_1"/>
   <g id="matplotlib.axis_2"/>
   <g id="text_1">
    <!-- GB -->
    <defs>
     <path d="M 59.515625 10.40625 
L 59.515625 29.984375 
L 43.40625 29.984375 
L 43.40625 38.09375 
L 69.28125 38.09375 
L 69.28125 6.78125 
Q 63.578125 2.734375 56.6875 0.65625 
Q 49.8125 -1.421875 42 -1.421875 
Q 24.90625 -1.421875 15.25 8.5625 
Q 5.609375 18.5625 5.609375 36.375 
Q 5.609375 54.25 15.25 64.234375 
Q 24.90625 74.21875 42 74.21875 
Q 49.125 74.21875 55.546875 72.453125 
Q 61.96875 70.703125 67.390625 67.28125 
L 67.390625 56.78125 
Q 61.921875 61.421875 55.765625 63.765625 
Q 49.609375 66.109375 42.828125 66.109375 
Q 29.4375 66.109375 22.71875 58.640625 
Q 16.015625 51.171875 16.015625 36.375 
Q 16.015625 21.625 22.71875 14.15625 
Q 29.4375 6.6875 42.828125 6.6875 
Q 48.046875 6.6875 52.140625 7.59375 
Q 56.25 8.5 59.515625 10.40625 
z
" id="DejaVuSans-47"/>
     <path d="M 19.671875 34.8125 
L 19.671875 8.109375 
L 35.5 8.109375 
Q 43.453125 8.109375 47.28125 11.40625 
Q 51.125 14.703125 51.125 21.484375 
Q 51.125 28.328125 47.28125 31.5625 
Q 43.453125 34.8125 35.5 34.8125 
z
M 19.671875 64.796875 
L 19.671875 42.828125 
L 34.28125 42.828125 
Q 41.5 42.828125 45.03125 45.53125 
Q 48.578125 48.25 48.578125 53.8125 
Q 48.578125 59.328125 45.03125 62.0625 
Q 41.5 64.796875 34.28125 64.796875 
z
M 9.8125 72.90625 
L 35.015625 72.90625 
Q 46.296875 72.90625 52.390625 68.21875 
Q 58.5 63.53125 58.5 54.890625 
Q 58.5 48.1875 55.375 44.234375 
Q 52.25 40.28125 46.1875 39.3125 
Q 53.46875 37.75 57.5 32.78125 
Q 61.53125 27.828125 61.53125 20.40625 
Q 61.53125 10.640625 54.890625 5.3125 
Q 48.25 0 35.984375 0 
L 9.8125 0 
z
" id="DejaVuSans-42"/>
    </defs>
    <g transform="translate(332.243062 94.273347)scale(0.1 -0.1)">
     <use xlink:href="#DejaVuSans-47"/>
     <use x="77.490234" xlink:href="#DejaVuSans-42"/>
    </g>
   </g>
   <g id="text_2">
    <!-- 1.8% -->
    <defs>
     <path d="M 12.40625 8.296875 
L 28.515625 8.296875 
L 28.515625 63.921875 
L 10.984375 60.40625 
L 10.984375 69.390625 
L 28.421875 72.90625 
L 38.28125 72.90625 
L 38.28125 8.296875 
L 54.390625 8.296875 
L 54.390625 0 
L 12.40625 0 
z
" id="DejaVuSans-31"/>
     <path d="M 10.6875 12.40625 
L 21 12.40625 
L 21 0 
L 10.6875 0 
z
" id="DejaVuSans-2e"/>
     <path d="M 31.78125 34.625 
Q 24.75 34.625 20.71875 30.859375 
Q 16.703125 27.09375 16.703125 20.515625 
Q 16.703125 13.921875 20.71875 10.15625 
Q 24.75 6.390625 31.78125 6.390625 
Q 38.8125 6.390625 42.859375 10.171875 
Q 46.921875 13.96875 46.921875 20.515625 
Q 46.921875 27.09375 42.890625 30.859375 
Q 38.875 34.625 31.78125 34.625 
z
M 21.921875 38.8125 
Q 15.578125 40.375 12.03125 44.71875 
Q 8.5 49.078125 8.5 55.328125 
Q 8.5 64.0625 14.71875 69.140625 
Q 20.953125 74.21875 31.78125 74.21875 
Q 42.671875 74.21875 48.875 69.140625 
Q 55.078125 64.0625 55.078125 55.328125 
Q 55.078125 49.078125 51.53125 44.71875 
Q 48 40.375 41.703125 38.8125 
Q 48.828125 37.15625 52.796875 32.3125 
Q 56.78125 27.484375 56.78125 20.515625 
Q 56.78125 9.90625 50.3125 4.234375 
Q 43.84375 -1.421875 31.78125 -1.421875 
Q 19.734375 -1.421875 13.25 4.234375 
Q 6.78125 9.90625 6.78125 20.515625 
Q 6.78125 27.484375 10.78125 32.3125 
Q 14.796875 37.15625 21.921875 38.8125 
z
M 18.3125 54.390625 
Q 18.3125 48.734375 21.84375 45.5625 
Q 25.390625 42.390625 31.78125 42.390625 
Q 38.140625 42.390625 41.71875 45.5625 
Q 45.3125 48.734375 45.3125 54.390625 
Q 45.3125 60.0625 41.71875 63.234375 
Q 38.140625 66.40625 31.78125 66.40625 
Q 25.390625 66.40625 21.84375 63.234375 
Q 18.3125 60.0625 18.3125 54.390625 
z
" id="DejaVuSans-38"/>
     <path d="M 72.703125 32.078125 
Q 68.453125 32.078125 66.03125 28.46875 
Q 63.625 24.859375 63.625 18.40625 
Q 63.625 12.0625 66.03125 8.421875 
Q 68.453125 4.78125 72.703125 4.78125 
Q 76.859375 4.78125 79.265625 8.421875 
Q 81.6875 12.0625 81.6875 18.40625 
Q 81.6875 24.8125 79.265625 28.4375 
Q 76.859375 32.078125 72.703125 32.078125 
z
M 72.703125 38.28125 
Q 80.421875 38.28125 84.953125 32.90625 
Q 89.5 27.546875 89.5 18.40625 
Q 89.5 9.28125 84.9375 3.921875 
Q 80.375 -1.421875 72.703125 -1.421875 
Q 64.890625 -1.421875 60.34375 3.921875 
Q 55.8125 9.28125 55.8125 18.40625 
Q 55.8125 27.59375 60.375 32.9375 
Q 64.9375 38.28125 72.703125 38.28125 
z
M 22.3125 68.015625 
Q 18.109375 68.015625 15.6875 64.375 
Q 13.28125 60.75 13.28125 54.390625 
Q 13.28125 47.953125 15.671875 44.328125 
Q 18.0625 40.71875 22.3125 40.71875 
Q 26.5625 40.71875 28.96875 44.328125 
Q 31.390625 47.953125 31.390625 54.390625 
Q 31.390625 60.6875 28.953125 64.34375 
Q 26.515625 68.015625 22.3125 68.015625 
z
M 66.40625 74.21875 
L 74.21875 74.21875 
L 28.609375 -1.421875 
L 20.796875 -1.421875 
z
M 22.3125 74.21875 
Q 30.03125 74.21875 34.609375 68.875 
Q 39.203125 63.53125 39.203125 54.390625 
Q 39.203125 45.171875 34.640625 39.84375 
Q 30.078125 34.515625 22.3125 34.515625 
Q 14.546875 34.515625 10.03125 39.859375 
Q 5.515625 45.21875 5.515625 54.390625 
Q 5.515625 63.484375 10.046875 68.84375 
Q 14.59375 74.21875 22.3125 74.21875 
z
" id="DejaVuSans-25"/>
    </defs>
    <g transform="translate(299.38698 116.885716)scale(0.1 -0.1)">
     <use xlink:href="#DejaVuSans-31"/>
     <use x="63.623047" xlink:href="#DejaVuSans-2e"/>
     <use x="95.410156" xlink:href="#DejaVuSans-38"/>
     <use x="159.033203" xlink:href="#DejaVuSans-25"/>
    </g>
   </g>
   <g id="text_3">
    <!-- IE -->
    <defs>
     <path d="M 9.8125 72.90625 
L 19.671875 72.90625 
L 19.671875 0 
L 9.8125 0 
z
" id="DejaVuSans-49"/>
     <path d="M 9.8125 72.90625 
L 55.90625 72.90625 
L 55.90625 64.59375 
L 19.671875 64.59375 
L 19.671875 43.015625 
L 54.390625 43.015625 
L 54.390625 34.71875 
L 19.671875 34.71875 
L 19.671875 8.296875 
L 56.78125 8.296875 
L 56.78125 0 
L 9.8125 0 
z
" id="DejaVuSans-45"/>
    </defs>
    <g transform="translate(322.255574 86.045018)scale(0.1 -0.1)">
     <use xlink:href="#DejaVuSans-49"/>
     <use x="29.492188" xlink:href="#DejaVuSans-45"/>
    </g>
   </g>
   <g id="text_4">
    <!-- 0.6% -->
    <defs>
     <path d="M 31.78125 66.40625 
Q 24.171875 66.40625 20.328125 58.90625 
Q 16.5 51.421875 16.5 36.375 
Q 16.5 21.390625 20.328125 13.890625 
Q 24.171875 6.390625 31.78125 6.390625 
Q 39.453125 6.390625 43.28125 13.890625 
Q 47.125 21.390625 47.125 36.375 
Q 47.125 51.421875 43.28125 58.90625 
Q 39.453125 66.40625 31.78125 66.40625 
z
M 31.78125 74.21875 
Q 44.046875 74.21875 50.515625 64.515625 
Q 56.984375 54.828125 56.984375 36.375 
Q 56.984375 17.96875 50.515625 8.265625 
Q 44.046875 -1.421875 31.78125 -1.421875 
Q 19.53125 -1.421875 13.0625 8.265625 
Q 6.59375 17.96875 6.59375 36.375 
Q 6.59375 54.828125 13.0625 64.515625 
Q 19.53125 74.21875 31.78125 74.21875 
z
" id="DejaVuSans-30"/>
     <path d="M 33.015625 40.375 
Q 26.375 40.375 22.484375 35.828125 
Q 18.609375 31.296875 18.609375 23.390625 
Q 18.609375 15.53125 22.484375 10.953125 
Q 26.375 6.390625 33.015625 6.390625 
Q 39.65625 6.390625 43.53125 10.953125 
Q 47.40625 15.53125 47.40625 23.390625 
Q 47.40625 31.296875 43.53125 35.828125 
Q 39.65625 40.375 33.015625 40.375 
z
M 52.59375 71.296875 
L 52.59375 62.3125 
Q 48.875 64.0625 45.09375 64.984375 
Q 41.3125 65.921875 37.59375 65.921875 
Q 27.828125 65.921875 22.671875 59.328125 
Q 17.53125 52.734375 16.796875 39.40625 
Q 19.671875 43.65625 24.015625 45.921875 
Q 28.375 48.1875 33.59375 48.1875 
Q 44.578125 48.1875 50.953125 41.515625 
Q 57.328125 34.859375 57.328125 23.390625 
Q 57.328125 12.15625 50.6875 5.359375 
Q 44.046875 -1.421875 33.015625 -1.421875 
Q 20.359375 -1.421875 13.671875 8.265625 
Q 6.984375 17.96875 6.984375 36.375 
Q 6.984375 53.65625 15.1875 63.9375 
Q 23.390625 74.21875 37.203125 74.21875 
Q 40.921875 74.21875 44.703125 73.484375 
Q 48.484375 72.75 52.59375 71.296875 
z
" id="DejaVuSans-36"/>
    </defs>
    <g transform="translate(291.215399 110.153447)scale(0.1 -0.1)">
     <use xlink:href="#DejaVuSans-30"/>
     <use x="63.623047" xlink:href="#DejaVuSans-2e"/>
     <use x="95.410156" xlink:href="#DejaVuSans-36"/>
     <use x="159.033203" xlink:href="#DejaVuSans-25"/>
    </g>
   </g>
   <g id="text_5">
    <!-- NG -->
    <defs>
     <path d="M 9.8125 72.90625 
L 23.09375 72.90625 
L 55.421875 11.921875 
L 55.421875 72.90625 
L 64.984375 72.90625 
L 64.984375 0 
L 51.703125 0 
L 19.390625 60.984375 
L 19.390625 0 
L 9.8125 0 
z
" id="DejaVuSans-4e"/>
    </defs>
    <g transform="translate(244.118647 53.602307)scale(0.1 -0.1)">
     <use xlink:href="#DejaVuSans-4e"/>
     <use x="74.804688" xlink:href="#DejaVuSans-47"/>
    </g>
   </g>
   <g id="text_6">
    <!-- 15.7% -->
    <defs>
     <path d="M 10.796875 72.90625 
L 49.515625 72.90625 
L 49.515625 64.59375 
L 19.828125 64.59375 
L 19.828125 46.734375 
Q 21.96875 47.46875 24.109375 47.828125 
Q 26.265625 48.1875 28.421875 48.1875 
Q 40.625 48.1875 47.75 41.5 
Q 54.890625 34.8125 54.890625 23.390625 
Q 54.890625 11.625 47.5625 5.09375 
Q 40.234375 -1.421875 26.90625 -1.421875 
Q 22.3125 -1.421875 17.546875 -0.640625 
Q 12.796875 0.140625 7.71875 1.703125 
L 7.71875 11.625 
Q 12.109375 9.234375 16.796875 8.0625 
Q 21.484375 6.890625 26.703125 6.890625 
Q 35.15625 6.890625 40.078125 11.328125 
Q 45.015625 15.765625 45.015625 23.390625 
Q 45.015625 31 40.078125 35.4375 
Q 35.15625 39.890625 26.703125 39.890625 
Q 22.75 39.890625 18.8125 39.015625 
Q 14.890625 38.140625 10.796875 36.28125 
z
" id="DejaVuSans-35"/>
     <path d="M 8.203125 72.90625 
L 55.078125 72.90625 
L 55.078125 68.703125 
L 28.609375 0 
L 18.3125 0 
L 43.21875 64.59375 
L 8.203125 64.59375 
z
" id="DejaVuSans-37"/>
    </defs>
    <g transform="translate(224.103936 83.609411)scale(0.1 -0.1)">
     <use xlink:href="#DejaVuSans-31"/>
     <use x="63.623047" xlink:href="#DejaVuSans-35"/>
     <use x="127.246094" xlink:href="#DejaVuSans-2e"/>
     <use x="159.033203" xlink:href="#DejaVuSans-37"/>
     <use x="222.65625" xlink:href="#DejaVuSans-25"/>
    </g>
   </g>
   <g id="text_7">
    <!-- NL -->
    <defs>
     <path d="M 9.8125 72.90625 
L 19.671875 72.90625 
L 19.671875 8.296875 
L 55.171875 8.296875 
L 55.171875 0 
L 9.8125 0 
z
" id="DejaVuSans-4c"/>
    </defs>
    <g transform="translate(125.778626 73.944999)scale(0.1 -0.1)">
     <use xlink:href="#DejaVuSans-4e"/>
     <use x="74.804688" xlink:href="#DejaVuSans-4c"/>
    </g>
   </g>
   <g id="text_8">
    <!-- 5.2% -->
    <defs>
     <path d="M 19.1875 8.296875 
L 53.609375 8.296875 
L 53.609375 0 
L 7.328125 0 
L 7.328125 8.296875 
Q 12.9375 14.109375 22.625 23.890625 
Q 32.328125 33.6875 34.8125 36.53125 
Q 39.546875 41.84375 41.421875 45.53125 
Q 43.3125 49.21875 43.3125 52.78125 
Q 43.3125 58.59375 39.234375 62.25 
Q 35.15625 65.921875 28.609375 65.921875 
Q 23.96875 65.921875 18.8125 64.3125 
Q 13.671875 62.703125 7.8125 59.421875 
L 7.8125 69.390625 
Q 13.765625 71.78125 18.9375 73 
Q 24.125 74.21875 28.421875 74.21875 
Q 39.75 74.21875 46.484375 68.546875 
Q 53.21875 62.890625 53.21875 53.421875 
Q 53.21875 48.921875 51.53125 44.890625 
Q 49.859375 40.875 45.40625 35.40625 
Q 44.1875 33.984375 37.640625 27.21875 
Q 31.109375 20.453125 19.1875 8.296875 
z
" id="DejaVuSans-32"/>
    </defs>
    <g transform="translate(141.141362 100.253431)scale(0.1 -0.1)">
     <use xlink:href="#DejaVuSans-35"/>
     <use x="63.623047" xlink:href="#DejaVuSans-2e"/>
     <use x="95.410156" xlink:href="#DejaVuSans-32"/>
     <use x="159.033203" xlink:href="#DejaVuSans-25"/>
    </g>
   </g>
   <g id="text_9">
    <!-- PL -->
    <defs>
     <path d="M 19.671875 64.796875 
L 19.671875 37.40625 
L 32.078125 37.40625 
Q 38.96875 37.40625 42.71875 40.96875 
Q 46.484375 44.53125 46.484375 51.125 
Q 46.484375 57.671875 42.71875 61.234375 
Q 38.96875 64.796875 32.078125 64.796875 
z
M 9.8125 72.90625 
L 32.078125 72.90625 
Q 44.34375 72.90625 50.609375 67.359375 
Q 56.890625 61.8125 56.890625 51.125 
Q 56.890625 40.328125 50.609375 34.8125 
Q 44.34375 29.296875 32.078125 29.296875 
L 19.671875 29.296875 
L 19.671875 0 
L 9.8125 0 
z
" id="DejaVuSans-50"/>
    </defs>
    <g transform="translate(98.95038 94.273347)scale(0.1 -0.1)">
     <use xlink:href="#DejaVuSans-50"/>
     <use x="60.302734" xlink:href="#DejaVuSans-4c"/>
    </g>
   </g>
   <g id="text_10">
    <!-- 1.5% -->
    <g transform="translate(118.003337 116.885716)scale(0.1 -0.1)">
     <use xlink:href="#DejaVuSans-31"/>
     <use x="63.623047" xlink:href="#DejaVuSans-2e"/>
     <use x="95.410156" xlink:href="#DejaVuSans-35"/>
     <use x="159.033203" xlink:href="#DejaVuSans-25"/>
    </g>
   </g>
   <g id="text_11">
    <!-- US -->
    <defs>
     <path d="M 8.6875 72.90625 
L 18.609375 72.90625 
L 18.609375 28.609375 
Q 18.609375 16.890625 22.84375 11.734375 
Q 27.09375 6.59375 36.625 6.59375 
Q 46.09375 6.59375 50.34375 11.734375 
Q 54.59375 16.890625 54.59375 28.609375 
L 54.59375 72.90625 
L 64.5 72.90625 
L 64.5 27.390625 
Q 64.5 13.140625 57.4375 5.859375 
Q 50.390625 -1.421875 36.625 -1.421875 
Q 22.796875 -1.421875 15.734375 5.859375 
Q 8.6875 13.140625 8.6875 27.390625 
z
" id="DejaVuSans-55"/>
     <path d="M 53.515625 70.515625 
L 53.515625 60.890625 
Q 47.90625 63.578125 42.921875 64.890625 
Q 37.9375 66.21875 33.296875 66.21875 
Q 25.25 66.21875 20.875 63.09375 
Q 16.5 59.96875 16.5 54.203125 
Q 16.5 49.359375 19.40625 46.890625 
Q 22.3125 44.4375 30.421875 42.921875 
L 36.375 41.703125 
Q 47.40625 39.59375 52.65625 34.296875 
Q 57.90625 29 57.90625 20.125 
Q 57.90625 9.515625 50.796875 4.046875 
Q 43.703125 -1.421875 29.984375 -1.421875 
Q 24.8125 -1.421875 18.96875 -0.25 
Q 13.140625 0.921875 6.890625 3.21875 
L 6.890625 13.375 
Q 12.890625 10.015625 18.65625 8.296875 
Q 24.421875 6.59375 29.984375 6.59375 
Q 38.421875 6.59375 43.015625 9.90625 
Q 47.609375 13.234375 47.609375 19.390625 
Q 47.609375 24.75 44.3125 27.78125 
Q 41.015625 30.8125 33.5 32.328125 
L 27.484375 33.5 
Q 16.453125 35.6875 11.515625 40.375 
Q 6.59375 45.0625 6.59375 53.421875 
Q 6.59375 63.09375 13.40625 68.65625 
Q 20.21875 74.21875 32.171875 74.21875 
Q 37.3125 74.21875 42.625 73.28125 
Q 47.953125 72.359375 53.515625 70.515625 
z
" id="DejaVuSans-53"/>
    </defs>
    <g transform="translate(206.886162 385.234992)scale(0.1 -0.1)">
     <use xlink:href="#DejaVuSans-55"/>
     <use x="73.193359" xlink:href="#DejaVuSans-53"/>
    </g>
   </g>
   <g id="text_12">
    <!-- 75.2% -->
    <g transform="translate(204.823238 354.945244)scale(0.1 -0.1)">
     <use xlink:href="#DejaVuSans-37"/>
     <use x="63.623047" xlink:href="#DejaVuSans-35"/>
     <use x="127.246094" xlink:href="#DejaVuSans-2e"/>
     <use x="159.033203" xlink:href="#DejaVuSans-32"/>
     <use x="222.65625" xlink:href="#DejaVuSans-25"/>
    </g>
   </g>
   <g id="text_13">
    <!-- 3 -->
    <defs>
     <path d="M 40.578125 39.3125 
Q 47.65625 37.796875 51.625 33 
Q 55.609375 28.21875 55.609375 21.1875 
Q 55.609375 10.40625 48.1875 4.484375 
Q 40.765625 -1.421875 27.09375 -1.421875 
Q 22.515625 -1.421875 17.65625 -0.515625 
Q 12.796875 0.390625 7.625 2.203125 
L 7.625 11.71875 
Q 11.71875 9.328125 16.59375 8.109375 
Q 21.484375 6.890625 26.8125 6.890625 
Q 36.078125 6.890625 40.9375 10.546875 
Q 45.796875 14.203125 45.796875 21.1875 
Q 45.796875 27.640625 41.28125 31.265625 
Q 36.765625 34.90625 28.71875 34.90625 
L 20.21875 34.90625 
L 20.21875 43.015625 
L 29.109375 43.015625 
Q 36.375 43.015625 40.234375 45.921875 
Q 44.09375 48.828125 44.09375 54.296875 
Q 44.09375 59.90625 40.109375 62.90625 
Q 36.140625 65.921875 28.71875 65.921875 
Q 24.65625 65.921875 20.015625 65.03125 
Q 15.375 64.15625 9.8125 62.3125 
L 9.8125 71.09375 
Q 15.4375 72.65625 20.34375 73.4375 
Q 25.25 74.21875 29.59375 74.21875 
Q 40.828125 74.21875 47.359375 69.109375 
Q 53.90625 64.015625 53.90625 55.328125 
Q 53.90625 49.265625 50.4375 45.09375 
Q 46.96875 40.921875 40.578125 39.3125 
z
" id="DejaVuSans-33"/>
    </defs>
    <g transform="translate(255.384631 131.858927)scale(0.1 -0.1)">
     <use xlink:href="#DejaVuSans-33"/>
    </g>
   </g>
   <g id="text_14">
    <!-- 7 -->
    <g transform="translate(196.428121 127.317215)scale(0.1 -0.1)">
     <use xlink:href="#DejaVuSans-37"/>
    </g>
   </g>
   <g id="text_15">
    <!-- 10 -->
    <g transform="translate(170.333542 133.691729)scale(0.1 -0.1)">
     <use xlink:href="#DejaVuSans-31"/>
     <use x="63.623047" xlink:href="#DejaVuSans-30"/>
    </g>
   </g>
   <g id="text_16">
    <!-- 11 -->
    <g transform="translate(159.506499 139.464217)scale(0.1 -0.1)">
     <use xlink:href="#DejaVuSans-31"/>
     <use x="63.623047" xlink:href="#DejaVuSans-31"/>
    </g>
   </g>
   <g id="text_17">
    <!-- 12 -->
    <g transform="translate(147.606769 148.233318)scale(0.1 -0.1)">
     <use xlink:href="#DejaVuSans-31"/>
     <use x="63.623047" xlink:href="#DejaVuSans-32"/>
    </g>
   </g>
   <g id="text_18">
    <!-- 13 -->
    <g transform="translate(127.723482 172.450744)scale(0.1 -0.1)">
     <use xlink:href="#DejaVuSans-31"/>
     <use x="63.623047" xlink:href="#DejaVuSans-33"/>
    </g>
   </g>
   <g id="text_19">
    <!-- 14 -->
    <defs>
     <path d="M 37.796875 64.3125 
L 12.890625 25.390625 
L 37.796875 25.390625 
z
M 35.203125 72.90625 
L 47.609375 72.90625 
L 47.609375 25.390625 
L 58.015625 25.390625 
L 58.015625 17.1875 
L 47.609375 17.1875 
L 47.609375 0 
L 37.796875 0 
L 37.796875 17.1875 
L 4.890625 17.1875 
L 4.890625 26.703125 
z
" id="DejaVuSans-34"/>
    </defs>
    <g transform="translate(117.476135 199.417922)scale(0.1 -0.1)">
     <use xlink:href="#DejaVuSans-31"/>
     <use x="63.623047" xlink:href="#DejaVuSans-34"/>
    </g>
   </g>
   <g id="text_20">
    <!-- 16 -->
    <g transform="translate(115.473277 218.169121)scale(0.1 -0.1)">
     <use xlink:href="#DejaVuSans-31"/>
     <use x="63.623047" xlink:href="#DejaVuSans-36"/>
    </g>
   </g>
   <g id="text_21">
    <!-- 17 -->
    <g transform="translate(119.422667 245.488826)scale(0.1 -0.1)">
     <use xlink:href="#DejaVuSans-31"/>
     <use x="63.623047" xlink:href="#DejaVuSans-37"/>
    </g>
   </g>
   <g id="text_22">
    <!-- 18 -->
    <g transform="translate(130.852776 269.928889)scale(0.1 -0.1)">
     <use xlink:href="#DejaVuSans-31"/>
     <use x="63.623047" xlink:href="#DejaVuSans-38"/>
    </g>
   </g>
   <g id="text_23">
    <!-- 21 -->
    <g transform="translate(173.515891 304.956679)scale(0.1 -0.1)">
     <use xlink:href="#DejaVuSans-32"/>
     <use x="63.623047" xlink:href="#DejaVuSans-31"/>
    </g>
   </g>
   <g id="text_24">
    <!-- 23 -->
    <g transform="translate(254.503436 305.763796)scale(0.1 -0.1)">
     <use xlink:href="#DejaVuSans-32"/>
     <use x="63.623047" xlink:href="#DejaVuSans-33"/>
    </g>
   </g>
   <g id="text_25">
    <!-- 24 -->
    <g transform="translate(283.409009 288.217894)scale(0.1 -0.1)">
     <use xlink:href="#DejaVuSans-32"/>
     <use x="63.623047" xlink:href="#DejaVuSans-34"/>
    </g>
   </g>
   <g id="text_26">
    <!-- 26 -->
    <g transform="translate(295.38626 275.31573)scale(0.1 -0.1)">
     <use xlink:href="#DejaVuSans-32"/>
     <use x="63.623047" xlink:href="#DejaVuSans-36"/>
    </g>
   </g>
   <g id="text_27">
    <!-- 27 -->
    <g transform="translate(309.78999 248.189418)scale(0.1 -0.1)">
     <use xlink:href="#DejaVuSans-32"/>
     <use x="63.623047" xlink:href="#DejaVuSans-37"/>
    </g>
   </g>
   <g id="text_28">
    <!-- 99 -->
    <defs>
     <path d="M 10.984375 1.515625 
L 10.984375 10.5 
Q 14.703125 8.734375 18.5 7.8125 
Q 22.3125 6.890625 25.984375 6.890625 
Q 35.75 6.890625 40.890625 13.453125 
Q 46.046875 20.015625 46.78125 33.40625 
Q 43.953125 29.203125 39.59375 26.953125 
Q 35.25 24.703125 29.984375 24.703125 
Q 19.046875 24.703125 12.671875 31.3125 
Q 6.296875 37.9375 6.296875 49.421875 
Q 6.296875 60.640625 12.9375 67.421875 
Q 19.578125 74.21875 30.609375 74.21875 
Q 43.265625 74.21875 49.921875 64.515625 
Q 56.59375 54.828125 56.59375 36.375 
Q 56.59375 19.140625 48.40625 8.859375 
Q 40.234375 -1.421875 26.421875 -1.421875 
Q 22.703125 -1.421875 18.890625 -0.6875 
Q 15.09375 0.046875 10.984375 1.515625 
z
M 30.609375 32.421875 
Q 37.25 32.421875 41.125 36.953125 
Q 45.015625 41.5 45.015625 49.421875 
Q 45.015625 57.28125 41.125 61.84375 
Q 37.25 66.40625 30.609375 66.40625 
Q 23.96875 66.40625 20.09375 61.84375 
Q 16.21875 57.28125 16.21875 49.421875 
Q 16.21875 41.5 20.09375 36.953125 
Q 23.96875 32.421875 30.609375 32.421875 
z
" id="DejaVuSans-39"/>
    </defs>
    <g transform="translate(309.172982 187.307949)scale(0.1 -0.1)">
     <use xlink:href="#DejaVuSans-39"/>
     <use x="63.623047" xlink:href="#DejaVuSans-39"/>
    </g>
   </g>
   <g id="text_29">
    <!-- Source country:NG -->
    <defs>
     <path d="M 30.609375 48.390625 
Q 23.390625 48.390625 19.1875 42.75 
Q 14.984375 37.109375 14.984375 27.296875 
Q 14.984375 17.484375 19.15625 11.84375 
Q 23.34375 6.203125 30.609375 6.203125 
Q 37.796875 6.203125 41.984375 11.859375 
Q 46.1875 17.53125 46.1875 27.296875 
Q 46.1875 37.015625 41.984375 42.703125 
Q 37.796875 48.390625 30.609375 48.390625 
z
M 30.609375 56 
Q 42.328125 56 49.015625 48.375 
Q 55.71875 40.765625 55.71875 27.296875 
Q 55.71875 13.875 49.015625 6.21875 
Q 42.328125 -1.421875 30.609375 -1.421875 
Q 18.84375 -1.421875 12.171875 6.21875 
Q 5.515625 13.875 5.515625 27.296875 
Q 5.515625 40.765625 12.171875 48.375 
Q 18.84375 56 30.609375 56 
z
" id="DejaVuSans-6f"/>
     <path d="M 8.5 21.578125 
L 8.5 54.6875 
L 17.484375 54.6875 
L 17.484375 21.921875 
Q 17.484375 14.15625 20.5 10.265625 
Q 23.53125 6.390625 29.59375 6.390625 
Q 36.859375 6.390625 41.078125 11.03125 
Q 45.3125 15.671875 45.3125 23.6875 
L 45.3125 54.6875 
L 54.296875 54.6875 
L 54.296875 0 
L 45.3125 0 
L 45.3125 8.40625 
Q 42.046875 3.421875 37.71875 1 
Q 33.40625 -1.421875 27.6875 -1.421875 
Q 18.265625 -1.421875 13.375 4.4375 
Q 8.5 10.296875 8.5 21.578125 
z
M 31.109375 56 
z
" id="DejaVuSans-75"/>
     <path d="M 41.109375 46.296875 
Q 39.59375 47.171875 37.8125 47.578125 
Q 36.03125 48 33.890625 48 
Q 26.265625 48 22.1875 43.046875 
Q 18.109375 38.09375 18.109375 28.8125 
L 18.109375 0 
L 9.078125 0 
L 9.078125 54.6875 
L 18.109375 54.6875 
L 18.109375 46.1875 
Q 20.953125 51.171875 25.484375 53.578125 
Q 30.03125 56 36.53125 56 
Q 37.453125 56 38.578125 55.875 
Q 39.703125 55.765625 41.0625 55.515625 
z
" id="DejaVuSans-72"/>
     <path d="M 48.78125 52.59375 
L 48.78125 44.1875 
Q 44.96875 46.296875 41.140625 47.34375 
Q 37.3125 48.390625 33.40625 48.390625 
Q 24.65625 48.390625 19.8125 42.84375 
Q 14.984375 37.3125 14.984375 27.296875 
Q 14.984375 17.28125 19.8125 11.734375 
Q 24.65625 6.203125 33.40625 6.203125 
Q 37.3125 6.203125 41.140625 7.25 
Q 44.96875 8.296875 48.78125 10.40625 
L 48.78125 2.09375 
Q 45.015625 0.34375 40.984375 -0.53125 
Q 36.96875 -1.421875 32.421875 -1.421875 
Q 20.0625 -1.421875 12.78125 6.34375 
Q 5.515625 14.109375 5.515625 27.296875 
Q 5.515625 40.671875 12.859375 48.328125 
Q 20.21875 56 33.015625 56 
Q 37.15625 56 41.109375 55.140625 
Q 45.0625 54.296875 48.78125 52.59375 
z
" id="DejaVuSans-63"/>
     <path d="M 56.203125 29.59375 
L 56.203125 25.203125 
L 14.890625 25.203125 
Q 15.484375 15.921875 20.484375 11.0625 
Q 25.484375 6.203125 34.421875 6.203125 
Q 39.59375 6.203125 44.453125 7.46875 
Q 49.3125 8.734375 54.109375 11.28125 
L 54.109375 2.78125 
Q 49.265625 0.734375 44.1875 -0.34375 
Q 39.109375 -1.421875 33.890625 -1.421875 
Q 20.796875 -1.421875 13.15625 6.1875 
Q 5.515625 13.8125 5.515625 26.8125 
Q 5.515625 40.234375 12.765625 48.109375 
Q 20.015625 56 32.328125 56 
Q 43.359375 56 49.78125 48.890625 
Q 56.203125 41.796875 56.203125 29.59375 
z
M 47.21875 32.234375 
Q 47.125 39.59375 43.09375 43.984375 
Q 39.0625 48.390625 32.421875 48.390625 
Q 24.90625 48.390625 20.390625 44.140625 
Q 15.875 39.890625 15.1875 32.171875 
z
" id="DejaVuSans-65"/>
     <path id="DejaVuSans-20"/>
     <path d="M 54.890625 33.015625 
L 54.890625 0 
L 45.90625 0 
L 45.90625 32.71875 
Q 45.90625 40.484375 42.875 44.328125 
Q 39.84375 48.1875 33.796875 48.1875 
Q 26.515625 48.1875 22.3125 43.546875 
Q 18.109375 38.921875 18.109375 30.90625 
L 18.109375 0 
L 9.078125 0 
L 9.078125 54.6875 
L 18.109375 54.6875 
L 18.109375 46.1875 
Q 21.34375 51.125 25.703125 53.5625 
Q 30.078125 56 35.796875 56 
Q 45.21875 56 50.046875 50.171875 
Q 54.890625 44.34375 54.890625 33.015625 
z
" id="DejaVuSans-6e"/>
     <path d="M 18.3125 70.21875 
L 18.3125 54.6875 
L 36.8125 54.6875 
L 36.8125 47.703125 
L 18.3125 47.703125 
L 18.3125 18.015625 
Q 18.3125 11.328125 20.140625 9.421875 
Q 21.96875 7.515625 27.59375 7.515625 
L 36.8125 7.515625 
L 36.8125 0 
L 27.59375 0 
Q 17.1875 0 13.234375 3.875 
Q 9.28125 7.765625 9.28125 18.015625 
L 9.28125 47.703125 
L 2.6875 47.703125 
L 2.6875 54.6875 
L 9.28125 54.6875 
L 9.28125 70.21875 
z
" id="DejaVuSans-74"/>
     <path d="M 32.171875 -5.078125 
Q 28.375 -14.84375 24.75 -17.8125 
Q 21.140625 -20.796875 15.09375 -20.796875 
L 7.90625 -20.796875 
L 7.90625 -13.28125 
L 13.1875 -13.28125 
Q 16.890625 -13.28125 18.9375 -11.515625 
Q 21 -9.765625 23.484375 -3.21875 
L 25.09375 0.875 
L 2.984375 54.6875 
L 12.5 54.6875 
L 29.59375 11.921875 
L 46.6875 54.6875 
L 56.203125 54.6875 
z
" id="DejaVuSans-79"/>
     <path d="M 11.71875 12.40625 
L 22.015625 12.40625 
L 22.015625 0 
L 11.71875 0 
z
M 11.71875 51.703125 
L 22.015625 51.703125 
L 22.015625 39.3125 
L 11.71875 39.3125 
z
" id="DejaVuSans-3a"/>
    </defs>
    <g transform="translate(164.656875 45.84)scale(0.12 -0.12)">
     <use xlink:href="#DejaVuSans-53"/>
     <use x="63.476562" xlink:href="#DejaVuSans-6f"/>
     <use x="124.658203" xlink:href="#DejaVuSans-75"/>
     <use x="188.037109" xlink:href="#DejaVuSans-72"/>
     <use x="229.119141" xlink:href="#DejaVuSans-63"/>
     <use x="284.099609" xlink:href="#DejaVuSans-65"/>
     <use x="345.623047" xlink:href="#DejaVuSans-20"/>
     <use x="377.410156" xlink:href="#DejaVuSans-63"/>
     <use x="432.390625" xlink:href="#DejaVuSans-6f"/>
     <use x="493.572266" xlink:href="#DejaVuSans-75"/>
     <use x="556.951172" xlink:href="#DejaVuSans-6e"/>
     <use x="620.330078" xlink:href="#DejaVuSans-74"/>
     <use x="659.539062" xlink:href="#DejaVuSans-72"/>
     <use x="700.652344" xlink:href="#DejaVuSans-79"/>
     <use x="759.722656" xlink:href="#DejaVuSans-3a"/>
     <use x="793.414062" xlink:href="#DejaVuSans-4e"/>
     <use x="868.21875" xlink:href="#DejaVuSans-47"/>
    </g>
   </g>
   <g id="legend_1">
    <g id="patch_25">
     <path d="M -121.192187 50.07 
L 130.7 50.07 
Q 132.7 50.07 132.7 48.07 
L 132.7 -185.78 
Q 132.7 -187.78 130.7 -187.78 
L -121.192187 -187.78 
Q -123.192187 -187.78 -123.192187 -185.78 
L -123.192187 48.07 
Q -123.192187 50.07 -121.192187 50.07 
z
" style="fill:#ffffff;opacity:0.8;stroke:#cccccc;stroke-linejoin:miter;"/>
    </g>
    <g id="patch_26">
     <path d="M -119.192187 -176.181563 
L -119.192187 -176.181563 
L -119.192187 -183.181563 
L -119.192187 -183.181563 
z
" style="fill:#3182bd;stroke:#ffffff;stroke-linejoin:miter;"/>
    </g>
    <g id="text_30">
     <!-- 3 - NG/Galaxy Backbone PLC (13.1 %) -->
     <defs>
      <path d="M 4.890625 31.390625 
L 31.203125 31.390625 
L 31.203125 23.390625 
L 4.890625 23.390625 
z
" id="DejaVuSans-2d"/>
      <path d="M 25.390625 72.90625 
L 33.6875 72.90625 
L 8.296875 -9.28125 
L 0 -9.28125 
z
" id="DejaVuSans-2f"/>
      <path d="M 34.28125 27.484375 
Q 23.390625 27.484375 19.1875 25 
Q 14.984375 22.515625 14.984375 16.5 
Q 14.984375 11.71875 18.140625 8.90625 
Q 21.296875 6.109375 26.703125 6.109375 
Q 34.1875 6.109375 38.703125 11.40625 
Q 43.21875 16.703125 43.21875 25.484375 
L 43.21875 27.484375 
z
M 52.203125 31.203125 
L 52.203125 0 
L 43.21875 0 
L 43.21875 8.296875 
Q 40.140625 3.328125 35.546875 0.953125 
Q 30.953125 -1.421875 24.3125 -1.421875 
Q 15.921875 -1.421875 10.953125 3.296875 
Q 6 8.015625 6 15.921875 
Q 6 25.140625 12.171875 29.828125 
Q 18.359375 34.515625 30.609375 34.515625 
L 43.21875 34.515625 
L 43.21875 35.40625 
Q 43.21875 41.609375 39.140625 45 
Q 35.0625 48.390625 27.6875 48.390625 
Q 23 48.390625 18.546875 47.265625 
Q 14.109375 46.140625 10.015625 43.890625 
L 10.015625 52.203125 
Q 14.9375 54.109375 19.578125 55.046875 
Q 24.21875 56 28.609375 56 
Q 40.484375 56 46.34375 49.84375 
Q 52.203125 43.703125 52.203125 31.203125 
z
" id="DejaVuSans-61"/>
      <path d="M 9.421875 75.984375 
L 18.40625 75.984375 
L 18.40625 0 
L 9.421875 0 
z
" id="DejaVuSans-6c"/>
      <path d="M 54.890625 54.6875 
L 35.109375 28.078125 
L 55.90625 0 
L 45.3125 0 
L 29.390625 21.484375 
L 13.484375 0 
L 2.875 0 
L 24.125 28.609375 
L 4.6875 54.6875 
L 15.28125 54.6875 
L 29.78125 35.203125 
L 44.28125 54.6875 
z
" id="DejaVuSans-78"/>
      <path d="M 9.078125 75.984375 
L 18.109375 75.984375 
L 18.109375 31.109375 
L 44.921875 54.6875 
L 56.390625 54.6875 
L 27.390625 29.109375 
L 57.625 0 
L 45.90625 0 
L 18.109375 26.703125 
L 18.109375 0 
L 9.078125 0 
z
" id="DejaVuSans-6b"/>
      <path d="M 48.6875 27.296875 
Q 48.6875 37.203125 44.609375 42.84375 
Q 40.53125 48.484375 33.40625 48.484375 
Q 26.265625 48.484375 22.1875 42.84375 
Q 18.109375 37.203125 18.109375 27.296875 
Q 18.109375 17.390625 22.1875 11.75 
Q 26.265625 6.109375 33.40625 6.109375 
Q 40.53125 6.109375 44.609375 11.75 
Q 48.6875 17.390625 48.6875 27.296875 
z
M 18.109375 46.390625 
Q 20.953125 51.265625 25.265625 53.625 
Q 29.59375 56 35.59375 56 
Q 45.5625 56 51.78125 48.09375 
Q 58.015625 40.1875 58.015625 27.296875 
Q 58.015625 14.40625 51.78125 6.484375 
Q 45.5625 -1.421875 35.59375 -1.421875 
Q 29.59375 -1.421875 25.265625 0.953125 
Q 20.953125 3.328125 18.109375 8.203125 
L 18.109375 0 
L 9.078125 0 
L 9.078125 75.984375 
L 18.109375 75.984375 
z
" id="DejaVuSans-62"/>
      <path d="M 64.40625 67.28125 
L 64.40625 56.890625 
Q 59.421875 61.53125 53.78125 63.8125 
Q 48.140625 66.109375 41.796875 66.109375 
Q 29.296875 66.109375 22.65625 58.46875 
Q 16.015625 50.828125 16.015625 36.375 
Q 16.015625 21.96875 22.65625 14.328125 
Q 29.296875 6.6875 41.796875 6.6875 
Q 48.140625 6.6875 53.78125 8.984375 
Q 59.421875 11.28125 64.40625 15.921875 
L 64.40625 5.609375 
Q 59.234375 2.09375 53.4375 0.328125 
Q 47.65625 -1.421875 41.21875 -1.421875 
Q 24.65625 -1.421875 15.125 8.703125 
Q 5.609375 18.84375 5.609375 36.375 
Q 5.609375 53.953125 15.125 64.078125 
Q 24.65625 74.21875 41.21875 74.21875 
Q 47.75 74.21875 53.53125 72.484375 
Q 59.328125 70.75 64.40625 67.28125 
z
" id="DejaVuSans-43"/>
      <path d="M 31 75.875 
Q 24.46875 64.65625 21.28125 53.65625 
Q 18.109375 42.671875 18.109375 31.390625 
Q 18.109375 20.125 21.3125 9.0625 
Q 24.515625 -2 31 -13.1875 
L 23.1875 -13.1875 
Q 15.875 -1.703125 12.234375 9.375 
Q 8.59375 20.453125 8.59375 31.390625 
Q 8.59375 42.28125 12.203125 53.3125 
Q 15.828125 64.359375 23.1875 75.875 
z
" id="DejaVuSans-28"/>
      <path d="M 8.015625 75.875 
L 15.828125 75.875 
Q 23.140625 64.359375 26.78125 53.3125 
Q 30.421875 42.28125 30.421875 31.390625 
Q 30.421875 20.453125 26.78125 9.375 
Q 23.140625 -1.703125 15.828125 -13.1875 
L 8.015625 -13.1875 
Q 14.5 -2 17.703125 9.0625 
Q 20.90625 20.125 20.90625 31.390625 
Q 20.90625 42.671875 17.703125 53.65625 
Q 14.5 64.65625 8.015625 75.875 
z
" id="DejaVuSans-29"/>
     </defs>
     <g transform="translate(-111.192187 -176.181563)scale(0.1 -0.1)">
      <use xlink:href="#DejaVuSans-33"/>
      <use x="63.623047" xlink:href="#DejaVuSans-20"/>
      <use x="95.410156" xlink:href="#DejaVuSans-2d"/>
      <use x="131.494141" xlink:href="#DejaVuSans-20"/>
      <use x="163.28125" xlink:href="#DejaVuSans-4e"/>
      <use x="238.085938" xlink:href="#DejaVuSans-47"/>
      <use x="315.576172" xlink:href="#DejaVuSans-2f"/>
      <use x="349.267578" xlink:href="#DejaVuSans-47"/>
      <use x="426.757812" xlink:href="#DejaVuSans-61"/>
      <use x="488.037109" xlink:href="#DejaVuSans-6c"/>
      <use x="515.820312" xlink:href="#DejaVuSans-61"/>
      <use x="577.099609" xlink:href="#DejaVuSans-78"/>
      <use x="636.279297" xlink:href="#DejaVuSans-79"/>
      <use x="695.458984" xlink:href="#DejaVuSans-20"/>
      <use x="727.246094" xlink:href="#DejaVuSans-42"/>
      <use x="795.849609" xlink:href="#DejaVuSans-61"/>
      <use x="857.128906" xlink:href="#DejaVuSans-63"/>
      <use x="912.109375" xlink:href="#DejaVuSans-6b"/>
      <use x="970.019531" xlink:href="#DejaVuSans-62"/>
      <use x="1033.496094" xlink:href="#DejaVuSans-6f"/>
      <use x="1094.677734" xlink:href="#DejaVuSans-6e"/>
      <use x="1158.056641" xlink:href="#DejaVuSans-65"/>
      <use x="1219.580078" xlink:href="#DejaVuSans-20"/>
      <use x="1251.367188" xlink:href="#DejaVuSans-50"/>
      <use x="1311.669922" xlink:href="#DejaVuSans-4c"/>
      <use x="1367.382812" xlink:href="#DejaVuSans-43"/>
      <use x="1437.207031" xlink:href="#DejaVuSans-20"/>
      <use x="1468.994141" xlink:href="#DejaVuSans-28"/>
      <use x="1508.007812" xlink:href="#DejaVuSans-31"/>
      <use x="1571.630859" xlink:href="#DejaVuSans-33"/>
      <use x="1635.253906" xlink:href="#DejaVuSans-2e"/>
      <use x="1667.041016" xlink:href="#DejaVuSans-31"/>
      <use x="1730.664062" xlink:href="#DejaVuSans-20"/>
      <use x="1762.451172" xlink:href="#DejaVuSans-25"/>
      <use x="1857.470703" xlink:href="#DejaVuSans-29"/>
     </g>
    </g>
    <g id="patch_27">
     <path d="M -119.192187 -161.503438 
L -119.192187 -161.503438 
L -119.192187 -168.503438 
L -119.192187 -168.503438 
z
" style="fill:#e6550d;stroke:#ffffff;stroke-linejoin:miter;"/>
    </g>
    <g id="text_31">
     <!-- 7 - NL/Microsoft Corporation (5.2 %) -->
     <defs>
      <path d="M 9.8125 72.90625 
L 24.515625 72.90625 
L 43.109375 23.296875 
L 61.8125 72.90625 
L 76.515625 72.90625 
L 76.515625 0 
L 66.890625 0 
L 66.890625 64.015625 
L 48.09375 14.015625 
L 38.1875 14.015625 
L 19.390625 64.015625 
L 19.390625 0 
L 9.8125 0 
z
" id="DejaVuSans-4d"/>
      <path d="M 9.421875 54.6875 
L 18.40625 54.6875 
L 18.40625 0 
L 9.421875 0 
z
M 9.421875 75.984375 
L 18.40625 75.984375 
L 18.40625 64.59375 
L 9.421875 64.59375 
z
" id="DejaVuSans-69"/>
      <path d="M 44.28125 53.078125 
L 44.28125 44.578125 
Q 40.484375 46.53125 36.375 47.5 
Q 32.28125 48.484375 27.875 48.484375 
Q 21.1875 48.484375 17.84375 46.4375 
Q 14.5 44.390625 14.5 40.28125 
Q 14.5 37.15625 16.890625 35.375 
Q 19.28125 33.59375 26.515625 31.984375 
L 29.59375 31.296875 
Q 39.15625 29.25 43.1875 25.515625 
Q 47.21875 21.78125 47.21875 15.09375 
Q 47.21875 7.46875 41.1875 3.015625 
Q 35.15625 -1.421875 24.609375 -1.421875 
Q 20.21875 -1.421875 15.453125 -0.5625 
Q 10.6875 0.296875 5.421875 2 
L 5.421875 11.28125 
Q 10.40625 8.6875 15.234375 7.390625 
Q 20.0625 6.109375 24.8125 6.109375 
Q 31.15625 6.109375 34.5625 8.28125 
Q 37.984375 10.453125 37.984375 14.40625 
Q 37.984375 18.0625 35.515625 20.015625 
Q 33.0625 21.96875 24.703125 23.78125 
L 21.578125 24.515625 
Q 13.234375 26.265625 9.515625 29.90625 
Q 5.8125 33.546875 5.8125 39.890625 
Q 5.8125 47.609375 11.28125 51.796875 
Q 16.75 56 26.8125 56 
Q 31.78125 56 36.171875 55.265625 
Q 40.578125 54.546875 44.28125 53.078125 
z
" id="DejaVuSans-73"/>
      <path d="M 37.109375 75.984375 
L 37.109375 68.5 
L 28.515625 68.5 
Q 23.6875 68.5 21.796875 66.546875 
Q 19.921875 64.59375 19.921875 59.515625 
L 19.921875 54.6875 
L 34.71875 54.6875 
L 34.71875 47.703125 
L 19.921875 47.703125 
L 19.921875 0 
L 10.890625 0 
L 10.890625 47.703125 
L 2.296875 47.703125 
L 2.296875 54.6875 
L 10.890625 54.6875 
L 10.890625 58.5 
Q 10.890625 67.625 15.140625 71.796875 
Q 19.390625 75.984375 28.609375 75.984375 
z
" id="DejaVuSans-66"/>
      <path d="M 18.109375 8.203125 
L 18.109375 -20.796875 
L 9.078125 -20.796875 
L 9.078125 54.6875 
L 18.109375 54.6875 
L 18.109375 46.390625 
Q 20.953125 51.265625 25.265625 53.625 
Q 29.59375 56 35.59375 56 
Q 45.5625 56 51.78125 48.09375 
Q 58.015625 40.1875 58.015625 27.296875 
Q 58.015625 14.40625 51.78125 6.484375 
Q 45.5625 -1.421875 35.59375 -1.421875 
Q 29.59375 -1.421875 25.265625 0.953125 
Q 20.953125 3.328125 18.109375 8.203125 
z
M 48.6875 27.296875 
Q 48.6875 37.203125 44.609375 42.84375 
Q 40.53125 48.484375 33.40625 48.484375 
Q 26.265625 48.484375 22.1875 42.84375 
Q 18.109375 37.203125 18.109375 27.296875 
Q 18.109375 17.390625 22.1875 11.75 
Q 26.265625 6.109375 33.40625 6.109375 
Q 40.53125 6.109375 44.609375 11.75 
Q 48.6875 17.390625 48.6875 27.296875 
z
" id="DejaVuSans-70"/>
     </defs>
     <g transform="translate(-111.192187 -161.503438)scale(0.1 -0.1)">
      <use xlink:href="#DejaVuSans-37"/>
      <use x="63.623047" xlink:href="#DejaVuSans-20"/>
      <use x="95.410156" xlink:href="#DejaVuSans-2d"/>
      <use x="131.494141" xlink:href="#DejaVuSans-20"/>
      <use x="163.28125" xlink:href="#DejaVuSans-4e"/>
      <use x="238.085938" xlink:href="#DejaVuSans-4c"/>
      <use x="293.798828" xlink:href="#DejaVuSans-2f"/>
      <use x="327.490234" xlink:href="#DejaVuSans-4d"/>
      <use x="413.769531" xlink:href="#DejaVuSans-69"/>
      <use x="441.552734" xlink:href="#DejaVuSans-63"/>
      <use x="496.533203" xlink:href="#DejaVuSans-72"/>
      <use x="537.615234" xlink:href="#DejaVuSans-6f"/>
      <use x="598.796875" xlink:href="#DejaVuSans-73"/>
      <use x="650.896484" xlink:href="#DejaVuSans-6f"/>
      <use x="712.078125" xlink:href="#DejaVuSans-66"/>
      <use x="747.267578" xlink:href="#DejaVuSans-74"/>
      <use x="786.476562" xlink:href="#DejaVuSans-20"/>
      <use x="818.263672" xlink:href="#DejaVuSans-43"/>
      <use x="888.087891" xlink:href="#DejaVuSans-6f"/>
      <use x="949.269531" xlink:href="#DejaVuSans-72"/>
      <use x="990.382812" xlink:href="#DejaVuSans-70"/>
      <use x="1053.859375" xlink:href="#DejaVuSans-6f"/>
      <use x="1115.041016" xlink:href="#DejaVuSans-72"/>
      <use x="1156.154297" xlink:href="#DejaVuSans-61"/>
      <use x="1217.433594" xlink:href="#DejaVuSans-74"/>
      <use x="1256.642578" xlink:href="#DejaVuSans-69"/>
      <use x="1284.425781" xlink:href="#DejaVuSans-6f"/>
      <use x="1345.607422" xlink:href="#DejaVuSans-6e"/>
      <use x="1408.986328" xlink:href="#DejaVuSans-20"/>
      <use x="1440.773438" xlink:href="#DejaVuSans-28"/>
      <use x="1479.787109" xlink:href="#DejaVuSans-35"/>
      <use x="1543.410156" xlink:href="#DejaVuSans-2e"/>
      <use x="1575.197266" xlink:href="#DejaVuSans-32"/>
      <use x="1638.820312" xlink:href="#DejaVuSans-20"/>
      <use x="1670.607422" xlink:href="#DejaVuSans-25"/>
      <use x="1765.626953" xlink:href="#DejaVuSans-29"/>
     </g>
    </g>
    <g id="patch_28">
     <path d="M -119.192187 -146.825313 
L -119.192187 -146.825313 
L -119.192187 -153.825313 
L -119.192187 -153.825313 
z
" style="fill:#31a354;stroke:#ffffff;stroke-linejoin:miter;"/>
    </g>
    <g id="text_32">
     <!-- 10 - US/Codero (1.9 %) -->
     <defs>
      <path d="M 45.40625 46.390625 
L 45.40625 75.984375 
L 54.390625 75.984375 
L 54.390625 0 
L 45.40625 0 
L 45.40625 8.203125 
Q 42.578125 3.328125 38.25 0.953125 
Q 33.9375 -1.421875 27.875 -1.421875 
Q 17.96875 -1.421875 11.734375 6.484375 
Q 5.515625 14.40625 5.515625 27.296875 
Q 5.515625 40.1875 11.734375 48.09375 
Q 17.96875 56 27.875 56 
Q 33.9375 56 38.25 53.625 
Q 42.578125 51.265625 45.40625 46.390625 
z
M 14.796875 27.296875 
Q 14.796875 17.390625 18.875 11.75 
Q 22.953125 6.109375 30.078125 6.109375 
Q 37.203125 6.109375 41.296875 11.75 
Q 45.40625 17.390625 45.40625 27.296875 
Q 45.40625 37.203125 41.296875 42.84375 
Q 37.203125 48.484375 30.078125 48.484375 
Q 22.953125 48.484375 18.875 42.84375 
Q 14.796875 37.203125 14.796875 27.296875 
z
" id="DejaVuSans-64"/>
     </defs>
     <g transform="translate(-111.192187 -146.825313)scale(0.1 -0.1)">
      <use xlink:href="#DejaVuSans-31"/>
      <use x="63.623047" xlink:href="#DejaVuSans-30"/>
      <use x="127.246094" xlink:href="#DejaVuSans-20"/>
      <use x="159.033203" xlink:href="#DejaVuSans-2d"/>
      <use x="195.117188" xlink:href="#DejaVuSans-20"/>
      <use x="226.904297" xlink:href="#DejaVuSans-55"/>
      <use x="300.097656" xlink:href="#DejaVuSans-53"/>
      <use x="363.574219" xlink:href="#DejaVuSans-2f"/>
      <use x="397.265625" xlink:href="#DejaVuSans-43"/>
      <use x="467.089844" xlink:href="#DejaVuSans-6f"/>
      <use x="528.271484" xlink:href="#DejaVuSans-64"/>
      <use x="591.748047" xlink:href="#DejaVuSans-65"/>
      <use x="653.271484" xlink:href="#DejaVuSans-72"/>
      <use x="694.353516" xlink:href="#DejaVuSans-6f"/>
      <use x="755.535156" xlink:href="#DejaVuSans-20"/>
      <use x="787.322266" xlink:href="#DejaVuSans-28"/>
      <use x="826.335938" xlink:href="#DejaVuSans-31"/>
      <use x="889.958984" xlink:href="#DejaVuSans-2e"/>
      <use x="921.746094" xlink:href="#DejaVuSans-39"/>
      <use x="985.369141" xlink:href="#DejaVuSans-20"/>
      <use x="1017.15625" xlink:href="#DejaVuSans-25"/>
      <use x="1112.175781" xlink:href="#DejaVuSans-29"/>
     </g>
    </g>
    <g id="patch_29">
     <path d="M -119.192187 -132.147188 
L -119.192187 -132.147188 
L -119.192187 -139.147188 
L -119.192187 -139.147188 
z
" style="fill:#756bb1;stroke:#ffffff;stroke-linejoin:miter;"/>
    </g>
    <g id="text_33">
     <!-- 11 - US/CyrusOne LLC (2.3 %) -->
     <defs>
      <path d="M 39.40625 66.21875 
Q 28.65625 66.21875 22.328125 58.203125 
Q 16.015625 50.203125 16.015625 36.375 
Q 16.015625 22.609375 22.328125 14.59375 
Q 28.65625 6.59375 39.40625 6.59375 
Q 50.140625 6.59375 56.421875 14.59375 
Q 62.703125 22.609375 62.703125 36.375 
Q 62.703125 50.203125 56.421875 58.203125 
Q 50.140625 66.21875 39.40625 66.21875 
z
M 39.40625 74.21875 
Q 54.734375 74.21875 63.90625 63.9375 
Q 73.09375 53.65625 73.09375 36.375 
Q 73.09375 19.140625 63.90625 8.859375 
Q 54.734375 -1.421875 39.40625 -1.421875 
Q 24.03125 -1.421875 14.8125 8.828125 
Q 5.609375 19.09375 5.609375 36.375 
Q 5.609375 53.65625 14.8125 63.9375 
Q 24.03125 74.21875 39.40625 74.21875 
z
" id="DejaVuSans-4f"/>
     </defs>
     <g transform="translate(-111.192187 -132.147188)scale(0.1 -0.1)">
      <use xlink:href="#DejaVuSans-31"/>
      <use x="63.623047" xlink:href="#DejaVuSans-31"/>
      <use x="127.246094" xlink:href="#DejaVuSans-20"/>
      <use x="159.033203" xlink:href="#DejaVuSans-2d"/>
      <use x="195.117188" xlink:href="#DejaVuSans-20"/>
      <use x="226.904297" xlink:href="#DejaVuSans-55"/>
      <use x="300.097656" xlink:href="#DejaVuSans-53"/>
      <use x="363.574219" xlink:href="#DejaVuSans-2f"/>
      <use x="397.265625" xlink:href="#DejaVuSans-43"/>
      <use x="467.089844" xlink:href="#DejaVuSans-79"/>
      <use x="526.269531" xlink:href="#DejaVuSans-72"/>
      <use x="567.382812" xlink:href="#DejaVuSans-75"/>
      <use x="630.761719" xlink:href="#DejaVuSans-73"/>
      <use x="682.861328" xlink:href="#DejaVuSans-4f"/>
      <use x="761.572266" xlink:href="#DejaVuSans-6e"/>
      <use x="824.951172" xlink:href="#DejaVuSans-65"/>
      <use x="886.474609" xlink:href="#DejaVuSans-20"/>
      <use x="918.261719" xlink:href="#DejaVuSans-4c"/>
      <use x="973.974609" xlink:href="#DejaVuSans-4c"/>
      <use x="1029.6875" xlink:href="#DejaVuSans-43"/>
      <use x="1099.511719" xlink:href="#DejaVuSans-20"/>
      <use x="1131.298828" xlink:href="#DejaVuSans-28"/>
      <use x="1170.3125" xlink:href="#DejaVuSans-32"/>
      <use x="1233.935547" xlink:href="#DejaVuSans-2e"/>
      <use x="1265.722656" xlink:href="#DejaVuSans-33"/>
      <use x="1329.345703" xlink:href="#DejaVuSans-20"/>
      <use x="1361.132812" xlink:href="#DejaVuSans-25"/>
      <use x="1456.152344" xlink:href="#DejaVuSans-29"/>
     </g>
    </g>
    <g id="patch_30">
     <path d="M -119.192187 -117.469063 
L -119.192187 -117.469063 
L -119.192187 -124.469063 
L -119.192187 -124.469063 
z
" style="fill:#636363;stroke:#ffffff;stroke-linejoin:miter;"/>
    </g>
    <g id="text_34">
     <!-- 12 - US/Defense.Net (2.8 %) -->
     <defs>
      <path d="M 19.671875 64.796875 
L 19.671875 8.109375 
L 31.59375 8.109375 
Q 46.6875 8.109375 53.6875 14.9375 
Q 60.6875 21.78125 60.6875 36.53125 
Q 60.6875 51.171875 53.6875 57.984375 
Q 46.6875 64.796875 31.59375 64.796875 
z
M 9.8125 72.90625 
L 30.078125 72.90625 
Q 51.265625 72.90625 61.171875 64.09375 
Q 71.09375 55.28125 71.09375 36.53125 
Q 71.09375 17.671875 61.125 8.828125 
Q 51.171875 0 30.078125 0 
L 9.8125 0 
z
" id="DejaVuSans-44"/>
     </defs>
     <g transform="translate(-111.192187 -117.469063)scale(0.1 -0.1)">
      <use xlink:href="#DejaVuSans-31"/>
      <use x="63.623047" xlink:href="#DejaVuSans-32"/>
      <use x="127.246094" xlink:href="#DejaVuSans-20"/>
      <use x="159.033203" xlink:href="#DejaVuSans-2d"/>
      <use x="195.117188" xlink:href="#DejaVuSans-20"/>
      <use x="226.904297" xlink:href="#DejaVuSans-55"/>
      <use x="300.097656" xlink:href="#DejaVuSans-53"/>
      <use x="363.574219" xlink:href="#DejaVuSans-2f"/>
      <use x="397.265625" xlink:href="#DejaVuSans-44"/>
      <use x="474.267578" xlink:href="#DejaVuSans-65"/>
      <use x="535.791016" xlink:href="#DejaVuSans-66"/>
      <use x="570.996094" xlink:href="#DejaVuSans-65"/>
      <use x="632.519531" xlink:href="#DejaVuSans-6e"/>
      <use x="695.898438" xlink:href="#DejaVuSans-73"/>
      <use x="747.998047" xlink:href="#DejaVuSans-65"/>
      <use x="809.521484" xlink:href="#DejaVuSans-2e"/>
      <use x="841.308594" xlink:href="#DejaVuSans-4e"/>
      <use x="916.113281" xlink:href="#DejaVuSans-65"/>
      <use x="977.636719" xlink:href="#DejaVuSans-74"/>
      <use x="1016.845703" xlink:href="#DejaVuSans-20"/>
      <use x="1048.632812" xlink:href="#DejaVuSans-28"/>
      <use x="1087.646484" xlink:href="#DejaVuSans-32"/>
      <use x="1151.269531" xlink:href="#DejaVuSans-2e"/>
      <use x="1183.056641" xlink:href="#DejaVuSans-38"/>
      <use x="1246.679688" xlink:href="#DejaVuSans-20"/>
      <use x="1278.466797" xlink:href="#DejaVuSans-25"/>
      <use x="1373.486328" xlink:href="#DejaVuSans-29"/>
     </g>
    </g>
    <g id="patch_31">
     <path d="M -119.192187 -102.790938 
L -119.192187 -102.790938 
L -119.192187 -109.790938 
L -119.192187 -109.790938 
z
" style="fill:#d9d9d9;stroke:#ffffff;stroke-linejoin:miter;"/>
    </g>
    <g id="text_35">
     <!-- 13 - US/GoDaddy.com (8.0 %) -->
     <defs>
      <path d="M 52 44.1875 
Q 55.375 50.25 60.0625 53.125 
Q 64.75 56 71.09375 56 
Q 79.640625 56 84.28125 50.015625 
Q 88.921875 44.046875 88.921875 33.015625 
L 88.921875 0 
L 79.890625 0 
L 79.890625 32.71875 
Q 79.890625 40.578125 77.09375 44.375 
Q 74.3125 48.1875 68.609375 48.1875 
Q 61.625 48.1875 57.5625 43.546875 
Q 53.515625 38.921875 53.515625 30.90625 
L 53.515625 0 
L 44.484375 0 
L 44.484375 32.71875 
Q 44.484375 40.625 41.703125 44.40625 
Q 38.921875 48.1875 33.109375 48.1875 
Q 26.21875 48.1875 22.15625 43.53125 
Q 18.109375 38.875 18.109375 30.90625 
L 18.109375 0 
L 9.078125 0 
L 9.078125 54.6875 
L 18.109375 54.6875 
L 18.109375 46.1875 
Q 21.1875 51.21875 25.484375 53.609375 
Q 29.78125 56 35.6875 56 
Q 41.65625 56 45.828125 52.96875 
Q 50 49.953125 52 44.1875 
z
" id="DejaVuSans-6d"/>
     </defs>
     <g transform="translate(-111.192187 -102.790938)scale(0.1 -0.1)">
      <use xlink:href="#DejaVuSans-31"/>
      <use x="63.623047" xlink:href="#DejaVuSans-33"/>
      <use x="127.246094" xlink:href="#DejaVuSans-20"/>
      <use x="159.033203" xlink:href="#DejaVuSans-2d"/>
      <use x="195.117188" xlink:href="#DejaVuSans-20"/>
      <use x="226.904297" xlink:href="#DejaVuSans-55"/>
      <use x="300.097656" xlink:href="#DejaVuSans-53"/>
      <use x="363.574219" xlink:href="#DejaVuSans-2f"/>
      <use x="397.265625" xlink:href="#DejaVuSans-47"/>
      <use x="474.755859" xlink:href="#DejaVuSans-6f"/>
      <use x="535.9375" xlink:href="#DejaVuSans-44"/>
      <use x="612.939453" xlink:href="#DejaVuSans-61"/>
      <use x="674.21875" xlink:href="#DejaVuSans-64"/>
      <use x="737.695312" xlink:href="#DejaVuSans-64"/>
      <use x="801.171875" xlink:href="#DejaVuSans-79"/>
      <use x="860.132812" xlink:href="#DejaVuSans-2e"/>
      <use x="891.919922" xlink:href="#DejaVuSans-63"/>
      <use x="946.900391" xlink:href="#DejaVuSans-6f"/>
      <use x="1008.082031" xlink:href="#DejaVuSans-6d"/>
      <use x="1105.494141" xlink:href="#DejaVuSans-20"/>
      <use x="1137.28125" xlink:href="#DejaVuSans-28"/>
      <use x="1176.294922" xlink:href="#DejaVuSans-38"/>
      <use x="1239.917969" xlink:href="#DejaVuSans-2e"/>
      <use x="1271.705078" xlink:href="#DejaVuSans-30"/>
      <use x="1335.328125" xlink:href="#DejaVuSans-20"/>
      <use x="1367.115234" xlink:href="#DejaVuSans-25"/>
      <use x="1462.134766" xlink:href="#DejaVuSans-29"/>
     </g>
    </g>
    <g id="patch_32">
     <path d="M -119.192187 -88.112813 
L -119.192187 -88.112813 
L -119.192187 -95.112813 
L -119.192187 -95.112813 
z
" style="fill:#1f77b4;stroke:#ffffff;stroke-linejoin:miter;"/>
    </g>
    <g id="text_36">
     <!-- 14 - US/InMotion Hosting (1.9 %) -->
     <defs>
      <path d="M 9.8125 72.90625 
L 19.671875 72.90625 
L 19.671875 43.015625 
L 55.515625 43.015625 
L 55.515625 72.90625 
L 65.375 72.90625 
L 65.375 0 
L 55.515625 0 
L 55.515625 34.71875 
L 19.671875 34.71875 
L 19.671875 0 
L 9.8125 0 
z
" id="DejaVuSans-48"/>
      <path d="M 45.40625 27.984375 
Q 45.40625 37.75 41.375 43.109375 
Q 37.359375 48.484375 30.078125 48.484375 
Q 22.859375 48.484375 18.828125 43.109375 
Q 14.796875 37.75 14.796875 27.984375 
Q 14.796875 18.265625 18.828125 12.890625 
Q 22.859375 7.515625 30.078125 7.515625 
Q 37.359375 7.515625 41.375 12.890625 
Q 45.40625 18.265625 45.40625 27.984375 
z
M 54.390625 6.78125 
Q 54.390625 -7.171875 48.1875 -13.984375 
Q 42 -20.796875 29.203125 -20.796875 
Q 24.46875 -20.796875 20.265625 -20.09375 
Q 16.0625 -19.390625 12.109375 -17.921875 
L 12.109375 -9.1875 
Q 16.0625 -11.328125 19.921875 -12.34375 
Q 23.78125 -13.375 27.78125 -13.375 
Q 36.625 -13.375 41.015625 -8.765625 
Q 45.40625 -4.15625 45.40625 5.171875 
L 45.40625 9.625 
Q 42.625 4.78125 38.28125 2.390625 
Q 33.9375 0 27.875 0 
Q 17.828125 0 11.671875 7.65625 
Q 5.515625 15.328125 5.515625 27.984375 
Q 5.515625 40.671875 11.671875 48.328125 
Q 17.828125 56 27.875 56 
Q 33.9375 56 38.28125 53.609375 
Q 42.625 51.21875 45.40625 46.390625 
L 45.40625 54.6875 
L 54.390625 54.6875 
z
" id="DejaVuSans-67"/>
     </defs>
     <g transform="translate(-111.192187 -88.112813)scale(0.1 -0.1)">
      <use xlink:href="#DejaVuSans-31"/>
      <use x="63.623047" xlink:href="#DejaVuSans-34"/>
      <use x="127.246094" xlink:href="#DejaVuSans-20"/>
      <use x="159.033203" xlink:href="#DejaVuSans-2d"/>
      <use x="195.117188" xlink:href="#DejaVuSans-20"/>
      <use x="226.904297" xlink:href="#DejaVuSans-55"/>
      <use x="300.097656" xlink:href="#DejaVuSans-53"/>
      <use x="363.574219" xlink:href="#DejaVuSans-2f"/>
      <use x="397.265625" xlink:href="#DejaVuSans-49"/>
      <use x="426.757812" xlink:href="#DejaVuSans-6e"/>
      <use x="490.136719" xlink:href="#DejaVuSans-4d"/>
      <use x="576.416016" xlink:href="#DejaVuSans-6f"/>
      <use x="637.597656" xlink:href="#DejaVuSans-74"/>
      <use x="676.806641" xlink:href="#DejaVuSans-69"/>
      <use x="704.589844" xlink:href="#DejaVuSans-6f"/>
      <use x="765.771484" xlink:href="#DejaVuSans-6e"/>
      <use x="829.150391" xlink:href="#DejaVuSans-20"/>
      <use x="860.9375" xlink:href="#DejaVuSans-48"/>
      <use x="936.132812" xlink:href="#DejaVuSans-6f"/>
      <use x="997.314453" xlink:href="#DejaVuSans-73"/>
      <use x="1049.414062" xlink:href="#DejaVuSans-74"/>
      <use x="1088.623047" xlink:href="#DejaVuSans-69"/>
      <use x="1116.40625" xlink:href="#DejaVuSans-6e"/>
      <use x="1179.785156" xlink:href="#DejaVuSans-67"/>
      <use x="1243.261719" xlink:href="#DejaVuSans-20"/>
      <use x="1275.048828" xlink:href="#DejaVuSans-28"/>
      <use x="1314.0625" xlink:href="#DejaVuSans-31"/>
      <use x="1377.685547" xlink:href="#DejaVuSans-2e"/>
      <use x="1409.472656" xlink:href="#DejaVuSans-39"/>
      <use x="1473.095703" xlink:href="#DejaVuSans-20"/>
      <use x="1504.882812" xlink:href="#DejaVuSans-25"/>
      <use x="1599.902344" xlink:href="#DejaVuSans-29"/>
     </g>
    </g>
    <g id="patch_33">
     <path d="M -119.192187 -73.434688 
L -119.192187 -73.434688 
L -119.192187 -80.434688 
L -119.192187 -80.434688 
z
" style="fill:#ff7f0e;stroke:#ffffff;stroke-linejoin:miter;"/>
    </g>
    <g id="text_37">
     <!-- 16 - US/Level 3 Communications (4.5 %) -->
     <defs>
      <path d="M 2.984375 54.6875 
L 12.5 54.6875 
L 29.59375 8.796875 
L 46.6875 54.6875 
L 56.203125 54.6875 
L 35.6875 0 
L 23.484375 0 
z
" id="DejaVuSans-76"/>
     </defs>
     <g transform="translate(-111.192187 -73.434688)scale(0.1 -0.1)">
      <use xlink:href="#DejaVuSans-31"/>
      <use x="63.623047" xlink:href="#DejaVuSans-36"/>
      <use x="127.246094" xlink:href="#DejaVuSans-20"/>
      <use x="159.033203" xlink:href="#DejaVuSans-2d"/>
      <use x="195.117188" xlink:href="#DejaVuSans-20"/>
      <use x="226.904297" xlink:href="#DejaVuSans-55"/>
      <use x="300.097656" xlink:href="#DejaVuSans-53"/>
      <use x="363.574219" xlink:href="#DejaVuSans-2f"/>
      <use x="397.265625" xlink:href="#DejaVuSans-4c"/>
      <use x="452.962891" xlink:href="#DejaVuSans-65"/>
      <use x="514.486328" xlink:href="#DejaVuSans-76"/>
      <use x="573.666016" xlink:href="#DejaVuSans-65"/>
      <use x="635.189453" xlink:href="#DejaVuSans-6c"/>
      <use x="662.972656" xlink:href="#DejaVuSans-20"/>
      <use x="694.759766" xlink:href="#DejaVuSans-33"/>
      <use x="758.382812" xlink:href="#DejaVuSans-20"/>
      <use x="790.169922" xlink:href="#DejaVuSans-43"/>
      <use x="859.994141" xlink:href="#DejaVuSans-6f"/>
      <use x="921.175781" xlink:href="#DejaVuSans-6d"/>
      <use x="1018.587891" xlink:href="#DejaVuSans-6d"/>
      <use x="1116" xlink:href="#DejaVuSans-75"/>
      <use x="1179.378906" xlink:href="#DejaVuSans-6e"/>
      <use x="1242.757812" xlink:href="#DejaVuSans-69"/>
      <use x="1270.541016" xlink:href="#DejaVuSans-63"/>
      <use x="1325.521484" xlink:href="#DejaVuSans-61"/>
      <use x="1386.800781" xlink:href="#DejaVuSans-74"/>
      <use x="1426.009766" xlink:href="#DejaVuSans-69"/>
      <use x="1453.792969" xlink:href="#DejaVuSans-6f"/>
      <use x="1514.974609" xlink:href="#DejaVuSans-6e"/>
      <use x="1578.353516" xlink:href="#DejaVuSans-73"/>
      <use x="1630.453125" xlink:href="#DejaVuSans-20"/>
      <use x="1662.240234" xlink:href="#DejaVuSans-28"/>
      <use x="1701.253906" xlink:href="#DejaVuSans-34"/>
      <use x="1764.876953" xlink:href="#DejaVuSans-2e"/>
      <use x="1796.664062" xlink:href="#DejaVuSans-35"/>
      <use x="1860.287109" xlink:href="#DejaVuSans-20"/>
      <use x="1892.074219" xlink:href="#DejaVuSans-25"/>
      <use x="1987.09375" xlink:href="#DejaVuSans-29"/>
     </g>
    </g>
    <g id="patch_34">
     <path d="M -119.192187 -58.756563 
L -119.192187 -58.756563 
L -119.192187 -65.756563 
L -119.192187 -65.756563 
z
" style="fill:#2ca02c;stroke:#ffffff;stroke-linejoin:miter;"/>
    </g>
    <g id="text_38">
     <!-- 17 - US/Liquid Web (4.9 %) -->
     <defs>
      <path d="M 14.796875 27.296875 
Q 14.796875 17.390625 18.875 11.75 
Q 22.953125 6.109375 30.078125 6.109375 
Q 37.203125 6.109375 41.296875 11.75 
Q 45.40625 17.390625 45.40625 27.296875 
Q 45.40625 37.203125 41.296875 42.84375 
Q 37.203125 48.484375 30.078125 48.484375 
Q 22.953125 48.484375 18.875 42.84375 
Q 14.796875 37.203125 14.796875 27.296875 
z
M 45.40625 8.203125 
Q 42.578125 3.328125 38.25 0.953125 
Q 33.9375 -1.421875 27.875 -1.421875 
Q 17.96875 -1.421875 11.734375 6.484375 
Q 5.515625 14.40625 5.515625 27.296875 
Q 5.515625 40.1875 11.734375 48.09375 
Q 17.96875 56 27.875 56 
Q 33.9375 56 38.25 53.625 
Q 42.578125 51.265625 45.40625 46.390625 
L 45.40625 54.6875 
L 54.390625 54.6875 
L 54.390625 -20.796875 
L 45.40625 -20.796875 
z
" id="DejaVuSans-71"/>
      <path d="M 3.328125 72.90625 
L 13.28125 72.90625 
L 28.609375 11.28125 
L 43.890625 72.90625 
L 54.984375 72.90625 
L 70.3125 11.28125 
L 85.59375 72.90625 
L 95.609375 72.90625 
L 77.296875 0 
L 64.890625 0 
L 49.515625 63.28125 
L 33.984375 0 
L 21.578125 0 
z
" id="DejaVuSans-57"/>
     </defs>
     <g transform="translate(-111.192187 -58.756563)scale(0.1 -0.1)">
      <use xlink:href="#DejaVuSans-31"/>
      <use x="63.623047" xlink:href="#DejaVuSans-37"/>
      <use x="127.246094" xlink:href="#DejaVuSans-20"/>
      <use x="159.033203" xlink:href="#DejaVuSans-2d"/>
      <use x="195.117188" xlink:href="#DejaVuSans-20"/>
      <use x="226.904297" xlink:href="#DejaVuSans-55"/>
      <use x="300.097656" xlink:href="#DejaVuSans-53"/>
      <use x="363.574219" xlink:href="#DejaVuSans-2f"/>
      <use x="397.265625" xlink:href="#DejaVuSans-4c"/>
      <use x="452.978516" xlink:href="#DejaVuSans-69"/>
      <use x="480.761719" xlink:href="#DejaVuSans-71"/>
      <use x="544.238281" xlink:href="#DejaVuSans-75"/>
      <use x="607.617188" xlink:href="#DejaVuSans-69"/>
      <use x="635.400391" xlink:href="#DejaVuSans-64"/>
      <use x="698.876953" xlink:href="#DejaVuSans-20"/>
      <use x="730.664062" xlink:href="#DejaVuSans-57"/>
      <use x="829.462891" xlink:href="#DejaVuSans-65"/>
      <use x="890.986328" xlink:href="#DejaVuSans-62"/>
      <use x="954.462891" xlink:href="#DejaVuSans-20"/>
      <use x="986.25" xlink:href="#DejaVuSans-28"/>
      <use x="1025.263672" xlink:href="#DejaVuSans-34"/>
      <use x="1088.886719" xlink:href="#DejaVuSans-2e"/>
      <use x="1120.673828" xlink:href="#DejaVuSans-39"/>
      <use x="1184.296875" xlink:href="#DejaVuSans-20"/>
      <use x="1216.083984" xlink:href="#DejaVuSans-25"/>
      <use x="1311.103516" xlink:href="#DejaVuSans-29"/>
     </g>
    </g>
    <g id="patch_35">
     <path d="M -119.192187 -44.078438 
L -119.192187 -44.078438 
L -119.192187 -51.078438 
L -119.192187 -51.078438 
z
" style="fill:#d62728;stroke:#ffffff;stroke-linejoin:miter;"/>
    </g>
    <g id="text_39">
     <!-- 18 - US/Microsoft Corporation (4.3 %) -->
     <g transform="translate(-111.192187 -44.078438)scale(0.1 -0.1)">
      <use xlink:href="#DejaVuSans-31"/>
      <use x="63.623047" xlink:href="#DejaVuSans-38"/>
      <use x="127.246094" xlink:href="#DejaVuSans-20"/>
      <use x="159.033203" xlink:href="#DejaVuSans-2d"/>
      <use x="195.117188" xlink:href="#DejaVuSans-20"/>
      <use x="226.904297" xlink:href="#DejaVuSans-55"/>
      <use x="300.097656" xlink:href="#DejaVuSans-53"/>
      <use x="363.574219" xlink:href="#DejaVuSans-2f"/>
      <use x="397.265625" xlink:href="#DejaVuSans-4d"/>
      <use x="483.544922" xlink:href="#DejaVuSans-69"/>
      <use x="511.328125" xlink:href="#DejaVuSans-63"/>
      <use x="566.308594" xlink:href="#DejaVuSans-72"/>
      <use x="607.390625" xlink:href="#DejaVuSans-6f"/>
      <use x="668.572266" xlink:href="#DejaVuSans-73"/>
      <use x="720.671875" xlink:href="#DejaVuSans-6f"/>
      <use x="781.853516" xlink:href="#DejaVuSans-66"/>
      <use x="817.042969" xlink:href="#DejaVuSans-74"/>
      <use x="856.251953" xlink:href="#DejaVuSans-20"/>
      <use x="888.039062" xlink:href="#DejaVuSans-43"/>
      <use x="957.863281" xlink:href="#DejaVuSans-6f"/>
      <use x="1019.044922" xlink:href="#DejaVuSans-72"/>
      <use x="1060.158203" xlink:href="#DejaVuSans-70"/>
      <use x="1123.634766" xlink:href="#DejaVuSans-6f"/>
      <use x="1184.816406" xlink:href="#DejaVuSans-72"/>
      <use x="1225.929688" xlink:href="#DejaVuSans-61"/>
      <use x="1287.208984" xlink:href="#DejaVuSans-74"/>
      <use x="1326.417969" xlink:href="#DejaVuSans-69"/>
      <use x="1354.201172" xlink:href="#DejaVuSans-6f"/>
      <use x="1415.382812" xlink:href="#DejaVuSans-6e"/>
      <use x="1478.761719" xlink:href="#DejaVuSans-20"/>
      <use x="1510.548828" xlink:href="#DejaVuSans-28"/>
      <use x="1549.5625" xlink:href="#DejaVuSans-34"/>
      <use x="1613.185547" xlink:href="#DejaVuSans-2e"/>
      <use x="1644.972656" xlink:href="#DejaVuSans-33"/>
      <use x="1708.595703" xlink:href="#DejaVuSans-20"/>
      <use x="1740.382812" xlink:href="#DejaVuSans-25"/>
      <use x="1835.402344" xlink:href="#DejaVuSans-29"/>
     </g>
    </g>
    <g id="patch_36">
     <path d="M -119.192187 -29.400313 
L -119.192187 -29.400313 
L -119.192187 -36.400313 
L -119.192187 -36.400313 
z
" style="fill:#9467bd;stroke:#ffffff;stroke-linejoin:miter;"/>
    </g>
    <g id="text_40">
     <!-- 21 - US/New Dream Network (14.8 %) -->
     <defs>
      <path d="M 4.203125 54.6875 
L 13.1875 54.6875 
L 24.421875 12.015625 
L 35.59375 54.6875 
L 46.1875 54.6875 
L 57.421875 12.015625 
L 68.609375 54.6875 
L 77.59375 54.6875 
L 63.28125 0 
L 52.6875 0 
L 40.921875 44.828125 
L 29.109375 0 
L 18.5 0 
z
" id="DejaVuSans-77"/>
     </defs>
     <g transform="translate(-111.192187 -29.400313)scale(0.1 -0.1)">
      <use xlink:href="#DejaVuSans-32"/>
      <use x="63.623047" xlink:href="#DejaVuSans-31"/>
      <use x="127.246094" xlink:href="#DejaVuSans-20"/>
      <use x="159.033203" xlink:href="#DejaVuSans-2d"/>
      <use x="195.117188" xlink:href="#DejaVuSans-20"/>
      <use x="226.904297" xlink:href="#DejaVuSans-55"/>
      <use x="300.097656" xlink:href="#DejaVuSans-53"/>
      <use x="363.574219" xlink:href="#DejaVuSans-2f"/>
      <use x="397.265625" xlink:href="#DejaVuSans-4e"/>
      <use x="472.070312" xlink:href="#DejaVuSans-65"/>
      <use x="533.59375" xlink:href="#DejaVuSans-77"/>
      <use x="615.380859" xlink:href="#DejaVuSans-20"/>
      <use x="647.167969" xlink:href="#DejaVuSans-44"/>
      <use x="724.169922" xlink:href="#DejaVuSans-72"/>
      <use x="765.251953" xlink:href="#DejaVuSans-65"/>
      <use x="826.775391" xlink:href="#DejaVuSans-61"/>
      <use x="888.054688" xlink:href="#DejaVuSans-6d"/>
      <use x="985.466797" xlink:href="#DejaVuSans-20"/>
      <use x="1017.253906" xlink:href="#DejaVuSans-4e"/>
      <use x="1092.058594" xlink:href="#DejaVuSans-65"/>
      <use x="1153.582031" xlink:href="#DejaVuSans-74"/>
      <use x="1192.791016" xlink:href="#DejaVuSans-77"/>
      <use x="1274.578125" xlink:href="#DejaVuSans-6f"/>
      <use x="1335.759766" xlink:href="#DejaVuSans-72"/>
      <use x="1376.873047" xlink:href="#DejaVuSans-6b"/>
      <use x="1434.783203" xlink:href="#DejaVuSans-20"/>
      <use x="1466.570312" xlink:href="#DejaVuSans-28"/>
      <use x="1505.583984" xlink:href="#DejaVuSans-31"/>
      <use x="1569.207031" xlink:href="#DejaVuSans-34"/>
      <use x="1632.830078" xlink:href="#DejaVuSans-2e"/>
      <use x="1664.617188" xlink:href="#DejaVuSans-38"/>
      <use x="1728.240234" xlink:href="#DejaVuSans-20"/>
      <use x="1760.027344" xlink:href="#DejaVuSans-25"/>
      <use x="1855.046875" xlink:href="#DejaVuSans-29"/>
     </g>
    </g>
    <g id="patch_37">
     <path d="M -119.192187 -14.722188 
L -119.192187 -14.722188 
L -119.192187 -21.722188 
L -119.192187 -21.722188 
z
" style="fill:#8c564b;stroke:#ffffff;stroke-linejoin:miter;"/>
    </g>
    <g id="text_41">
     <!-- 23 - US/Rackspace Ltd. (9.0 %) -->
     <defs>
      <path d="M 44.390625 34.1875 
Q 47.5625 33.109375 50.5625 29.59375 
Q 53.5625 26.078125 56.59375 19.921875 
L 66.609375 0 
L 56 0 
L 46.6875 18.703125 
Q 43.0625 26.03125 39.671875 28.421875 
Q 36.28125 30.8125 30.421875 30.8125 
L 19.671875 30.8125 
L 19.671875 0 
L 9.8125 0 
L 9.8125 72.90625 
L 32.078125 72.90625 
Q 44.578125 72.90625 50.734375 67.671875 
Q 56.890625 62.453125 56.890625 51.90625 
Q 56.890625 45.015625 53.6875 40.46875 
Q 50.484375 35.9375 44.390625 34.1875 
z
M 19.671875 64.796875 
L 19.671875 38.921875 
L 32.078125 38.921875 
Q 39.203125 38.921875 42.84375 42.21875 
Q 46.484375 45.515625 46.484375 51.90625 
Q 46.484375 58.296875 42.84375 61.546875 
Q 39.203125 64.796875 32.078125 64.796875 
z
" id="DejaVuSans-52"/>
     </defs>
     <g transform="translate(-111.192187 -14.722188)scale(0.1 -0.1)">
      <use xlink:href="#DejaVuSans-32"/>
      <use x="63.623047" xlink:href="#DejaVuSans-33"/>
      <use x="127.246094" xlink:href="#DejaVuSans-20"/>
      <use x="159.033203" xlink:href="#DejaVuSans-2d"/>
      <use x="195.117188" xlink:href="#DejaVuSans-20"/>
      <use x="226.904297" xlink:href="#DejaVuSans-55"/>
      <use x="300.097656" xlink:href="#DejaVuSans-53"/>
      <use x="363.574219" xlink:href="#DejaVuSans-2f"/>
      <use x="397.265625" xlink:href="#DejaVuSans-52"/>
      <use x="466.716797" xlink:href="#DejaVuSans-61"/>
      <use x="527.996094" xlink:href="#DejaVuSans-63"/>
      <use x="582.976562" xlink:href="#DejaVuSans-6b"/>
      <use x="640.886719" xlink:href="#DejaVuSans-73"/>
      <use x="692.986328" xlink:href="#DejaVuSans-70"/>
      <use x="756.462891" xlink:href="#DejaVuSans-61"/>
      <use x="817.742188" xlink:href="#DejaVuSans-63"/>
      <use x="872.722656" xlink:href="#DejaVuSans-65"/>
      <use x="934.246094" xlink:href="#DejaVuSans-20"/>
      <use x="966.033203" xlink:href="#DejaVuSans-4c"/>
      <use x="1021.746094" xlink:href="#DejaVuSans-74"/>
      <use x="1060.955078" xlink:href="#DejaVuSans-64"/>
      <use x="1124.431641" xlink:href="#DejaVuSans-2e"/>
      <use x="1156.21875" xlink:href="#DejaVuSans-20"/>
      <use x="1188.005859" xlink:href="#DejaVuSans-28"/>
      <use x="1227.019531" xlink:href="#DejaVuSans-39"/>
      <use x="1290.642578" xlink:href="#DejaVuSans-2e"/>
      <use x="1322.429688" xlink:href="#DejaVuSans-30"/>
      <use x="1386.052734" xlink:href="#DejaVuSans-20"/>
      <use x="1417.839844" xlink:href="#DejaVuSans-25"/>
      <use x="1512.859375" xlink:href="#DejaVuSans-29"/>
     </g>
    </g>
    <g id="patch_38">
     <path d="M -119.192187 -0.044063 
L -119.192187 -0.044063 
L -119.192187 -7.044063 
L -119.192187 -7.044063 
z
" style="fill:#e377c2;stroke:#ffffff;stroke-linejoin:miter;"/>
    </g>
    <g id="text_42">
     <!-- 24 - US/ServInt (2.6 %) -->
     <g transform="translate(-111.192187 -0.044063)scale(0.1 -0.1)">
      <use xlink:href="#DejaVuSans-32"/>
      <use x="63.623047" xlink:href="#DejaVuSans-34"/>
      <use x="127.246094" xlink:href="#DejaVuSans-20"/>
      <use x="159.033203" xlink:href="#DejaVuSans-2d"/>
      <use x="195.117188" xlink:href="#DejaVuSans-20"/>
      <use x="226.904297" xlink:href="#DejaVuSans-55"/>
      <use x="300.097656" xlink:href="#DejaVuSans-53"/>
      <use x="363.574219" xlink:href="#DejaVuSans-2f"/>
      <use x="397.265625" xlink:href="#DejaVuSans-53"/>
      <use x="460.742188" xlink:href="#DejaVuSans-65"/>
      <use x="522.265625" xlink:href="#DejaVuSans-72"/>
      <use x="563.378906" xlink:href="#DejaVuSans-76"/>
      <use x="622.558594" xlink:href="#DejaVuSans-49"/>
      <use x="652.050781" xlink:href="#DejaVuSans-6e"/>
      <use x="715.429688" xlink:href="#DejaVuSans-74"/>
      <use x="754.638672" xlink:href="#DejaVuSans-20"/>
      <use x="786.425781" xlink:href="#DejaVuSans-28"/>
      <use x="825.439453" xlink:href="#DejaVuSans-32"/>
      <use x="889.0625" xlink:href="#DejaVuSans-2e"/>
      <use x="920.849609" xlink:href="#DejaVuSans-36"/>
      <use x="984.472656" xlink:href="#DejaVuSans-20"/>
      <use x="1016.259766" xlink:href="#DejaVuSans-25"/>
      <use x="1111.279297" xlink:href="#DejaVuSans-29"/>
     </g>
    </g>
    <g id="patch_39">
     <path d="M -119.192187 14.634062 
L -119.192187 14.634062 
L -119.192187 7.634062 
L -119.192187 7.634062 
z
" style="fill:#7f7f7f;stroke:#ffffff;stroke-linejoin:miter;"/>
    </g>
    <g id="text_43">
     <!-- 26 - US/Time Warner Cable Internet LLC (3.4 %) -->
     <defs>
      <path d="M -0.296875 72.90625 
L 61.375 72.90625 
L 61.375 64.59375 
L 35.5 64.59375 
L 35.5 0 
L 25.59375 0 
L 25.59375 64.59375 
L -0.296875 64.59375 
z
" id="DejaVuSans-54"/>
     </defs>
     <g transform="translate(-111.192187 14.634062)scale(0.1 -0.1)">
      <use xlink:href="#DejaVuSans-32"/>
      <use x="63.623047" xlink:href="#DejaVuSans-36"/>
      <use x="127.246094" xlink:href="#DejaVuSans-20"/>
      <use x="159.033203" xlink:href="#DejaVuSans-2d"/>
      <use x="195.117188" xlink:href="#DejaVuSans-20"/>
      <use x="226.904297" xlink:href="#DejaVuSans-55"/>
      <use x="300.097656" xlink:href="#DejaVuSans-53"/>
      <use x="363.574219" xlink:href="#DejaVuSans-2f"/>
      <use x="397.265625" xlink:href="#DejaVuSans-54"/>
      <use x="458.302734" xlink:href="#DejaVuSans-69"/>
      <use x="486.085938" xlink:href="#DejaVuSans-6d"/>
      <use x="583.498047" xlink:href="#DejaVuSans-65"/>
      <use x="645.021484" xlink:href="#DejaVuSans-20"/>
      <use x="676.808594" xlink:href="#DejaVuSans-57"/>
      <use x="775.591797" xlink:href="#DejaVuSans-61"/>
      <use x="836.871094" xlink:href="#DejaVuSans-72"/>
      <use x="877.96875" xlink:href="#DejaVuSans-6e"/>
      <use x="941.347656" xlink:href="#DejaVuSans-65"/>
      <use x="1002.871094" xlink:href="#DejaVuSans-72"/>
      <use x="1043.984375" xlink:href="#DejaVuSans-20"/>
      <use x="1075.771484" xlink:href="#DejaVuSans-43"/>
      <use x="1145.595703" xlink:href="#DejaVuSans-61"/>
      <use x="1206.875" xlink:href="#DejaVuSans-62"/>
      <use x="1270.351562" xlink:href="#DejaVuSans-6c"/>
      <use x="1298.134766" xlink:href="#DejaVuSans-65"/>
      <use x="1359.658203" xlink:href="#DejaVuSans-20"/>
      <use x="1391.445312" xlink:href="#DejaVuSans-49"/>
      <use x="1420.9375" xlink:href="#DejaVuSans-6e"/>
      <use x="1484.316406" xlink:href="#DejaVuSans-74"/>
      <use x="1523.525391" xlink:href="#DejaVuSans-65"/>
      <use x="1585.048828" xlink:href="#DejaVuSans-72"/>
      <use x="1626.146484" xlink:href="#DejaVuSans-6e"/>
      <use x="1689.525391" xlink:href="#DejaVuSans-65"/>
      <use x="1751.048828" xlink:href="#DejaVuSans-74"/>
      <use x="1790.257812" xlink:href="#DejaVuSans-20"/>
      <use x="1822.044922" xlink:href="#DejaVuSans-4c"/>
      <use x="1877.757812" xlink:href="#DejaVuSans-4c"/>
      <use x="1933.470703" xlink:href="#DejaVuSans-43"/>
      <use x="2003.294922" xlink:href="#DejaVuSans-20"/>
      <use x="2035.082031" xlink:href="#DejaVuSans-28"/>
      <use x="2074.095703" xlink:href="#DejaVuSans-33"/>
      <use x="2137.71875" xlink:href="#DejaVuSans-2e"/>
      <use x="2169.505859" xlink:href="#DejaVuSans-34"/>
      <use x="2233.128906" xlink:href="#DejaVuSans-20"/>
      <use x="2264.916016" xlink:href="#DejaVuSans-25"/>
      <use x="2359.935547" xlink:href="#DejaVuSans-29"/>
     </g>
    </g>
    <g id="patch_40">
     <path d="M -119.192187 29.312187 
L -119.192187 29.312187 
L -119.192187 22.312187 
L -119.192187 22.312187 
z
" style="fill:#bcbd22;stroke:#ffffff;stroke-linejoin:miter;"/>
    </g>
    <g id="text_44">
     <!-- 27 - US/Unified Layer (7.1 %) -->
     <g transform="translate(-111.192187 29.312187)scale(0.1 -0.1)">
      <use xlink:href="#DejaVuSans-32"/>
      <use x="63.623047" xlink:href="#DejaVuSans-37"/>
      <use x="127.246094" xlink:href="#DejaVuSans-20"/>
      <use x="159.033203" xlink:href="#DejaVuSans-2d"/>
      <use x="195.117188" xlink:href="#DejaVuSans-20"/>
      <use x="226.904297" xlink:href="#DejaVuSans-55"/>
      <use x="300.097656" xlink:href="#DejaVuSans-53"/>
      <use x="363.574219" xlink:href="#DejaVuSans-2f"/>
      <use x="397.265625" xlink:href="#DejaVuSans-55"/>
      <use x="470.458984" xlink:href="#DejaVuSans-6e"/>
      <use x="533.837891" xlink:href="#DejaVuSans-69"/>
      <use x="561.621094" xlink:href="#DejaVuSans-66"/>
      <use x="596.826172" xlink:href="#DejaVuSans-69"/>
      <use x="624.609375" xlink:href="#DejaVuSans-65"/>
      <use x="686.132812" xlink:href="#DejaVuSans-64"/>
      <use x="749.609375" xlink:href="#DejaVuSans-20"/>
      <use x="781.396484" xlink:href="#DejaVuSans-4c"/>
      <use x="837.109375" xlink:href="#DejaVuSans-61"/>
      <use x="898.388672" xlink:href="#DejaVuSans-79"/>
      <use x="957.568359" xlink:href="#DejaVuSans-65"/>
      <use x="1019.091797" xlink:href="#DejaVuSans-72"/>
      <use x="1060.205078" xlink:href="#DejaVuSans-20"/>
      <use x="1091.992188" xlink:href="#DejaVuSans-28"/>
      <use x="1131.005859" xlink:href="#DejaVuSans-37"/>
      <use x="1194.628906" xlink:href="#DejaVuSans-2e"/>
      <use x="1226.416016" xlink:href="#DejaVuSans-31"/>
      <use x="1290.039062" xlink:href="#DejaVuSans-20"/>
      <use x="1321.826172" xlink:href="#DejaVuSans-25"/>
      <use x="1416.845703" xlink:href="#DejaVuSans-29"/>
     </g>
    </g>
    <g id="patch_41">
     <path d="M -119.192187 43.990312 
L -119.192187 43.990312 
L -119.192187 36.990312 
L -119.192187 36.990312 
z
" style="fill:#17becf;stroke:#ffffff;stroke-linejoin:miter;"/>
    </g>
    <g id="text_45">
     <!-- 99 - ZZ/Other (14.1 %) -->
     <defs>
      <path d="M 5.609375 72.90625 
L 62.890625 72.90625 
L 62.890625 65.375 
L 16.796875 8.296875 
L 64.015625 8.296875 
L 64.015625 0 
L 4.5 0 
L 4.5 7.515625 
L 50.59375 64.59375 
L 5.609375 64.59375 
z
" id="DejaVuSans-5a"/>
      <path d="M 54.890625 33.015625 
L 54.890625 0 
L 45.90625 0 
L 45.90625 32.71875 
Q 45.90625 40.484375 42.875 44.328125 
Q 39.84375 48.1875 33.796875 48.1875 
Q 26.515625 48.1875 22.3125 43.546875 
Q 18.109375 38.921875 18.109375 30.90625 
L 18.109375 0 
L 9.078125 0 
L 9.078125 75.984375 
L 18.109375 75.984375 
L 18.109375 46.1875 
Q 21.34375 51.125 25.703125 53.5625 
Q 30.078125 56 35.796875 56 
Q 45.21875 56 50.046875 50.171875 
Q 54.890625 44.34375 54.890625 33.015625 
z
" id="DejaVuSans-68"/>
     </defs>
     <g transform="translate(-111.192187 43.990312)scale(0.1 -0.1)">
      <use xlink:href="#DejaVuSans-39"/>
      <use x="63.623047" xlink:href="#DejaVuSans-39"/>
      <use x="127.246094" xlink:href="#DejaVuSans-20"/>
      <use x="159.033203" xlink:href="#DejaVuSans-2d"/>
      <use x="195.117188" xlink:href="#DejaVuSans-20"/>
      <use x="226.904297" xlink:href="#DejaVuSans-5a"/>
      <use x="295.410156" xlink:href="#DejaVuSans-5a"/>
      <use x="363.916016" xlink:href="#DejaVuSans-2f"/>
      <use x="397.607422" xlink:href="#DejaVuSans-4f"/>
      <use x="476.318359" xlink:href="#DejaVuSans-74"/>
      <use x="515.527344" xlink:href="#DejaVuSans-68"/>
      <use x="578.90625" xlink:href="#DejaVuSans-65"/>
      <use x="640.429688" xlink:href="#DejaVuSans-72"/>
      <use x="681.542969" xlink:href="#DejaVuSans-20"/>
      <use x="713.330078" xlink:href="#DejaVuSans-28"/>
      <use x="752.34375" xlink:href="#DejaVuSans-31"/>
      <use x="815.966797" xlink:href="#DejaVuSans-34"/>
      <use x="879.589844" xlink:href="#DejaVuSans-2e"/>
      <use x="911.376953" xlink:href="#DejaVuSans-31"/>
      <use x="975" xlink:href="#DejaVuSans-20"/>
      <use x="1006.787109" xlink:href="#DejaVuSans-25"/>
      <use x="1101.806641" xlink:href="#DejaVuSans-29"/>
     </g>
    </g>
   </g>
  </g>
 </g>
 <defs>
  <clipPath id="p2222926e32">
   <rect height="326.16" width="334.8" x="54" y="51.84"/>
  </clipPath>
 </defs>
</svg>
