<?xml version="1.0" encoding="utf-8" standalone="no"?>
<!DOCTYPE svg PUBLIC "-//W3C//DTD SVG 1.1//EN"
  "http://www.w3.org/Graphics/SVG/1.1/DTD/svg11.dtd">
<!-- Created with matplotlib (http://matplotlib.org/) -->
<svg height="432pt" version="1.1" viewBox="0 0 432 432" width="432pt" xmlns="http://www.w3.org/2000/svg" xmlns:xlink="http://www.w3.org/1999/xlink">
 <defs>
  <style type="text/css">
*{stroke-linecap:butt;stroke-linejoin:round;}
  </style>
 </defs>
 <g id="figure_1">
  <g id="patch_1">
   <path d="M 0 432 
L 432 432 
L 432 0 
L 0 0 
z
" style="fill:#ffffff;"/>
  </g>
  <g id="axes_1">
   <g id="patch_2">
    <path d="M 343.853721 211.635127 
C 337.320811 205.102217 330.027285 199.377028 322.129783 194.582519 
C 314.232282 189.78801 305.787752 185.958752 296.977553 183.176985 
L 288.955471 208.583908 
C 295.732547 210.723729 302.22834 213.669312 308.303341 217.357396 
C 314.378341 221.045479 319.988746 225.449471 325.014062 230.474786 
L 343.853721 211.635127 
z
" style="fill:#3182bd;stroke:#ffffff;stroke-linejoin:miter;"/>
   </g>
   <g id="patch_3">
    <path d="M 296.977553 183.176985 
C 283.629511 178.962422 269.625606 177.210238 255.650652 178.006119 
C 241.675698 178.802 227.961269 182.132757 215.178024 187.835511 
C 202.394778 193.538265 190.754543 201.518517 180.826544 211.386019 
C 170.898546 221.253522 162.847298 232.844765 157.066519 245.592916 
C 151.285741 258.341068 147.871223 272.034883 146.989942 286.004711 
C 146.108661 299.97454 147.77522 313.988892 151.908121 327.362444 
C 156.041022 340.735996 162.571781 353.247139 171.181032 364.284057 
C 179.790284 375.320974 190.335367 384.700778 202.30061 391.964781 
C 214.265853 399.228783 227.452983 404.256614 241.217129 406.802405 
C 254.981275 409.348196 269.094355 409.369762 282.866217 406.866047 
C 296.638079 404.362332 309.840513 399.374825 321.827899 392.147423 
C 333.815286 384.920021 344.388985 375.572487 353.031925 364.561932 
C 361.674866 353.551376 368.243829 341.06025 372.417582 327.699391 
C 376.591334 314.338532 378.300714 300.329338 377.46213 286.356881 
C 376.623545 272.384425 373.250893 258.680238 367.509101 245.91448 
C 361.767308 233.148722 353.751521 221.532928 343.853725 211.635131 
L 325.014065 230.474789 
C 332.627754 238.08848 338.793744 247.023705 343.210508 256.843519 
C 347.627271 266.663334 350.221619 277.205015 350.866684 287.953059 
C 351.511749 298.701102 350.196841 309.477405 346.986262 319.754989 
C 343.775684 330.032573 338.722635 339.641131 332.074219 348.11079 
C 325.425803 356.580448 317.292188 363.770859 308.071122 369.330398 
C 298.850056 374.889938 288.694337 378.726482 278.100597 380.652417 
C 267.506857 382.578351 256.650642 382.561763 246.062837 380.603462 
C 235.475033 378.645161 225.331086 374.777599 216.127053 369.189905 
C 206.92302 363.60221 198.811418 356.386977 192.188917 347.89704 
C 185.566416 339.407103 180.542755 329.783147 177.3636 319.4958 
C 174.184446 309.208452 172.902477 298.428181 173.580386 287.682159 
C 174.258294 276.936137 176.884846 266.402433 181.331599 256.596163 
C 185.778352 246.789892 191.971619 237.873552 199.608541 230.283165 
C 207.245463 222.692778 216.19949 216.554123 226.032756 212.167389 
C 235.866022 207.780656 246.415583 205.218535 257.165547 204.606319 
C 267.915512 203.994103 278.687746 205.341936 288.955471 208.583908 
L 296.977553 183.176985 
z
" style="fill:#e6550d;stroke:#ffffff;stroke-linejoin:miter;"/>
   </g>
   <g id="patch_4">
    <path d="M 325.014062 230.474786 
C 319.988746 225.449471 314.378341 221.045479 308.303341 217.357396 
C 302.22834 213.669312 295.732547 210.723729 288.955471 208.583908 
L 280.933389 233.990831 
C 285.677342 235.488705 290.224397 237.550613 294.476898 240.132272 
C 298.729398 242.713931 302.656682 245.796725 306.174403 249.314446 
L 325.014062 230.474786 
z
" style="fill:#1f77b4;stroke:#ffffff;stroke-linejoin:miter;"/>
   </g>
   <g id="patch_5">
    <path d="M 288.955471 208.583908 
C 271.730979 203.145379 253.25046 203.088902 235.993049 208.422053 
C 218.735638 213.755204 203.509143 224.228343 192.356176 238.436511 
L 213.313883 254.887653 
C 221.12096 244.941935 231.779506 237.610738 243.859694 233.877532 
C 255.939881 230.144327 268.876244 230.18386 280.933389 233.990831 
L 288.955471 208.583908 
z
" style="fill:#ff7f0e;stroke:#ffffff;stroke-linejoin:miter;"/>
   </g>
   <g id="patch_6">
    <path d="M 192.356176 238.436511 
C 186.049863 246.470353 181.176398 255.532165 177.950513 265.222669 
C 174.724628 274.913173 173.194409 285.087922 173.42728 295.298602 
L 200.063656 294.691117 
C 199.900646 287.543641 200.971799 280.421316 203.229918 273.637963 
C 205.488038 266.85461 208.899463 260.511342 213.313883 254.887653 
L 192.356176 238.436511 
z
" style="fill:#2ca02c;stroke:#ffffff;stroke-linejoin:miter;"/>
   </g>
   <g id="patch_7">
    <path d="M 173.42728 295.298602 
C 173.648647 305.004835 175.46014 314.609411 178.789547 323.729446 
C 182.118953 332.84948 186.921434 341.362151 193.00554 348.928102 
L 213.768438 332.231767 
C 209.509563 326.935601 206.147827 320.976731 203.817242 314.592707 
C 201.486658 308.208683 200.218612 301.48548 200.063656 294.691117 
L 173.42728 295.298602 
z
" style="fill:#d62728;stroke:#ffffff;stroke-linejoin:miter;"/>
   </g>
   <g id="patch_8">
    <path d="M 193.00554 348.928102 
C 204.726407 363.503704 220.757457 374.010738 238.799301 378.942142 
C 256.841145 383.873546 275.987868 382.981706 293.493185 376.39454 
C 310.998502 369.807374 325.983439 357.855637 336.298652 342.25361 
C 346.613866 326.651583 351.74141 308.182673 350.945822 289.495941 
L 324.326634 290.629254 
C 324.883546 303.709966 321.294266 316.638203 314.073616 327.559622 
C 306.852967 338.481041 296.363511 346.847257 284.109789 351.458273 
C 271.856067 356.069289 258.453361 356.693578 245.82407 353.241595 
C 233.194779 349.789612 221.973044 342.434688 213.768438 332.231767 
L 193.00554 348.928102 
z
" style="fill:#9467bd;stroke:#ffffff;stroke-linejoin:miter;"/>
   </g>
   <g id="patch_9">
    <path d="M 350.945822 289.495941 
C 350.47677 278.478891 347.959932 267.644944 343.524302 257.54937 
C 339.088673 247.453797 332.811348 238.272071 325.014059 230.474783 
L 306.174401 249.314444 
C 311.632503 254.772545 316.02663 261.199753 319.131571 268.266654 
C 322.236512 275.333556 323.998299 282.917319 324.326634 290.629254 
L 350.945822 289.495941 
z
" style="fill:#8c564b;stroke:#ffffff;stroke-linejoin:miter;"/>
   </g>
   <g id="patch_10">
    <path clip-path="url(#pb1ae2c48b8)" d="M 262.215198 355.441354 
C 278.702266 355.441354 294.516285 348.890973 306.174403 337.232856 
C 317.83252 325.574738 324.382902 309.760718 324.382902 293.273651 
C 324.382902 276.786583 317.83252 260.972563 306.174403 249.314446 
C 294.516285 237.656328 278.702266 231.105947 262.215198 231.105947 
C 245.72813 231.105947 229.91411 237.656328 218.255993 249.314446 
C 206.597875 260.972563 200.047494 276.786583 200.047494 293.273651 
C 200.047494 309.760718 206.597875 325.574738 218.255993 337.232856 
C 229.91411 348.890973 245.72813 355.441354 262.215198 355.441354 
z
" style="fill:#ffffff;"/>
   </g>
   <g id="matplotlib.axis_1"/>
   <g id="matplotlib.axis_2"/>
   <g id="text_1">
    <!-- IE -->
    <defs>
     <path d="M 9.8125 72.90625 
L 19.671875 72.90625 
L 19.671875 0 
L 9.8125 0 
z
" id="DejaVuSans-49"/>
     <path d="M 9.8125 72.90625 
L 55.90625 72.90625 
L 55.90625 64.59375 
L 19.671875 64.59375 
L 19.671875 43.015625 
L 54.390625 43.015625 
L 54.390625 34.71875 
L 19.671875 34.71875 
L 19.671875 8.296875 
L 56.78125 8.296875 
L 56.78125 0 
L 9.8125 0 
z
" id="DejaVuSans-45"/>
    </defs>
    <g transform="translate(328.121242 187.472781)scale(0.1 -0.1)">
     <use xlink:href="#DejaVuSans-49"/>
     <use x="29.492188" xlink:href="#DejaVuSans-45"/>
    </g>
   </g>
   <g id="text_2">
    <!-- 7.6% -->
    <defs>
     <path d="M 8.203125 72.90625 
L 55.078125 72.90625 
L 55.078125 68.703125 
L 28.609375 0 
L 18.3125 0 
L 43.21875 64.59375 
L 8.203125 64.59375 
z
" id="DejaVuSans-37"/>
     <path d="M 10.6875 12.40625 
L 21 12.40625 
L 21 0 
L 10.6875 0 
z
" id="DejaVuSans-2e"/>
     <path d="M 33.015625 40.375 
Q 26.375 40.375 22.484375 35.828125 
Q 18.609375 31.296875 18.609375 23.390625 
Q 18.609375 15.53125 22.484375 10.953125 
Q 26.375 6.390625 33.015625 6.390625 
Q 39.65625 6.390625 43.53125 10.953125 
Q 47.40625 15.53125 47.40625 23.390625 
Q 47.40625 31.296875 43.53125 35.828125 
Q 39.65625 40.375 33.015625 40.375 
z
M 52.59375 71.296875 
L 52.59375 62.3125 
Q 48.875 64.0625 45.09375 64.984375 
Q 41.3125 65.921875 37.59375 65.921875 
Q 27.828125 65.921875 22.671875 59.328125 
Q 17.53125 52.734375 16.796875 39.40625 
Q 19.671875 43.65625 24.015625 45.921875 
Q 28.375 48.1875 33.59375 48.1875 
Q 44.578125 48.1875 50.953125 41.515625 
Q 57.328125 34.859375 57.328125 23.390625 
Q 57.328125 12.15625 50.6875 5.359375 
Q 44.046875 -1.421875 33.015625 -1.421875 
Q 20.359375 -1.421875 13.671875 8.265625 
Q 6.984375 17.96875 6.984375 36.375 
Q 6.984375 53.65625 15.1875 63.9375 
Q 23.390625 74.21875 37.203125 74.21875 
Q 40.921875 74.21875 44.703125 73.484375 
Q 48.484375 72.75 52.59375 71.296875 
z
" id="DejaVuSans-36"/>
     <path d="M 72.703125 32.078125 
Q 68.453125 32.078125 66.03125 28.46875 
Q 63.625 24.859375 63.625 18.40625 
Q 63.625 12.0625 66.03125 8.421875 
Q 68.453125 4.78125 72.703125 4.78125 
Q 76.859375 4.78125 79.265625 8.421875 
Q 81.6875 12.0625 81.6875 18.40625 
Q 81.6875 24.8125 79.265625 28.4375 
Q 76.859375 32.078125 72.703125 32.078125 
z
M 72.703125 38.28125 
Q 80.421875 38.28125 84.953125 32.90625 
Q 89.5 27.546875 89.5 18.40625 
Q 89.5 9.28125 84.9375 3.921875 
Q 80.375 -1.421875 72.703125 -1.421875 
Q 64.890625 -1.421875 60.34375 3.921875 
Q 55.8125 9.28125 55.8125 18.40625 
Q 55.8125 27.59375 60.375 32.9375 
Q 64.9375 38.28125 72.703125 38.28125 
z
M 22.3125 68.015625 
Q 18.109375 68.015625 15.6875 64.375 
Q 13.28125 60.75 13.28125 54.390625 
Q 13.28125 47.953125 15.671875 44.328125 
Q 18.0625 40.71875 22.3125 40.71875 
Q 26.5625 40.71875 28.96875 44.328125 
Q 31.390625 47.953125 31.390625 54.390625 
Q 31.390625 60.6875 28.953125 64.34375 
Q 26.515625 68.015625 22.3125 68.015625 
z
M 66.40625 74.21875 
L 74.21875 74.21875 
L 28.609375 -1.421875 
L 20.796875 -1.421875 
z
M 22.3125 74.21875 
Q 30.03125 74.21875 34.609375 68.875 
Q 39.203125 63.53125 39.203125 54.390625 
Q 39.203125 45.171875 34.640625 39.84375 
Q 30.078125 34.515625 22.3125 34.515625 
Q 14.546875 34.515625 10.03125 39.859375 
Q 5.515625 45.21875 5.515625 54.390625 
Q 5.515625 63.484375 10.046875 68.84375 
Q 14.59375 74.21875 22.3125 74.21875 
z
" id="DejaVuSans-25"/>
    </defs>
    <g transform="translate(303.435981 207.211007)scale(0.1 -0.1)">
     <use xlink:href="#DejaVuSans-37"/>
     <use x="63.623047" xlink:href="#DejaVuSans-2e"/>
     <use x="95.410156" xlink:href="#DejaVuSans-36"/>
     <use x="159.033203" xlink:href="#DejaVuSans-25"/>
    </g>
   </g>
   <g id="text_3">
    <!-- ZA -->
    <defs>
     <path d="M 5.609375 72.90625 
L 62.890625 72.90625 
L 62.890625 65.375 
L 16.796875 8.296875 
L 64.015625 8.296875 
L 64.015625 0 
L 4.5 0 
L 4.5 7.515625 
L 50.59375 64.59375 
L 5.609375 64.59375 
z
" id="DejaVuSans-5a"/>
     <path d="M 34.1875 63.1875 
L 20.796875 26.90625 
L 47.609375 26.90625 
z
M 28.609375 72.90625 
L 39.796875 72.90625 
L 67.578125 0 
L 57.328125 0 
L 50.6875 18.703125 
L 17.828125 18.703125 
L 11.1875 0 
L 0.78125 0 
z
" id="DejaVuSans-41"/>
    </defs>
    <g transform="translate(182.618526 404.593269)scale(0.1 -0.1)">
     <use xlink:href="#DejaVuSans-5a"/>
     <use x="68.505859" xlink:href="#DejaVuSans-41"/>
    </g>
   </g>
   <g id="text_4">
    <!-- 92.4% -->
    <defs>
     <path d="M 10.984375 1.515625 
L 10.984375 10.5 
Q 14.703125 8.734375 18.5 7.8125 
Q 22.3125 6.890625 25.984375 6.890625 
Q 35.75 6.890625 40.890625 13.453125 
Q 46.046875 20.015625 46.78125 33.40625 
Q 43.953125 29.203125 39.59375 26.953125 
Q 35.25 24.703125 29.984375 24.703125 
Q 19.046875 24.703125 12.671875 31.3125 
Q 6.296875 37.9375 6.296875 49.421875 
Q 6.296875 60.640625 12.9375 67.421875 
Q 19.578125 74.21875 30.609375 74.21875 
Q 43.265625 74.21875 49.921875 64.515625 
Q 56.59375 54.828125 56.59375 36.375 
Q 56.59375 19.140625 48.40625 8.859375 
Q 40.234375 -1.421875 26.421875 -1.421875 
Q 22.703125 -1.421875 18.890625 -0.6875 
Q 15.09375 0.046875 10.984375 1.515625 
z
M 30.609375 32.421875 
Q 37.25 32.421875 41.125 36.953125 
Q 45.015625 41.5 45.015625 49.421875 
Q 45.015625 57.28125 41.125 61.84375 
Q 37.25 66.40625 30.609375 66.40625 
Q 23.96875 66.40625 20.09375 61.84375 
Q 16.21875 57.28125 16.21875 49.421875 
Q 16.21875 41.5 20.09375 36.953125 
Q 23.96875 32.421875 30.609375 32.421875 
z
" id="DejaVuSans-39"/>
     <path d="M 19.1875 8.296875 
L 53.609375 8.296875 
L 53.609375 0 
L 7.328125 0 
L 7.328125 8.296875 
Q 12.9375 14.109375 22.625 23.890625 
Q 32.328125 33.6875 34.8125 36.53125 
Q 39.546875 41.84375 41.421875 45.53125 
Q 43.3125 49.21875 43.3125 52.78125 
Q 43.3125 58.59375 39.234375 62.25 
Q 35.15625 65.921875 28.609375 65.921875 
Q 23.96875 65.921875 18.8125 64.3125 
Q 13.671875 62.703125 7.8125 59.421875 
L 7.8125 69.390625 
Q 13.765625 71.78125 18.9375 73 
Q 24.125 74.21875 28.421875 74.21875 
Q 39.75 74.21875 46.484375 68.546875 
Q 53.21875 62.890625 53.21875 53.421875 
Q 53.21875 48.921875 51.53125 44.890625 
Q 49.859375 40.875 45.40625 35.40625 
Q 44.1875 33.984375 37.640625 27.21875 
Q 31.109375 20.453125 19.1875 8.296875 
z
" id="DejaVuSans-32"/>
     <path d="M 37.796875 64.3125 
L 12.890625 25.390625 
L 37.796875 25.390625 
z
M 35.203125 72.90625 
L 47.609375 72.90625 
L 47.609375 25.390625 
L 58.015625 25.390625 
L 58.015625 17.1875 
L 47.609375 17.1875 
L 47.609375 0 
L 37.796875 0 
L 37.796875 17.1875 
L 4.890625 17.1875 
L 4.890625 26.703125 
z
" id="DejaVuSans-34"/>
    </defs>
    <g transform="translate(192.408475 384.855043)scale(0.1 -0.1)">
     <use xlink:href="#DejaVuSans-39"/>
     <use x="63.623047" xlink:href="#DejaVuSans-32"/>
     <use x="127.246094" xlink:href="#DejaVuSans-2e"/>
     <use x="159.033203" xlink:href="#DejaVuSans-34"/>
     <use x="222.65625" xlink:href="#DejaVuSans-25"/>
    </g>
   </g>
   <g id="text_5">
    <!-- 0 -->
    <defs>
     <path d="M 31.78125 66.40625 
Q 24.171875 66.40625 20.328125 58.90625 
Q 16.5 51.421875 16.5 36.375 
Q 16.5 21.390625 20.328125 13.890625 
Q 24.171875 6.390625 31.78125 6.390625 
Q 39.453125 6.390625 43.28125 13.890625 
Q 47.125 21.390625 47.125 36.375 
Q 47.125 51.421875 43.28125 58.90625 
Q 39.453125 66.40625 31.78125 66.40625 
z
M 31.78125 74.21875 
Q 44.046875 74.21875 50.515625 64.515625 
Q 56.984375 54.828125 56.984375 36.375 
Q 56.984375 17.96875 50.515625 8.265625 
Q 44.046875 -1.421875 31.78125 -1.421875 
Q 19.53125 -1.421875 13.0625 8.265625 
Q 6.59375 17.96875 6.59375 36.375 
Q 6.59375 54.828125 13.0625 64.515625 
Q 19.53125 74.21875 31.78125 74.21875 
z
" id="DejaVuSans-30"/>
    </defs>
    <g transform="translate(299.085712 235.300022)scale(0.1 -0.1)">
     <use xlink:href="#DejaVuSans-30"/>
    </g>
   </g>
   <g id="text_6">
    <!-- 1 -->
    <defs>
     <path d="M 12.40625 8.296875 
L 28.515625 8.296875 
L 28.515625 63.921875 
L 10.984375 60.40625 
L 10.984375 69.390625 
L 28.421875 72.90625 
L 38.28125 72.90625 
L 38.28125 8.296875 
L 54.390625 8.296875 
L 54.390625 0 
L 12.40625 0 
z
" id="DejaVuSans-31"/>
    </defs>
    <g transform="translate(234.874979 228.151748)scale(0.1 -0.1)">
     <use xlink:href="#DejaVuSans-31"/>
    </g>
   </g>
   <g id="text_7">
    <!-- 2 -->
    <g transform="translate(188.44095 273.59224)scale(0.1 -0.1)">
     <use xlink:href="#DejaVuSans-32"/>
    </g>
   </g>
   <g id="text_8">
    <!-- 3 -->
    <defs>
     <path d="M 40.578125 39.3125 
Q 47.65625 37.796875 51.625 33 
Q 55.609375 28.21875 55.609375 21.1875 
Q 55.609375 10.40625 48.1875 4.484375 
Q 40.765625 -1.421875 27.09375 -1.421875 
Q 22.515625 -1.421875 17.65625 -0.515625 
Q 12.796875 0.390625 7.625 2.203125 
L 7.625 11.71875 
Q 11.71875 9.328125 16.59375 8.109375 
Q 21.484375 6.890625 26.8125 6.890625 
Q 36.078125 6.890625 40.9375 10.546875 
Q 45.796875 14.203125 45.796875 21.1875 
Q 45.796875 27.640625 41.28125 31.265625 
Q 36.765625 34.90625 28.71875 34.90625 
L 20.21875 34.90625 
L 20.21875 43.015625 
L 29.109375 43.015625 
Q 36.375 43.015625 40.234375 45.921875 
Q 44.09375 48.828125 44.09375 54.296875 
Q 44.09375 59.90625 40.109375 62.90625 
Q 36.140625 65.921875 28.71875 65.921875 
Q 24.65625 65.921875 20.015625 65.03125 
Q 15.375 64.15625 9.8125 62.3125 
L 9.8125 71.09375 
Q 15.4375 72.65625 20.34375 73.4375 
Q 25.25 74.21875 29.59375 74.21875 
Q 40.828125 74.21875 47.359375 69.109375 
Q 53.90625 64.015625 53.90625 55.328125 
Q 53.90625 49.265625 50.4375 45.09375 
Q 46.96875 40.921875 40.578125 39.3125 
z
" id="DejaVuSans-33"/>
    </defs>
    <g transform="translate(189.112177 320.397662)scale(0.1 -0.1)">
     <use xlink:href="#DejaVuSans-33"/>
    </g>
   </g>
   <g id="text_9">
    <!-- 4 -->
    <g transform="translate(287.237587 362.529737)scale(0.1 -0.1)">
     <use xlink:href="#DejaVuSans-34"/>
    </g>
   </g>
   <g id="text_10">
    <!-- 5 -->
    <defs>
     <path d="M 10.796875 72.90625 
L 49.515625 72.90625 
L 49.515625 64.59375 
L 19.828125 64.59375 
L 19.828125 46.734375 
Q 21.96875 47.46875 24.109375 47.828125 
Q 26.265625 48.1875 28.421875 48.1875 
Q 40.625 48.1875 47.75 41.5 
Q 54.890625 34.8125 54.890625 23.390625 
Q 54.890625 11.625 47.5625 5.09375 
Q 40.234375 -1.421875 26.90625 -1.421875 
Q 22.3125 -1.421875 17.546875 -0.640625 
Q 12.796875 0.140625 7.71875 1.703125 
L 7.71875 11.625 
Q 12.109375 9.234375 16.796875 8.0625 
Q 21.484375 6.890625 26.703125 6.890625 
Q 35.15625 6.890625 40.078125 11.328125 
Q 45.015625 15.765625 45.015625 23.390625 
Q 45.015625 31 40.078125 35.4375 
Q 35.15625 39.890625 26.703125 39.890625 
Q 22.75 39.890625 18.8125 39.015625 
Q 14.890625 38.140625 10.796875 36.28125 
z
" id="DejaVuSans-35"/>
    </defs>
    <g transform="translate(327.262481 267.453601)scale(0.1 -0.1)">
     <use xlink:href="#DejaVuSans-35"/>
    </g>
   </g>
   <g id="text_11">
    <!-- Source country:ZA -->
    <defs>
     <path d="M 53.515625 70.515625 
L 53.515625 60.890625 
Q 47.90625 63.578125 42.921875 64.890625 
Q 37.9375 66.21875 33.296875 66.21875 
Q 25.25 66.21875 20.875 63.09375 
Q 16.5 59.96875 16.5 54.203125 
Q 16.5 49.359375 19.40625 46.890625 
Q 22.3125 44.4375 30.421875 42.921875 
L 36.375 41.703125 
Q 47.40625 39.59375 52.65625 34.296875 
Q 57.90625 29 57.90625 20.125 
Q 57.90625 9.515625 50.796875 4.046875 
Q 43.703125 -1.421875 29.984375 -1.421875 
Q 24.8125 -1.421875 18.96875 -0.25 
Q 13.140625 0.921875 6.890625 3.21875 
L 6.890625 13.375 
Q 12.890625 10.015625 18.65625 8.296875 
Q 24.421875 6.59375 29.984375 6.59375 
Q 38.421875 6.59375 43.015625 9.90625 
Q 47.609375 13.234375 47.609375 19.390625 
Q 47.609375 24.75 44.3125 27.78125 
Q 41.015625 30.8125 33.5 32.328125 
L 27.484375 33.5 
Q 16.453125 35.6875 11.515625 40.375 
Q 6.59375 45.0625 6.59375 53.421875 
Q 6.59375 63.09375 13.40625 68.65625 
Q 20.21875 74.21875 32.171875 74.21875 
Q 37.3125 74.21875 42.625 73.28125 
Q 47.953125 72.359375 53.515625 70.515625 
z
" id="DejaVuSans-53"/>
     <path d="M 30.609375 48.390625 
Q 23.390625 48.390625 19.1875 42.75 
Q 14.984375 37.109375 14.984375 27.296875 
Q 14.984375 17.484375 19.15625 11.84375 
Q 23.34375 6.203125 30.609375 6.203125 
Q 37.796875 6.203125 41.984375 11.859375 
Q 46.1875 17.53125 46.1875 27.296875 
Q 46.1875 37.015625 41.984375 42.703125 
Q 37.796875 48.390625 30.609375 48.390625 
z
M 30.609375 56 
Q 42.328125 56 49.015625 48.375 
Q 55.71875 40.765625 55.71875 27.296875 
Q 55.71875 13.875 49.015625 6.21875 
Q 42.328125 -1.421875 30.609375 -1.421875 
Q 18.84375 -1.421875 12.171875 6.21875 
Q 5.515625 13.875 5.515625 27.296875 
Q 5.515625 40.765625 12.171875 48.375 
Q 18.84375 56 30.609375 56 
z
" id="DejaVuSans-6f"/>
     <path d="M 8.5 21.578125 
L 8.5 54.6875 
L 17.484375 54.6875 
L 17.484375 21.921875 
Q 17.484375 14.15625 20.5 10.265625 
Q 23.53125 6.390625 29.59375 6.390625 
Q 36.859375 6.390625 41.078125 11.03125 
Q 45.3125 15.671875 45.3125 23.6875 
L 45.3125 54.6875 
L 54.296875 54.6875 
L 54.296875 0 
L 45.3125 0 
L 45.3125 8.40625 
Q 42.046875 3.421875 37.71875 1 
Q 33.40625 -1.421875 27.6875 -1.421875 
Q 18.265625 -1.421875 13.375 4.4375 
Q 8.5 10.296875 8.5 21.578125 
z
M 31.109375 56 
z
" id="DejaVuSans-75"/>
     <path d="M 41.109375 46.296875 
Q 39.59375 47.171875 37.8125 47.578125 
Q 36.03125 48 33.890625 48 
Q 26.265625 48 22.1875 43.046875 
Q 18.109375 38.09375 18.109375 28.8125 
L 18.109375 0 
L 9.078125 0 
L 9.078125 54.6875 
L 18.109375 54.6875 
L 18.109375 46.1875 
Q 20.953125 51.171875 25.484375 53.578125 
Q 30.03125 56 36.53125 56 
Q 37.453125 56 38.578125 55.875 
Q 39.703125 55.765625 41.0625 55.515625 
z
" id="DejaVuSans-72"/>
     <path d="M 48.78125 52.59375 
L 48.78125 44.1875 
Q 44.96875 46.296875 41.140625 47.34375 
Q 37.3125 48.390625 33.40625 48.390625 
Q 24.65625 48.390625 19.8125 42.84375 
Q 14.984375 37.3125 14.984375 27.296875 
Q 14.984375 17.28125 19.8125 11.734375 
Q 24.65625 6.203125 33.40625 6.203125 
Q 37.3125 6.203125 41.140625 7.25 
Q 44.96875 8.296875 48.78125 10.40625 
L 48.78125 2.09375 
Q 45.015625 0.34375 40.984375 -0.53125 
Q 36.96875 -1.421875 32.421875 -1.421875 
Q 20.0625 -1.421875 12.78125 6.34375 
Q 5.515625 14.109375 5.515625 27.296875 
Q 5.515625 40.671875 12.859375 48.328125 
Q 20.21875 56 33.015625 56 
Q 37.15625 56 41.109375 55.140625 
Q 45.0625 54.296875 48.78125 52.59375 
z
" id="DejaVuSans-63"/>
     <path d="M 56.203125 29.59375 
L 56.203125 25.203125 
L 14.890625 25.203125 
Q 15.484375 15.921875 20.484375 11.0625 
Q 25.484375 6.203125 34.421875 6.203125 
Q 39.59375 6.203125 44.453125 7.46875 
Q 49.3125 8.734375 54.109375 11.28125 
L 54.109375 2.78125 
Q 49.265625 0.734375 44.1875 -0.34375 
Q 39.109375 -1.421875 33.890625 -1.421875 
Q 20.796875 -1.421875 13.15625 6.1875 
Q 5.515625 13.8125 5.515625 26.8125 
Q 5.515625 40.234375 12.765625 48.109375 
Q 20.015625 56 32.328125 56 
Q 43.359375 56 49.78125 48.890625 
Q 56.203125 41.796875 56.203125 29.59375 
z
M 47.21875 32.234375 
Q 47.125 39.59375 43.09375 43.984375 
Q 39.0625 48.390625 32.421875 48.390625 
Q 24.90625 48.390625 20.390625 44.140625 
Q 15.875 39.890625 15.1875 32.171875 
z
" id="DejaVuSans-65"/>
     <path id="DejaVuSans-20"/>
     <path d="M 54.890625 33.015625 
L 54.890625 0 
L 45.90625 0 
L 45.90625 32.71875 
Q 45.90625 40.484375 42.875 44.328125 
Q 39.84375 48.1875 33.796875 48.1875 
Q 26.515625 48.1875 22.3125 43.546875 
Q 18.109375 38.921875 18.109375 30.90625 
L 18.109375 0 
L 9.078125 0 
L 9.078125 54.6875 
L 18.109375 54.6875 
L 18.109375 46.1875 
Q 21.34375 51.125 25.703125 53.5625 
Q 30.078125 56 35.796875 56 
Q 45.21875 56 50.046875 50.171875 
Q 54.890625 44.34375 54.890625 33.015625 
z
" id="DejaVuSans-6e"/>
     <path d="M 18.3125 70.21875 
L 18.3125 54.6875 
L 36.8125 54.6875 
L 36.8125 47.703125 
L 18.3125 47.703125 
L 18.3125 18.015625 
Q 18.3125 11.328125 20.140625 9.421875 
Q 21.96875 7.515625 27.59375 7.515625 
L 36.8125 7.515625 
L 36.8125 0 
L 27.59375 0 
Q 17.1875 0 13.234375 3.875 
Q 9.28125 7.765625 9.28125 18.015625 
L 9.28125 47.703125 
L 2.6875 47.703125 
L 2.6875 54.6875 
L 9.28125 54.6875 
L 9.28125 70.21875 
z
" id="DejaVuSans-74"/>
     <path d="M 32.171875 -5.078125 
Q 28.375 -14.84375 24.75 -17.8125 
Q 21.140625 -20.796875 15.09375 -20.796875 
L 7.90625 -20.796875 
L 7.90625 -13.28125 
L 13.1875 -13.28125 
Q 16.890625 -13.28125 18.9375 -11.515625 
Q 21 -9.765625 23.484375 -3.21875 
L 25.09375 0.875 
L 2.984375 54.6875 
L 12.5 54.6875 
L 29.59375 11.921875 
L 46.6875 54.6875 
L 56.203125 54.6875 
z
" id="DejaVuSans-79"/>
     <path d="M 11.71875 12.40625 
L 22.015625 12.40625 
L 22.015625 0 
L 11.71875 0 
z
M 11.71875 51.703125 
L 22.015625 51.703125 
L 22.015625 39.3125 
L 11.71875 39.3125 
z
" id="DejaVuSans-3a"/>
    </defs>
    <g transform="translate(206.385 162.88)scale(0.12 -0.12)">
     <use xlink:href="#DejaVuSans-53"/>
     <use x="63.476562" xlink:href="#DejaVuSans-6f"/>
     <use x="124.658203" xlink:href="#DejaVuSans-75"/>
     <use x="188.037109" xlink:href="#DejaVuSans-72"/>
     <use x="229.119141" xlink:href="#DejaVuSans-63"/>
     <use x="284.099609" xlink:href="#DejaVuSans-65"/>
     <use x="345.623047" xlink:href="#DejaVuSans-20"/>
     <use x="377.410156" xlink:href="#DejaVuSans-63"/>
     <use x="432.390625" xlink:href="#DejaVuSans-6f"/>
     <use x="493.572266" xlink:href="#DejaVuSans-75"/>
     <use x="556.951172" xlink:href="#DejaVuSans-6e"/>
     <use x="620.330078" xlink:href="#DejaVuSans-74"/>
     <use x="659.539062" xlink:href="#DejaVuSans-72"/>
     <use x="700.652344" xlink:href="#DejaVuSans-79"/>
     <use x="759.722656" xlink:href="#DejaVuSans-3a"/>
     <use x="793.414062" xlink:href="#DejaVuSans-5a"/>
     <use x="861.919922" xlink:href="#DejaVuSans-41"/>
    </g>
   </g>
   <g id="legend_1">
    <g id="patch_11">
     <path d="M 5.997656 140.53875 
L 177.457031 140.53875 
Q 179.457031 140.53875 179.457031 138.53875 
L 179.457031 51.47 
Q 179.457031 49.47 177.457031 49.47 
L 5.997656 49.47 
Q 3.997656 49.47 3.997656 51.47 
L 3.997656 138.53875 
Q 3.997656 140.53875 5.997656 140.53875 
z
" style="fill:#ffffff;opacity:0.8;stroke:#cccccc;stroke-linejoin:miter;"/>
    </g>
    <g id="patch_12">
     <path d="M 7.997656 61.068437 
L 7.997656 61.068437 
L 7.997656 54.068437 
L 7.997656 54.068437 
z
" style="fill:#3182bd;stroke:#ffffff;stroke-linejoin:miter;"/>
    </g>
    <g id="text_12">
     <!-- 0 - IE/Amazon.com (7.6 %) -->
     <defs>
      <path d="M 4.890625 31.390625 
L 31.203125 31.390625 
L 31.203125 23.390625 
L 4.890625 23.390625 
z
" id="DejaVuSans-2d"/>
      <path d="M 25.390625 72.90625 
L 33.6875 72.90625 
L 8.296875 -9.28125 
L 0 -9.28125 
z
" id="DejaVuSans-2f"/>
      <path d="M 52 44.1875 
Q 55.375 50.25 60.0625 53.125 
Q 64.75 56 71.09375 56 
Q 79.640625 56 84.28125 50.015625 
Q 88.921875 44.046875 88.921875 33.015625 
L 88.921875 0 
L 79.890625 0 
L 79.890625 32.71875 
Q 79.890625 40.578125 77.09375 44.375 
Q 74.3125 48.1875 68.609375 48.1875 
Q 61.625 48.1875 57.5625 43.546875 
Q 53.515625 38.921875 53.515625 30.90625 
L 53.515625 0 
L 44.484375 0 
L 44.484375 32.71875 
Q 44.484375 40.625 41.703125 44.40625 
Q 38.921875 48.1875 33.109375 48.1875 
Q 26.21875 48.1875 22.15625 43.53125 
Q 18.109375 38.875 18.109375 30.90625 
L 18.109375 0 
L 9.078125 0 
L 9.078125 54.6875 
L 18.109375 54.6875 
L 18.109375 46.1875 
Q 21.1875 51.21875 25.484375 53.609375 
Q 29.78125 56 35.6875 56 
Q 41.65625 56 45.828125 52.96875 
Q 50 49.953125 52 44.1875 
z
" id="DejaVuSans-6d"/>
      <path d="M 34.28125 27.484375 
Q 23.390625 27.484375 19.1875 25 
Q 14.984375 22.515625 14.984375 16.5 
Q 14.984375 11.71875 18.140625 8.90625 
Q 21.296875 6.109375 26.703125 6.109375 
Q 34.1875 6.109375 38.703125 11.40625 
Q 43.21875 16.703125 43.21875 25.484375 
L 43.21875 27.484375 
z
M 52.203125 31.203125 
L 52.203125 0 
L 43.21875 0 
L 43.21875 8.296875 
Q 40.140625 3.328125 35.546875 0.953125 
Q 30.953125 -1.421875 24.3125 -1.421875 
Q 15.921875 -1.421875 10.953125 3.296875 
Q 6 8.015625 6 15.921875 
Q 6 25.140625 12.171875 29.828125 
Q 18.359375 34.515625 30.609375 34.515625 
L 43.21875 34.515625 
L 43.21875 35.40625 
Q 43.21875 41.609375 39.140625 45 
Q 35.0625 48.390625 27.6875 48.390625 
Q 23 48.390625 18.546875 47.265625 
Q 14.109375 46.140625 10.015625 43.890625 
L 10.015625 52.203125 
Q 14.9375 54.109375 19.578125 55.046875 
Q 24.21875 56 28.609375 56 
Q 40.484375 56 46.34375 49.84375 
Q 52.203125 43.703125 52.203125 31.203125 
z
" id="DejaVuSans-61"/>
      <path d="M 5.515625 54.6875 
L 48.1875 54.6875 
L 48.1875 46.484375 
L 14.40625 7.171875 
L 48.1875 7.171875 
L 48.1875 0 
L 4.296875 0 
L 4.296875 8.203125 
L 38.09375 47.515625 
L 5.515625 47.515625 
z
" id="DejaVuSans-7a"/>
      <path d="M 31 75.875 
Q 24.46875 64.65625 21.28125 53.65625 
Q 18.109375 42.671875 18.109375 31.390625 
Q 18.109375 20.125 21.3125 9.0625 
Q 24.515625 -2 31 -13.1875 
L 23.1875 -13.1875 
Q 15.875 -1.703125 12.234375 9.375 
Q 8.59375 20.453125 8.59375 31.390625 
Q 8.59375 42.28125 12.203125 53.3125 
Q 15.828125 64.359375 23.1875 75.875 
z
" id="DejaVuSans-28"/>
      <path d="M 8.015625 75.875 
L 15.828125 75.875 
Q 23.140625 64.359375 26.78125 53.3125 
Q 30.421875 42.28125 30.421875 31.390625 
Q 30.421875 20.453125 26.78125 9.375 
Q 23.140625 -1.703125 15.828125 -13.1875 
L 8.015625 -13.1875 
Q 14.5 -2 17.703125 9.0625 
Q 20.90625 20.125 20.90625 31.390625 
Q 20.90625 42.671875 17.703125 53.65625 
Q 14.5 64.65625 8.015625 75.875 
z
" id="DejaVuSans-29"/>
     </defs>
     <g transform="translate(15.997656 61.068437)scale(0.1 -0.1)">
      <use xlink:href="#DejaVuSans-30"/>
      <use x="63.623047" xlink:href="#DejaVuSans-20"/>
      <use x="95.410156" xlink:href="#DejaVuSans-2d"/>
      <use x="131.494141" xlink:href="#DejaVuSans-20"/>
      <use x="163.28125" xlink:href="#DejaVuSans-49"/>
      <use x="192.773438" xlink:href="#DejaVuSans-45"/>
      <use x="255.957031" xlink:href="#DejaVuSans-2f"/>
      <use x="289.648438" xlink:href="#DejaVuSans-41"/>
      <use x="358.056641" xlink:href="#DejaVuSans-6d"/>
      <use x="455.46875" xlink:href="#DejaVuSans-61"/>
      <use x="516.748047" xlink:href="#DejaVuSans-7a"/>
      <use x="569.238281" xlink:href="#DejaVuSans-6f"/>
      <use x="630.419922" xlink:href="#DejaVuSans-6e"/>
      <use x="693.798828" xlink:href="#DejaVuSans-2e"/>
      <use x="725.585938" xlink:href="#DejaVuSans-63"/>
      <use x="780.566406" xlink:href="#DejaVuSans-6f"/>
      <use x="841.748047" xlink:href="#DejaVuSans-6d"/>
      <use x="939.160156" xlink:href="#DejaVuSans-20"/>
      <use x="970.947266" xlink:href="#DejaVuSans-28"/>
      <use x="1009.960938" xlink:href="#DejaVuSans-37"/>
      <use x="1073.583984" xlink:href="#DejaVuSans-2e"/>
      <use x="1105.371094" xlink:href="#DejaVuSans-36"/>
      <use x="1168.994141" xlink:href="#DejaVuSans-20"/>
      <use x="1200.78125" xlink:href="#DejaVuSans-25"/>
      <use x="1295.800781" xlink:href="#DejaVuSans-29"/>
     </g>
    </g>
    <g id="patch_13">
     <path d="M 7.997656 75.746562 
L 7.997656 75.746562 
L 7.997656 68.746562 
L 7.997656 68.746562 
z
" style="fill:#e6550d;stroke:#ffffff;stroke-linejoin:miter;"/>
    </g>
    <g id="text_13">
     <!-- 1 - ZA/IS (19.3 %) -->
     <g transform="translate(15.997656 75.746562)scale(0.1 -0.1)">
      <use xlink:href="#DejaVuSans-31"/>
      <use x="63.623047" xlink:href="#DejaVuSans-20"/>
      <use x="95.410156" xlink:href="#DejaVuSans-2d"/>
      <use x="131.494141" xlink:href="#DejaVuSans-20"/>
      <use x="163.28125" xlink:href="#DejaVuSans-5a"/>
      <use x="231.787109" xlink:href="#DejaVuSans-41"/>
      <use x="300.195312" xlink:href="#DejaVuSans-2f"/>
      <use x="333.886719" xlink:href="#DejaVuSans-49"/>
      <use x="363.378906" xlink:href="#DejaVuSans-53"/>
      <use x="426.855469" xlink:href="#DejaVuSans-20"/>
      <use x="458.642578" xlink:href="#DejaVuSans-28"/>
      <use x="497.65625" xlink:href="#DejaVuSans-31"/>
      <use x="561.279297" xlink:href="#DejaVuSans-39"/>
      <use x="624.902344" xlink:href="#DejaVuSans-2e"/>
      <use x="656.689453" xlink:href="#DejaVuSans-33"/>
      <use x="720.3125" xlink:href="#DejaVuSans-20"/>
      <use x="752.099609" xlink:href="#DejaVuSans-25"/>
      <use x="847.119141" xlink:href="#DejaVuSans-29"/>
     </g>
    </g>
    <g id="patch_14">
     <path d="M 7.997656 90.424687 
L 7.997656 90.424687 
L 7.997656 83.424687 
L 7.997656 83.424687 
z
" style="fill:#1f77b4;stroke:#ffffff;stroke-linejoin:miter;"/>
    </g>
    <g id="text_14">
     <!-- 2 - ZA/Neotel Pty Ltd (11.0 %) -->
     <defs>
      <path d="M 9.8125 72.90625 
L 23.09375 72.90625 
L 55.421875 11.921875 
L 55.421875 72.90625 
L 64.984375 72.90625 
L 64.984375 0 
L 51.703125 0 
L 19.390625 60.984375 
L 19.390625 0 
L 9.8125 0 
z
" id="DejaVuSans-4e"/>
      <path d="M 9.421875 75.984375 
L 18.40625 75.984375 
L 18.40625 0 
L 9.421875 0 
z
" id="DejaVuSans-6c"/>
      <path d="M 19.671875 64.796875 
L 19.671875 37.40625 
L 32.078125 37.40625 
Q 38.96875 37.40625 42.71875 40.96875 
Q 46.484375 44.53125 46.484375 51.125 
Q 46.484375 57.671875 42.71875 61.234375 
Q 38.96875 64.796875 32.078125 64.796875 
z
M 9.8125 72.90625 
L 32.078125 72.90625 
Q 44.34375 72.90625 50.609375 67.359375 
Q 56.890625 61.8125 56.890625 51.125 
Q 56.890625 40.328125 50.609375 34.8125 
Q 44.34375 29.296875 32.078125 29.296875 
L 19.671875 29.296875 
L 19.671875 0 
L 9.8125 0 
z
" id="DejaVuSans-50"/>
      <path d="M 9.8125 72.90625 
L 19.671875 72.90625 
L 19.671875 8.296875 
L 55.171875 8.296875 
L 55.171875 0 
L 9.8125 0 
z
" id="DejaVuSans-4c"/>
      <path d="M 45.40625 46.390625 
L 45.40625 75.984375 
L 54.390625 75.984375 
L 54.390625 0 
L 45.40625 0 
L 45.40625 8.203125 
Q 42.578125 3.328125 38.25 0.953125 
Q 33.9375 -1.421875 27.875 -1.421875 
Q 17.96875 -1.421875 11.734375 6.484375 
Q 5.515625 14.40625 5.515625 27.296875 
Q 5.515625 40.1875 11.734375 48.09375 
Q 17.96875 56 27.875 56 
Q 33.9375 56 38.25 53.625 
Q 42.578125 51.265625 45.40625 46.390625 
z
M 14.796875 27.296875 
Q 14.796875 17.390625 18.875 11.75 
Q 22.953125 6.109375 30.078125 6.109375 
Q 37.203125 6.109375 41.296875 11.75 
Q 45.40625 17.390625 45.40625 27.296875 
Q 45.40625 37.203125 41.296875 42.84375 
Q 37.203125 48.484375 30.078125 48.484375 
Q 22.953125 48.484375 18.875 42.84375 
Q 14.796875 37.203125 14.796875 27.296875 
z
" id="DejaVuSans-64"/>
     </defs>
     <g transform="translate(15.997656 90.424687)scale(0.1 -0.1)">
      <use xlink:href="#DejaVuSans-32"/>
      <use x="63.623047" xlink:href="#DejaVuSans-20"/>
      <use x="95.410156" xlink:href="#DejaVuSans-2d"/>
      <use x="131.494141" xlink:href="#DejaVuSans-20"/>
      <use x="163.28125" xlink:href="#DejaVuSans-5a"/>
      <use x="231.787109" xlink:href="#DejaVuSans-41"/>
      <use x="300.195312" xlink:href="#DejaVuSans-2f"/>
      <use x="333.886719" xlink:href="#DejaVuSans-4e"/>
      <use x="408.691406" xlink:href="#DejaVuSans-65"/>
      <use x="470.214844" xlink:href="#DejaVuSans-6f"/>
      <use x="531.396484" xlink:href="#DejaVuSans-74"/>
      <use x="570.605469" xlink:href="#DejaVuSans-65"/>
      <use x="632.128906" xlink:href="#DejaVuSans-6c"/>
      <use x="659.912109" xlink:href="#DejaVuSans-20"/>
      <use x="691.699219" xlink:href="#DejaVuSans-50"/>
      <use x="752.001953" xlink:href="#DejaVuSans-74"/>
      <use x="791.210938" xlink:href="#DejaVuSans-79"/>
      <use x="850.390625" xlink:href="#DejaVuSans-20"/>
      <use x="882.177734" xlink:href="#DejaVuSans-4c"/>
      <use x="937.890625" xlink:href="#DejaVuSans-74"/>
      <use x="977.099609" xlink:href="#DejaVuSans-64"/>
      <use x="1040.576172" xlink:href="#DejaVuSans-20"/>
      <use x="1072.363281" xlink:href="#DejaVuSans-28"/>
      <use x="1111.376953" xlink:href="#DejaVuSans-31"/>
      <use x="1175" xlink:href="#DejaVuSans-31"/>
      <use x="1238.623047" xlink:href="#DejaVuSans-2e"/>
      <use x="1270.410156" xlink:href="#DejaVuSans-30"/>
      <use x="1334.033203" xlink:href="#DejaVuSans-20"/>
      <use x="1365.820312" xlink:href="#DejaVuSans-25"/>
      <use x="1460.839844" xlink:href="#DejaVuSans-29"/>
     </g>
    </g>
    <g id="patch_15">
     <path d="M 7.997656 105.102812 
L 7.997656 105.102812 
L 7.997656 98.102812 
L 7.997656 98.102812 
z
" style="fill:#ff7f0e;stroke:#ffffff;stroke-linejoin:miter;"/>
    </g>
    <g id="text_15">
     <!-- 3 - ZA/SITA-AS (10.4 %) -->
     <defs>
      <path d="M -0.296875 72.90625 
L 61.375 72.90625 
L 61.375 64.59375 
L 35.5 64.59375 
L 35.5 0 
L 25.59375 0 
L 25.59375 64.59375 
L -0.296875 64.59375 
z
" id="DejaVuSans-54"/>
     </defs>
     <g transform="translate(15.997656 105.102812)scale(0.1 -0.1)">
      <use xlink:href="#DejaVuSans-33"/>
      <use x="63.623047" xlink:href="#DejaVuSans-20"/>
      <use x="95.410156" xlink:href="#DejaVuSans-2d"/>
      <use x="131.494141" xlink:href="#DejaVuSans-20"/>
      <use x="163.28125" xlink:href="#DejaVuSans-5a"/>
      <use x="231.787109" xlink:href="#DejaVuSans-41"/>
      <use x="300.195312" xlink:href="#DejaVuSans-2f"/>
      <use x="333.886719" xlink:href="#DejaVuSans-53"/>
      <use x="397.363281" xlink:href="#DejaVuSans-49"/>
      <use x="426.855469" xlink:href="#DejaVuSans-54"/>
      <use x="487.830078" xlink:href="#DejaVuSans-41"/>
      <use x="556.207031" xlink:href="#DejaVuSans-2d"/>
      <use x="592.259766" xlink:href="#DejaVuSans-41"/>
      <use x="660.667969" xlink:href="#DejaVuSans-53"/>
      <use x="724.144531" xlink:href="#DejaVuSans-20"/>
      <use x="755.931641" xlink:href="#DejaVuSans-28"/>
      <use x="794.945312" xlink:href="#DejaVuSans-31"/>
      <use x="858.568359" xlink:href="#DejaVuSans-30"/>
      <use x="922.191406" xlink:href="#DejaVuSans-2e"/>
      <use x="953.978516" xlink:href="#DejaVuSans-34"/>
      <use x="1017.601562" xlink:href="#DejaVuSans-20"/>
      <use x="1049.388672" xlink:href="#DejaVuSans-25"/>
      <use x="1144.408203" xlink:href="#DejaVuSans-29"/>
     </g>
    </g>
    <g id="patch_16">
     <path d="M 7.997656 119.780937 
L 7.997656 119.780937 
L 7.997656 112.780937 
L 7.997656 112.780937 
z
" style="fill:#2ca02c;stroke:#ffffff;stroke-linejoin:miter;"/>
    </g>
    <g id="text_16">
     <!-- 4 - ZA/Telkom-Internet (39.9 %) -->
     <defs>
      <path d="M 9.078125 75.984375 
L 18.109375 75.984375 
L 18.109375 31.109375 
L 44.921875 54.6875 
L 56.390625 54.6875 
L 27.390625 29.109375 
L 57.625 0 
L 45.90625 0 
L 18.109375 26.703125 
L 18.109375 0 
L 9.078125 0 
z
" id="DejaVuSans-6b"/>
     </defs>
     <g transform="translate(15.997656 119.780937)scale(0.1 -0.1)">
      <use xlink:href="#DejaVuSans-34"/>
      <use x="63.623047" xlink:href="#DejaVuSans-20"/>
      <use x="95.410156" xlink:href="#DejaVuSans-2d"/>
      <use x="131.494141" xlink:href="#DejaVuSans-20"/>
      <use x="163.28125" xlink:href="#DejaVuSans-5a"/>
      <use x="231.787109" xlink:href="#DejaVuSans-41"/>
      <use x="300.195312" xlink:href="#DejaVuSans-2f"/>
      <use x="333.886719" xlink:href="#DejaVuSans-54"/>
      <use x="394.705078" xlink:href="#DejaVuSans-65"/>
      <use x="456.228516" xlink:href="#DejaVuSans-6c"/>
      <use x="484.011719" xlink:href="#DejaVuSans-6b"/>
      <use x="541.875" xlink:href="#DejaVuSans-6f"/>
      <use x="603.056641" xlink:href="#DejaVuSans-6d"/>
      <use x="700.46875" xlink:href="#DejaVuSans-2d"/>
      <use x="736.552734" xlink:href="#DejaVuSans-49"/>
      <use x="766.044922" xlink:href="#DejaVuSans-6e"/>
      <use x="829.423828" xlink:href="#DejaVuSans-74"/>
      <use x="868.632812" xlink:href="#DejaVuSans-65"/>
      <use x="930.15625" xlink:href="#DejaVuSans-72"/>
      <use x="971.253906" xlink:href="#DejaVuSans-6e"/>
      <use x="1034.632812" xlink:href="#DejaVuSans-65"/>
      <use x="1096.15625" xlink:href="#DejaVuSans-74"/>
      <use x="1135.365234" xlink:href="#DejaVuSans-20"/>
      <use x="1167.152344" xlink:href="#DejaVuSans-28"/>
      <use x="1206.166016" xlink:href="#DejaVuSans-33"/>
      <use x="1269.789062" xlink:href="#DejaVuSans-39"/>
      <use x="1333.412109" xlink:href="#DejaVuSans-2e"/>
      <use x="1365.199219" xlink:href="#DejaVuSans-39"/>
      <use x="1428.822266" xlink:href="#DejaVuSans-20"/>
      <use x="1460.609375" xlink:href="#DejaVuSans-25"/>
      <use x="1555.628906" xlink:href="#DejaVuSans-29"/>
     </g>
    </g>
    <g id="patch_17">
     <path d="M 7.997656 134.459062 
L 7.997656 134.459062 
L 7.997656 127.459062 
L 7.997656 127.459062 
z
" style="fill:#d62728;stroke:#ffffff;stroke-linejoin:miter;"/>
    </g>
    <g id="text_17">
     <!-- 5 - ZA/Vodacom-VB (11.8 %) -->
     <defs>
      <path d="M 28.609375 0 
L 0.78125 72.90625 
L 11.078125 72.90625 
L 34.1875 11.53125 
L 57.328125 72.90625 
L 67.578125 72.90625 
L 39.796875 0 
z
" id="DejaVuSans-56"/>
      <path d="M 19.671875 34.8125 
L 19.671875 8.109375 
L 35.5 8.109375 
Q 43.453125 8.109375 47.28125 11.40625 
Q 51.125 14.703125 51.125 21.484375 
Q 51.125 28.328125 47.28125 31.5625 
Q 43.453125 34.8125 35.5 34.8125 
z
M 19.671875 64.796875 
L 19.671875 42.828125 
L 34.28125 42.828125 
Q 41.5 42.828125 45.03125 45.53125 
Q 48.578125 48.25 48.578125 53.8125 
Q 48.578125 59.328125 45.03125 62.0625 
Q 41.5 64.796875 34.28125 64.796875 
z
M 9.8125 72.90625 
L 35.015625 72.90625 
Q 46.296875 72.90625 52.390625 68.21875 
Q 58.5 63.53125 58.5 54.890625 
Q 58.5 48.1875 55.375 44.234375 
Q 52.25 40.28125 46.1875 39.3125 
Q 53.46875 37.75 57.5 32.78125 
Q 61.53125 27.828125 61.53125 20.40625 
Q 61.53125 10.640625 54.890625 5.3125 
Q 48.25 0 35.984375 0 
L 9.8125 0 
z
" id="DejaVuSans-42"/>
      <path d="M 31.78125 34.625 
Q 24.75 34.625 20.71875 30.859375 
Q 16.703125 27.09375 16.703125 20.515625 
Q 16.703125 13.921875 20.71875 10.15625 
Q 24.75 6.390625 31.78125 6.390625 
Q 38.8125 6.390625 42.859375 10.171875 
Q 46.921875 13.96875 46.921875 20.515625 
Q 46.921875 27.09375 42.890625 30.859375 
Q 38.875 34.625 31.78125 34.625 
z
M 21.921875 38.8125 
Q 15.578125 40.375 12.03125 44.71875 
Q 8.5 49.078125 8.5 55.328125 
Q 8.5 64.0625 14.71875 69.140625 
Q 20.953125 74.21875 31.78125 74.21875 
Q 42.671875 74.21875 48.875 69.140625 
Q 55.078125 64.0625 55.078125 55.328125 
Q 55.078125 49.078125 51.53125 44.71875 
Q 48 40.375 41.703125 38.8125 
Q 48.828125 37.15625 52.796875 32.3125 
Q 56.78125 27.484375 56.78125 20.515625 
Q 56.78125 9.90625 50.3125 4.234375 
Q 43.84375 -1.421875 31.78125 -1.421875 
Q 19.734375 -1.421875 13.25 4.234375 
Q 6.78125 9.90625 6.78125 20.515625 
Q 6.78125 27.484375 10.78125 32.3125 
Q 14.796875 37.15625 21.921875 38.8125 
z
M 18.3125 54.390625 
Q 18.3125 48.734375 21.84375 45.5625 
Q 25.390625 42.390625 31.78125 42.390625 
Q 38.140625 42.390625 41.71875 45.5625 
Q 45.3125 48.734375 45.3125 54.390625 
Q 45.3125 60.0625 41.71875 63.234375 
Q 38.140625 66.40625 31.78125 66.40625 
Q 25.390625 66.40625 21.84375 63.234375 
Q 18.3125 60.0625 18.3125 54.390625 
z
" id="DejaVuSans-38"/>
     </defs>
     <g transform="translate(15.997656 134.459062)scale(0.1 -0.1)">
      <use xlink:href="#DejaVuSans-35"/>
      <use x="63.623047" xlink:href="#DejaVuSans-20"/>
      <use x="95.410156" xlink:href="#DejaVuSans-2d"/>
      <use x="131.494141" xlink:href="#DejaVuSans-20"/>
      <use x="163.28125" xlink:href="#DejaVuSans-5a"/>
      <use x="231.787109" xlink:href="#DejaVuSans-41"/>
      <use x="300.195312" xlink:href="#DejaVuSans-2f"/>
      <use x="333.886719" xlink:href="#DejaVuSans-56"/>
      <use x="402.185547" xlink:href="#DejaVuSans-6f"/>
      <use x="463.367188" xlink:href="#DejaVuSans-64"/>
      <use x="526.84375" xlink:href="#DejaVuSans-61"/>
      <use x="588.123047" xlink:href="#DejaVuSans-63"/>
      <use x="643.103516" xlink:href="#DejaVuSans-6f"/>
      <use x="704.285156" xlink:href="#DejaVuSans-6d"/>
      <use x="801.697266" xlink:href="#DejaVuSans-2d"/>
      <use x="837.703125" xlink:href="#DejaVuSans-56"/>
      <use x="906.111328" xlink:href="#DejaVuSans-42"/>
      <use x="974.714844" xlink:href="#DejaVuSans-20"/>
      <use x="1006.501953" xlink:href="#DejaVuSans-28"/>
      <use x="1045.515625" xlink:href="#DejaVuSans-31"/>
      <use x="1109.138672" xlink:href="#DejaVuSans-31"/>
      <use x="1172.761719" xlink:href="#DejaVuSans-2e"/>
      <use x="1204.548828" xlink:href="#DejaVuSans-38"/>
      <use x="1268.171875" xlink:href="#DejaVuSans-20"/>
      <use x="1299.958984" xlink:href="#DejaVuSans-25"/>
      <use x="1394.978516" xlink:href="#DejaVuSans-29"/>
     </g>
    </g>
   </g>
  </g>
 </g>
 <defs>
  <clipPath id="pb1ae2c48b8">
   <rect height="248.82" width="310.990625" x="106.709375" y="168.88"/>
  </clipPath>
 </defs>
</svg>
